G04 #@! TF.GenerationSoftware,KiCad,Pcbnew,5.1.3-ffb9f22~84~ubuntu19.04.1*
G04 #@! TF.CreationDate,2019-08-06T17:14:25+02:00*
G04 #@! TF.ProjectId,420-transmitter,3432302d-7472-4616-9e73-6d6974746572,rev?*
G04 #@! TF.SameCoordinates,Original*
G04 #@! TF.FileFunction,Paste,Bot*
G04 #@! TF.FilePolarity,Positive*
%FSLAX46Y46*%
G04 Gerber Fmt 4.6, Leading zero omitted, Abs format (unit mm)*
G04 Created by KiCad (PCBNEW 5.1.3-ffb9f22~84~ubuntu19.04.1) date 2019-08-06 17:14:25*
%MOMM*%
%LPD*%
G04 APERTURE LIST*
%ADD10C,0.100000*%
%ADD11C,0.975000*%
G04 APERTURE END LIST*
D10*
G36*
X177239942Y-62865974D02*
G01*
X177263603Y-62869484D01*
X177286807Y-62875296D01*
X177309329Y-62883354D01*
X177330953Y-62893582D01*
X177351470Y-62905879D01*
X177370683Y-62920129D01*
X177388407Y-62936193D01*
X177404471Y-62953917D01*
X177418721Y-62973130D01*
X177431018Y-62993647D01*
X177441246Y-63015271D01*
X177449304Y-63037793D01*
X177455116Y-63060997D01*
X177458626Y-63084658D01*
X177459800Y-63108550D01*
X177459800Y-63596050D01*
X177458626Y-63619942D01*
X177455116Y-63643603D01*
X177449304Y-63666807D01*
X177441246Y-63689329D01*
X177431018Y-63710953D01*
X177418721Y-63731470D01*
X177404471Y-63750683D01*
X177388407Y-63768407D01*
X177370683Y-63784471D01*
X177351470Y-63798721D01*
X177330953Y-63811018D01*
X177309329Y-63821246D01*
X177286807Y-63829304D01*
X177263603Y-63835116D01*
X177239942Y-63838626D01*
X177216050Y-63839800D01*
X176303550Y-63839800D01*
X176279658Y-63838626D01*
X176255997Y-63835116D01*
X176232793Y-63829304D01*
X176210271Y-63821246D01*
X176188647Y-63811018D01*
X176168130Y-63798721D01*
X176148917Y-63784471D01*
X176131193Y-63768407D01*
X176115129Y-63750683D01*
X176100879Y-63731470D01*
X176088582Y-63710953D01*
X176078354Y-63689329D01*
X176070296Y-63666807D01*
X176064484Y-63643603D01*
X176060974Y-63619942D01*
X176059800Y-63596050D01*
X176059800Y-63108550D01*
X176060974Y-63084658D01*
X176064484Y-63060997D01*
X176070296Y-63037793D01*
X176078354Y-63015271D01*
X176088582Y-62993647D01*
X176100879Y-62973130D01*
X176115129Y-62953917D01*
X176131193Y-62936193D01*
X176148917Y-62920129D01*
X176168130Y-62905879D01*
X176188647Y-62893582D01*
X176210271Y-62883354D01*
X176232793Y-62875296D01*
X176255997Y-62869484D01*
X176279658Y-62865974D01*
X176303550Y-62864800D01*
X177216050Y-62864800D01*
X177239942Y-62865974D01*
X177239942Y-62865974D01*
G37*
D11*
X176759800Y-63352300D03*
D10*
G36*
X177239942Y-60990974D02*
G01*
X177263603Y-60994484D01*
X177286807Y-61000296D01*
X177309329Y-61008354D01*
X177330953Y-61018582D01*
X177351470Y-61030879D01*
X177370683Y-61045129D01*
X177388407Y-61061193D01*
X177404471Y-61078917D01*
X177418721Y-61098130D01*
X177431018Y-61118647D01*
X177441246Y-61140271D01*
X177449304Y-61162793D01*
X177455116Y-61185997D01*
X177458626Y-61209658D01*
X177459800Y-61233550D01*
X177459800Y-61721050D01*
X177458626Y-61744942D01*
X177455116Y-61768603D01*
X177449304Y-61791807D01*
X177441246Y-61814329D01*
X177431018Y-61835953D01*
X177418721Y-61856470D01*
X177404471Y-61875683D01*
X177388407Y-61893407D01*
X177370683Y-61909471D01*
X177351470Y-61923721D01*
X177330953Y-61936018D01*
X177309329Y-61946246D01*
X177286807Y-61954304D01*
X177263603Y-61960116D01*
X177239942Y-61963626D01*
X177216050Y-61964800D01*
X176303550Y-61964800D01*
X176279658Y-61963626D01*
X176255997Y-61960116D01*
X176232793Y-61954304D01*
X176210271Y-61946246D01*
X176188647Y-61936018D01*
X176168130Y-61923721D01*
X176148917Y-61909471D01*
X176131193Y-61893407D01*
X176115129Y-61875683D01*
X176100879Y-61856470D01*
X176088582Y-61835953D01*
X176078354Y-61814329D01*
X176070296Y-61791807D01*
X176064484Y-61768603D01*
X176060974Y-61744942D01*
X176059800Y-61721050D01*
X176059800Y-61233550D01*
X176060974Y-61209658D01*
X176064484Y-61185997D01*
X176070296Y-61162793D01*
X176078354Y-61140271D01*
X176088582Y-61118647D01*
X176100879Y-61098130D01*
X176115129Y-61078917D01*
X176131193Y-61061193D01*
X176148917Y-61045129D01*
X176168130Y-61030879D01*
X176188647Y-61018582D01*
X176210271Y-61008354D01*
X176232793Y-61000296D01*
X176255997Y-60994484D01*
X176279658Y-60990974D01*
X176303550Y-60989800D01*
X177216050Y-60989800D01*
X177239942Y-60990974D01*
X177239942Y-60990974D01*
G37*
D11*
X176759800Y-61477300D03*
D10*
G36*
X177239942Y-66557974D02*
G01*
X177263603Y-66561484D01*
X177286807Y-66567296D01*
X177309329Y-66575354D01*
X177330953Y-66585582D01*
X177351470Y-66597879D01*
X177370683Y-66612129D01*
X177388407Y-66628193D01*
X177404471Y-66645917D01*
X177418721Y-66665130D01*
X177431018Y-66685647D01*
X177441246Y-66707271D01*
X177449304Y-66729793D01*
X177455116Y-66752997D01*
X177458626Y-66776658D01*
X177459800Y-66800550D01*
X177459800Y-67288050D01*
X177458626Y-67311942D01*
X177455116Y-67335603D01*
X177449304Y-67358807D01*
X177441246Y-67381329D01*
X177431018Y-67402953D01*
X177418721Y-67423470D01*
X177404471Y-67442683D01*
X177388407Y-67460407D01*
X177370683Y-67476471D01*
X177351470Y-67490721D01*
X177330953Y-67503018D01*
X177309329Y-67513246D01*
X177286807Y-67521304D01*
X177263603Y-67527116D01*
X177239942Y-67530626D01*
X177216050Y-67531800D01*
X176303550Y-67531800D01*
X176279658Y-67530626D01*
X176255997Y-67527116D01*
X176232793Y-67521304D01*
X176210271Y-67513246D01*
X176188647Y-67503018D01*
X176168130Y-67490721D01*
X176148917Y-67476471D01*
X176131193Y-67460407D01*
X176115129Y-67442683D01*
X176100879Y-67423470D01*
X176088582Y-67402953D01*
X176078354Y-67381329D01*
X176070296Y-67358807D01*
X176064484Y-67335603D01*
X176060974Y-67311942D01*
X176059800Y-67288050D01*
X176059800Y-66800550D01*
X176060974Y-66776658D01*
X176064484Y-66752997D01*
X176070296Y-66729793D01*
X176078354Y-66707271D01*
X176088582Y-66685647D01*
X176100879Y-66665130D01*
X176115129Y-66645917D01*
X176131193Y-66628193D01*
X176148917Y-66612129D01*
X176168130Y-66597879D01*
X176188647Y-66585582D01*
X176210271Y-66575354D01*
X176232793Y-66567296D01*
X176255997Y-66561484D01*
X176279658Y-66557974D01*
X176303550Y-66556800D01*
X177216050Y-66556800D01*
X177239942Y-66557974D01*
X177239942Y-66557974D01*
G37*
D11*
X176759800Y-67044300D03*
D10*
G36*
X177239942Y-64682974D02*
G01*
X177263603Y-64686484D01*
X177286807Y-64692296D01*
X177309329Y-64700354D01*
X177330953Y-64710582D01*
X177351470Y-64722879D01*
X177370683Y-64737129D01*
X177388407Y-64753193D01*
X177404471Y-64770917D01*
X177418721Y-64790130D01*
X177431018Y-64810647D01*
X177441246Y-64832271D01*
X177449304Y-64854793D01*
X177455116Y-64877997D01*
X177458626Y-64901658D01*
X177459800Y-64925550D01*
X177459800Y-65413050D01*
X177458626Y-65436942D01*
X177455116Y-65460603D01*
X177449304Y-65483807D01*
X177441246Y-65506329D01*
X177431018Y-65527953D01*
X177418721Y-65548470D01*
X177404471Y-65567683D01*
X177388407Y-65585407D01*
X177370683Y-65601471D01*
X177351470Y-65615721D01*
X177330953Y-65628018D01*
X177309329Y-65638246D01*
X177286807Y-65646304D01*
X177263603Y-65652116D01*
X177239942Y-65655626D01*
X177216050Y-65656800D01*
X176303550Y-65656800D01*
X176279658Y-65655626D01*
X176255997Y-65652116D01*
X176232793Y-65646304D01*
X176210271Y-65638246D01*
X176188647Y-65628018D01*
X176168130Y-65615721D01*
X176148917Y-65601471D01*
X176131193Y-65585407D01*
X176115129Y-65567683D01*
X176100879Y-65548470D01*
X176088582Y-65527953D01*
X176078354Y-65506329D01*
X176070296Y-65483807D01*
X176064484Y-65460603D01*
X176060974Y-65436942D01*
X176059800Y-65413050D01*
X176059800Y-64925550D01*
X176060974Y-64901658D01*
X176064484Y-64877997D01*
X176070296Y-64854793D01*
X176078354Y-64832271D01*
X176088582Y-64810647D01*
X176100879Y-64790130D01*
X176115129Y-64770917D01*
X176131193Y-64753193D01*
X176148917Y-64737129D01*
X176168130Y-64722879D01*
X176188647Y-64710582D01*
X176210271Y-64700354D01*
X176232793Y-64692296D01*
X176255997Y-64686484D01*
X176279658Y-64682974D01*
X176303550Y-64681800D01*
X177216050Y-64681800D01*
X177239942Y-64682974D01*
X177239942Y-64682974D01*
G37*
D11*
X176759800Y-65169300D03*
D10*
G36*
X174831942Y-60990974D02*
G01*
X174855603Y-60994484D01*
X174878807Y-61000296D01*
X174901329Y-61008354D01*
X174922953Y-61018582D01*
X174943470Y-61030879D01*
X174962683Y-61045129D01*
X174980407Y-61061193D01*
X174996471Y-61078917D01*
X175010721Y-61098130D01*
X175023018Y-61118647D01*
X175033246Y-61140271D01*
X175041304Y-61162793D01*
X175047116Y-61185997D01*
X175050626Y-61209658D01*
X175051800Y-61233550D01*
X175051800Y-61721050D01*
X175050626Y-61744942D01*
X175047116Y-61768603D01*
X175041304Y-61791807D01*
X175033246Y-61814329D01*
X175023018Y-61835953D01*
X175010721Y-61856470D01*
X174996471Y-61875683D01*
X174980407Y-61893407D01*
X174962683Y-61909471D01*
X174943470Y-61923721D01*
X174922953Y-61936018D01*
X174901329Y-61946246D01*
X174878807Y-61954304D01*
X174855603Y-61960116D01*
X174831942Y-61963626D01*
X174808050Y-61964800D01*
X173895550Y-61964800D01*
X173871658Y-61963626D01*
X173847997Y-61960116D01*
X173824793Y-61954304D01*
X173802271Y-61946246D01*
X173780647Y-61936018D01*
X173760130Y-61923721D01*
X173740917Y-61909471D01*
X173723193Y-61893407D01*
X173707129Y-61875683D01*
X173692879Y-61856470D01*
X173680582Y-61835953D01*
X173670354Y-61814329D01*
X173662296Y-61791807D01*
X173656484Y-61768603D01*
X173652974Y-61744942D01*
X173651800Y-61721050D01*
X173651800Y-61233550D01*
X173652974Y-61209658D01*
X173656484Y-61185997D01*
X173662296Y-61162793D01*
X173670354Y-61140271D01*
X173680582Y-61118647D01*
X173692879Y-61098130D01*
X173707129Y-61078917D01*
X173723193Y-61061193D01*
X173740917Y-61045129D01*
X173760130Y-61030879D01*
X173780647Y-61018582D01*
X173802271Y-61008354D01*
X173824793Y-61000296D01*
X173847997Y-60994484D01*
X173871658Y-60990974D01*
X173895550Y-60989800D01*
X174808050Y-60989800D01*
X174831942Y-60990974D01*
X174831942Y-60990974D01*
G37*
D11*
X174351800Y-61477300D03*
D10*
G36*
X174831942Y-62865974D02*
G01*
X174855603Y-62869484D01*
X174878807Y-62875296D01*
X174901329Y-62883354D01*
X174922953Y-62893582D01*
X174943470Y-62905879D01*
X174962683Y-62920129D01*
X174980407Y-62936193D01*
X174996471Y-62953917D01*
X175010721Y-62973130D01*
X175023018Y-62993647D01*
X175033246Y-63015271D01*
X175041304Y-63037793D01*
X175047116Y-63060997D01*
X175050626Y-63084658D01*
X175051800Y-63108550D01*
X175051800Y-63596050D01*
X175050626Y-63619942D01*
X175047116Y-63643603D01*
X175041304Y-63666807D01*
X175033246Y-63689329D01*
X175023018Y-63710953D01*
X175010721Y-63731470D01*
X174996471Y-63750683D01*
X174980407Y-63768407D01*
X174962683Y-63784471D01*
X174943470Y-63798721D01*
X174922953Y-63811018D01*
X174901329Y-63821246D01*
X174878807Y-63829304D01*
X174855603Y-63835116D01*
X174831942Y-63838626D01*
X174808050Y-63839800D01*
X173895550Y-63839800D01*
X173871658Y-63838626D01*
X173847997Y-63835116D01*
X173824793Y-63829304D01*
X173802271Y-63821246D01*
X173780647Y-63811018D01*
X173760130Y-63798721D01*
X173740917Y-63784471D01*
X173723193Y-63768407D01*
X173707129Y-63750683D01*
X173692879Y-63731470D01*
X173680582Y-63710953D01*
X173670354Y-63689329D01*
X173662296Y-63666807D01*
X173656484Y-63643603D01*
X173652974Y-63619942D01*
X173651800Y-63596050D01*
X173651800Y-63108550D01*
X173652974Y-63084658D01*
X173656484Y-63060997D01*
X173662296Y-63037793D01*
X173670354Y-63015271D01*
X173680582Y-62993647D01*
X173692879Y-62973130D01*
X173707129Y-62953917D01*
X173723193Y-62936193D01*
X173740917Y-62920129D01*
X173760130Y-62905879D01*
X173780647Y-62893582D01*
X173802271Y-62883354D01*
X173824793Y-62875296D01*
X173847997Y-62869484D01*
X173871658Y-62865974D01*
X173895550Y-62864800D01*
X174808050Y-62864800D01*
X174831942Y-62865974D01*
X174831942Y-62865974D01*
G37*
D11*
X174351800Y-63352300D03*
D10*
G36*
X174831942Y-64682974D02*
G01*
X174855603Y-64686484D01*
X174878807Y-64692296D01*
X174901329Y-64700354D01*
X174922953Y-64710582D01*
X174943470Y-64722879D01*
X174962683Y-64737129D01*
X174980407Y-64753193D01*
X174996471Y-64770917D01*
X175010721Y-64790130D01*
X175023018Y-64810647D01*
X175033246Y-64832271D01*
X175041304Y-64854793D01*
X175047116Y-64877997D01*
X175050626Y-64901658D01*
X175051800Y-64925550D01*
X175051800Y-65413050D01*
X175050626Y-65436942D01*
X175047116Y-65460603D01*
X175041304Y-65483807D01*
X175033246Y-65506329D01*
X175023018Y-65527953D01*
X175010721Y-65548470D01*
X174996471Y-65567683D01*
X174980407Y-65585407D01*
X174962683Y-65601471D01*
X174943470Y-65615721D01*
X174922953Y-65628018D01*
X174901329Y-65638246D01*
X174878807Y-65646304D01*
X174855603Y-65652116D01*
X174831942Y-65655626D01*
X174808050Y-65656800D01*
X173895550Y-65656800D01*
X173871658Y-65655626D01*
X173847997Y-65652116D01*
X173824793Y-65646304D01*
X173802271Y-65638246D01*
X173780647Y-65628018D01*
X173760130Y-65615721D01*
X173740917Y-65601471D01*
X173723193Y-65585407D01*
X173707129Y-65567683D01*
X173692879Y-65548470D01*
X173680582Y-65527953D01*
X173670354Y-65506329D01*
X173662296Y-65483807D01*
X173656484Y-65460603D01*
X173652974Y-65436942D01*
X173651800Y-65413050D01*
X173651800Y-64925550D01*
X173652974Y-64901658D01*
X173656484Y-64877997D01*
X173662296Y-64854793D01*
X173670354Y-64832271D01*
X173680582Y-64810647D01*
X173692879Y-64790130D01*
X173707129Y-64770917D01*
X173723193Y-64753193D01*
X173740917Y-64737129D01*
X173760130Y-64722879D01*
X173780647Y-64710582D01*
X173802271Y-64700354D01*
X173824793Y-64692296D01*
X173847997Y-64686484D01*
X173871658Y-64682974D01*
X173895550Y-64681800D01*
X174808050Y-64681800D01*
X174831942Y-64682974D01*
X174831942Y-64682974D01*
G37*
D11*
X174351800Y-65169300D03*
D10*
G36*
X174831942Y-66557974D02*
G01*
X174855603Y-66561484D01*
X174878807Y-66567296D01*
X174901329Y-66575354D01*
X174922953Y-66585582D01*
X174943470Y-66597879D01*
X174962683Y-66612129D01*
X174980407Y-66628193D01*
X174996471Y-66645917D01*
X175010721Y-66665130D01*
X175023018Y-66685647D01*
X175033246Y-66707271D01*
X175041304Y-66729793D01*
X175047116Y-66752997D01*
X175050626Y-66776658D01*
X175051800Y-66800550D01*
X175051800Y-67288050D01*
X175050626Y-67311942D01*
X175047116Y-67335603D01*
X175041304Y-67358807D01*
X175033246Y-67381329D01*
X175023018Y-67402953D01*
X175010721Y-67423470D01*
X174996471Y-67442683D01*
X174980407Y-67460407D01*
X174962683Y-67476471D01*
X174943470Y-67490721D01*
X174922953Y-67503018D01*
X174901329Y-67513246D01*
X174878807Y-67521304D01*
X174855603Y-67527116D01*
X174831942Y-67530626D01*
X174808050Y-67531800D01*
X173895550Y-67531800D01*
X173871658Y-67530626D01*
X173847997Y-67527116D01*
X173824793Y-67521304D01*
X173802271Y-67513246D01*
X173780647Y-67503018D01*
X173760130Y-67490721D01*
X173740917Y-67476471D01*
X173723193Y-67460407D01*
X173707129Y-67442683D01*
X173692879Y-67423470D01*
X173680582Y-67402953D01*
X173670354Y-67381329D01*
X173662296Y-67358807D01*
X173656484Y-67335603D01*
X173652974Y-67311942D01*
X173651800Y-67288050D01*
X173651800Y-66800550D01*
X173652974Y-66776658D01*
X173656484Y-66752997D01*
X173662296Y-66729793D01*
X173670354Y-66707271D01*
X173680582Y-66685647D01*
X173692879Y-66665130D01*
X173707129Y-66645917D01*
X173723193Y-66628193D01*
X173740917Y-66612129D01*
X173760130Y-66597879D01*
X173780647Y-66585582D01*
X173802271Y-66575354D01*
X173824793Y-66567296D01*
X173847997Y-66561484D01*
X173871658Y-66557974D01*
X173895550Y-66556800D01*
X174808050Y-66556800D01*
X174831942Y-66557974D01*
X174831942Y-66557974D01*
G37*
D11*
X174351800Y-67044300D03*
D10*
G36*
X175110942Y-95408974D02*
G01*
X175134603Y-95412484D01*
X175157807Y-95418296D01*
X175180329Y-95426354D01*
X175201953Y-95436582D01*
X175222470Y-95448879D01*
X175241683Y-95463129D01*
X175259407Y-95479193D01*
X175275471Y-95496917D01*
X175289721Y-95516130D01*
X175302018Y-95536647D01*
X175312246Y-95558271D01*
X175320304Y-95580793D01*
X175326116Y-95603997D01*
X175329626Y-95627658D01*
X175330800Y-95651550D01*
X175330800Y-96139050D01*
X175329626Y-96162942D01*
X175326116Y-96186603D01*
X175320304Y-96209807D01*
X175312246Y-96232329D01*
X175302018Y-96253953D01*
X175289721Y-96274470D01*
X175275471Y-96293683D01*
X175259407Y-96311407D01*
X175241683Y-96327471D01*
X175222470Y-96341721D01*
X175201953Y-96354018D01*
X175180329Y-96364246D01*
X175157807Y-96372304D01*
X175134603Y-96378116D01*
X175110942Y-96381626D01*
X175087050Y-96382800D01*
X174174550Y-96382800D01*
X174150658Y-96381626D01*
X174126997Y-96378116D01*
X174103793Y-96372304D01*
X174081271Y-96364246D01*
X174059647Y-96354018D01*
X174039130Y-96341721D01*
X174019917Y-96327471D01*
X174002193Y-96311407D01*
X173986129Y-96293683D01*
X173971879Y-96274470D01*
X173959582Y-96253953D01*
X173949354Y-96232329D01*
X173941296Y-96209807D01*
X173935484Y-96186603D01*
X173931974Y-96162942D01*
X173930800Y-96139050D01*
X173930800Y-95651550D01*
X173931974Y-95627658D01*
X173935484Y-95603997D01*
X173941296Y-95580793D01*
X173949354Y-95558271D01*
X173959582Y-95536647D01*
X173971879Y-95516130D01*
X173986129Y-95496917D01*
X174002193Y-95479193D01*
X174019917Y-95463129D01*
X174039130Y-95448879D01*
X174059647Y-95436582D01*
X174081271Y-95426354D01*
X174103793Y-95418296D01*
X174126997Y-95412484D01*
X174150658Y-95408974D01*
X174174550Y-95407800D01*
X175087050Y-95407800D01*
X175110942Y-95408974D01*
X175110942Y-95408974D01*
G37*
D11*
X174630800Y-95895300D03*
D10*
G36*
X175110942Y-93533974D02*
G01*
X175134603Y-93537484D01*
X175157807Y-93543296D01*
X175180329Y-93551354D01*
X175201953Y-93561582D01*
X175222470Y-93573879D01*
X175241683Y-93588129D01*
X175259407Y-93604193D01*
X175275471Y-93621917D01*
X175289721Y-93641130D01*
X175302018Y-93661647D01*
X175312246Y-93683271D01*
X175320304Y-93705793D01*
X175326116Y-93728997D01*
X175329626Y-93752658D01*
X175330800Y-93776550D01*
X175330800Y-94264050D01*
X175329626Y-94287942D01*
X175326116Y-94311603D01*
X175320304Y-94334807D01*
X175312246Y-94357329D01*
X175302018Y-94378953D01*
X175289721Y-94399470D01*
X175275471Y-94418683D01*
X175259407Y-94436407D01*
X175241683Y-94452471D01*
X175222470Y-94466721D01*
X175201953Y-94479018D01*
X175180329Y-94489246D01*
X175157807Y-94497304D01*
X175134603Y-94503116D01*
X175110942Y-94506626D01*
X175087050Y-94507800D01*
X174174550Y-94507800D01*
X174150658Y-94506626D01*
X174126997Y-94503116D01*
X174103793Y-94497304D01*
X174081271Y-94489246D01*
X174059647Y-94479018D01*
X174039130Y-94466721D01*
X174019917Y-94452471D01*
X174002193Y-94436407D01*
X173986129Y-94418683D01*
X173971879Y-94399470D01*
X173959582Y-94378953D01*
X173949354Y-94357329D01*
X173941296Y-94334807D01*
X173935484Y-94311603D01*
X173931974Y-94287942D01*
X173930800Y-94264050D01*
X173930800Y-93776550D01*
X173931974Y-93752658D01*
X173935484Y-93728997D01*
X173941296Y-93705793D01*
X173949354Y-93683271D01*
X173959582Y-93661647D01*
X173971879Y-93641130D01*
X173986129Y-93621917D01*
X174002193Y-93604193D01*
X174019917Y-93588129D01*
X174039130Y-93573879D01*
X174059647Y-93561582D01*
X174081271Y-93551354D01*
X174103793Y-93543296D01*
X174126997Y-93537484D01*
X174150658Y-93533974D01*
X174174550Y-93532800D01*
X175087050Y-93532800D01*
X175110942Y-93533974D01*
X175110942Y-93533974D01*
G37*
D11*
X174630800Y-94020300D03*
D10*
G36*
X177214942Y-99362974D02*
G01*
X177238603Y-99366484D01*
X177261807Y-99372296D01*
X177284329Y-99380354D01*
X177305953Y-99390582D01*
X177326470Y-99402879D01*
X177345683Y-99417129D01*
X177363407Y-99433193D01*
X177379471Y-99450917D01*
X177393721Y-99470130D01*
X177406018Y-99490647D01*
X177416246Y-99512271D01*
X177424304Y-99534793D01*
X177430116Y-99557997D01*
X177433626Y-99581658D01*
X177434800Y-99605550D01*
X177434800Y-100093050D01*
X177433626Y-100116942D01*
X177430116Y-100140603D01*
X177424304Y-100163807D01*
X177416246Y-100186329D01*
X177406018Y-100207953D01*
X177393721Y-100228470D01*
X177379471Y-100247683D01*
X177363407Y-100265407D01*
X177345683Y-100281471D01*
X177326470Y-100295721D01*
X177305953Y-100308018D01*
X177284329Y-100318246D01*
X177261807Y-100326304D01*
X177238603Y-100332116D01*
X177214942Y-100335626D01*
X177191050Y-100336800D01*
X176278550Y-100336800D01*
X176254658Y-100335626D01*
X176230997Y-100332116D01*
X176207793Y-100326304D01*
X176185271Y-100318246D01*
X176163647Y-100308018D01*
X176143130Y-100295721D01*
X176123917Y-100281471D01*
X176106193Y-100265407D01*
X176090129Y-100247683D01*
X176075879Y-100228470D01*
X176063582Y-100207953D01*
X176053354Y-100186329D01*
X176045296Y-100163807D01*
X176039484Y-100140603D01*
X176035974Y-100116942D01*
X176034800Y-100093050D01*
X176034800Y-99605550D01*
X176035974Y-99581658D01*
X176039484Y-99557997D01*
X176045296Y-99534793D01*
X176053354Y-99512271D01*
X176063582Y-99490647D01*
X176075879Y-99470130D01*
X176090129Y-99450917D01*
X176106193Y-99433193D01*
X176123917Y-99417129D01*
X176143130Y-99402879D01*
X176163647Y-99390582D01*
X176185271Y-99380354D01*
X176207793Y-99372296D01*
X176230997Y-99366484D01*
X176254658Y-99362974D01*
X176278550Y-99361800D01*
X177191050Y-99361800D01*
X177214942Y-99362974D01*
X177214942Y-99362974D01*
G37*
D11*
X176734800Y-99849300D03*
D10*
G36*
X177214942Y-97487974D02*
G01*
X177238603Y-97491484D01*
X177261807Y-97497296D01*
X177284329Y-97505354D01*
X177305953Y-97515582D01*
X177326470Y-97527879D01*
X177345683Y-97542129D01*
X177363407Y-97558193D01*
X177379471Y-97575917D01*
X177393721Y-97595130D01*
X177406018Y-97615647D01*
X177416246Y-97637271D01*
X177424304Y-97659793D01*
X177430116Y-97682997D01*
X177433626Y-97706658D01*
X177434800Y-97730550D01*
X177434800Y-98218050D01*
X177433626Y-98241942D01*
X177430116Y-98265603D01*
X177424304Y-98288807D01*
X177416246Y-98311329D01*
X177406018Y-98332953D01*
X177393721Y-98353470D01*
X177379471Y-98372683D01*
X177363407Y-98390407D01*
X177345683Y-98406471D01*
X177326470Y-98420721D01*
X177305953Y-98433018D01*
X177284329Y-98443246D01*
X177261807Y-98451304D01*
X177238603Y-98457116D01*
X177214942Y-98460626D01*
X177191050Y-98461800D01*
X176278550Y-98461800D01*
X176254658Y-98460626D01*
X176230997Y-98457116D01*
X176207793Y-98451304D01*
X176185271Y-98443246D01*
X176163647Y-98433018D01*
X176143130Y-98420721D01*
X176123917Y-98406471D01*
X176106193Y-98390407D01*
X176090129Y-98372683D01*
X176075879Y-98353470D01*
X176063582Y-98332953D01*
X176053354Y-98311329D01*
X176045296Y-98288807D01*
X176039484Y-98265603D01*
X176035974Y-98241942D01*
X176034800Y-98218050D01*
X176034800Y-97730550D01*
X176035974Y-97706658D01*
X176039484Y-97682997D01*
X176045296Y-97659793D01*
X176053354Y-97637271D01*
X176063582Y-97615647D01*
X176075879Y-97595130D01*
X176090129Y-97575917D01*
X176106193Y-97558193D01*
X176123917Y-97542129D01*
X176143130Y-97527879D01*
X176163647Y-97515582D01*
X176185271Y-97505354D01*
X176207793Y-97497296D01*
X176230997Y-97491484D01*
X176254658Y-97487974D01*
X176278550Y-97486800D01*
X177191050Y-97486800D01*
X177214942Y-97487974D01*
X177214942Y-97487974D01*
G37*
D11*
X176734800Y-97974300D03*
D10*
G36*
X177214942Y-93533974D02*
G01*
X177238603Y-93537484D01*
X177261807Y-93543296D01*
X177284329Y-93551354D01*
X177305953Y-93561582D01*
X177326470Y-93573879D01*
X177345683Y-93588129D01*
X177363407Y-93604193D01*
X177379471Y-93621917D01*
X177393721Y-93641130D01*
X177406018Y-93661647D01*
X177416246Y-93683271D01*
X177424304Y-93705793D01*
X177430116Y-93728997D01*
X177433626Y-93752658D01*
X177434800Y-93776550D01*
X177434800Y-94264050D01*
X177433626Y-94287942D01*
X177430116Y-94311603D01*
X177424304Y-94334807D01*
X177416246Y-94357329D01*
X177406018Y-94378953D01*
X177393721Y-94399470D01*
X177379471Y-94418683D01*
X177363407Y-94436407D01*
X177345683Y-94452471D01*
X177326470Y-94466721D01*
X177305953Y-94479018D01*
X177284329Y-94489246D01*
X177261807Y-94497304D01*
X177238603Y-94503116D01*
X177214942Y-94506626D01*
X177191050Y-94507800D01*
X176278550Y-94507800D01*
X176254658Y-94506626D01*
X176230997Y-94503116D01*
X176207793Y-94497304D01*
X176185271Y-94489246D01*
X176163647Y-94479018D01*
X176143130Y-94466721D01*
X176123917Y-94452471D01*
X176106193Y-94436407D01*
X176090129Y-94418683D01*
X176075879Y-94399470D01*
X176063582Y-94378953D01*
X176053354Y-94357329D01*
X176045296Y-94334807D01*
X176039484Y-94311603D01*
X176035974Y-94287942D01*
X176034800Y-94264050D01*
X176034800Y-93776550D01*
X176035974Y-93752658D01*
X176039484Y-93728997D01*
X176045296Y-93705793D01*
X176053354Y-93683271D01*
X176063582Y-93661647D01*
X176075879Y-93641130D01*
X176090129Y-93621917D01*
X176106193Y-93604193D01*
X176123917Y-93588129D01*
X176143130Y-93573879D01*
X176163647Y-93561582D01*
X176185271Y-93551354D01*
X176207793Y-93543296D01*
X176230997Y-93537484D01*
X176254658Y-93533974D01*
X176278550Y-93532800D01*
X177191050Y-93532800D01*
X177214942Y-93533974D01*
X177214942Y-93533974D01*
G37*
D11*
X176734800Y-94020300D03*
D10*
G36*
X177214942Y-95408974D02*
G01*
X177238603Y-95412484D01*
X177261807Y-95418296D01*
X177284329Y-95426354D01*
X177305953Y-95436582D01*
X177326470Y-95448879D01*
X177345683Y-95463129D01*
X177363407Y-95479193D01*
X177379471Y-95496917D01*
X177393721Y-95516130D01*
X177406018Y-95536647D01*
X177416246Y-95558271D01*
X177424304Y-95580793D01*
X177430116Y-95603997D01*
X177433626Y-95627658D01*
X177434800Y-95651550D01*
X177434800Y-96139050D01*
X177433626Y-96162942D01*
X177430116Y-96186603D01*
X177424304Y-96209807D01*
X177416246Y-96232329D01*
X177406018Y-96253953D01*
X177393721Y-96274470D01*
X177379471Y-96293683D01*
X177363407Y-96311407D01*
X177345683Y-96327471D01*
X177326470Y-96341721D01*
X177305953Y-96354018D01*
X177284329Y-96364246D01*
X177261807Y-96372304D01*
X177238603Y-96378116D01*
X177214942Y-96381626D01*
X177191050Y-96382800D01*
X176278550Y-96382800D01*
X176254658Y-96381626D01*
X176230997Y-96378116D01*
X176207793Y-96372304D01*
X176185271Y-96364246D01*
X176163647Y-96354018D01*
X176143130Y-96341721D01*
X176123917Y-96327471D01*
X176106193Y-96311407D01*
X176090129Y-96293683D01*
X176075879Y-96274470D01*
X176063582Y-96253953D01*
X176053354Y-96232329D01*
X176045296Y-96209807D01*
X176039484Y-96186603D01*
X176035974Y-96162942D01*
X176034800Y-96139050D01*
X176034800Y-95651550D01*
X176035974Y-95627658D01*
X176039484Y-95603997D01*
X176045296Y-95580793D01*
X176053354Y-95558271D01*
X176063582Y-95536647D01*
X176075879Y-95516130D01*
X176090129Y-95496917D01*
X176106193Y-95479193D01*
X176123917Y-95463129D01*
X176143130Y-95448879D01*
X176163647Y-95436582D01*
X176185271Y-95426354D01*
X176207793Y-95418296D01*
X176230997Y-95412484D01*
X176254658Y-95408974D01*
X176278550Y-95407800D01*
X177191050Y-95407800D01*
X177214942Y-95408974D01*
X177214942Y-95408974D01*
G37*
D11*
X176734800Y-95895300D03*
D10*
G36*
X175110942Y-97487974D02*
G01*
X175134603Y-97491484D01*
X175157807Y-97497296D01*
X175180329Y-97505354D01*
X175201953Y-97515582D01*
X175222470Y-97527879D01*
X175241683Y-97542129D01*
X175259407Y-97558193D01*
X175275471Y-97575917D01*
X175289721Y-97595130D01*
X175302018Y-97615647D01*
X175312246Y-97637271D01*
X175320304Y-97659793D01*
X175326116Y-97682997D01*
X175329626Y-97706658D01*
X175330800Y-97730550D01*
X175330800Y-98218050D01*
X175329626Y-98241942D01*
X175326116Y-98265603D01*
X175320304Y-98288807D01*
X175312246Y-98311329D01*
X175302018Y-98332953D01*
X175289721Y-98353470D01*
X175275471Y-98372683D01*
X175259407Y-98390407D01*
X175241683Y-98406471D01*
X175222470Y-98420721D01*
X175201953Y-98433018D01*
X175180329Y-98443246D01*
X175157807Y-98451304D01*
X175134603Y-98457116D01*
X175110942Y-98460626D01*
X175087050Y-98461800D01*
X174174550Y-98461800D01*
X174150658Y-98460626D01*
X174126997Y-98457116D01*
X174103793Y-98451304D01*
X174081271Y-98443246D01*
X174059647Y-98433018D01*
X174039130Y-98420721D01*
X174019917Y-98406471D01*
X174002193Y-98390407D01*
X173986129Y-98372683D01*
X173971879Y-98353470D01*
X173959582Y-98332953D01*
X173949354Y-98311329D01*
X173941296Y-98288807D01*
X173935484Y-98265603D01*
X173931974Y-98241942D01*
X173930800Y-98218050D01*
X173930800Y-97730550D01*
X173931974Y-97706658D01*
X173935484Y-97682997D01*
X173941296Y-97659793D01*
X173949354Y-97637271D01*
X173959582Y-97615647D01*
X173971879Y-97595130D01*
X173986129Y-97575917D01*
X174002193Y-97558193D01*
X174019917Y-97542129D01*
X174039130Y-97527879D01*
X174059647Y-97515582D01*
X174081271Y-97505354D01*
X174103793Y-97497296D01*
X174126997Y-97491484D01*
X174150658Y-97487974D01*
X174174550Y-97486800D01*
X175087050Y-97486800D01*
X175110942Y-97487974D01*
X175110942Y-97487974D01*
G37*
D11*
X174630800Y-97974300D03*
D10*
G36*
X175110942Y-99362974D02*
G01*
X175134603Y-99366484D01*
X175157807Y-99372296D01*
X175180329Y-99380354D01*
X175201953Y-99390582D01*
X175222470Y-99402879D01*
X175241683Y-99417129D01*
X175259407Y-99433193D01*
X175275471Y-99450917D01*
X175289721Y-99470130D01*
X175302018Y-99490647D01*
X175312246Y-99512271D01*
X175320304Y-99534793D01*
X175326116Y-99557997D01*
X175329626Y-99581658D01*
X175330800Y-99605550D01*
X175330800Y-100093050D01*
X175329626Y-100116942D01*
X175326116Y-100140603D01*
X175320304Y-100163807D01*
X175312246Y-100186329D01*
X175302018Y-100207953D01*
X175289721Y-100228470D01*
X175275471Y-100247683D01*
X175259407Y-100265407D01*
X175241683Y-100281471D01*
X175222470Y-100295721D01*
X175201953Y-100308018D01*
X175180329Y-100318246D01*
X175157807Y-100326304D01*
X175134603Y-100332116D01*
X175110942Y-100335626D01*
X175087050Y-100336800D01*
X174174550Y-100336800D01*
X174150658Y-100335626D01*
X174126997Y-100332116D01*
X174103793Y-100326304D01*
X174081271Y-100318246D01*
X174059647Y-100308018D01*
X174039130Y-100295721D01*
X174019917Y-100281471D01*
X174002193Y-100265407D01*
X173986129Y-100247683D01*
X173971879Y-100228470D01*
X173959582Y-100207953D01*
X173949354Y-100186329D01*
X173941296Y-100163807D01*
X173935484Y-100140603D01*
X173931974Y-100116942D01*
X173930800Y-100093050D01*
X173930800Y-99605550D01*
X173931974Y-99581658D01*
X173935484Y-99557997D01*
X173941296Y-99534793D01*
X173949354Y-99512271D01*
X173959582Y-99490647D01*
X173971879Y-99470130D01*
X173986129Y-99450917D01*
X174002193Y-99433193D01*
X174019917Y-99417129D01*
X174039130Y-99402879D01*
X174059647Y-99390582D01*
X174081271Y-99380354D01*
X174103793Y-99372296D01*
X174126997Y-99366484D01*
X174150658Y-99362974D01*
X174174550Y-99361800D01*
X175087050Y-99361800D01*
X175110942Y-99362974D01*
X175110942Y-99362974D01*
G37*
D11*
X174630800Y-99849300D03*
D10*
G36*
X170661942Y-60938974D02*
G01*
X170685603Y-60942484D01*
X170708807Y-60948296D01*
X170731329Y-60956354D01*
X170752953Y-60966582D01*
X170773470Y-60978879D01*
X170792683Y-60993129D01*
X170810407Y-61009193D01*
X170826471Y-61026917D01*
X170840721Y-61046130D01*
X170853018Y-61066647D01*
X170863246Y-61088271D01*
X170871304Y-61110793D01*
X170877116Y-61133997D01*
X170880626Y-61157658D01*
X170881800Y-61181550D01*
X170881800Y-61669050D01*
X170880626Y-61692942D01*
X170877116Y-61716603D01*
X170871304Y-61739807D01*
X170863246Y-61762329D01*
X170853018Y-61783953D01*
X170840721Y-61804470D01*
X170826471Y-61823683D01*
X170810407Y-61841407D01*
X170792683Y-61857471D01*
X170773470Y-61871721D01*
X170752953Y-61884018D01*
X170731329Y-61894246D01*
X170708807Y-61902304D01*
X170685603Y-61908116D01*
X170661942Y-61911626D01*
X170638050Y-61912800D01*
X169725550Y-61912800D01*
X169701658Y-61911626D01*
X169677997Y-61908116D01*
X169654793Y-61902304D01*
X169632271Y-61894246D01*
X169610647Y-61884018D01*
X169590130Y-61871721D01*
X169570917Y-61857471D01*
X169553193Y-61841407D01*
X169537129Y-61823683D01*
X169522879Y-61804470D01*
X169510582Y-61783953D01*
X169500354Y-61762329D01*
X169492296Y-61739807D01*
X169486484Y-61716603D01*
X169482974Y-61692942D01*
X169481800Y-61669050D01*
X169481800Y-61181550D01*
X169482974Y-61157658D01*
X169486484Y-61133997D01*
X169492296Y-61110793D01*
X169500354Y-61088271D01*
X169510582Y-61066647D01*
X169522879Y-61046130D01*
X169537129Y-61026917D01*
X169553193Y-61009193D01*
X169570917Y-60993129D01*
X169590130Y-60978879D01*
X169610647Y-60966582D01*
X169632271Y-60956354D01*
X169654793Y-60948296D01*
X169677997Y-60942484D01*
X169701658Y-60938974D01*
X169725550Y-60937800D01*
X170638050Y-60937800D01*
X170661942Y-60938974D01*
X170661942Y-60938974D01*
G37*
D11*
X170181800Y-61425300D03*
D10*
G36*
X170661942Y-62813974D02*
G01*
X170685603Y-62817484D01*
X170708807Y-62823296D01*
X170731329Y-62831354D01*
X170752953Y-62841582D01*
X170773470Y-62853879D01*
X170792683Y-62868129D01*
X170810407Y-62884193D01*
X170826471Y-62901917D01*
X170840721Y-62921130D01*
X170853018Y-62941647D01*
X170863246Y-62963271D01*
X170871304Y-62985793D01*
X170877116Y-63008997D01*
X170880626Y-63032658D01*
X170881800Y-63056550D01*
X170881800Y-63544050D01*
X170880626Y-63567942D01*
X170877116Y-63591603D01*
X170871304Y-63614807D01*
X170863246Y-63637329D01*
X170853018Y-63658953D01*
X170840721Y-63679470D01*
X170826471Y-63698683D01*
X170810407Y-63716407D01*
X170792683Y-63732471D01*
X170773470Y-63746721D01*
X170752953Y-63759018D01*
X170731329Y-63769246D01*
X170708807Y-63777304D01*
X170685603Y-63783116D01*
X170661942Y-63786626D01*
X170638050Y-63787800D01*
X169725550Y-63787800D01*
X169701658Y-63786626D01*
X169677997Y-63783116D01*
X169654793Y-63777304D01*
X169632271Y-63769246D01*
X169610647Y-63759018D01*
X169590130Y-63746721D01*
X169570917Y-63732471D01*
X169553193Y-63716407D01*
X169537129Y-63698683D01*
X169522879Y-63679470D01*
X169510582Y-63658953D01*
X169500354Y-63637329D01*
X169492296Y-63614807D01*
X169486484Y-63591603D01*
X169482974Y-63567942D01*
X169481800Y-63544050D01*
X169481800Y-63056550D01*
X169482974Y-63032658D01*
X169486484Y-63008997D01*
X169492296Y-62985793D01*
X169500354Y-62963271D01*
X169510582Y-62941647D01*
X169522879Y-62921130D01*
X169537129Y-62901917D01*
X169553193Y-62884193D01*
X169570917Y-62868129D01*
X169590130Y-62853879D01*
X169610647Y-62841582D01*
X169632271Y-62831354D01*
X169654793Y-62823296D01*
X169677997Y-62817484D01*
X169701658Y-62813974D01*
X169725550Y-62812800D01*
X170638050Y-62812800D01*
X170661942Y-62813974D01*
X170661942Y-62813974D01*
G37*
D11*
X170181800Y-63300300D03*
D10*
G36*
X170661942Y-64692974D02*
G01*
X170685603Y-64696484D01*
X170708807Y-64702296D01*
X170731329Y-64710354D01*
X170752953Y-64720582D01*
X170773470Y-64732879D01*
X170792683Y-64747129D01*
X170810407Y-64763193D01*
X170826471Y-64780917D01*
X170840721Y-64800130D01*
X170853018Y-64820647D01*
X170863246Y-64842271D01*
X170871304Y-64864793D01*
X170877116Y-64887997D01*
X170880626Y-64911658D01*
X170881800Y-64935550D01*
X170881800Y-65423050D01*
X170880626Y-65446942D01*
X170877116Y-65470603D01*
X170871304Y-65493807D01*
X170863246Y-65516329D01*
X170853018Y-65537953D01*
X170840721Y-65558470D01*
X170826471Y-65577683D01*
X170810407Y-65595407D01*
X170792683Y-65611471D01*
X170773470Y-65625721D01*
X170752953Y-65638018D01*
X170731329Y-65648246D01*
X170708807Y-65656304D01*
X170685603Y-65662116D01*
X170661942Y-65665626D01*
X170638050Y-65666800D01*
X169725550Y-65666800D01*
X169701658Y-65665626D01*
X169677997Y-65662116D01*
X169654793Y-65656304D01*
X169632271Y-65648246D01*
X169610647Y-65638018D01*
X169590130Y-65625721D01*
X169570917Y-65611471D01*
X169553193Y-65595407D01*
X169537129Y-65577683D01*
X169522879Y-65558470D01*
X169510582Y-65537953D01*
X169500354Y-65516329D01*
X169492296Y-65493807D01*
X169486484Y-65470603D01*
X169482974Y-65446942D01*
X169481800Y-65423050D01*
X169481800Y-64935550D01*
X169482974Y-64911658D01*
X169486484Y-64887997D01*
X169492296Y-64864793D01*
X169500354Y-64842271D01*
X169510582Y-64820647D01*
X169522879Y-64800130D01*
X169537129Y-64780917D01*
X169553193Y-64763193D01*
X169570917Y-64747129D01*
X169590130Y-64732879D01*
X169610647Y-64720582D01*
X169632271Y-64710354D01*
X169654793Y-64702296D01*
X169677997Y-64696484D01*
X169701658Y-64692974D01*
X169725550Y-64691800D01*
X170638050Y-64691800D01*
X170661942Y-64692974D01*
X170661942Y-64692974D01*
G37*
D11*
X170181800Y-65179300D03*
D10*
G36*
X170661942Y-66567974D02*
G01*
X170685603Y-66571484D01*
X170708807Y-66577296D01*
X170731329Y-66585354D01*
X170752953Y-66595582D01*
X170773470Y-66607879D01*
X170792683Y-66622129D01*
X170810407Y-66638193D01*
X170826471Y-66655917D01*
X170840721Y-66675130D01*
X170853018Y-66695647D01*
X170863246Y-66717271D01*
X170871304Y-66739793D01*
X170877116Y-66762997D01*
X170880626Y-66786658D01*
X170881800Y-66810550D01*
X170881800Y-67298050D01*
X170880626Y-67321942D01*
X170877116Y-67345603D01*
X170871304Y-67368807D01*
X170863246Y-67391329D01*
X170853018Y-67412953D01*
X170840721Y-67433470D01*
X170826471Y-67452683D01*
X170810407Y-67470407D01*
X170792683Y-67486471D01*
X170773470Y-67500721D01*
X170752953Y-67513018D01*
X170731329Y-67523246D01*
X170708807Y-67531304D01*
X170685603Y-67537116D01*
X170661942Y-67540626D01*
X170638050Y-67541800D01*
X169725550Y-67541800D01*
X169701658Y-67540626D01*
X169677997Y-67537116D01*
X169654793Y-67531304D01*
X169632271Y-67523246D01*
X169610647Y-67513018D01*
X169590130Y-67500721D01*
X169570917Y-67486471D01*
X169553193Y-67470407D01*
X169537129Y-67452683D01*
X169522879Y-67433470D01*
X169510582Y-67412953D01*
X169500354Y-67391329D01*
X169492296Y-67368807D01*
X169486484Y-67345603D01*
X169482974Y-67321942D01*
X169481800Y-67298050D01*
X169481800Y-66810550D01*
X169482974Y-66786658D01*
X169486484Y-66762997D01*
X169492296Y-66739793D01*
X169500354Y-66717271D01*
X169510582Y-66695647D01*
X169522879Y-66675130D01*
X169537129Y-66655917D01*
X169553193Y-66638193D01*
X169570917Y-66622129D01*
X169590130Y-66607879D01*
X169610647Y-66595582D01*
X169632271Y-66585354D01*
X169654793Y-66577296D01*
X169677997Y-66571484D01*
X169701658Y-66567974D01*
X169725550Y-66566800D01*
X170638050Y-66566800D01*
X170661942Y-66567974D01*
X170661942Y-66567974D01*
G37*
D11*
X170181800Y-67054300D03*
D10*
G36*
X168507942Y-62813974D02*
G01*
X168531603Y-62817484D01*
X168554807Y-62823296D01*
X168577329Y-62831354D01*
X168598953Y-62841582D01*
X168619470Y-62853879D01*
X168638683Y-62868129D01*
X168656407Y-62884193D01*
X168672471Y-62901917D01*
X168686721Y-62921130D01*
X168699018Y-62941647D01*
X168709246Y-62963271D01*
X168717304Y-62985793D01*
X168723116Y-63008997D01*
X168726626Y-63032658D01*
X168727800Y-63056550D01*
X168727800Y-63544050D01*
X168726626Y-63567942D01*
X168723116Y-63591603D01*
X168717304Y-63614807D01*
X168709246Y-63637329D01*
X168699018Y-63658953D01*
X168686721Y-63679470D01*
X168672471Y-63698683D01*
X168656407Y-63716407D01*
X168638683Y-63732471D01*
X168619470Y-63746721D01*
X168598953Y-63759018D01*
X168577329Y-63769246D01*
X168554807Y-63777304D01*
X168531603Y-63783116D01*
X168507942Y-63786626D01*
X168484050Y-63787800D01*
X167571550Y-63787800D01*
X167547658Y-63786626D01*
X167523997Y-63783116D01*
X167500793Y-63777304D01*
X167478271Y-63769246D01*
X167456647Y-63759018D01*
X167436130Y-63746721D01*
X167416917Y-63732471D01*
X167399193Y-63716407D01*
X167383129Y-63698683D01*
X167368879Y-63679470D01*
X167356582Y-63658953D01*
X167346354Y-63637329D01*
X167338296Y-63614807D01*
X167332484Y-63591603D01*
X167328974Y-63567942D01*
X167327800Y-63544050D01*
X167327800Y-63056550D01*
X167328974Y-63032658D01*
X167332484Y-63008997D01*
X167338296Y-62985793D01*
X167346354Y-62963271D01*
X167356582Y-62941647D01*
X167368879Y-62921130D01*
X167383129Y-62901917D01*
X167399193Y-62884193D01*
X167416917Y-62868129D01*
X167436130Y-62853879D01*
X167456647Y-62841582D01*
X167478271Y-62831354D01*
X167500793Y-62823296D01*
X167523997Y-62817484D01*
X167547658Y-62813974D01*
X167571550Y-62812800D01*
X168484050Y-62812800D01*
X168507942Y-62813974D01*
X168507942Y-62813974D01*
G37*
D11*
X168027800Y-63300300D03*
D10*
G36*
X168507942Y-60938974D02*
G01*
X168531603Y-60942484D01*
X168554807Y-60948296D01*
X168577329Y-60956354D01*
X168598953Y-60966582D01*
X168619470Y-60978879D01*
X168638683Y-60993129D01*
X168656407Y-61009193D01*
X168672471Y-61026917D01*
X168686721Y-61046130D01*
X168699018Y-61066647D01*
X168709246Y-61088271D01*
X168717304Y-61110793D01*
X168723116Y-61133997D01*
X168726626Y-61157658D01*
X168727800Y-61181550D01*
X168727800Y-61669050D01*
X168726626Y-61692942D01*
X168723116Y-61716603D01*
X168717304Y-61739807D01*
X168709246Y-61762329D01*
X168699018Y-61783953D01*
X168686721Y-61804470D01*
X168672471Y-61823683D01*
X168656407Y-61841407D01*
X168638683Y-61857471D01*
X168619470Y-61871721D01*
X168598953Y-61884018D01*
X168577329Y-61894246D01*
X168554807Y-61902304D01*
X168531603Y-61908116D01*
X168507942Y-61911626D01*
X168484050Y-61912800D01*
X167571550Y-61912800D01*
X167547658Y-61911626D01*
X167523997Y-61908116D01*
X167500793Y-61902304D01*
X167478271Y-61894246D01*
X167456647Y-61884018D01*
X167436130Y-61871721D01*
X167416917Y-61857471D01*
X167399193Y-61841407D01*
X167383129Y-61823683D01*
X167368879Y-61804470D01*
X167356582Y-61783953D01*
X167346354Y-61762329D01*
X167338296Y-61739807D01*
X167332484Y-61716603D01*
X167328974Y-61692942D01*
X167327800Y-61669050D01*
X167327800Y-61181550D01*
X167328974Y-61157658D01*
X167332484Y-61133997D01*
X167338296Y-61110793D01*
X167346354Y-61088271D01*
X167356582Y-61066647D01*
X167368879Y-61046130D01*
X167383129Y-61026917D01*
X167399193Y-61009193D01*
X167416917Y-60993129D01*
X167436130Y-60978879D01*
X167456647Y-60966582D01*
X167478271Y-60956354D01*
X167500793Y-60948296D01*
X167523997Y-60942484D01*
X167547658Y-60938974D01*
X167571550Y-60937800D01*
X168484050Y-60937800D01*
X168507942Y-60938974D01*
X168507942Y-60938974D01*
G37*
D11*
X168027800Y-61425300D03*
D10*
G36*
X168507942Y-66567974D02*
G01*
X168531603Y-66571484D01*
X168554807Y-66577296D01*
X168577329Y-66585354D01*
X168598953Y-66595582D01*
X168619470Y-66607879D01*
X168638683Y-66622129D01*
X168656407Y-66638193D01*
X168672471Y-66655917D01*
X168686721Y-66675130D01*
X168699018Y-66695647D01*
X168709246Y-66717271D01*
X168717304Y-66739793D01*
X168723116Y-66762997D01*
X168726626Y-66786658D01*
X168727800Y-66810550D01*
X168727800Y-67298050D01*
X168726626Y-67321942D01*
X168723116Y-67345603D01*
X168717304Y-67368807D01*
X168709246Y-67391329D01*
X168699018Y-67412953D01*
X168686721Y-67433470D01*
X168672471Y-67452683D01*
X168656407Y-67470407D01*
X168638683Y-67486471D01*
X168619470Y-67500721D01*
X168598953Y-67513018D01*
X168577329Y-67523246D01*
X168554807Y-67531304D01*
X168531603Y-67537116D01*
X168507942Y-67540626D01*
X168484050Y-67541800D01*
X167571550Y-67541800D01*
X167547658Y-67540626D01*
X167523997Y-67537116D01*
X167500793Y-67531304D01*
X167478271Y-67523246D01*
X167456647Y-67513018D01*
X167436130Y-67500721D01*
X167416917Y-67486471D01*
X167399193Y-67470407D01*
X167383129Y-67452683D01*
X167368879Y-67433470D01*
X167356582Y-67412953D01*
X167346354Y-67391329D01*
X167338296Y-67368807D01*
X167332484Y-67345603D01*
X167328974Y-67321942D01*
X167327800Y-67298050D01*
X167327800Y-66810550D01*
X167328974Y-66786658D01*
X167332484Y-66762997D01*
X167338296Y-66739793D01*
X167346354Y-66717271D01*
X167356582Y-66695647D01*
X167368879Y-66675130D01*
X167383129Y-66655917D01*
X167399193Y-66638193D01*
X167416917Y-66622129D01*
X167436130Y-66607879D01*
X167456647Y-66595582D01*
X167478271Y-66585354D01*
X167500793Y-66577296D01*
X167523997Y-66571484D01*
X167547658Y-66567974D01*
X167571550Y-66566800D01*
X168484050Y-66566800D01*
X168507942Y-66567974D01*
X168507942Y-66567974D01*
G37*
D11*
X168027800Y-67054300D03*
D10*
G36*
X168507942Y-64692974D02*
G01*
X168531603Y-64696484D01*
X168554807Y-64702296D01*
X168577329Y-64710354D01*
X168598953Y-64720582D01*
X168619470Y-64732879D01*
X168638683Y-64747129D01*
X168656407Y-64763193D01*
X168672471Y-64780917D01*
X168686721Y-64800130D01*
X168699018Y-64820647D01*
X168709246Y-64842271D01*
X168717304Y-64864793D01*
X168723116Y-64887997D01*
X168726626Y-64911658D01*
X168727800Y-64935550D01*
X168727800Y-65423050D01*
X168726626Y-65446942D01*
X168723116Y-65470603D01*
X168717304Y-65493807D01*
X168709246Y-65516329D01*
X168699018Y-65537953D01*
X168686721Y-65558470D01*
X168672471Y-65577683D01*
X168656407Y-65595407D01*
X168638683Y-65611471D01*
X168619470Y-65625721D01*
X168598953Y-65638018D01*
X168577329Y-65648246D01*
X168554807Y-65656304D01*
X168531603Y-65662116D01*
X168507942Y-65665626D01*
X168484050Y-65666800D01*
X167571550Y-65666800D01*
X167547658Y-65665626D01*
X167523997Y-65662116D01*
X167500793Y-65656304D01*
X167478271Y-65648246D01*
X167456647Y-65638018D01*
X167436130Y-65625721D01*
X167416917Y-65611471D01*
X167399193Y-65595407D01*
X167383129Y-65577683D01*
X167368879Y-65558470D01*
X167356582Y-65537953D01*
X167346354Y-65516329D01*
X167338296Y-65493807D01*
X167332484Y-65470603D01*
X167328974Y-65446942D01*
X167327800Y-65423050D01*
X167327800Y-64935550D01*
X167328974Y-64911658D01*
X167332484Y-64887997D01*
X167338296Y-64864793D01*
X167346354Y-64842271D01*
X167356582Y-64820647D01*
X167368879Y-64800130D01*
X167383129Y-64780917D01*
X167399193Y-64763193D01*
X167416917Y-64747129D01*
X167436130Y-64732879D01*
X167456647Y-64720582D01*
X167478271Y-64710354D01*
X167500793Y-64702296D01*
X167523997Y-64696484D01*
X167547658Y-64692974D01*
X167571550Y-64691800D01*
X168484050Y-64691800D01*
X168507942Y-64692974D01*
X168507942Y-64692974D01*
G37*
D11*
X168027800Y-65179300D03*
D10*
G36*
X171014942Y-93636974D02*
G01*
X171038603Y-93640484D01*
X171061807Y-93646296D01*
X171084329Y-93654354D01*
X171105953Y-93664582D01*
X171126470Y-93676879D01*
X171145683Y-93691129D01*
X171163407Y-93707193D01*
X171179471Y-93724917D01*
X171193721Y-93744130D01*
X171206018Y-93764647D01*
X171216246Y-93786271D01*
X171224304Y-93808793D01*
X171230116Y-93831997D01*
X171233626Y-93855658D01*
X171234800Y-93879550D01*
X171234800Y-94367050D01*
X171233626Y-94390942D01*
X171230116Y-94414603D01*
X171224304Y-94437807D01*
X171216246Y-94460329D01*
X171206018Y-94481953D01*
X171193721Y-94502470D01*
X171179471Y-94521683D01*
X171163407Y-94539407D01*
X171145683Y-94555471D01*
X171126470Y-94569721D01*
X171105953Y-94582018D01*
X171084329Y-94592246D01*
X171061807Y-94600304D01*
X171038603Y-94606116D01*
X171014942Y-94609626D01*
X170991050Y-94610800D01*
X170078550Y-94610800D01*
X170054658Y-94609626D01*
X170030997Y-94606116D01*
X170007793Y-94600304D01*
X169985271Y-94592246D01*
X169963647Y-94582018D01*
X169943130Y-94569721D01*
X169923917Y-94555471D01*
X169906193Y-94539407D01*
X169890129Y-94521683D01*
X169875879Y-94502470D01*
X169863582Y-94481953D01*
X169853354Y-94460329D01*
X169845296Y-94437807D01*
X169839484Y-94414603D01*
X169835974Y-94390942D01*
X169834800Y-94367050D01*
X169834800Y-93879550D01*
X169835974Y-93855658D01*
X169839484Y-93831997D01*
X169845296Y-93808793D01*
X169853354Y-93786271D01*
X169863582Y-93764647D01*
X169875879Y-93744130D01*
X169890129Y-93724917D01*
X169906193Y-93707193D01*
X169923917Y-93691129D01*
X169943130Y-93676879D01*
X169963647Y-93664582D01*
X169985271Y-93654354D01*
X170007793Y-93646296D01*
X170030997Y-93640484D01*
X170054658Y-93636974D01*
X170078550Y-93635800D01*
X170991050Y-93635800D01*
X171014942Y-93636974D01*
X171014942Y-93636974D01*
G37*
D11*
X170534800Y-94123300D03*
D10*
G36*
X171014942Y-95511974D02*
G01*
X171038603Y-95515484D01*
X171061807Y-95521296D01*
X171084329Y-95529354D01*
X171105953Y-95539582D01*
X171126470Y-95551879D01*
X171145683Y-95566129D01*
X171163407Y-95582193D01*
X171179471Y-95599917D01*
X171193721Y-95619130D01*
X171206018Y-95639647D01*
X171216246Y-95661271D01*
X171224304Y-95683793D01*
X171230116Y-95706997D01*
X171233626Y-95730658D01*
X171234800Y-95754550D01*
X171234800Y-96242050D01*
X171233626Y-96265942D01*
X171230116Y-96289603D01*
X171224304Y-96312807D01*
X171216246Y-96335329D01*
X171206018Y-96356953D01*
X171193721Y-96377470D01*
X171179471Y-96396683D01*
X171163407Y-96414407D01*
X171145683Y-96430471D01*
X171126470Y-96444721D01*
X171105953Y-96457018D01*
X171084329Y-96467246D01*
X171061807Y-96475304D01*
X171038603Y-96481116D01*
X171014942Y-96484626D01*
X170991050Y-96485800D01*
X170078550Y-96485800D01*
X170054658Y-96484626D01*
X170030997Y-96481116D01*
X170007793Y-96475304D01*
X169985271Y-96467246D01*
X169963647Y-96457018D01*
X169943130Y-96444721D01*
X169923917Y-96430471D01*
X169906193Y-96414407D01*
X169890129Y-96396683D01*
X169875879Y-96377470D01*
X169863582Y-96356953D01*
X169853354Y-96335329D01*
X169845296Y-96312807D01*
X169839484Y-96289603D01*
X169835974Y-96265942D01*
X169834800Y-96242050D01*
X169834800Y-95754550D01*
X169835974Y-95730658D01*
X169839484Y-95706997D01*
X169845296Y-95683793D01*
X169853354Y-95661271D01*
X169863582Y-95639647D01*
X169875879Y-95619130D01*
X169890129Y-95599917D01*
X169906193Y-95582193D01*
X169923917Y-95566129D01*
X169943130Y-95551879D01*
X169963647Y-95539582D01*
X169985271Y-95529354D01*
X170007793Y-95521296D01*
X170030997Y-95515484D01*
X170054658Y-95511974D01*
X170078550Y-95510800D01*
X170991050Y-95510800D01*
X171014942Y-95511974D01*
X171014942Y-95511974D01*
G37*
D11*
X170534800Y-95998300D03*
D10*
G36*
X171014942Y-97390974D02*
G01*
X171038603Y-97394484D01*
X171061807Y-97400296D01*
X171084329Y-97408354D01*
X171105953Y-97418582D01*
X171126470Y-97430879D01*
X171145683Y-97445129D01*
X171163407Y-97461193D01*
X171179471Y-97478917D01*
X171193721Y-97498130D01*
X171206018Y-97518647D01*
X171216246Y-97540271D01*
X171224304Y-97562793D01*
X171230116Y-97585997D01*
X171233626Y-97609658D01*
X171234800Y-97633550D01*
X171234800Y-98121050D01*
X171233626Y-98144942D01*
X171230116Y-98168603D01*
X171224304Y-98191807D01*
X171216246Y-98214329D01*
X171206018Y-98235953D01*
X171193721Y-98256470D01*
X171179471Y-98275683D01*
X171163407Y-98293407D01*
X171145683Y-98309471D01*
X171126470Y-98323721D01*
X171105953Y-98336018D01*
X171084329Y-98346246D01*
X171061807Y-98354304D01*
X171038603Y-98360116D01*
X171014942Y-98363626D01*
X170991050Y-98364800D01*
X170078550Y-98364800D01*
X170054658Y-98363626D01*
X170030997Y-98360116D01*
X170007793Y-98354304D01*
X169985271Y-98346246D01*
X169963647Y-98336018D01*
X169943130Y-98323721D01*
X169923917Y-98309471D01*
X169906193Y-98293407D01*
X169890129Y-98275683D01*
X169875879Y-98256470D01*
X169863582Y-98235953D01*
X169853354Y-98214329D01*
X169845296Y-98191807D01*
X169839484Y-98168603D01*
X169835974Y-98144942D01*
X169834800Y-98121050D01*
X169834800Y-97633550D01*
X169835974Y-97609658D01*
X169839484Y-97585997D01*
X169845296Y-97562793D01*
X169853354Y-97540271D01*
X169863582Y-97518647D01*
X169875879Y-97498130D01*
X169890129Y-97478917D01*
X169906193Y-97461193D01*
X169923917Y-97445129D01*
X169943130Y-97430879D01*
X169963647Y-97418582D01*
X169985271Y-97408354D01*
X170007793Y-97400296D01*
X170030997Y-97394484D01*
X170054658Y-97390974D01*
X170078550Y-97389800D01*
X170991050Y-97389800D01*
X171014942Y-97390974D01*
X171014942Y-97390974D01*
G37*
D11*
X170534800Y-97877300D03*
D10*
G36*
X171014942Y-99265974D02*
G01*
X171038603Y-99269484D01*
X171061807Y-99275296D01*
X171084329Y-99283354D01*
X171105953Y-99293582D01*
X171126470Y-99305879D01*
X171145683Y-99320129D01*
X171163407Y-99336193D01*
X171179471Y-99353917D01*
X171193721Y-99373130D01*
X171206018Y-99393647D01*
X171216246Y-99415271D01*
X171224304Y-99437793D01*
X171230116Y-99460997D01*
X171233626Y-99484658D01*
X171234800Y-99508550D01*
X171234800Y-99996050D01*
X171233626Y-100019942D01*
X171230116Y-100043603D01*
X171224304Y-100066807D01*
X171216246Y-100089329D01*
X171206018Y-100110953D01*
X171193721Y-100131470D01*
X171179471Y-100150683D01*
X171163407Y-100168407D01*
X171145683Y-100184471D01*
X171126470Y-100198721D01*
X171105953Y-100211018D01*
X171084329Y-100221246D01*
X171061807Y-100229304D01*
X171038603Y-100235116D01*
X171014942Y-100238626D01*
X170991050Y-100239800D01*
X170078550Y-100239800D01*
X170054658Y-100238626D01*
X170030997Y-100235116D01*
X170007793Y-100229304D01*
X169985271Y-100221246D01*
X169963647Y-100211018D01*
X169943130Y-100198721D01*
X169923917Y-100184471D01*
X169906193Y-100168407D01*
X169890129Y-100150683D01*
X169875879Y-100131470D01*
X169863582Y-100110953D01*
X169853354Y-100089329D01*
X169845296Y-100066807D01*
X169839484Y-100043603D01*
X169835974Y-100019942D01*
X169834800Y-99996050D01*
X169834800Y-99508550D01*
X169835974Y-99484658D01*
X169839484Y-99460997D01*
X169845296Y-99437793D01*
X169853354Y-99415271D01*
X169863582Y-99393647D01*
X169875879Y-99373130D01*
X169890129Y-99353917D01*
X169906193Y-99336193D01*
X169923917Y-99320129D01*
X169943130Y-99305879D01*
X169963647Y-99293582D01*
X169985271Y-99283354D01*
X170007793Y-99275296D01*
X170030997Y-99269484D01*
X170054658Y-99265974D01*
X170078550Y-99264800D01*
X170991050Y-99264800D01*
X171014942Y-99265974D01*
X171014942Y-99265974D01*
G37*
D11*
X170534800Y-99752300D03*
D10*
G36*
X168760942Y-95511974D02*
G01*
X168784603Y-95515484D01*
X168807807Y-95521296D01*
X168830329Y-95529354D01*
X168851953Y-95539582D01*
X168872470Y-95551879D01*
X168891683Y-95566129D01*
X168909407Y-95582193D01*
X168925471Y-95599917D01*
X168939721Y-95619130D01*
X168952018Y-95639647D01*
X168962246Y-95661271D01*
X168970304Y-95683793D01*
X168976116Y-95706997D01*
X168979626Y-95730658D01*
X168980800Y-95754550D01*
X168980800Y-96242050D01*
X168979626Y-96265942D01*
X168976116Y-96289603D01*
X168970304Y-96312807D01*
X168962246Y-96335329D01*
X168952018Y-96356953D01*
X168939721Y-96377470D01*
X168925471Y-96396683D01*
X168909407Y-96414407D01*
X168891683Y-96430471D01*
X168872470Y-96444721D01*
X168851953Y-96457018D01*
X168830329Y-96467246D01*
X168807807Y-96475304D01*
X168784603Y-96481116D01*
X168760942Y-96484626D01*
X168737050Y-96485800D01*
X167824550Y-96485800D01*
X167800658Y-96484626D01*
X167776997Y-96481116D01*
X167753793Y-96475304D01*
X167731271Y-96467246D01*
X167709647Y-96457018D01*
X167689130Y-96444721D01*
X167669917Y-96430471D01*
X167652193Y-96414407D01*
X167636129Y-96396683D01*
X167621879Y-96377470D01*
X167609582Y-96356953D01*
X167599354Y-96335329D01*
X167591296Y-96312807D01*
X167585484Y-96289603D01*
X167581974Y-96265942D01*
X167580800Y-96242050D01*
X167580800Y-95754550D01*
X167581974Y-95730658D01*
X167585484Y-95706997D01*
X167591296Y-95683793D01*
X167599354Y-95661271D01*
X167609582Y-95639647D01*
X167621879Y-95619130D01*
X167636129Y-95599917D01*
X167652193Y-95582193D01*
X167669917Y-95566129D01*
X167689130Y-95551879D01*
X167709647Y-95539582D01*
X167731271Y-95529354D01*
X167753793Y-95521296D01*
X167776997Y-95515484D01*
X167800658Y-95511974D01*
X167824550Y-95510800D01*
X168737050Y-95510800D01*
X168760942Y-95511974D01*
X168760942Y-95511974D01*
G37*
D11*
X168280800Y-95998300D03*
D10*
G36*
X168760942Y-93636974D02*
G01*
X168784603Y-93640484D01*
X168807807Y-93646296D01*
X168830329Y-93654354D01*
X168851953Y-93664582D01*
X168872470Y-93676879D01*
X168891683Y-93691129D01*
X168909407Y-93707193D01*
X168925471Y-93724917D01*
X168939721Y-93744130D01*
X168952018Y-93764647D01*
X168962246Y-93786271D01*
X168970304Y-93808793D01*
X168976116Y-93831997D01*
X168979626Y-93855658D01*
X168980800Y-93879550D01*
X168980800Y-94367050D01*
X168979626Y-94390942D01*
X168976116Y-94414603D01*
X168970304Y-94437807D01*
X168962246Y-94460329D01*
X168952018Y-94481953D01*
X168939721Y-94502470D01*
X168925471Y-94521683D01*
X168909407Y-94539407D01*
X168891683Y-94555471D01*
X168872470Y-94569721D01*
X168851953Y-94582018D01*
X168830329Y-94592246D01*
X168807807Y-94600304D01*
X168784603Y-94606116D01*
X168760942Y-94609626D01*
X168737050Y-94610800D01*
X167824550Y-94610800D01*
X167800658Y-94609626D01*
X167776997Y-94606116D01*
X167753793Y-94600304D01*
X167731271Y-94592246D01*
X167709647Y-94582018D01*
X167689130Y-94569721D01*
X167669917Y-94555471D01*
X167652193Y-94539407D01*
X167636129Y-94521683D01*
X167621879Y-94502470D01*
X167609582Y-94481953D01*
X167599354Y-94460329D01*
X167591296Y-94437807D01*
X167585484Y-94414603D01*
X167581974Y-94390942D01*
X167580800Y-94367050D01*
X167580800Y-93879550D01*
X167581974Y-93855658D01*
X167585484Y-93831997D01*
X167591296Y-93808793D01*
X167599354Y-93786271D01*
X167609582Y-93764647D01*
X167621879Y-93744130D01*
X167636129Y-93724917D01*
X167652193Y-93707193D01*
X167669917Y-93691129D01*
X167689130Y-93676879D01*
X167709647Y-93664582D01*
X167731271Y-93654354D01*
X167753793Y-93646296D01*
X167776997Y-93640484D01*
X167800658Y-93636974D01*
X167824550Y-93635800D01*
X168737050Y-93635800D01*
X168760942Y-93636974D01*
X168760942Y-93636974D01*
G37*
D11*
X168280800Y-94123300D03*
D10*
G36*
X168760942Y-99265974D02*
G01*
X168784603Y-99269484D01*
X168807807Y-99275296D01*
X168830329Y-99283354D01*
X168851953Y-99293582D01*
X168872470Y-99305879D01*
X168891683Y-99320129D01*
X168909407Y-99336193D01*
X168925471Y-99353917D01*
X168939721Y-99373130D01*
X168952018Y-99393647D01*
X168962246Y-99415271D01*
X168970304Y-99437793D01*
X168976116Y-99460997D01*
X168979626Y-99484658D01*
X168980800Y-99508550D01*
X168980800Y-99996050D01*
X168979626Y-100019942D01*
X168976116Y-100043603D01*
X168970304Y-100066807D01*
X168962246Y-100089329D01*
X168952018Y-100110953D01*
X168939721Y-100131470D01*
X168925471Y-100150683D01*
X168909407Y-100168407D01*
X168891683Y-100184471D01*
X168872470Y-100198721D01*
X168851953Y-100211018D01*
X168830329Y-100221246D01*
X168807807Y-100229304D01*
X168784603Y-100235116D01*
X168760942Y-100238626D01*
X168737050Y-100239800D01*
X167824550Y-100239800D01*
X167800658Y-100238626D01*
X167776997Y-100235116D01*
X167753793Y-100229304D01*
X167731271Y-100221246D01*
X167709647Y-100211018D01*
X167689130Y-100198721D01*
X167669917Y-100184471D01*
X167652193Y-100168407D01*
X167636129Y-100150683D01*
X167621879Y-100131470D01*
X167609582Y-100110953D01*
X167599354Y-100089329D01*
X167591296Y-100066807D01*
X167585484Y-100043603D01*
X167581974Y-100019942D01*
X167580800Y-99996050D01*
X167580800Y-99508550D01*
X167581974Y-99484658D01*
X167585484Y-99460997D01*
X167591296Y-99437793D01*
X167599354Y-99415271D01*
X167609582Y-99393647D01*
X167621879Y-99373130D01*
X167636129Y-99353917D01*
X167652193Y-99336193D01*
X167669917Y-99320129D01*
X167689130Y-99305879D01*
X167709647Y-99293582D01*
X167731271Y-99283354D01*
X167753793Y-99275296D01*
X167776997Y-99269484D01*
X167800658Y-99265974D01*
X167824550Y-99264800D01*
X168737050Y-99264800D01*
X168760942Y-99265974D01*
X168760942Y-99265974D01*
G37*
D11*
X168280800Y-99752300D03*
D10*
G36*
X168760942Y-97390974D02*
G01*
X168784603Y-97394484D01*
X168807807Y-97400296D01*
X168830329Y-97408354D01*
X168851953Y-97418582D01*
X168872470Y-97430879D01*
X168891683Y-97445129D01*
X168909407Y-97461193D01*
X168925471Y-97478917D01*
X168939721Y-97498130D01*
X168952018Y-97518647D01*
X168962246Y-97540271D01*
X168970304Y-97562793D01*
X168976116Y-97585997D01*
X168979626Y-97609658D01*
X168980800Y-97633550D01*
X168980800Y-98121050D01*
X168979626Y-98144942D01*
X168976116Y-98168603D01*
X168970304Y-98191807D01*
X168962246Y-98214329D01*
X168952018Y-98235953D01*
X168939721Y-98256470D01*
X168925471Y-98275683D01*
X168909407Y-98293407D01*
X168891683Y-98309471D01*
X168872470Y-98323721D01*
X168851953Y-98336018D01*
X168830329Y-98346246D01*
X168807807Y-98354304D01*
X168784603Y-98360116D01*
X168760942Y-98363626D01*
X168737050Y-98364800D01*
X167824550Y-98364800D01*
X167800658Y-98363626D01*
X167776997Y-98360116D01*
X167753793Y-98354304D01*
X167731271Y-98346246D01*
X167709647Y-98336018D01*
X167689130Y-98323721D01*
X167669917Y-98309471D01*
X167652193Y-98293407D01*
X167636129Y-98275683D01*
X167621879Y-98256470D01*
X167609582Y-98235953D01*
X167599354Y-98214329D01*
X167591296Y-98191807D01*
X167585484Y-98168603D01*
X167581974Y-98144942D01*
X167580800Y-98121050D01*
X167580800Y-97633550D01*
X167581974Y-97609658D01*
X167585484Y-97585997D01*
X167591296Y-97562793D01*
X167599354Y-97540271D01*
X167609582Y-97518647D01*
X167621879Y-97498130D01*
X167636129Y-97478917D01*
X167652193Y-97461193D01*
X167669917Y-97445129D01*
X167689130Y-97430879D01*
X167709647Y-97418582D01*
X167731271Y-97408354D01*
X167753793Y-97400296D01*
X167776997Y-97394484D01*
X167800658Y-97390974D01*
X167824550Y-97389800D01*
X168737050Y-97389800D01*
X168760942Y-97390974D01*
X168760942Y-97390974D01*
G37*
D11*
X168280800Y-97877300D03*
M02*
