M48
; DRILL file {KiCad 5.1.3-ffb9f22~84~ubuntu19.04.1} date wto, 6 sie 2019, 17:14:29
; FORMAT={-:-/ absolute / inch / decimal}
; #@! TF.CreationDate,2019-08-06T17:14:29+02:00
; #@! TF.GenerationSoftware,Kicad,Pcbnew,5.1.3-ffb9f22~84~ubuntu19.04.1
; #@! TF.FileFunction,Plated,1,2,PTH
FMAT,2
INCH
T1C0.0157
T2C0.0197
T3C0.0315
T4C0.0394
T5C0.0598
%
G90
G05
T1
X5.795Y-3.252
X5.8Y-2.487
X6.185Y-3.302
X6.19Y-2.987
X6.2Y-3.037
X6.425Y-2.397
X6.53Y-2.837
X6.54Y-3.787
X6.545Y-2.577
X6.645Y-3.557
X6.775Y-3.172
X6.785Y-2.577
X6.79Y-3.482
X6.83Y-3.522
X6.95Y-3.392
X6.96Y-3.142
X6.965Y-2.787
X6.99Y-2.722
X7.034Y-3.242
X7.035Y-2.437
X7.086Y-3.362
X7.142Y-3.233
X7.17Y-3.142
X7.214Y-3.233
X7.26Y-3.147
X7.311Y-3.028
X7.385Y-2.267
X7.48Y-2.407
X7.48Y-2.847
X7.48Y-2.957
X7.48Y-3.187
X7.48Y-3.272
X7.6487Y-3.4482
X7.6487Y-3.4772
X7.6487Y-3.5043
X7.6487Y-3.5318
X7.6782Y-3.4482
X7.6782Y-3.4772
X7.6782Y-3.5043
X7.6782Y-3.5318
X7.7077Y-3.4482
X7.7077Y-3.4772
X7.7077Y-3.5043
X7.7077Y-3.5318
X7.7353Y-3.4482
X7.7353Y-3.4772
X7.7353Y-3.5043
X7.7353Y-3.5318
X7.845Y-2.737
T2
X7.835Y-4.172
X7.73Y-4.172
X6.3Y-3.107
X8.19Y-2.192
X6.3Y-3.262
X7.61Y-2.837
X7.69Y-2.837
X5.6Y-2.262
X5.6Y-4.147
T3
X7.3548Y-3.737
X7.3548Y-3.837
X7.3548Y-3.937
X7.1248Y-3.737
X7.1248Y-3.837
X7.1248Y-3.937
X5.778Y-2.235
X5.778Y-4.135
X5.878Y-2.235
X5.878Y-4.135
X5.978Y-2.235
X5.978Y-4.135
X6.078Y-2.235
X6.078Y-4.135
X6.178Y-2.235
X6.178Y-4.135
X6.278Y-2.235
X6.278Y-4.135
X6.378Y-4.135
X6.478Y-2.235
X6.478Y-4.135
X6.578Y-2.235
X6.6378Y-4.135
X6.678Y-2.235
X6.7378Y-4.135
X6.778Y-2.235
X6.8378Y-4.135
X6.878Y-2.235
X6.9378Y-4.135
X6.978Y-2.235
X7.0378Y-4.135
X7.078Y-2.235
X7.1378Y-4.135
X7.178Y-2.235
X7.2378Y-4.135
X7.3378Y-4.135
X7.4378Y-4.135
X7.5378Y-4.135
X7.3548Y-2.42
X7.3548Y-2.52
X7.3548Y-2.62
X7.1248Y-2.42
X7.1248Y-2.52
X7.1248Y-2.62
T4
X7.03Y-3.547
X7.13Y-3.547
X7.23Y-3.547
X8.0128Y-3.0269
X8.1128Y-3.0269
X7.03Y-2.827
X7.13Y-2.827
X7.23Y-2.827
T5
X5.57Y-2.43
X5.57Y-2.63
X5.57Y-3.742
X5.57Y-3.942
X5.57Y-3.3047
X5.57Y-3.5047
X5.57Y-2.8673
X5.57Y-3.0673
T3
G00X7.85Y-2.4812
M15
G01X7.85Y-2.3788
M16
G05
G00X8.0114Y-2.241
M15
G01X7.9248Y-2.241
M16
G05
G00X8.0783Y-2.4733
M15
G01X8.0783Y-2.3867
M16
G05
T0
M30
