G04 #@! TF.GenerationSoftware,KiCad,Pcbnew,5.1.3-ffb9f22~84~ubuntu19.04.1*
G04 #@! TF.CreationDate,2019-08-06T17:14:25+02:00*
G04 #@! TF.ProjectId,420-transmitter,3432302d-7472-4616-9e73-6d6974746572,rev?*
G04 #@! TF.SameCoordinates,Original*
G04 #@! TF.FileFunction,Soldermask,Bot*
G04 #@! TF.FilePolarity,Negative*
%FSLAX46Y46*%
G04 Gerber Fmt 4.6, Leading zero omitted, Abs format (unit mm)*
G04 Created by KiCad (PCBNEW 5.1.3-ffb9f22~84~ubuntu19.04.1) date 2019-08-06 17:14:25*
%MOMM*%
%LPD*%
G04 APERTURE LIST*
%ADD10C,0.100000*%
G04 APERTURE END LIST*
D10*
G36*
X196985000Y-90119800D02*
G01*
X193685000Y-90119800D01*
X193685000Y-87219800D01*
X196985000Y-87219800D01*
X196985000Y-90119800D01*
G37*
X196985000Y-90119800D02*
X193685000Y-90119800D01*
X193685000Y-87219800D01*
X196985000Y-87219800D01*
X196985000Y-90119800D01*
G36*
X199169721Y-105438974D02*
G01*
X199269995Y-105480509D01*
X199269996Y-105480510D01*
X199360242Y-105540810D01*
X199436990Y-105617558D01*
X199436991Y-105617560D01*
X199497291Y-105707805D01*
X199538826Y-105808079D01*
X199560000Y-105914530D01*
X199560000Y-106023070D01*
X199538826Y-106129521D01*
X199497291Y-106229795D01*
X199497290Y-106229796D01*
X199436990Y-106320042D01*
X199360242Y-106396790D01*
X199314812Y-106427145D01*
X199269995Y-106457091D01*
X199169721Y-106498626D01*
X199063270Y-106519800D01*
X198954730Y-106519800D01*
X198848279Y-106498626D01*
X198748005Y-106457091D01*
X198703188Y-106427145D01*
X198657758Y-106396790D01*
X198581010Y-106320042D01*
X198520710Y-106229796D01*
X198520709Y-106229795D01*
X198479174Y-106129521D01*
X198458000Y-106023070D01*
X198458000Y-105914530D01*
X198479174Y-105808079D01*
X198520709Y-105707805D01*
X198581009Y-105617560D01*
X198581010Y-105617558D01*
X198657758Y-105540810D01*
X198748004Y-105480510D01*
X198748005Y-105480509D01*
X198848279Y-105438974D01*
X198954730Y-105417800D01*
X199063270Y-105417800D01*
X199169721Y-105438974D01*
X199169721Y-105438974D01*
G37*
G36*
X196502721Y-105438974D02*
G01*
X196602995Y-105480509D01*
X196602996Y-105480510D01*
X196693242Y-105540810D01*
X196769990Y-105617558D01*
X196769991Y-105617560D01*
X196830291Y-105707805D01*
X196871826Y-105808079D01*
X196893000Y-105914530D01*
X196893000Y-106023070D01*
X196871826Y-106129521D01*
X196830291Y-106229795D01*
X196830290Y-106229796D01*
X196769990Y-106320042D01*
X196693242Y-106396790D01*
X196647812Y-106427145D01*
X196602995Y-106457091D01*
X196502721Y-106498626D01*
X196396270Y-106519800D01*
X196287730Y-106519800D01*
X196181279Y-106498626D01*
X196081005Y-106457091D01*
X196036188Y-106427145D01*
X195990758Y-106396790D01*
X195914010Y-106320042D01*
X195853710Y-106229796D01*
X195853709Y-106229795D01*
X195812174Y-106129521D01*
X195791000Y-106023070D01*
X195791000Y-105914530D01*
X195812174Y-105808079D01*
X195853709Y-105707805D01*
X195914009Y-105617560D01*
X195914010Y-105617558D01*
X195990758Y-105540810D01*
X196081004Y-105480510D01*
X196081005Y-105480509D01*
X196181279Y-105438974D01*
X196287730Y-105417800D01*
X196396270Y-105417800D01*
X196502721Y-105438974D01*
X196502721Y-105438974D01*
G37*
G36*
X142400721Y-104803974D02*
G01*
X142500995Y-104845509D01*
X142500996Y-104845510D01*
X142591242Y-104905810D01*
X142667990Y-104982558D01*
X142667991Y-104982560D01*
X142728291Y-105072805D01*
X142769826Y-105173079D01*
X142791000Y-105279530D01*
X142791000Y-105388070D01*
X142769826Y-105494521D01*
X142728291Y-105594795D01*
X142728290Y-105594796D01*
X142667990Y-105685042D01*
X142591242Y-105761790D01*
X142545812Y-105792145D01*
X142500995Y-105822091D01*
X142400721Y-105863626D01*
X142294270Y-105884800D01*
X142185730Y-105884800D01*
X142079279Y-105863626D01*
X141979005Y-105822091D01*
X141934188Y-105792145D01*
X141888758Y-105761790D01*
X141812010Y-105685042D01*
X141751710Y-105594796D01*
X141751709Y-105594795D01*
X141710174Y-105494521D01*
X141689000Y-105388070D01*
X141689000Y-105279530D01*
X141710174Y-105173079D01*
X141751709Y-105072805D01*
X141812009Y-104982560D01*
X141812010Y-104982558D01*
X141888758Y-104905810D01*
X141979004Y-104845510D01*
X141979005Y-104845509D01*
X142079279Y-104803974D01*
X142185730Y-104782800D01*
X142294270Y-104782800D01*
X142400721Y-104803974D01*
X142400721Y-104803974D01*
G37*
G36*
X176388023Y-104190313D02*
G01*
X176548442Y-104238976D01*
X176681106Y-104309886D01*
X176696278Y-104317996D01*
X176825859Y-104424341D01*
X176932204Y-104553922D01*
X176932205Y-104553924D01*
X177011224Y-104701758D01*
X177059887Y-104862177D01*
X177076317Y-105029000D01*
X177059887Y-105195823D01*
X177011224Y-105356242D01*
X176967003Y-105438974D01*
X176932204Y-105504078D01*
X176825859Y-105633659D01*
X176696278Y-105740004D01*
X176696276Y-105740005D01*
X176548442Y-105819024D01*
X176388023Y-105867687D01*
X176263004Y-105880000D01*
X176179396Y-105880000D01*
X176054377Y-105867687D01*
X175893958Y-105819024D01*
X175746124Y-105740005D01*
X175746122Y-105740004D01*
X175616541Y-105633659D01*
X175510196Y-105504078D01*
X175475397Y-105438974D01*
X175431176Y-105356242D01*
X175382513Y-105195823D01*
X175366083Y-105029000D01*
X175382513Y-104862177D01*
X175431176Y-104701758D01*
X175510195Y-104553924D01*
X175510196Y-104553922D01*
X175616541Y-104424341D01*
X175746122Y-104317996D01*
X175761294Y-104309886D01*
X175893958Y-104238976D01*
X176054377Y-104190313D01*
X176179396Y-104178000D01*
X176263004Y-104178000D01*
X176388023Y-104190313D01*
X176388023Y-104190313D01*
G37*
G36*
X149468023Y-104190313D02*
G01*
X149628442Y-104238976D01*
X149761106Y-104309886D01*
X149776278Y-104317996D01*
X149905859Y-104424341D01*
X150012204Y-104553922D01*
X150012205Y-104553924D01*
X150091224Y-104701758D01*
X150139887Y-104862177D01*
X150156317Y-105029000D01*
X150139887Y-105195823D01*
X150091224Y-105356242D01*
X150047003Y-105438974D01*
X150012204Y-105504078D01*
X149905859Y-105633659D01*
X149776278Y-105740004D01*
X149776276Y-105740005D01*
X149628442Y-105819024D01*
X149468023Y-105867687D01*
X149343004Y-105880000D01*
X149259396Y-105880000D01*
X149134377Y-105867687D01*
X148973958Y-105819024D01*
X148826124Y-105740005D01*
X148826122Y-105740004D01*
X148696541Y-105633659D01*
X148590196Y-105504078D01*
X148555397Y-105438974D01*
X148511176Y-105356242D01*
X148462513Y-105195823D01*
X148446083Y-105029000D01*
X148462513Y-104862177D01*
X148511176Y-104701758D01*
X148590195Y-104553924D01*
X148590196Y-104553922D01*
X148696541Y-104424341D01*
X148826122Y-104317996D01*
X148841294Y-104309886D01*
X148973958Y-104238976D01*
X149134377Y-104190313D01*
X149259396Y-104178000D01*
X149343004Y-104178000D01*
X149468023Y-104190313D01*
X149468023Y-104190313D01*
G37*
G36*
X146928023Y-104190313D02*
G01*
X147088442Y-104238976D01*
X147221106Y-104309886D01*
X147236278Y-104317996D01*
X147365859Y-104424341D01*
X147472204Y-104553922D01*
X147472205Y-104553924D01*
X147551224Y-104701758D01*
X147599887Y-104862177D01*
X147616317Y-105029000D01*
X147599887Y-105195823D01*
X147551224Y-105356242D01*
X147507003Y-105438974D01*
X147472204Y-105504078D01*
X147365859Y-105633659D01*
X147236278Y-105740004D01*
X147236276Y-105740005D01*
X147088442Y-105819024D01*
X146928023Y-105867687D01*
X146803004Y-105880000D01*
X146719396Y-105880000D01*
X146594377Y-105867687D01*
X146433958Y-105819024D01*
X146286124Y-105740005D01*
X146286122Y-105740004D01*
X146156541Y-105633659D01*
X146050196Y-105504078D01*
X146015397Y-105438974D01*
X145971176Y-105356242D01*
X145922513Y-105195823D01*
X145906083Y-105029000D01*
X145922513Y-104862177D01*
X145971176Y-104701758D01*
X146050195Y-104553924D01*
X146050196Y-104553922D01*
X146156541Y-104424341D01*
X146286122Y-104317996D01*
X146301294Y-104309886D01*
X146433958Y-104238976D01*
X146594377Y-104190313D01*
X146719396Y-104178000D01*
X146803004Y-104178000D01*
X146928023Y-104190313D01*
X146928023Y-104190313D01*
G37*
G36*
X186548023Y-104190313D02*
G01*
X186708442Y-104238976D01*
X186841106Y-104309886D01*
X186856278Y-104317996D01*
X186985859Y-104424341D01*
X187092204Y-104553922D01*
X187092205Y-104553924D01*
X187171224Y-104701758D01*
X187219887Y-104862177D01*
X187236317Y-105029000D01*
X187219887Y-105195823D01*
X187171224Y-105356242D01*
X187127003Y-105438974D01*
X187092204Y-105504078D01*
X186985859Y-105633659D01*
X186856278Y-105740004D01*
X186856276Y-105740005D01*
X186708442Y-105819024D01*
X186548023Y-105867687D01*
X186423004Y-105880000D01*
X186339396Y-105880000D01*
X186214377Y-105867687D01*
X186053958Y-105819024D01*
X185906124Y-105740005D01*
X185906122Y-105740004D01*
X185776541Y-105633659D01*
X185670196Y-105504078D01*
X185635397Y-105438974D01*
X185591176Y-105356242D01*
X185542513Y-105195823D01*
X185526083Y-105029000D01*
X185542513Y-104862177D01*
X185591176Y-104701758D01*
X185670195Y-104553924D01*
X185670196Y-104553922D01*
X185776541Y-104424341D01*
X185906122Y-104317996D01*
X185921294Y-104309886D01*
X186053958Y-104238976D01*
X186214377Y-104190313D01*
X186339396Y-104178000D01*
X186423004Y-104178000D01*
X186548023Y-104190313D01*
X186548023Y-104190313D01*
G37*
G36*
X184008023Y-104190313D02*
G01*
X184168442Y-104238976D01*
X184301106Y-104309886D01*
X184316278Y-104317996D01*
X184445859Y-104424341D01*
X184552204Y-104553922D01*
X184552205Y-104553924D01*
X184631224Y-104701758D01*
X184679887Y-104862177D01*
X184696317Y-105029000D01*
X184679887Y-105195823D01*
X184631224Y-105356242D01*
X184587003Y-105438974D01*
X184552204Y-105504078D01*
X184445859Y-105633659D01*
X184316278Y-105740004D01*
X184316276Y-105740005D01*
X184168442Y-105819024D01*
X184008023Y-105867687D01*
X183883004Y-105880000D01*
X183799396Y-105880000D01*
X183674377Y-105867687D01*
X183513958Y-105819024D01*
X183366124Y-105740005D01*
X183366122Y-105740004D01*
X183236541Y-105633659D01*
X183130196Y-105504078D01*
X183095397Y-105438974D01*
X183051176Y-105356242D01*
X183002513Y-105195823D01*
X182986083Y-105029000D01*
X183002513Y-104862177D01*
X183051176Y-104701758D01*
X183130195Y-104553924D01*
X183130196Y-104553922D01*
X183236541Y-104424341D01*
X183366122Y-104317996D01*
X183381294Y-104309886D01*
X183513958Y-104238976D01*
X183674377Y-104190313D01*
X183799396Y-104178000D01*
X183883004Y-104178000D01*
X184008023Y-104190313D01*
X184008023Y-104190313D01*
G37*
G36*
X181468023Y-104190313D02*
G01*
X181628442Y-104238976D01*
X181761106Y-104309886D01*
X181776278Y-104317996D01*
X181905859Y-104424341D01*
X182012204Y-104553922D01*
X182012205Y-104553924D01*
X182091224Y-104701758D01*
X182139887Y-104862177D01*
X182156317Y-105029000D01*
X182139887Y-105195823D01*
X182091224Y-105356242D01*
X182047003Y-105438974D01*
X182012204Y-105504078D01*
X181905859Y-105633659D01*
X181776278Y-105740004D01*
X181776276Y-105740005D01*
X181628442Y-105819024D01*
X181468023Y-105867687D01*
X181343004Y-105880000D01*
X181259396Y-105880000D01*
X181134377Y-105867687D01*
X180973958Y-105819024D01*
X180826124Y-105740005D01*
X180826122Y-105740004D01*
X180696541Y-105633659D01*
X180590196Y-105504078D01*
X180555397Y-105438974D01*
X180511176Y-105356242D01*
X180462513Y-105195823D01*
X180446083Y-105029000D01*
X180462513Y-104862177D01*
X180511176Y-104701758D01*
X180590195Y-104553924D01*
X180590196Y-104553922D01*
X180696541Y-104424341D01*
X180826122Y-104317996D01*
X180841294Y-104309886D01*
X180973958Y-104238976D01*
X181134377Y-104190313D01*
X181259396Y-104178000D01*
X181343004Y-104178000D01*
X181468023Y-104190313D01*
X181468023Y-104190313D01*
G37*
G36*
X178928023Y-104190313D02*
G01*
X179088442Y-104238976D01*
X179221106Y-104309886D01*
X179236278Y-104317996D01*
X179365859Y-104424341D01*
X179472204Y-104553922D01*
X179472205Y-104553924D01*
X179551224Y-104701758D01*
X179599887Y-104862177D01*
X179616317Y-105029000D01*
X179599887Y-105195823D01*
X179551224Y-105356242D01*
X179507003Y-105438974D01*
X179472204Y-105504078D01*
X179365859Y-105633659D01*
X179236278Y-105740004D01*
X179236276Y-105740005D01*
X179088442Y-105819024D01*
X178928023Y-105867687D01*
X178803004Y-105880000D01*
X178719396Y-105880000D01*
X178594377Y-105867687D01*
X178433958Y-105819024D01*
X178286124Y-105740005D01*
X178286122Y-105740004D01*
X178156541Y-105633659D01*
X178050196Y-105504078D01*
X178015397Y-105438974D01*
X177971176Y-105356242D01*
X177922513Y-105195823D01*
X177906083Y-105029000D01*
X177922513Y-104862177D01*
X177971176Y-104701758D01*
X178050195Y-104553924D01*
X178050196Y-104553922D01*
X178156541Y-104424341D01*
X178286122Y-104317996D01*
X178301294Y-104309886D01*
X178433958Y-104238976D01*
X178594377Y-104190313D01*
X178719396Y-104178000D01*
X178803004Y-104178000D01*
X178928023Y-104190313D01*
X178928023Y-104190313D01*
G37*
G36*
X173848023Y-104190313D02*
G01*
X174008442Y-104238976D01*
X174141106Y-104309886D01*
X174156278Y-104317996D01*
X174285859Y-104424341D01*
X174392204Y-104553922D01*
X174392205Y-104553924D01*
X174471224Y-104701758D01*
X174519887Y-104862177D01*
X174536317Y-105029000D01*
X174519887Y-105195823D01*
X174471224Y-105356242D01*
X174427003Y-105438974D01*
X174392204Y-105504078D01*
X174285859Y-105633659D01*
X174156278Y-105740004D01*
X174156276Y-105740005D01*
X174008442Y-105819024D01*
X173848023Y-105867687D01*
X173723004Y-105880000D01*
X173639396Y-105880000D01*
X173514377Y-105867687D01*
X173353958Y-105819024D01*
X173206124Y-105740005D01*
X173206122Y-105740004D01*
X173076541Y-105633659D01*
X172970196Y-105504078D01*
X172935397Y-105438974D01*
X172891176Y-105356242D01*
X172842513Y-105195823D01*
X172826083Y-105029000D01*
X172842513Y-104862177D01*
X172891176Y-104701758D01*
X172970195Y-104553924D01*
X172970196Y-104553922D01*
X173076541Y-104424341D01*
X173206122Y-104317996D01*
X173221294Y-104309886D01*
X173353958Y-104238976D01*
X173514377Y-104190313D01*
X173639396Y-104178000D01*
X173723004Y-104178000D01*
X173848023Y-104190313D01*
X173848023Y-104190313D01*
G37*
G36*
X171308023Y-104190313D02*
G01*
X171468442Y-104238976D01*
X171601106Y-104309886D01*
X171616278Y-104317996D01*
X171745859Y-104424341D01*
X171852204Y-104553922D01*
X171852205Y-104553924D01*
X171931224Y-104701758D01*
X171979887Y-104862177D01*
X171996317Y-105029000D01*
X171979887Y-105195823D01*
X171931224Y-105356242D01*
X171887003Y-105438974D01*
X171852204Y-105504078D01*
X171745859Y-105633659D01*
X171616278Y-105740004D01*
X171616276Y-105740005D01*
X171468442Y-105819024D01*
X171308023Y-105867687D01*
X171183004Y-105880000D01*
X171099396Y-105880000D01*
X170974377Y-105867687D01*
X170813958Y-105819024D01*
X170666124Y-105740005D01*
X170666122Y-105740004D01*
X170536541Y-105633659D01*
X170430196Y-105504078D01*
X170395397Y-105438974D01*
X170351176Y-105356242D01*
X170302513Y-105195823D01*
X170286083Y-105029000D01*
X170302513Y-104862177D01*
X170351176Y-104701758D01*
X170430195Y-104553924D01*
X170430196Y-104553922D01*
X170536541Y-104424341D01*
X170666122Y-104317996D01*
X170681294Y-104309886D01*
X170813958Y-104238976D01*
X170974377Y-104190313D01*
X171099396Y-104178000D01*
X171183004Y-104178000D01*
X171308023Y-104190313D01*
X171308023Y-104190313D01*
G37*
G36*
X168768023Y-104190313D02*
G01*
X168928442Y-104238976D01*
X169061106Y-104309886D01*
X169076278Y-104317996D01*
X169205859Y-104424341D01*
X169312204Y-104553922D01*
X169312205Y-104553924D01*
X169391224Y-104701758D01*
X169439887Y-104862177D01*
X169456317Y-105029000D01*
X169439887Y-105195823D01*
X169391224Y-105356242D01*
X169347003Y-105438974D01*
X169312204Y-105504078D01*
X169205859Y-105633659D01*
X169076278Y-105740004D01*
X169076276Y-105740005D01*
X168928442Y-105819024D01*
X168768023Y-105867687D01*
X168643004Y-105880000D01*
X168559396Y-105880000D01*
X168434377Y-105867687D01*
X168273958Y-105819024D01*
X168126124Y-105740005D01*
X168126122Y-105740004D01*
X167996541Y-105633659D01*
X167890196Y-105504078D01*
X167855397Y-105438974D01*
X167811176Y-105356242D01*
X167762513Y-105195823D01*
X167746083Y-105029000D01*
X167762513Y-104862177D01*
X167811176Y-104701758D01*
X167890195Y-104553924D01*
X167890196Y-104553922D01*
X167996541Y-104424341D01*
X168126122Y-104317996D01*
X168141294Y-104309886D01*
X168273958Y-104238976D01*
X168434377Y-104190313D01*
X168559396Y-104178000D01*
X168643004Y-104178000D01*
X168768023Y-104190313D01*
X168768023Y-104190313D01*
G37*
G36*
X164708023Y-104190313D02*
G01*
X164868442Y-104238976D01*
X165001106Y-104309886D01*
X165016278Y-104317996D01*
X165145859Y-104424341D01*
X165252204Y-104553922D01*
X165252205Y-104553924D01*
X165331224Y-104701758D01*
X165379887Y-104862177D01*
X165396317Y-105029000D01*
X165379887Y-105195823D01*
X165331224Y-105356242D01*
X165287003Y-105438974D01*
X165252204Y-105504078D01*
X165145859Y-105633659D01*
X165016278Y-105740004D01*
X165016276Y-105740005D01*
X164868442Y-105819024D01*
X164708023Y-105867687D01*
X164583004Y-105880000D01*
X164499396Y-105880000D01*
X164374377Y-105867687D01*
X164213958Y-105819024D01*
X164066124Y-105740005D01*
X164066122Y-105740004D01*
X163936541Y-105633659D01*
X163830196Y-105504078D01*
X163795397Y-105438974D01*
X163751176Y-105356242D01*
X163702513Y-105195823D01*
X163686083Y-105029000D01*
X163702513Y-104862177D01*
X163751176Y-104701758D01*
X163830195Y-104553924D01*
X163830196Y-104553922D01*
X163936541Y-104424341D01*
X164066122Y-104317996D01*
X164081294Y-104309886D01*
X164213958Y-104238976D01*
X164374377Y-104190313D01*
X164499396Y-104178000D01*
X164583004Y-104178000D01*
X164708023Y-104190313D01*
X164708023Y-104190313D01*
G37*
G36*
X162168023Y-104190313D02*
G01*
X162328442Y-104238976D01*
X162461106Y-104309886D01*
X162476278Y-104317996D01*
X162605859Y-104424341D01*
X162712204Y-104553922D01*
X162712205Y-104553924D01*
X162791224Y-104701758D01*
X162839887Y-104862177D01*
X162856317Y-105029000D01*
X162839887Y-105195823D01*
X162791224Y-105356242D01*
X162747003Y-105438974D01*
X162712204Y-105504078D01*
X162605859Y-105633659D01*
X162476278Y-105740004D01*
X162476276Y-105740005D01*
X162328442Y-105819024D01*
X162168023Y-105867687D01*
X162043004Y-105880000D01*
X161959396Y-105880000D01*
X161834377Y-105867687D01*
X161673958Y-105819024D01*
X161526124Y-105740005D01*
X161526122Y-105740004D01*
X161396541Y-105633659D01*
X161290196Y-105504078D01*
X161255397Y-105438974D01*
X161211176Y-105356242D01*
X161162513Y-105195823D01*
X161146083Y-105029000D01*
X161162513Y-104862177D01*
X161211176Y-104701758D01*
X161290195Y-104553924D01*
X161290196Y-104553922D01*
X161396541Y-104424341D01*
X161526122Y-104317996D01*
X161541294Y-104309886D01*
X161673958Y-104238976D01*
X161834377Y-104190313D01*
X161959396Y-104178000D01*
X162043004Y-104178000D01*
X162168023Y-104190313D01*
X162168023Y-104190313D01*
G37*
G36*
X159628023Y-104190313D02*
G01*
X159788442Y-104238976D01*
X159921106Y-104309886D01*
X159936278Y-104317996D01*
X160065859Y-104424341D01*
X160172204Y-104553922D01*
X160172205Y-104553924D01*
X160251224Y-104701758D01*
X160299887Y-104862177D01*
X160316317Y-105029000D01*
X160299887Y-105195823D01*
X160251224Y-105356242D01*
X160207003Y-105438974D01*
X160172204Y-105504078D01*
X160065859Y-105633659D01*
X159936278Y-105740004D01*
X159936276Y-105740005D01*
X159788442Y-105819024D01*
X159628023Y-105867687D01*
X159503004Y-105880000D01*
X159419396Y-105880000D01*
X159294377Y-105867687D01*
X159133958Y-105819024D01*
X158986124Y-105740005D01*
X158986122Y-105740004D01*
X158856541Y-105633659D01*
X158750196Y-105504078D01*
X158715397Y-105438974D01*
X158671176Y-105356242D01*
X158622513Y-105195823D01*
X158606083Y-105029000D01*
X158622513Y-104862177D01*
X158671176Y-104701758D01*
X158750195Y-104553924D01*
X158750196Y-104553922D01*
X158856541Y-104424341D01*
X158986122Y-104317996D01*
X159001294Y-104309886D01*
X159133958Y-104238976D01*
X159294377Y-104190313D01*
X159419396Y-104178000D01*
X159503004Y-104178000D01*
X159628023Y-104190313D01*
X159628023Y-104190313D01*
G37*
G36*
X157088023Y-104190313D02*
G01*
X157248442Y-104238976D01*
X157381106Y-104309886D01*
X157396278Y-104317996D01*
X157525859Y-104424341D01*
X157632204Y-104553922D01*
X157632205Y-104553924D01*
X157711224Y-104701758D01*
X157759887Y-104862177D01*
X157776317Y-105029000D01*
X157759887Y-105195823D01*
X157711224Y-105356242D01*
X157667003Y-105438974D01*
X157632204Y-105504078D01*
X157525859Y-105633659D01*
X157396278Y-105740004D01*
X157396276Y-105740005D01*
X157248442Y-105819024D01*
X157088023Y-105867687D01*
X156963004Y-105880000D01*
X156879396Y-105880000D01*
X156754377Y-105867687D01*
X156593958Y-105819024D01*
X156446124Y-105740005D01*
X156446122Y-105740004D01*
X156316541Y-105633659D01*
X156210196Y-105504078D01*
X156175397Y-105438974D01*
X156131176Y-105356242D01*
X156082513Y-105195823D01*
X156066083Y-105029000D01*
X156082513Y-104862177D01*
X156131176Y-104701758D01*
X156210195Y-104553924D01*
X156210196Y-104553922D01*
X156316541Y-104424341D01*
X156446122Y-104317996D01*
X156461294Y-104309886D01*
X156593958Y-104238976D01*
X156754377Y-104190313D01*
X156879396Y-104178000D01*
X156963004Y-104178000D01*
X157088023Y-104190313D01*
X157088023Y-104190313D01*
G37*
G36*
X154548023Y-104190313D02*
G01*
X154708442Y-104238976D01*
X154841106Y-104309886D01*
X154856278Y-104317996D01*
X154985859Y-104424341D01*
X155092204Y-104553922D01*
X155092205Y-104553924D01*
X155171224Y-104701758D01*
X155219887Y-104862177D01*
X155236317Y-105029000D01*
X155219887Y-105195823D01*
X155171224Y-105356242D01*
X155127003Y-105438974D01*
X155092204Y-105504078D01*
X154985859Y-105633659D01*
X154856278Y-105740004D01*
X154856276Y-105740005D01*
X154708442Y-105819024D01*
X154548023Y-105867687D01*
X154423004Y-105880000D01*
X154339396Y-105880000D01*
X154214377Y-105867687D01*
X154053958Y-105819024D01*
X153906124Y-105740005D01*
X153906122Y-105740004D01*
X153776541Y-105633659D01*
X153670196Y-105504078D01*
X153635397Y-105438974D01*
X153591176Y-105356242D01*
X153542513Y-105195823D01*
X153526083Y-105029000D01*
X153542513Y-104862177D01*
X153591176Y-104701758D01*
X153670195Y-104553924D01*
X153670196Y-104553922D01*
X153776541Y-104424341D01*
X153906122Y-104317996D01*
X153921294Y-104309886D01*
X154053958Y-104238976D01*
X154214377Y-104190313D01*
X154339396Y-104178000D01*
X154423004Y-104178000D01*
X154548023Y-104190313D01*
X154548023Y-104190313D01*
G37*
G36*
X152008023Y-104190313D02*
G01*
X152168442Y-104238976D01*
X152301106Y-104309886D01*
X152316278Y-104317996D01*
X152445859Y-104424341D01*
X152552204Y-104553922D01*
X152552205Y-104553924D01*
X152631224Y-104701758D01*
X152679887Y-104862177D01*
X152696317Y-105029000D01*
X152679887Y-105195823D01*
X152631224Y-105356242D01*
X152587003Y-105438974D01*
X152552204Y-105504078D01*
X152445859Y-105633659D01*
X152316278Y-105740004D01*
X152316276Y-105740005D01*
X152168442Y-105819024D01*
X152008023Y-105867687D01*
X151883004Y-105880000D01*
X151799396Y-105880000D01*
X151674377Y-105867687D01*
X151513958Y-105819024D01*
X151366124Y-105740005D01*
X151366122Y-105740004D01*
X151236541Y-105633659D01*
X151130196Y-105504078D01*
X151095397Y-105438974D01*
X151051176Y-105356242D01*
X151002513Y-105195823D01*
X150986083Y-105029000D01*
X151002513Y-104862177D01*
X151051176Y-104701758D01*
X151130195Y-104553924D01*
X151130196Y-104553922D01*
X151236541Y-104424341D01*
X151366122Y-104317996D01*
X151381294Y-104309886D01*
X151513958Y-104238976D01*
X151674377Y-104190313D01*
X151799396Y-104178000D01*
X151883004Y-104178000D01*
X152008023Y-104190313D01*
X152008023Y-104190313D01*
G37*
G36*
X189088023Y-104190313D02*
G01*
X189248442Y-104238976D01*
X189381106Y-104309886D01*
X189396278Y-104317996D01*
X189525859Y-104424341D01*
X189632204Y-104553922D01*
X189632205Y-104553924D01*
X189711224Y-104701758D01*
X189759887Y-104862177D01*
X189776317Y-105029000D01*
X189759887Y-105195823D01*
X189711224Y-105356242D01*
X189667003Y-105438974D01*
X189632204Y-105504078D01*
X189525859Y-105633659D01*
X189396278Y-105740004D01*
X189396276Y-105740005D01*
X189248442Y-105819024D01*
X189088023Y-105867687D01*
X188963004Y-105880000D01*
X188879396Y-105880000D01*
X188754377Y-105867687D01*
X188593958Y-105819024D01*
X188446124Y-105740005D01*
X188446122Y-105740004D01*
X188316541Y-105633659D01*
X188210196Y-105504078D01*
X188175397Y-105438974D01*
X188131176Y-105356242D01*
X188082513Y-105195823D01*
X188066083Y-105029000D01*
X188082513Y-104862177D01*
X188131176Y-104701758D01*
X188210195Y-104553924D01*
X188210196Y-104553922D01*
X188316541Y-104424341D01*
X188446122Y-104317996D01*
X188461294Y-104309886D01*
X188593958Y-104238976D01*
X188754377Y-104190313D01*
X188879396Y-104178000D01*
X188963004Y-104178000D01*
X189088023Y-104190313D01*
X189088023Y-104190313D01*
G37*
G36*
X191628023Y-104190313D02*
G01*
X191788442Y-104238976D01*
X191921106Y-104309886D01*
X191936278Y-104317996D01*
X192065859Y-104424341D01*
X192172204Y-104553922D01*
X192172205Y-104553924D01*
X192251224Y-104701758D01*
X192299887Y-104862177D01*
X192316317Y-105029000D01*
X192299887Y-105195823D01*
X192251224Y-105356242D01*
X192207003Y-105438974D01*
X192172204Y-105504078D01*
X192065859Y-105633659D01*
X191936278Y-105740004D01*
X191936276Y-105740005D01*
X191788442Y-105819024D01*
X191628023Y-105867687D01*
X191503004Y-105880000D01*
X191419396Y-105880000D01*
X191294377Y-105867687D01*
X191133958Y-105819024D01*
X190986124Y-105740005D01*
X190986122Y-105740004D01*
X190856541Y-105633659D01*
X190750196Y-105504078D01*
X190715397Y-105438974D01*
X190671176Y-105356242D01*
X190622513Y-105195823D01*
X190606083Y-105029000D01*
X190622513Y-104862177D01*
X190671176Y-104701758D01*
X190750195Y-104553924D01*
X190750196Y-104553922D01*
X190856541Y-104424341D01*
X190986122Y-104317996D01*
X191001294Y-104309886D01*
X191133958Y-104238976D01*
X191294377Y-104190313D01*
X191419396Y-104178000D01*
X191503004Y-104178000D01*
X191628023Y-104190313D01*
X191628023Y-104190313D01*
G37*
G36*
X141780585Y-98605602D02*
G01*
X141930410Y-98635404D01*
X142212674Y-98752321D01*
X142466705Y-98922059D01*
X142682741Y-99138095D01*
X142852479Y-99392126D01*
X142969396Y-99674390D01*
X142969396Y-99674391D01*
X143029000Y-99974039D01*
X143029000Y-100279561D01*
X143010711Y-100371504D01*
X142969396Y-100579210D01*
X142852479Y-100861474D01*
X142682741Y-101115505D01*
X142466705Y-101331541D01*
X142212674Y-101501279D01*
X141930410Y-101618196D01*
X141780585Y-101647998D01*
X141630761Y-101677800D01*
X141325239Y-101677800D01*
X141175415Y-101647998D01*
X141025590Y-101618196D01*
X140743326Y-101501279D01*
X140489295Y-101331541D01*
X140273259Y-101115505D01*
X140103521Y-100861474D01*
X139986604Y-100579210D01*
X139945289Y-100371504D01*
X139927000Y-100279561D01*
X139927000Y-99974039D01*
X139986604Y-99674391D01*
X139986604Y-99674390D01*
X140103521Y-99392126D01*
X140273259Y-99138095D01*
X140489295Y-98922059D01*
X140743326Y-98752321D01*
X141025590Y-98635404D01*
X141175415Y-98605602D01*
X141325239Y-98575800D01*
X141630761Y-98575800D01*
X141780585Y-98605602D01*
X141780585Y-98605602D01*
G37*
G36*
X181072557Y-99234295D02*
G01*
X181194893Y-99258629D01*
X181335206Y-99316748D01*
X181461484Y-99401125D01*
X181568875Y-99508516D01*
X181653252Y-99634794D01*
X181711371Y-99775107D01*
X181741000Y-99924063D01*
X181741000Y-100075937D01*
X181711371Y-100224893D01*
X181653252Y-100365206D01*
X181568875Y-100491484D01*
X181461484Y-100598875D01*
X181335206Y-100683252D01*
X181194893Y-100741371D01*
X181095589Y-100761124D01*
X181045938Y-100771000D01*
X180894062Y-100771000D01*
X180844411Y-100761124D01*
X180745107Y-100741371D01*
X180604794Y-100683252D01*
X180478516Y-100598875D01*
X180371125Y-100491484D01*
X180286748Y-100365206D01*
X180228629Y-100224893D01*
X180199000Y-100075937D01*
X180199000Y-99924063D01*
X180228629Y-99775107D01*
X180286748Y-99634794D01*
X180371125Y-99508516D01*
X180478516Y-99401125D01*
X180604794Y-99316748D01*
X180745107Y-99258629D01*
X180867443Y-99234295D01*
X180894062Y-99229000D01*
X181045938Y-99229000D01*
X181072557Y-99234295D01*
X181072557Y-99234295D01*
G37*
G36*
X186914557Y-99234295D02*
G01*
X187036893Y-99258629D01*
X187177206Y-99316748D01*
X187303484Y-99401125D01*
X187410875Y-99508516D01*
X187495252Y-99634794D01*
X187553371Y-99775107D01*
X187583000Y-99924063D01*
X187583000Y-100075937D01*
X187553371Y-100224893D01*
X187495252Y-100365206D01*
X187410875Y-100491484D01*
X187303484Y-100598875D01*
X187177206Y-100683252D01*
X187036893Y-100741371D01*
X186937589Y-100761124D01*
X186887938Y-100771000D01*
X186736062Y-100771000D01*
X186686411Y-100761124D01*
X186587107Y-100741371D01*
X186446794Y-100683252D01*
X186320516Y-100598875D01*
X186213125Y-100491484D01*
X186128748Y-100365206D01*
X186070629Y-100224893D01*
X186041000Y-100075937D01*
X186041000Y-99924063D01*
X186070629Y-99775107D01*
X186128748Y-99634794D01*
X186213125Y-99508516D01*
X186320516Y-99401125D01*
X186446794Y-99316748D01*
X186587107Y-99258629D01*
X186709443Y-99234295D01*
X186736062Y-99229000D01*
X186887938Y-99229000D01*
X186914557Y-99234295D01*
X186914557Y-99234295D01*
G37*
G36*
X175215268Y-99315365D02*
G01*
X175253938Y-99327096D01*
X175289577Y-99346146D01*
X175320817Y-99371783D01*
X175346454Y-99403023D01*
X175365504Y-99438662D01*
X175377235Y-99477332D01*
X175381800Y-99523688D01*
X175381800Y-100174912D01*
X175377235Y-100221268D01*
X175365504Y-100259938D01*
X175346454Y-100295577D01*
X175320817Y-100326817D01*
X175289577Y-100352454D01*
X175253938Y-100371504D01*
X175215268Y-100383235D01*
X175168912Y-100387800D01*
X174092688Y-100387800D01*
X174046332Y-100383235D01*
X174007662Y-100371504D01*
X173972023Y-100352454D01*
X173940783Y-100326817D01*
X173915146Y-100295577D01*
X173896096Y-100259938D01*
X173884365Y-100221268D01*
X173879800Y-100174912D01*
X173879800Y-99523688D01*
X173884365Y-99477332D01*
X173896096Y-99438662D01*
X173915146Y-99403023D01*
X173940783Y-99371783D01*
X173972023Y-99346146D01*
X174007662Y-99327096D01*
X174046332Y-99315365D01*
X174092688Y-99310800D01*
X175168912Y-99310800D01*
X175215268Y-99315365D01*
X175215268Y-99315365D01*
G37*
G36*
X177319268Y-99315365D02*
G01*
X177357938Y-99327096D01*
X177393577Y-99346146D01*
X177424817Y-99371783D01*
X177450454Y-99403023D01*
X177469504Y-99438662D01*
X177481235Y-99477332D01*
X177485800Y-99523688D01*
X177485800Y-100174912D01*
X177481235Y-100221268D01*
X177469504Y-100259938D01*
X177450454Y-100295577D01*
X177424817Y-100326817D01*
X177393577Y-100352454D01*
X177357938Y-100371504D01*
X177319268Y-100383235D01*
X177272912Y-100387800D01*
X176196688Y-100387800D01*
X176150332Y-100383235D01*
X176111662Y-100371504D01*
X176076023Y-100352454D01*
X176044783Y-100326817D01*
X176019146Y-100295577D01*
X176000096Y-100259938D01*
X175988365Y-100221268D01*
X175983800Y-100174912D01*
X175983800Y-99523688D01*
X175988365Y-99477332D01*
X176000096Y-99438662D01*
X176019146Y-99403023D01*
X176044783Y-99371783D01*
X176076023Y-99346146D01*
X176111662Y-99327096D01*
X176150332Y-99315365D01*
X176196688Y-99310800D01*
X177272912Y-99310800D01*
X177319268Y-99315365D01*
X177319268Y-99315365D01*
G37*
G36*
X171119268Y-99218365D02*
G01*
X171157938Y-99230096D01*
X171193577Y-99249146D01*
X171224817Y-99274783D01*
X171250454Y-99306023D01*
X171269504Y-99341662D01*
X171281235Y-99380332D01*
X171285800Y-99426688D01*
X171285800Y-100077912D01*
X171281235Y-100124268D01*
X171269504Y-100162938D01*
X171250454Y-100198577D01*
X171224817Y-100229817D01*
X171193577Y-100255454D01*
X171157938Y-100274504D01*
X171119268Y-100286235D01*
X171072912Y-100290800D01*
X169996688Y-100290800D01*
X169950332Y-100286235D01*
X169911662Y-100274504D01*
X169876023Y-100255454D01*
X169844783Y-100229817D01*
X169819146Y-100198577D01*
X169800096Y-100162938D01*
X169788365Y-100124268D01*
X169783800Y-100077912D01*
X169783800Y-99426688D01*
X169788365Y-99380332D01*
X169800096Y-99341662D01*
X169819146Y-99306023D01*
X169844783Y-99274783D01*
X169876023Y-99249146D01*
X169911662Y-99230096D01*
X169950332Y-99218365D01*
X169996688Y-99213800D01*
X171072912Y-99213800D01*
X171119268Y-99218365D01*
X171119268Y-99218365D01*
G37*
G36*
X168865268Y-99218365D02*
G01*
X168903938Y-99230096D01*
X168939577Y-99249146D01*
X168970817Y-99274783D01*
X168996454Y-99306023D01*
X169015504Y-99341662D01*
X169027235Y-99380332D01*
X169031800Y-99426688D01*
X169031800Y-100077912D01*
X169027235Y-100124268D01*
X169015504Y-100162938D01*
X168996454Y-100198577D01*
X168970817Y-100229817D01*
X168939577Y-100255454D01*
X168903938Y-100274504D01*
X168865268Y-100286235D01*
X168818912Y-100290800D01*
X167742688Y-100290800D01*
X167696332Y-100286235D01*
X167657662Y-100274504D01*
X167622023Y-100255454D01*
X167590783Y-100229817D01*
X167565146Y-100198577D01*
X167546096Y-100162938D01*
X167534365Y-100124268D01*
X167529800Y-100077912D01*
X167529800Y-99426688D01*
X167534365Y-99380332D01*
X167546096Y-99341662D01*
X167565146Y-99306023D01*
X167590783Y-99274783D01*
X167622023Y-99249146D01*
X167657662Y-99230096D01*
X167696332Y-99218365D01*
X167742688Y-99213800D01*
X168818912Y-99213800D01*
X168865268Y-99218365D01*
X168865268Y-99218365D01*
G37*
G36*
X177319268Y-97440365D02*
G01*
X177357938Y-97452096D01*
X177393577Y-97471146D01*
X177424817Y-97496783D01*
X177450454Y-97528023D01*
X177469504Y-97563662D01*
X177481235Y-97602332D01*
X177485800Y-97648688D01*
X177485800Y-98299912D01*
X177481235Y-98346268D01*
X177469504Y-98384938D01*
X177450454Y-98420577D01*
X177424817Y-98451817D01*
X177393577Y-98477454D01*
X177357938Y-98496504D01*
X177319268Y-98508235D01*
X177272912Y-98512800D01*
X176196688Y-98512800D01*
X176150332Y-98508235D01*
X176111662Y-98496504D01*
X176076023Y-98477454D01*
X176044783Y-98451817D01*
X176019146Y-98420577D01*
X176000096Y-98384938D01*
X175988365Y-98346268D01*
X175983800Y-98299912D01*
X175983800Y-97648688D01*
X175988365Y-97602332D01*
X176000096Y-97563662D01*
X176019146Y-97528023D01*
X176044783Y-97496783D01*
X176076023Y-97471146D01*
X176111662Y-97452096D01*
X176150332Y-97440365D01*
X176196688Y-97435800D01*
X177272912Y-97435800D01*
X177319268Y-97440365D01*
X177319268Y-97440365D01*
G37*
G36*
X175215268Y-97440365D02*
G01*
X175253938Y-97452096D01*
X175289577Y-97471146D01*
X175320817Y-97496783D01*
X175346454Y-97528023D01*
X175365504Y-97563662D01*
X175377235Y-97602332D01*
X175381800Y-97648688D01*
X175381800Y-98299912D01*
X175377235Y-98346268D01*
X175365504Y-98384938D01*
X175346454Y-98420577D01*
X175320817Y-98451817D01*
X175289577Y-98477454D01*
X175253938Y-98496504D01*
X175215268Y-98508235D01*
X175168912Y-98512800D01*
X174092688Y-98512800D01*
X174046332Y-98508235D01*
X174007662Y-98496504D01*
X173972023Y-98477454D01*
X173940783Y-98451817D01*
X173915146Y-98420577D01*
X173896096Y-98384938D01*
X173884365Y-98346268D01*
X173879800Y-98299912D01*
X173879800Y-97648688D01*
X173884365Y-97602332D01*
X173896096Y-97563662D01*
X173915146Y-97528023D01*
X173940783Y-97496783D01*
X173972023Y-97471146D01*
X174007662Y-97452096D01*
X174046332Y-97440365D01*
X174092688Y-97435800D01*
X175168912Y-97435800D01*
X175215268Y-97440365D01*
X175215268Y-97440365D01*
G37*
G36*
X168865268Y-97343365D02*
G01*
X168903938Y-97355096D01*
X168939577Y-97374146D01*
X168970817Y-97399783D01*
X168996454Y-97431023D01*
X169015504Y-97466662D01*
X169027235Y-97505332D01*
X169031800Y-97551688D01*
X169031800Y-98202912D01*
X169027235Y-98249268D01*
X169015504Y-98287938D01*
X168996454Y-98323577D01*
X168970817Y-98354817D01*
X168939577Y-98380454D01*
X168903938Y-98399504D01*
X168865268Y-98411235D01*
X168818912Y-98415800D01*
X167742688Y-98415800D01*
X167696332Y-98411235D01*
X167657662Y-98399504D01*
X167622023Y-98380454D01*
X167590783Y-98354817D01*
X167565146Y-98323577D01*
X167546096Y-98287938D01*
X167534365Y-98249268D01*
X167529800Y-98202912D01*
X167529800Y-97551688D01*
X167534365Y-97505332D01*
X167546096Y-97466662D01*
X167565146Y-97431023D01*
X167590783Y-97399783D01*
X167622023Y-97374146D01*
X167657662Y-97355096D01*
X167696332Y-97343365D01*
X167742688Y-97338800D01*
X168818912Y-97338800D01*
X168865268Y-97343365D01*
X168865268Y-97343365D01*
G37*
G36*
X171119268Y-97343365D02*
G01*
X171157938Y-97355096D01*
X171193577Y-97374146D01*
X171224817Y-97399783D01*
X171250454Y-97431023D01*
X171269504Y-97466662D01*
X171281235Y-97505332D01*
X171285800Y-97551688D01*
X171285800Y-98202912D01*
X171281235Y-98249268D01*
X171269504Y-98287938D01*
X171250454Y-98323577D01*
X171224817Y-98354817D01*
X171193577Y-98380454D01*
X171157938Y-98399504D01*
X171119268Y-98411235D01*
X171072912Y-98415800D01*
X169996688Y-98415800D01*
X169950332Y-98411235D01*
X169911662Y-98399504D01*
X169876023Y-98380454D01*
X169844783Y-98354817D01*
X169819146Y-98323577D01*
X169800096Y-98287938D01*
X169788365Y-98249268D01*
X169783800Y-98202912D01*
X169783800Y-97551688D01*
X169788365Y-97505332D01*
X169800096Y-97466662D01*
X169819146Y-97431023D01*
X169844783Y-97399783D01*
X169876023Y-97374146D01*
X169911662Y-97355096D01*
X169950332Y-97343365D01*
X169996688Y-97338800D01*
X171072912Y-97338800D01*
X171119268Y-97343365D01*
X171119268Y-97343365D01*
G37*
G36*
X181095589Y-96698876D02*
G01*
X181194893Y-96718629D01*
X181335206Y-96776748D01*
X181461484Y-96861125D01*
X181568875Y-96968516D01*
X181653252Y-97094794D01*
X181711371Y-97235107D01*
X181711371Y-97235109D01*
X181739028Y-97374146D01*
X181741000Y-97384063D01*
X181741000Y-97535937D01*
X181711371Y-97684893D01*
X181653252Y-97825206D01*
X181568875Y-97951484D01*
X181461484Y-98058875D01*
X181335206Y-98143252D01*
X181194893Y-98201371D01*
X181095589Y-98221124D01*
X181045938Y-98231000D01*
X180894062Y-98231000D01*
X180844411Y-98221124D01*
X180745107Y-98201371D01*
X180604794Y-98143252D01*
X180478516Y-98058875D01*
X180371125Y-97951484D01*
X180286748Y-97825206D01*
X180228629Y-97684893D01*
X180199000Y-97535937D01*
X180199000Y-97384063D01*
X180200973Y-97374146D01*
X180228629Y-97235109D01*
X180228629Y-97235107D01*
X180286748Y-97094794D01*
X180371125Y-96968516D01*
X180478516Y-96861125D01*
X180604794Y-96776748D01*
X180745107Y-96718629D01*
X180844411Y-96698876D01*
X180894062Y-96689000D01*
X181045938Y-96689000D01*
X181095589Y-96698876D01*
X181095589Y-96698876D01*
G37*
G36*
X186937589Y-96698876D02*
G01*
X187036893Y-96718629D01*
X187177206Y-96776748D01*
X187303484Y-96861125D01*
X187410875Y-96968516D01*
X187495252Y-97094794D01*
X187553371Y-97235107D01*
X187553371Y-97235109D01*
X187581028Y-97374146D01*
X187583000Y-97384063D01*
X187583000Y-97535937D01*
X187553371Y-97684893D01*
X187495252Y-97825206D01*
X187410875Y-97951484D01*
X187303484Y-98058875D01*
X187177206Y-98143252D01*
X187036893Y-98201371D01*
X186937589Y-98221124D01*
X186887938Y-98231000D01*
X186736062Y-98231000D01*
X186686411Y-98221124D01*
X186587107Y-98201371D01*
X186446794Y-98143252D01*
X186320516Y-98058875D01*
X186213125Y-97951484D01*
X186128748Y-97825206D01*
X186070629Y-97684893D01*
X186041000Y-97535937D01*
X186041000Y-97384063D01*
X186042973Y-97374146D01*
X186070629Y-97235109D01*
X186070629Y-97235107D01*
X186128748Y-97094794D01*
X186213125Y-96968516D01*
X186320516Y-96861125D01*
X186446794Y-96776748D01*
X186587107Y-96718629D01*
X186686411Y-96698876D01*
X186736062Y-96689000D01*
X186887938Y-96689000D01*
X186937589Y-96698876D01*
X186937589Y-96698876D01*
G37*
G36*
X143029000Y-96597800D02*
G01*
X139927000Y-96597800D01*
X139927000Y-93495800D01*
X143029000Y-93495800D01*
X143029000Y-96597800D01*
X143029000Y-96597800D01*
G37*
G36*
X168865268Y-95464365D02*
G01*
X168903938Y-95476096D01*
X168939577Y-95495146D01*
X168970817Y-95520783D01*
X168996454Y-95552023D01*
X169015504Y-95587662D01*
X169027235Y-95626332D01*
X169031800Y-95672688D01*
X169031800Y-96323912D01*
X169027235Y-96370268D01*
X169015504Y-96408938D01*
X168996454Y-96444577D01*
X168970817Y-96475817D01*
X168939577Y-96501454D01*
X168903938Y-96520504D01*
X168865268Y-96532235D01*
X168818912Y-96536800D01*
X167742688Y-96536800D01*
X167696332Y-96532235D01*
X167657662Y-96520504D01*
X167622023Y-96501454D01*
X167590783Y-96475817D01*
X167565146Y-96444577D01*
X167546096Y-96408938D01*
X167534365Y-96370268D01*
X167529800Y-96323912D01*
X167529800Y-95672688D01*
X167534365Y-95626332D01*
X167546096Y-95587662D01*
X167565146Y-95552023D01*
X167590783Y-95520783D01*
X167622023Y-95495146D01*
X167657662Y-95476096D01*
X167696332Y-95464365D01*
X167742688Y-95459800D01*
X168818912Y-95459800D01*
X168865268Y-95464365D01*
X168865268Y-95464365D01*
G37*
G36*
X171119268Y-95464365D02*
G01*
X171157938Y-95476096D01*
X171193577Y-95495146D01*
X171224817Y-95520783D01*
X171250454Y-95552023D01*
X171269504Y-95587662D01*
X171281235Y-95626332D01*
X171285800Y-95672688D01*
X171285800Y-96323912D01*
X171281235Y-96370268D01*
X171269504Y-96408938D01*
X171250454Y-96444577D01*
X171224817Y-96475817D01*
X171193577Y-96501454D01*
X171157938Y-96520504D01*
X171119268Y-96532235D01*
X171072912Y-96536800D01*
X169996688Y-96536800D01*
X169950332Y-96532235D01*
X169911662Y-96520504D01*
X169876023Y-96501454D01*
X169844783Y-96475817D01*
X169819146Y-96444577D01*
X169800096Y-96408938D01*
X169788365Y-96370268D01*
X169783800Y-96323912D01*
X169783800Y-95672688D01*
X169788365Y-95626332D01*
X169800096Y-95587662D01*
X169819146Y-95552023D01*
X169844783Y-95520783D01*
X169876023Y-95495146D01*
X169911662Y-95476096D01*
X169950332Y-95464365D01*
X169996688Y-95459800D01*
X171072912Y-95459800D01*
X171119268Y-95464365D01*
X171119268Y-95464365D01*
G37*
G36*
X177319268Y-95361365D02*
G01*
X177357938Y-95373096D01*
X177393577Y-95392146D01*
X177424817Y-95417783D01*
X177450454Y-95449023D01*
X177469504Y-95484662D01*
X177481235Y-95523332D01*
X177485800Y-95569688D01*
X177485800Y-96220912D01*
X177481235Y-96267268D01*
X177469504Y-96305938D01*
X177450454Y-96341577D01*
X177424817Y-96372817D01*
X177393577Y-96398454D01*
X177357938Y-96417504D01*
X177319268Y-96429235D01*
X177272912Y-96433800D01*
X176196688Y-96433800D01*
X176150332Y-96429235D01*
X176111662Y-96417504D01*
X176076023Y-96398454D01*
X176044783Y-96372817D01*
X176019146Y-96341577D01*
X176000096Y-96305938D01*
X175988365Y-96267268D01*
X175983800Y-96220912D01*
X175983800Y-95569688D01*
X175988365Y-95523332D01*
X176000096Y-95484662D01*
X176019146Y-95449023D01*
X176044783Y-95417783D01*
X176076023Y-95392146D01*
X176111662Y-95373096D01*
X176150332Y-95361365D01*
X176196688Y-95356800D01*
X177272912Y-95356800D01*
X177319268Y-95361365D01*
X177319268Y-95361365D01*
G37*
G36*
X175215268Y-95361365D02*
G01*
X175253938Y-95373096D01*
X175289577Y-95392146D01*
X175320817Y-95417783D01*
X175346454Y-95449023D01*
X175365504Y-95484662D01*
X175377235Y-95523332D01*
X175381800Y-95569688D01*
X175381800Y-96220912D01*
X175377235Y-96267268D01*
X175365504Y-96305938D01*
X175346454Y-96341577D01*
X175320817Y-96372817D01*
X175289577Y-96398454D01*
X175253938Y-96417504D01*
X175215268Y-96429235D01*
X175168912Y-96433800D01*
X174092688Y-96433800D01*
X174046332Y-96429235D01*
X174007662Y-96417504D01*
X173972023Y-96398454D01*
X173940783Y-96372817D01*
X173915146Y-96341577D01*
X173896096Y-96305938D01*
X173884365Y-96267268D01*
X173879800Y-96220912D01*
X173879800Y-95569688D01*
X173884365Y-95523332D01*
X173896096Y-95484662D01*
X173915146Y-95449023D01*
X173940783Y-95417783D01*
X173972023Y-95392146D01*
X174007662Y-95373096D01*
X174046332Y-95361365D01*
X174092688Y-95356800D01*
X175168912Y-95356800D01*
X175215268Y-95361365D01*
X175215268Y-95361365D01*
G37*
G36*
X181095589Y-94158876D02*
G01*
X181194893Y-94178629D01*
X181335206Y-94236748D01*
X181461484Y-94321125D01*
X181568875Y-94428516D01*
X181653252Y-94554794D01*
X181711371Y-94695107D01*
X181741000Y-94844063D01*
X181741000Y-94995937D01*
X181711371Y-95144893D01*
X181653252Y-95285206D01*
X181568875Y-95411484D01*
X181461484Y-95518875D01*
X181335206Y-95603252D01*
X181194893Y-95661371D01*
X181118723Y-95676522D01*
X181045938Y-95691000D01*
X180894062Y-95691000D01*
X180821277Y-95676522D01*
X180745107Y-95661371D01*
X180604794Y-95603252D01*
X180478516Y-95518875D01*
X180371125Y-95411484D01*
X180286748Y-95285206D01*
X180228629Y-95144893D01*
X180199000Y-94995937D01*
X180199000Y-94844063D01*
X180228629Y-94695107D01*
X180286748Y-94554794D01*
X180371125Y-94428516D01*
X180478516Y-94321125D01*
X180604794Y-94236748D01*
X180745107Y-94178629D01*
X180844411Y-94158876D01*
X180894062Y-94149000D01*
X181045938Y-94149000D01*
X181095589Y-94158876D01*
X181095589Y-94158876D01*
G37*
G36*
X186937589Y-94158876D02*
G01*
X187036893Y-94178629D01*
X187177206Y-94236748D01*
X187303484Y-94321125D01*
X187410875Y-94428516D01*
X187495252Y-94554794D01*
X187553371Y-94695107D01*
X187583000Y-94844063D01*
X187583000Y-94995937D01*
X187553371Y-95144893D01*
X187495252Y-95285206D01*
X187410875Y-95411484D01*
X187303484Y-95518875D01*
X187177206Y-95603252D01*
X187036893Y-95661371D01*
X186960723Y-95676522D01*
X186887938Y-95691000D01*
X186736062Y-95691000D01*
X186663277Y-95676522D01*
X186587107Y-95661371D01*
X186446794Y-95603252D01*
X186320516Y-95518875D01*
X186213125Y-95411484D01*
X186128748Y-95285206D01*
X186070629Y-95144893D01*
X186041000Y-94995937D01*
X186041000Y-94844063D01*
X186070629Y-94695107D01*
X186128748Y-94554794D01*
X186213125Y-94428516D01*
X186320516Y-94321125D01*
X186446794Y-94236748D01*
X186587107Y-94178629D01*
X186686411Y-94158876D01*
X186736062Y-94149000D01*
X186887938Y-94149000D01*
X186937589Y-94158876D01*
X186937589Y-94158876D01*
G37*
G36*
X171119268Y-93589365D02*
G01*
X171157938Y-93601096D01*
X171193577Y-93620146D01*
X171224817Y-93645783D01*
X171250454Y-93677023D01*
X171269504Y-93712662D01*
X171281235Y-93751332D01*
X171285800Y-93797688D01*
X171285800Y-94448912D01*
X171281235Y-94495268D01*
X171269504Y-94533938D01*
X171250454Y-94569577D01*
X171224817Y-94600817D01*
X171193577Y-94626454D01*
X171157938Y-94645504D01*
X171119268Y-94657235D01*
X171072912Y-94661800D01*
X169996688Y-94661800D01*
X169950332Y-94657235D01*
X169911662Y-94645504D01*
X169876023Y-94626454D01*
X169844783Y-94600817D01*
X169819146Y-94569577D01*
X169800096Y-94533938D01*
X169788365Y-94495268D01*
X169783800Y-94448912D01*
X169783800Y-93797688D01*
X169788365Y-93751332D01*
X169800096Y-93712662D01*
X169819146Y-93677023D01*
X169844783Y-93645783D01*
X169876023Y-93620146D01*
X169911662Y-93601096D01*
X169950332Y-93589365D01*
X169996688Y-93584800D01*
X171072912Y-93584800D01*
X171119268Y-93589365D01*
X171119268Y-93589365D01*
G37*
G36*
X168865268Y-93589365D02*
G01*
X168903938Y-93601096D01*
X168939577Y-93620146D01*
X168970817Y-93645783D01*
X168996454Y-93677023D01*
X169015504Y-93712662D01*
X169027235Y-93751332D01*
X169031800Y-93797688D01*
X169031800Y-94448912D01*
X169027235Y-94495268D01*
X169015504Y-94533938D01*
X168996454Y-94569577D01*
X168970817Y-94600817D01*
X168939577Y-94626454D01*
X168903938Y-94645504D01*
X168865268Y-94657235D01*
X168818912Y-94661800D01*
X167742688Y-94661800D01*
X167696332Y-94657235D01*
X167657662Y-94645504D01*
X167622023Y-94626454D01*
X167590783Y-94600817D01*
X167565146Y-94569577D01*
X167546096Y-94533938D01*
X167534365Y-94495268D01*
X167529800Y-94448912D01*
X167529800Y-93797688D01*
X167534365Y-93751332D01*
X167546096Y-93712662D01*
X167565146Y-93677023D01*
X167590783Y-93645783D01*
X167622023Y-93620146D01*
X167657662Y-93601096D01*
X167696332Y-93589365D01*
X167742688Y-93584800D01*
X168818912Y-93584800D01*
X168865268Y-93589365D01*
X168865268Y-93589365D01*
G37*
G36*
X177319268Y-93486365D02*
G01*
X177357938Y-93498096D01*
X177393577Y-93517146D01*
X177424817Y-93542783D01*
X177450454Y-93574023D01*
X177469504Y-93609662D01*
X177481235Y-93648332D01*
X177485800Y-93694688D01*
X177485800Y-94345912D01*
X177481235Y-94392268D01*
X177469504Y-94430938D01*
X177450454Y-94466577D01*
X177424817Y-94497817D01*
X177393577Y-94523454D01*
X177357938Y-94542504D01*
X177319268Y-94554235D01*
X177272912Y-94558800D01*
X176196688Y-94558800D01*
X176150332Y-94554235D01*
X176111662Y-94542504D01*
X176076023Y-94523454D01*
X176044783Y-94497817D01*
X176019146Y-94466577D01*
X176000096Y-94430938D01*
X175988365Y-94392268D01*
X175983800Y-94345912D01*
X175983800Y-93694688D01*
X175988365Y-93648332D01*
X176000096Y-93609662D01*
X176019146Y-93574023D01*
X176044783Y-93542783D01*
X176076023Y-93517146D01*
X176111662Y-93498096D01*
X176150332Y-93486365D01*
X176196688Y-93481800D01*
X177272912Y-93481800D01*
X177319268Y-93486365D01*
X177319268Y-93486365D01*
G37*
G36*
X175215268Y-93486365D02*
G01*
X175253938Y-93498096D01*
X175289577Y-93517146D01*
X175320817Y-93542783D01*
X175346454Y-93574023D01*
X175365504Y-93609662D01*
X175377235Y-93648332D01*
X175381800Y-93694688D01*
X175381800Y-94345912D01*
X175377235Y-94392268D01*
X175365504Y-94430938D01*
X175346454Y-94466577D01*
X175320817Y-94497817D01*
X175289577Y-94523454D01*
X175253938Y-94542504D01*
X175215268Y-94554235D01*
X175168912Y-94558800D01*
X174092688Y-94558800D01*
X174046332Y-94554235D01*
X174007662Y-94542504D01*
X173972023Y-94523454D01*
X173940783Y-94497817D01*
X173915146Y-94466577D01*
X173896096Y-94430938D01*
X173884365Y-94392268D01*
X173879800Y-94345912D01*
X173879800Y-93694688D01*
X173884365Y-93648332D01*
X173896096Y-93609662D01*
X173915146Y-93574023D01*
X173940783Y-93542783D01*
X173972023Y-93517146D01*
X174007662Y-93498096D01*
X174046332Y-93486365D01*
X174092688Y-93481800D01*
X175168912Y-93481800D01*
X175215268Y-93486365D01*
X175215268Y-93486365D01*
G37*
G36*
X178672443Y-89199319D02*
G01*
X178738627Y-89205837D01*
X178908466Y-89257357D01*
X179064991Y-89341022D01*
X179100729Y-89370352D01*
X179202186Y-89453614D01*
X179285448Y-89555071D01*
X179314778Y-89590809D01*
X179398443Y-89747334D01*
X179449963Y-89917173D01*
X179467359Y-90093800D01*
X179449963Y-90270427D01*
X179398443Y-90440266D01*
X179314778Y-90596791D01*
X179285448Y-90632529D01*
X179202186Y-90733986D01*
X179100729Y-90817248D01*
X179064991Y-90846578D01*
X178908466Y-90930243D01*
X178738627Y-90981763D01*
X178672443Y-90988281D01*
X178606260Y-90994800D01*
X178517740Y-90994800D01*
X178451557Y-90988281D01*
X178385373Y-90981763D01*
X178215534Y-90930243D01*
X178059009Y-90846578D01*
X178023271Y-90817248D01*
X177921814Y-90733986D01*
X177838552Y-90632529D01*
X177809222Y-90596791D01*
X177725557Y-90440266D01*
X177674037Y-90270427D01*
X177656641Y-90093800D01*
X177674037Y-89917173D01*
X177725557Y-89747334D01*
X177809222Y-89590809D01*
X177838552Y-89555071D01*
X177921814Y-89453614D01*
X178023271Y-89370352D01*
X178059009Y-89341022D01*
X178215534Y-89257357D01*
X178385373Y-89205837D01*
X178451558Y-89199318D01*
X178517740Y-89192800D01*
X178606260Y-89192800D01*
X178672443Y-89199319D01*
X178672443Y-89199319D01*
G37*
G36*
X184543000Y-90994800D02*
G01*
X182741000Y-90994800D01*
X182741000Y-89192800D01*
X184543000Y-89192800D01*
X184543000Y-90994800D01*
X184543000Y-90994800D01*
G37*
G36*
X181212443Y-89199319D02*
G01*
X181278627Y-89205837D01*
X181448466Y-89257357D01*
X181604991Y-89341022D01*
X181640729Y-89370352D01*
X181742186Y-89453614D01*
X181825448Y-89555071D01*
X181854778Y-89590809D01*
X181938443Y-89747334D01*
X181989963Y-89917173D01*
X182007359Y-90093800D01*
X181989963Y-90270427D01*
X181938443Y-90440266D01*
X181854778Y-90596791D01*
X181825448Y-90632529D01*
X181742186Y-90733986D01*
X181640729Y-90817248D01*
X181604991Y-90846578D01*
X181448466Y-90930243D01*
X181278627Y-90981763D01*
X181212443Y-90988281D01*
X181146260Y-90994800D01*
X181057740Y-90994800D01*
X180991557Y-90988281D01*
X180925373Y-90981763D01*
X180755534Y-90930243D01*
X180599009Y-90846578D01*
X180563271Y-90817248D01*
X180461814Y-90733986D01*
X180378552Y-90632529D01*
X180349222Y-90596791D01*
X180265557Y-90440266D01*
X180214037Y-90270427D01*
X180196641Y-90093800D01*
X180214037Y-89917173D01*
X180265557Y-89747334D01*
X180349222Y-89590809D01*
X180378552Y-89555071D01*
X180461814Y-89453614D01*
X180563271Y-89370352D01*
X180599009Y-89341022D01*
X180755534Y-89257357D01*
X180925373Y-89205837D01*
X180991558Y-89199318D01*
X181057740Y-89192800D01*
X181146260Y-89192800D01*
X181212443Y-89199319D01*
X181212443Y-89199319D01*
G37*
G36*
X141780585Y-87497334D02*
G01*
X141930410Y-87527136D01*
X142212674Y-87644053D01*
X142466705Y-87813791D01*
X142682741Y-88029827D01*
X142852479Y-88283858D01*
X142969396Y-88566122D01*
X142969396Y-88566123D01*
X143029000Y-88865771D01*
X143029000Y-89171293D01*
X142999198Y-89321117D01*
X142969396Y-89470942D01*
X142852479Y-89753206D01*
X142682741Y-90007237D01*
X142466705Y-90223273D01*
X142212674Y-90393011D01*
X141930410Y-90509928D01*
X141780585Y-90539730D01*
X141630761Y-90569532D01*
X141325239Y-90569532D01*
X141175415Y-90539730D01*
X141025590Y-90509928D01*
X140743326Y-90393011D01*
X140489295Y-90223273D01*
X140273259Y-90007237D01*
X140103521Y-89753206D01*
X139986604Y-89470942D01*
X139956802Y-89321117D01*
X139927000Y-89171293D01*
X139927000Y-88865771D01*
X139986604Y-88566123D01*
X139986604Y-88566122D01*
X140103521Y-88283858D01*
X140273259Y-88029827D01*
X140489295Y-87813791D01*
X140743326Y-87644053D01*
X141025590Y-87527136D01*
X141175415Y-87497334D01*
X141325239Y-87467532D01*
X141630761Y-87467532D01*
X141780585Y-87497334D01*
X141780585Y-87497334D01*
G37*
G36*
X143029000Y-85489532D02*
G01*
X139927000Y-85489532D01*
X139927000Y-82387532D01*
X143029000Y-82387532D01*
X143029000Y-85489532D01*
X143029000Y-85489532D01*
G37*
G36*
X160180721Y-82324974D02*
G01*
X160280995Y-82366509D01*
X160280996Y-82366510D01*
X160371242Y-82426810D01*
X160447990Y-82503558D01*
X160447991Y-82503560D01*
X160508291Y-82593805D01*
X160549826Y-82694079D01*
X160571000Y-82800530D01*
X160571000Y-82909070D01*
X160549826Y-83015521D01*
X160508291Y-83115795D01*
X160508290Y-83115796D01*
X160447990Y-83206042D01*
X160371242Y-83282790D01*
X160325812Y-83313145D01*
X160280995Y-83343091D01*
X160180721Y-83384626D01*
X160074270Y-83405800D01*
X159965730Y-83405800D01*
X159859279Y-83384626D01*
X159759005Y-83343091D01*
X159714188Y-83313145D01*
X159668758Y-83282790D01*
X159592010Y-83206042D01*
X159531710Y-83115796D01*
X159531709Y-83115795D01*
X159490174Y-83015521D01*
X159469000Y-82909070D01*
X159469000Y-82800530D01*
X159490174Y-82694079D01*
X159531709Y-82593805D01*
X159592009Y-82503560D01*
X159592010Y-82503558D01*
X159668758Y-82426810D01*
X159759004Y-82366510D01*
X159759005Y-82366509D01*
X159859279Y-82324974D01*
X159965730Y-82303800D01*
X160074270Y-82303800D01*
X160180721Y-82324974D01*
X160180721Y-82324974D01*
G37*
G36*
X160180721Y-78387974D02*
G01*
X160280995Y-78429509D01*
X160280996Y-78429510D01*
X160371242Y-78489810D01*
X160447990Y-78566558D01*
X160447991Y-78566560D01*
X160508291Y-78656805D01*
X160549826Y-78757079D01*
X160571000Y-78863530D01*
X160571000Y-78972070D01*
X160549826Y-79078521D01*
X160508291Y-79178795D01*
X160508290Y-79178796D01*
X160447990Y-79269042D01*
X160371242Y-79345790D01*
X160325812Y-79376145D01*
X160280995Y-79406091D01*
X160180721Y-79447626D01*
X160074270Y-79468800D01*
X159965730Y-79468800D01*
X159859279Y-79447626D01*
X159759005Y-79406091D01*
X159714188Y-79376145D01*
X159668758Y-79345790D01*
X159592010Y-79269042D01*
X159531710Y-79178796D01*
X159531709Y-79178795D01*
X159490174Y-79078521D01*
X159469000Y-78972070D01*
X159469000Y-78863530D01*
X159490174Y-78757079D01*
X159531709Y-78656805D01*
X159592009Y-78566560D01*
X159592010Y-78566558D01*
X159668758Y-78489810D01*
X159759004Y-78429510D01*
X159759005Y-78429509D01*
X159859279Y-78387974D01*
X159965730Y-78366800D01*
X160074270Y-78366800D01*
X160180721Y-78387974D01*
X160180721Y-78387974D01*
G37*
G36*
X141730015Y-76379009D02*
G01*
X141930410Y-76418870D01*
X142212674Y-76535787D01*
X142466705Y-76705525D01*
X142682741Y-76921561D01*
X142852479Y-77175592D01*
X142969396Y-77457856D01*
X143029000Y-77757506D01*
X143029000Y-78063026D01*
X142969396Y-78362676D01*
X142852479Y-78644940D01*
X142682741Y-78898971D01*
X142466705Y-79115007D01*
X142212674Y-79284745D01*
X141930410Y-79401662D01*
X141780585Y-79431464D01*
X141630761Y-79461266D01*
X141325239Y-79461266D01*
X141175415Y-79431464D01*
X141025590Y-79401662D01*
X140743326Y-79284745D01*
X140489295Y-79115007D01*
X140273259Y-78898971D01*
X140103521Y-78644940D01*
X139986604Y-78362676D01*
X139927000Y-78063026D01*
X139927000Y-77757506D01*
X139986604Y-77457856D01*
X140103521Y-77175592D01*
X140273259Y-76921561D01*
X140489295Y-76705525D01*
X140743326Y-76535787D01*
X141025590Y-76418870D01*
X141225985Y-76379009D01*
X141325239Y-76359266D01*
X141630761Y-76359266D01*
X141730015Y-76379009D01*
X141730015Y-76379009D01*
G37*
G36*
X203636443Y-75987519D02*
G01*
X203702627Y-75994037D01*
X203872466Y-76045557D01*
X204028991Y-76129222D01*
X204064729Y-76158552D01*
X204166186Y-76241814D01*
X204249448Y-76343271D01*
X204278778Y-76379009D01*
X204362443Y-76535534D01*
X204413963Y-76705373D01*
X204431359Y-76882000D01*
X204413963Y-77058627D01*
X204362443Y-77228466D01*
X204278778Y-77384991D01*
X204249448Y-77420729D01*
X204166186Y-77522186D01*
X204064729Y-77605448D01*
X204028991Y-77634778D01*
X203872466Y-77718443D01*
X203702627Y-77769963D01*
X203636443Y-77776481D01*
X203570260Y-77783000D01*
X203481740Y-77783000D01*
X203415557Y-77776481D01*
X203349373Y-77769963D01*
X203179534Y-77718443D01*
X203023009Y-77634778D01*
X202987271Y-77605448D01*
X202885814Y-77522186D01*
X202802552Y-77420729D01*
X202773222Y-77384991D01*
X202689557Y-77228466D01*
X202638037Y-77058627D01*
X202620641Y-76882000D01*
X202638037Y-76705373D01*
X202689557Y-76535534D01*
X202773222Y-76379009D01*
X202802552Y-76343271D01*
X202885814Y-76241814D01*
X202987271Y-76158552D01*
X203023009Y-76129222D01*
X203179534Y-76045557D01*
X203349373Y-75994037D01*
X203415557Y-75987519D01*
X203481740Y-75981000D01*
X203570260Y-75981000D01*
X203636443Y-75987519D01*
X203636443Y-75987519D01*
G37*
G36*
X206967000Y-77783000D02*
G01*
X205165000Y-77783000D01*
X205165000Y-75981000D01*
X206967000Y-75981000D01*
X206967000Y-77783000D01*
X206967000Y-77783000D01*
G37*
G36*
X143029000Y-74381266D02*
G01*
X139927000Y-74381266D01*
X139927000Y-71279266D01*
X143029000Y-71279266D01*
X143029000Y-74381266D01*
X143029000Y-74381266D01*
G37*
G36*
X184543000Y-72706800D02*
G01*
X182741000Y-72706800D01*
X182741000Y-70904800D01*
X184543000Y-70904800D01*
X184543000Y-72706800D01*
X184543000Y-72706800D01*
G37*
G36*
X181212442Y-70911318D02*
G01*
X181278627Y-70917837D01*
X181448466Y-70969357D01*
X181604991Y-71053022D01*
X181640729Y-71082352D01*
X181742186Y-71165614D01*
X181825448Y-71267071D01*
X181854778Y-71302809D01*
X181938443Y-71459334D01*
X181989963Y-71629173D01*
X182007359Y-71805800D01*
X181989963Y-71982427D01*
X181938443Y-72152266D01*
X181854778Y-72308791D01*
X181825448Y-72344529D01*
X181742186Y-72445986D01*
X181640729Y-72529248D01*
X181604991Y-72558578D01*
X181448466Y-72642243D01*
X181278627Y-72693763D01*
X181212443Y-72700281D01*
X181146260Y-72706800D01*
X181057740Y-72706800D01*
X180991557Y-72700281D01*
X180925373Y-72693763D01*
X180755534Y-72642243D01*
X180599009Y-72558578D01*
X180563271Y-72529248D01*
X180461814Y-72445986D01*
X180378552Y-72344529D01*
X180349222Y-72308791D01*
X180265557Y-72152266D01*
X180214037Y-71982427D01*
X180196641Y-71805800D01*
X180214037Y-71629173D01*
X180265557Y-71459334D01*
X180349222Y-71302809D01*
X180378552Y-71267071D01*
X180461814Y-71165614D01*
X180563271Y-71082352D01*
X180599009Y-71053022D01*
X180755534Y-70969357D01*
X180925373Y-70917837D01*
X180991558Y-70911318D01*
X181057740Y-70904800D01*
X181146260Y-70904800D01*
X181212442Y-70911318D01*
X181212442Y-70911318D01*
G37*
G36*
X178672442Y-70911318D02*
G01*
X178738627Y-70917837D01*
X178908466Y-70969357D01*
X179064991Y-71053022D01*
X179100729Y-71082352D01*
X179202186Y-71165614D01*
X179285448Y-71267071D01*
X179314778Y-71302809D01*
X179398443Y-71459334D01*
X179449963Y-71629173D01*
X179467359Y-71805800D01*
X179449963Y-71982427D01*
X179398443Y-72152266D01*
X179314778Y-72308791D01*
X179285448Y-72344529D01*
X179202186Y-72445986D01*
X179100729Y-72529248D01*
X179064991Y-72558578D01*
X178908466Y-72642243D01*
X178738627Y-72693763D01*
X178672443Y-72700281D01*
X178606260Y-72706800D01*
X178517740Y-72706800D01*
X178451557Y-72700281D01*
X178385373Y-72693763D01*
X178215534Y-72642243D01*
X178059009Y-72558578D01*
X178023271Y-72529248D01*
X177921814Y-72445986D01*
X177838552Y-72344529D01*
X177809222Y-72308791D01*
X177725557Y-72152266D01*
X177674037Y-71982427D01*
X177656641Y-71805800D01*
X177674037Y-71629173D01*
X177725557Y-71459334D01*
X177809222Y-71302809D01*
X177838552Y-71267071D01*
X177921814Y-71165614D01*
X178023271Y-71082352D01*
X178059009Y-71053022D01*
X178215534Y-70969357D01*
X178385373Y-70917837D01*
X178451558Y-70911318D01*
X178517740Y-70904800D01*
X178606260Y-70904800D01*
X178672442Y-70911318D01*
X178672442Y-70911318D01*
G37*
G36*
X195486721Y-71529974D02*
G01*
X195586995Y-71571509D01*
X195586996Y-71571510D01*
X195677242Y-71631810D01*
X195753990Y-71708558D01*
X195753991Y-71708560D01*
X195814291Y-71798805D01*
X195855826Y-71899079D01*
X195877000Y-72005530D01*
X195877000Y-72114070D01*
X195855826Y-72220521D01*
X195814291Y-72320795D01*
X195814290Y-72320796D01*
X195753990Y-72411042D01*
X195677242Y-72487790D01*
X195631812Y-72518145D01*
X195586995Y-72548091D01*
X195486721Y-72589626D01*
X195380270Y-72610800D01*
X195271730Y-72610800D01*
X195165279Y-72589626D01*
X195065005Y-72548091D01*
X195020188Y-72518145D01*
X194974758Y-72487790D01*
X194898010Y-72411042D01*
X194837710Y-72320796D01*
X194837709Y-72320795D01*
X194796174Y-72220521D01*
X194775000Y-72114070D01*
X194775000Y-72005530D01*
X194796174Y-71899079D01*
X194837709Y-71798805D01*
X194898009Y-71708560D01*
X194898010Y-71708558D01*
X194974758Y-71631810D01*
X195065004Y-71571510D01*
X195065005Y-71571509D01*
X195165279Y-71529974D01*
X195271730Y-71508800D01*
X195380270Y-71508800D01*
X195486721Y-71529974D01*
X195486721Y-71529974D01*
G37*
G36*
X193454721Y-71529974D02*
G01*
X193554995Y-71571509D01*
X193554996Y-71571510D01*
X193645242Y-71631810D01*
X193721990Y-71708558D01*
X193721991Y-71708560D01*
X193782291Y-71798805D01*
X193823826Y-71899079D01*
X193845000Y-72005530D01*
X193845000Y-72114070D01*
X193823826Y-72220521D01*
X193782291Y-72320795D01*
X193782290Y-72320796D01*
X193721990Y-72411042D01*
X193645242Y-72487790D01*
X193599812Y-72518145D01*
X193554995Y-72548091D01*
X193454721Y-72589626D01*
X193348270Y-72610800D01*
X193239730Y-72610800D01*
X193133279Y-72589626D01*
X193033005Y-72548091D01*
X192988188Y-72518145D01*
X192942758Y-72487790D01*
X192866010Y-72411042D01*
X192805710Y-72320796D01*
X192805709Y-72320795D01*
X192764174Y-72220521D01*
X192743000Y-72114070D01*
X192743000Y-72005530D01*
X192764174Y-71899079D01*
X192805709Y-71798805D01*
X192866009Y-71708560D01*
X192866010Y-71708558D01*
X192942758Y-71631810D01*
X193033004Y-71571510D01*
X193033005Y-71571509D01*
X193133279Y-71529974D01*
X193239730Y-71508800D01*
X193348270Y-71508800D01*
X193454721Y-71529974D01*
X193454721Y-71529974D01*
G37*
G36*
X141780585Y-65280802D02*
G01*
X141930410Y-65310604D01*
X142212674Y-65427521D01*
X142466705Y-65597259D01*
X142682741Y-65813295D01*
X142852479Y-66067326D01*
X142958426Y-66323107D01*
X142969396Y-66349591D01*
X143027891Y-66643662D01*
X143029000Y-66649240D01*
X143029000Y-66954760D01*
X142969396Y-67254410D01*
X142852479Y-67536674D01*
X142682741Y-67790705D01*
X142466705Y-68006741D01*
X142212674Y-68176479D01*
X141930410Y-68293396D01*
X141780585Y-68323198D01*
X141630761Y-68353000D01*
X141325239Y-68353000D01*
X141175415Y-68323198D01*
X141025590Y-68293396D01*
X140743326Y-68176479D01*
X140489295Y-68006741D01*
X140273259Y-67790705D01*
X140103521Y-67536674D01*
X139986604Y-67254410D01*
X139927000Y-66954760D01*
X139927000Y-66649240D01*
X139928110Y-66643662D01*
X139986604Y-66349591D01*
X139997574Y-66323107D01*
X140103521Y-66067326D01*
X140273259Y-65813295D01*
X140489295Y-65597259D01*
X140743326Y-65427521D01*
X141025590Y-65310604D01*
X141175415Y-65280802D01*
X141325239Y-65251000D01*
X141630761Y-65251000D01*
X141780585Y-65280802D01*
X141780585Y-65280802D01*
G37*
G36*
X170766268Y-66520365D02*
G01*
X170804938Y-66532096D01*
X170840577Y-66551146D01*
X170871817Y-66576783D01*
X170897454Y-66608023D01*
X170916504Y-66643662D01*
X170928235Y-66682332D01*
X170932800Y-66728688D01*
X170932800Y-67379912D01*
X170928235Y-67426268D01*
X170916504Y-67464938D01*
X170897454Y-67500577D01*
X170871817Y-67531817D01*
X170840577Y-67557454D01*
X170804938Y-67576504D01*
X170766268Y-67588235D01*
X170719912Y-67592800D01*
X169643688Y-67592800D01*
X169597332Y-67588235D01*
X169558662Y-67576504D01*
X169523023Y-67557454D01*
X169491783Y-67531817D01*
X169466146Y-67500577D01*
X169447096Y-67464938D01*
X169435365Y-67426268D01*
X169430800Y-67379912D01*
X169430800Y-66728688D01*
X169435365Y-66682332D01*
X169447096Y-66643662D01*
X169466146Y-66608023D01*
X169491783Y-66576783D01*
X169523023Y-66551146D01*
X169558662Y-66532096D01*
X169597332Y-66520365D01*
X169643688Y-66515800D01*
X170719912Y-66515800D01*
X170766268Y-66520365D01*
X170766268Y-66520365D01*
G37*
G36*
X168612268Y-66520365D02*
G01*
X168650938Y-66532096D01*
X168686577Y-66551146D01*
X168717817Y-66576783D01*
X168743454Y-66608023D01*
X168762504Y-66643662D01*
X168774235Y-66682332D01*
X168778800Y-66728688D01*
X168778800Y-67379912D01*
X168774235Y-67426268D01*
X168762504Y-67464938D01*
X168743454Y-67500577D01*
X168717817Y-67531817D01*
X168686577Y-67557454D01*
X168650938Y-67576504D01*
X168612268Y-67588235D01*
X168565912Y-67592800D01*
X167489688Y-67592800D01*
X167443332Y-67588235D01*
X167404662Y-67576504D01*
X167369023Y-67557454D01*
X167337783Y-67531817D01*
X167312146Y-67500577D01*
X167293096Y-67464938D01*
X167281365Y-67426268D01*
X167276800Y-67379912D01*
X167276800Y-66728688D01*
X167281365Y-66682332D01*
X167293096Y-66643662D01*
X167312146Y-66608023D01*
X167337783Y-66576783D01*
X167369023Y-66551146D01*
X167404662Y-66532096D01*
X167443332Y-66520365D01*
X167489688Y-66515800D01*
X168565912Y-66515800D01*
X168612268Y-66520365D01*
X168612268Y-66520365D01*
G37*
G36*
X174936268Y-66510365D02*
G01*
X174974938Y-66522096D01*
X175010577Y-66541146D01*
X175041817Y-66566783D01*
X175067454Y-66598023D01*
X175086504Y-66633662D01*
X175098235Y-66672332D01*
X175102800Y-66718688D01*
X175102800Y-67369912D01*
X175098235Y-67416268D01*
X175086504Y-67454938D01*
X175067454Y-67490577D01*
X175041817Y-67521817D01*
X175010577Y-67547454D01*
X174974938Y-67566504D01*
X174936268Y-67578235D01*
X174889912Y-67582800D01*
X173813688Y-67582800D01*
X173767332Y-67578235D01*
X173728662Y-67566504D01*
X173693023Y-67547454D01*
X173661783Y-67521817D01*
X173636146Y-67490577D01*
X173617096Y-67454938D01*
X173605365Y-67416268D01*
X173600800Y-67369912D01*
X173600800Y-66718688D01*
X173605365Y-66672332D01*
X173617096Y-66633662D01*
X173636146Y-66598023D01*
X173661783Y-66566783D01*
X173693023Y-66541146D01*
X173728662Y-66522096D01*
X173767332Y-66510365D01*
X173813688Y-66505800D01*
X174889912Y-66505800D01*
X174936268Y-66510365D01*
X174936268Y-66510365D01*
G37*
G36*
X177344268Y-66510365D02*
G01*
X177382938Y-66522096D01*
X177418577Y-66541146D01*
X177449817Y-66566783D01*
X177475454Y-66598023D01*
X177494504Y-66633662D01*
X177506235Y-66672332D01*
X177510800Y-66718688D01*
X177510800Y-67369912D01*
X177506235Y-67416268D01*
X177494504Y-67454938D01*
X177475454Y-67490577D01*
X177449817Y-67521817D01*
X177418577Y-67547454D01*
X177382938Y-67566504D01*
X177344268Y-67578235D01*
X177297912Y-67582800D01*
X176221688Y-67582800D01*
X176175332Y-67578235D01*
X176136662Y-67566504D01*
X176101023Y-67547454D01*
X176069783Y-67521817D01*
X176044146Y-67490577D01*
X176025096Y-67454938D01*
X176013365Y-67416268D01*
X176008800Y-67369912D01*
X176008800Y-66718688D01*
X176013365Y-66672332D01*
X176025096Y-66633662D01*
X176044146Y-66598023D01*
X176069783Y-66566783D01*
X176101023Y-66541146D01*
X176136662Y-66522096D01*
X176175332Y-66510365D01*
X176221688Y-66505800D01*
X177297912Y-66505800D01*
X177344268Y-66510365D01*
X177344268Y-66510365D01*
G37*
G36*
X186937589Y-65786876D02*
G01*
X187036893Y-65806629D01*
X187177206Y-65864748D01*
X187303484Y-65949125D01*
X187410875Y-66056516D01*
X187495252Y-66182794D01*
X187553371Y-66323107D01*
X187558639Y-66349591D01*
X187583000Y-66472062D01*
X187583000Y-66623938D01*
X187577967Y-66649239D01*
X187553371Y-66772893D01*
X187495252Y-66913206D01*
X187410875Y-67039484D01*
X187303484Y-67146875D01*
X187177206Y-67231252D01*
X187036893Y-67289371D01*
X186937589Y-67309124D01*
X186887938Y-67319000D01*
X186736062Y-67319000D01*
X186686411Y-67309124D01*
X186587107Y-67289371D01*
X186446794Y-67231252D01*
X186320516Y-67146875D01*
X186213125Y-67039484D01*
X186128748Y-66913206D01*
X186070629Y-66772893D01*
X186046033Y-66649239D01*
X186041000Y-66623938D01*
X186041000Y-66472062D01*
X186065361Y-66349591D01*
X186070629Y-66323107D01*
X186128748Y-66182794D01*
X186213125Y-66056516D01*
X186320516Y-65949125D01*
X186446794Y-65864748D01*
X186587107Y-65806629D01*
X186686411Y-65786876D01*
X186736062Y-65777000D01*
X186887938Y-65777000D01*
X186937589Y-65786876D01*
X186937589Y-65786876D01*
G37*
G36*
X181095589Y-65786876D02*
G01*
X181194893Y-65806629D01*
X181335206Y-65864748D01*
X181461484Y-65949125D01*
X181568875Y-66056516D01*
X181653252Y-66182794D01*
X181711371Y-66323107D01*
X181716639Y-66349591D01*
X181741000Y-66472062D01*
X181741000Y-66623938D01*
X181735967Y-66649239D01*
X181711371Y-66772893D01*
X181653252Y-66913206D01*
X181568875Y-67039484D01*
X181461484Y-67146875D01*
X181335206Y-67231252D01*
X181194893Y-67289371D01*
X181095589Y-67309124D01*
X181045938Y-67319000D01*
X180894062Y-67319000D01*
X180844411Y-67309124D01*
X180745107Y-67289371D01*
X180604794Y-67231252D01*
X180478516Y-67146875D01*
X180371125Y-67039484D01*
X180286748Y-66913206D01*
X180228629Y-66772893D01*
X180204033Y-66649239D01*
X180199000Y-66623938D01*
X180199000Y-66472062D01*
X180223361Y-66349591D01*
X180228629Y-66323107D01*
X180286748Y-66182794D01*
X180371125Y-66056516D01*
X180478516Y-65949125D01*
X180604794Y-65864748D01*
X180745107Y-65806629D01*
X180844411Y-65786876D01*
X180894062Y-65777000D01*
X181045938Y-65777000D01*
X181095589Y-65786876D01*
X181095589Y-65786876D01*
G37*
G36*
X170766268Y-64645365D02*
G01*
X170804938Y-64657096D01*
X170840577Y-64676146D01*
X170871817Y-64701783D01*
X170897454Y-64733023D01*
X170916504Y-64768662D01*
X170928235Y-64807332D01*
X170932800Y-64853688D01*
X170932800Y-65504912D01*
X170928235Y-65551268D01*
X170916504Y-65589938D01*
X170897454Y-65625577D01*
X170871817Y-65656817D01*
X170840577Y-65682454D01*
X170804938Y-65701504D01*
X170766268Y-65713235D01*
X170719912Y-65717800D01*
X169643688Y-65717800D01*
X169597332Y-65713235D01*
X169558662Y-65701504D01*
X169523023Y-65682454D01*
X169491783Y-65656817D01*
X169466146Y-65625577D01*
X169447096Y-65589938D01*
X169435365Y-65551268D01*
X169430800Y-65504912D01*
X169430800Y-64853688D01*
X169435365Y-64807332D01*
X169447096Y-64768662D01*
X169466146Y-64733023D01*
X169491783Y-64701783D01*
X169523023Y-64676146D01*
X169558662Y-64657096D01*
X169597332Y-64645365D01*
X169643688Y-64640800D01*
X170719912Y-64640800D01*
X170766268Y-64645365D01*
X170766268Y-64645365D01*
G37*
G36*
X168612268Y-64645365D02*
G01*
X168650938Y-64657096D01*
X168686577Y-64676146D01*
X168717817Y-64701783D01*
X168743454Y-64733023D01*
X168762504Y-64768662D01*
X168774235Y-64807332D01*
X168778800Y-64853688D01*
X168778800Y-65504912D01*
X168774235Y-65551268D01*
X168762504Y-65589938D01*
X168743454Y-65625577D01*
X168717817Y-65656817D01*
X168686577Y-65682454D01*
X168650938Y-65701504D01*
X168612268Y-65713235D01*
X168565912Y-65717800D01*
X167489688Y-65717800D01*
X167443332Y-65713235D01*
X167404662Y-65701504D01*
X167369023Y-65682454D01*
X167337783Y-65656817D01*
X167312146Y-65625577D01*
X167293096Y-65589938D01*
X167281365Y-65551268D01*
X167276800Y-65504912D01*
X167276800Y-64853688D01*
X167281365Y-64807332D01*
X167293096Y-64768662D01*
X167312146Y-64733023D01*
X167337783Y-64701783D01*
X167369023Y-64676146D01*
X167404662Y-64657096D01*
X167443332Y-64645365D01*
X167489688Y-64640800D01*
X168565912Y-64640800D01*
X168612268Y-64645365D01*
X168612268Y-64645365D01*
G37*
G36*
X174936268Y-64635365D02*
G01*
X174974938Y-64647096D01*
X175010577Y-64666146D01*
X175041817Y-64691783D01*
X175067454Y-64723023D01*
X175086504Y-64758662D01*
X175098235Y-64797332D01*
X175102800Y-64843688D01*
X175102800Y-65494912D01*
X175098235Y-65541268D01*
X175086504Y-65579938D01*
X175067454Y-65615577D01*
X175041817Y-65646817D01*
X175010577Y-65672454D01*
X174974938Y-65691504D01*
X174936268Y-65703235D01*
X174889912Y-65707800D01*
X173813688Y-65707800D01*
X173767332Y-65703235D01*
X173728662Y-65691504D01*
X173693023Y-65672454D01*
X173661783Y-65646817D01*
X173636146Y-65615577D01*
X173617096Y-65579938D01*
X173605365Y-65541268D01*
X173600800Y-65494912D01*
X173600800Y-64843688D01*
X173605365Y-64797332D01*
X173617096Y-64758662D01*
X173636146Y-64723023D01*
X173661783Y-64691783D01*
X173693023Y-64666146D01*
X173728662Y-64647096D01*
X173767332Y-64635365D01*
X173813688Y-64630800D01*
X174889912Y-64630800D01*
X174936268Y-64635365D01*
X174936268Y-64635365D01*
G37*
G36*
X177344268Y-64635365D02*
G01*
X177382938Y-64647096D01*
X177418577Y-64666146D01*
X177449817Y-64691783D01*
X177475454Y-64723023D01*
X177494504Y-64758662D01*
X177506235Y-64797332D01*
X177510800Y-64843688D01*
X177510800Y-65494912D01*
X177506235Y-65541268D01*
X177494504Y-65579938D01*
X177475454Y-65615577D01*
X177449817Y-65646817D01*
X177418577Y-65672454D01*
X177382938Y-65691504D01*
X177344268Y-65703235D01*
X177297912Y-65707800D01*
X176221688Y-65707800D01*
X176175332Y-65703235D01*
X176136662Y-65691504D01*
X176101023Y-65672454D01*
X176069783Y-65646817D01*
X176044146Y-65615577D01*
X176025096Y-65579938D01*
X176013365Y-65541268D01*
X176008800Y-65494912D01*
X176008800Y-64843688D01*
X176013365Y-64797332D01*
X176025096Y-64758662D01*
X176044146Y-64723023D01*
X176069783Y-64691783D01*
X176101023Y-64666146D01*
X176136662Y-64647096D01*
X176175332Y-64635365D01*
X176221688Y-64630800D01*
X177297912Y-64630800D01*
X177344268Y-64635365D01*
X177344268Y-64635365D01*
G37*
G36*
X186937589Y-63246876D02*
G01*
X187036893Y-63266629D01*
X187177206Y-63324748D01*
X187303484Y-63409125D01*
X187410875Y-63516516D01*
X187495252Y-63642794D01*
X187553371Y-63783107D01*
X187583000Y-63932063D01*
X187583000Y-64083937D01*
X187553371Y-64232893D01*
X187495252Y-64373206D01*
X187410875Y-64499484D01*
X187303484Y-64606875D01*
X187177206Y-64691252D01*
X187036893Y-64749371D01*
X186981129Y-64760463D01*
X186887938Y-64779000D01*
X186736062Y-64779000D01*
X186642871Y-64760463D01*
X186587107Y-64749371D01*
X186446794Y-64691252D01*
X186320516Y-64606875D01*
X186213125Y-64499484D01*
X186128748Y-64373206D01*
X186070629Y-64232893D01*
X186041000Y-64083937D01*
X186041000Y-63932063D01*
X186070629Y-63783107D01*
X186128748Y-63642794D01*
X186213125Y-63516516D01*
X186320516Y-63409125D01*
X186446794Y-63324748D01*
X186587107Y-63266629D01*
X186686411Y-63246876D01*
X186736062Y-63237000D01*
X186887938Y-63237000D01*
X186937589Y-63246876D01*
X186937589Y-63246876D01*
G37*
G36*
X181095589Y-63246876D02*
G01*
X181194893Y-63266629D01*
X181335206Y-63324748D01*
X181461484Y-63409125D01*
X181568875Y-63516516D01*
X181653252Y-63642794D01*
X181711371Y-63783107D01*
X181741000Y-63932063D01*
X181741000Y-64083937D01*
X181711371Y-64232893D01*
X181653252Y-64373206D01*
X181568875Y-64499484D01*
X181461484Y-64606875D01*
X181335206Y-64691252D01*
X181194893Y-64749371D01*
X181139129Y-64760463D01*
X181045938Y-64779000D01*
X180894062Y-64779000D01*
X180800871Y-64760463D01*
X180745107Y-64749371D01*
X180604794Y-64691252D01*
X180478516Y-64606875D01*
X180371125Y-64499484D01*
X180286748Y-64373206D01*
X180228629Y-64232893D01*
X180199000Y-64083937D01*
X180199000Y-63932063D01*
X180228629Y-63783107D01*
X180286748Y-63642794D01*
X180371125Y-63516516D01*
X180478516Y-63409125D01*
X180604794Y-63324748D01*
X180745107Y-63266629D01*
X180844411Y-63246876D01*
X180894062Y-63237000D01*
X181045938Y-63237000D01*
X181095589Y-63246876D01*
X181095589Y-63246876D01*
G37*
G36*
X200341000Y-63973000D02*
G01*
X198439000Y-63973000D01*
X198439000Y-59471000D01*
X200341000Y-59471000D01*
X200341000Y-63973000D01*
X200341000Y-63973000D01*
G37*
G36*
X174936268Y-62818365D02*
G01*
X174974938Y-62830096D01*
X175010577Y-62849146D01*
X175041817Y-62874783D01*
X175067454Y-62906023D01*
X175086504Y-62941662D01*
X175098235Y-62980332D01*
X175102800Y-63026688D01*
X175102800Y-63677912D01*
X175098235Y-63724268D01*
X175086504Y-63762938D01*
X175067454Y-63798577D01*
X175041817Y-63829817D01*
X175010577Y-63855454D01*
X174974938Y-63874504D01*
X174936268Y-63886235D01*
X174889912Y-63890800D01*
X173813688Y-63890800D01*
X173767332Y-63886235D01*
X173728662Y-63874504D01*
X173693023Y-63855454D01*
X173661783Y-63829817D01*
X173636146Y-63798577D01*
X173617096Y-63762938D01*
X173605365Y-63724268D01*
X173600800Y-63677912D01*
X173600800Y-63026688D01*
X173605365Y-62980332D01*
X173617096Y-62941662D01*
X173636146Y-62906023D01*
X173661783Y-62874783D01*
X173693023Y-62849146D01*
X173728662Y-62830096D01*
X173767332Y-62818365D01*
X173813688Y-62813800D01*
X174889912Y-62813800D01*
X174936268Y-62818365D01*
X174936268Y-62818365D01*
G37*
G36*
X177344268Y-62818365D02*
G01*
X177382938Y-62830096D01*
X177418577Y-62849146D01*
X177449817Y-62874783D01*
X177475454Y-62906023D01*
X177494504Y-62941662D01*
X177506235Y-62980332D01*
X177510800Y-63026688D01*
X177510800Y-63677912D01*
X177506235Y-63724268D01*
X177494504Y-63762938D01*
X177475454Y-63798577D01*
X177449817Y-63829817D01*
X177418577Y-63855454D01*
X177382938Y-63874504D01*
X177344268Y-63886235D01*
X177297912Y-63890800D01*
X176221688Y-63890800D01*
X176175332Y-63886235D01*
X176136662Y-63874504D01*
X176101023Y-63855454D01*
X176069783Y-63829817D01*
X176044146Y-63798577D01*
X176025096Y-63762938D01*
X176013365Y-63724268D01*
X176008800Y-63677912D01*
X176008800Y-63026688D01*
X176013365Y-62980332D01*
X176025096Y-62941662D01*
X176044146Y-62906023D01*
X176069783Y-62874783D01*
X176101023Y-62849146D01*
X176136662Y-62830096D01*
X176175332Y-62818365D01*
X176221688Y-62813800D01*
X177297912Y-62813800D01*
X177344268Y-62818365D01*
X177344268Y-62818365D01*
G37*
G36*
X168612268Y-62766365D02*
G01*
X168650938Y-62778096D01*
X168686577Y-62797146D01*
X168717817Y-62822783D01*
X168743454Y-62854023D01*
X168762504Y-62889662D01*
X168774235Y-62928332D01*
X168778800Y-62974688D01*
X168778800Y-63625912D01*
X168774235Y-63672268D01*
X168762504Y-63710938D01*
X168743454Y-63746577D01*
X168717817Y-63777817D01*
X168686577Y-63803454D01*
X168650938Y-63822504D01*
X168612268Y-63834235D01*
X168565912Y-63838800D01*
X167489688Y-63838800D01*
X167443332Y-63834235D01*
X167404662Y-63822504D01*
X167369023Y-63803454D01*
X167337783Y-63777817D01*
X167312146Y-63746577D01*
X167293096Y-63710938D01*
X167281365Y-63672268D01*
X167276800Y-63625912D01*
X167276800Y-62974688D01*
X167281365Y-62928332D01*
X167293096Y-62889662D01*
X167312146Y-62854023D01*
X167337783Y-62822783D01*
X167369023Y-62797146D01*
X167404662Y-62778096D01*
X167443332Y-62766365D01*
X167489688Y-62761800D01*
X168565912Y-62761800D01*
X168612268Y-62766365D01*
X168612268Y-62766365D01*
G37*
G36*
X170766268Y-62766365D02*
G01*
X170804938Y-62778096D01*
X170840577Y-62797146D01*
X170871817Y-62822783D01*
X170897454Y-62854023D01*
X170916504Y-62889662D01*
X170928235Y-62928332D01*
X170932800Y-62974688D01*
X170932800Y-63625912D01*
X170928235Y-63672268D01*
X170916504Y-63710938D01*
X170897454Y-63746577D01*
X170871817Y-63777817D01*
X170840577Y-63803454D01*
X170804938Y-63822504D01*
X170766268Y-63834235D01*
X170719912Y-63838800D01*
X169643688Y-63838800D01*
X169597332Y-63834235D01*
X169558662Y-63822504D01*
X169523023Y-63803454D01*
X169491783Y-63777817D01*
X169466146Y-63746577D01*
X169447096Y-63710938D01*
X169435365Y-63672268D01*
X169430800Y-63625912D01*
X169430800Y-62974688D01*
X169435365Y-62928332D01*
X169447096Y-62889662D01*
X169466146Y-62854023D01*
X169491783Y-62822783D01*
X169523023Y-62797146D01*
X169558662Y-62778096D01*
X169597332Y-62766365D01*
X169643688Y-62761800D01*
X170719912Y-62761800D01*
X170766268Y-62766365D01*
X170766268Y-62766365D01*
G37*
G36*
X205376424Y-59684760D02*
G01*
X205376427Y-59684761D01*
X205376428Y-59684761D01*
X205555692Y-59739140D01*
X205555695Y-59739142D01*
X205555696Y-59739142D01*
X205720903Y-59827446D01*
X205865712Y-59946288D01*
X205984554Y-60091097D01*
X206072858Y-60256303D01*
X206072860Y-60256307D01*
X206072860Y-60256308D01*
X206127240Y-60435575D01*
X206141000Y-60575282D01*
X206141000Y-62868718D01*
X206127240Y-63008425D01*
X206127239Y-63008428D01*
X206127239Y-63008429D01*
X206072860Y-63187693D01*
X206072858Y-63187696D01*
X206072858Y-63187697D01*
X205984554Y-63352903D01*
X205865712Y-63497712D01*
X205720903Y-63616554D01*
X205555697Y-63704858D01*
X205555693Y-63704860D01*
X205376429Y-63759239D01*
X205376428Y-63759239D01*
X205376425Y-63759240D01*
X205190000Y-63777601D01*
X205003576Y-63759240D01*
X205003573Y-63759239D01*
X205003572Y-63759239D01*
X204824308Y-63704860D01*
X204824304Y-63704858D01*
X204659098Y-63616554D01*
X204514289Y-63497712D01*
X204395447Y-63352903D01*
X204307143Y-63187697D01*
X204307143Y-63187696D01*
X204307141Y-63187693D01*
X204252762Y-63008429D01*
X204252762Y-63008428D01*
X204252761Y-63008425D01*
X204239001Y-62868718D01*
X204239000Y-60575283D01*
X204252760Y-60435576D01*
X204252761Y-60435572D01*
X204307140Y-60256308D01*
X204307143Y-60256303D01*
X204395446Y-60091097D01*
X204514288Y-59946288D01*
X204659097Y-59827446D01*
X204824303Y-59739142D01*
X204824304Y-59739142D01*
X204824307Y-59739140D01*
X205003571Y-59684761D01*
X205003572Y-59684761D01*
X205003575Y-59684760D01*
X205190000Y-59666399D01*
X205376424Y-59684760D01*
X205376424Y-59684760D01*
G37*
G36*
X143029000Y-63273000D02*
G01*
X139927000Y-63273000D01*
X139927000Y-60171000D01*
X143029000Y-60171000D01*
X143029000Y-63273000D01*
X143029000Y-63273000D01*
G37*
G36*
X181095589Y-60706876D02*
G01*
X181194893Y-60726629D01*
X181335206Y-60784748D01*
X181461484Y-60869125D01*
X181568875Y-60976516D01*
X181653252Y-61102794D01*
X181711371Y-61243107D01*
X181741000Y-61392063D01*
X181741000Y-61543937D01*
X181711371Y-61692893D01*
X181653252Y-61833206D01*
X181568875Y-61959484D01*
X181461484Y-62066875D01*
X181335206Y-62151252D01*
X181194893Y-62209371D01*
X181095589Y-62229124D01*
X181045938Y-62239000D01*
X180894062Y-62239000D01*
X180844411Y-62229124D01*
X180745107Y-62209371D01*
X180604794Y-62151252D01*
X180478516Y-62066875D01*
X180371125Y-61959484D01*
X180286748Y-61833206D01*
X180228629Y-61692893D01*
X180199000Y-61543937D01*
X180199000Y-61392063D01*
X180228629Y-61243107D01*
X180286748Y-61102794D01*
X180371125Y-60976516D01*
X180478516Y-60869125D01*
X180604794Y-60784748D01*
X180745107Y-60726629D01*
X180844411Y-60706876D01*
X180894062Y-60697000D01*
X181045938Y-60697000D01*
X181095589Y-60706876D01*
X181095589Y-60706876D01*
G37*
G36*
X186937589Y-60706876D02*
G01*
X187036893Y-60726629D01*
X187177206Y-60784748D01*
X187303484Y-60869125D01*
X187410875Y-60976516D01*
X187495252Y-61102794D01*
X187553371Y-61243107D01*
X187583000Y-61392063D01*
X187583000Y-61543937D01*
X187553371Y-61692893D01*
X187495252Y-61833206D01*
X187410875Y-61959484D01*
X187303484Y-62066875D01*
X187177206Y-62151252D01*
X187036893Y-62209371D01*
X186937589Y-62229124D01*
X186887938Y-62239000D01*
X186736062Y-62239000D01*
X186686411Y-62229124D01*
X186587107Y-62209371D01*
X186446794Y-62151252D01*
X186320516Y-62066875D01*
X186213125Y-61959484D01*
X186128748Y-61833206D01*
X186070629Y-61692893D01*
X186041000Y-61543937D01*
X186041000Y-61392063D01*
X186070629Y-61243107D01*
X186128748Y-61102794D01*
X186213125Y-60976516D01*
X186320516Y-60869125D01*
X186446794Y-60784748D01*
X186587107Y-60726629D01*
X186686411Y-60706876D01*
X186736062Y-60697000D01*
X186887938Y-60697000D01*
X186937589Y-60706876D01*
X186937589Y-60706876D01*
G37*
G36*
X177344268Y-60943365D02*
G01*
X177382938Y-60955096D01*
X177418577Y-60974146D01*
X177449817Y-60999783D01*
X177475454Y-61031023D01*
X177494504Y-61066662D01*
X177506235Y-61105332D01*
X177510800Y-61151688D01*
X177510800Y-61802912D01*
X177506235Y-61849268D01*
X177494504Y-61887938D01*
X177475454Y-61923577D01*
X177449817Y-61954817D01*
X177418577Y-61980454D01*
X177382938Y-61999504D01*
X177344268Y-62011235D01*
X177297912Y-62015800D01*
X176221688Y-62015800D01*
X176175332Y-62011235D01*
X176136662Y-61999504D01*
X176101023Y-61980454D01*
X176069783Y-61954817D01*
X176044146Y-61923577D01*
X176025096Y-61887938D01*
X176013365Y-61849268D01*
X176008800Y-61802912D01*
X176008800Y-61151688D01*
X176013365Y-61105332D01*
X176025096Y-61066662D01*
X176044146Y-61031023D01*
X176069783Y-60999783D01*
X176101023Y-60974146D01*
X176136662Y-60955096D01*
X176175332Y-60943365D01*
X176221688Y-60938800D01*
X177297912Y-60938800D01*
X177344268Y-60943365D01*
X177344268Y-60943365D01*
G37*
G36*
X174936268Y-60943365D02*
G01*
X174974938Y-60955096D01*
X175010577Y-60974146D01*
X175041817Y-60999783D01*
X175067454Y-61031023D01*
X175086504Y-61066662D01*
X175098235Y-61105332D01*
X175102800Y-61151688D01*
X175102800Y-61802912D01*
X175098235Y-61849268D01*
X175086504Y-61887938D01*
X175067454Y-61923577D01*
X175041817Y-61954817D01*
X175010577Y-61980454D01*
X174974938Y-61999504D01*
X174936268Y-62011235D01*
X174889912Y-62015800D01*
X173813688Y-62015800D01*
X173767332Y-62011235D01*
X173728662Y-61999504D01*
X173693023Y-61980454D01*
X173661783Y-61954817D01*
X173636146Y-61923577D01*
X173617096Y-61887938D01*
X173605365Y-61849268D01*
X173600800Y-61802912D01*
X173600800Y-61151688D01*
X173605365Y-61105332D01*
X173617096Y-61066662D01*
X173636146Y-61031023D01*
X173661783Y-60999783D01*
X173693023Y-60974146D01*
X173728662Y-60955096D01*
X173767332Y-60943365D01*
X173813688Y-60938800D01*
X174889912Y-60938800D01*
X174936268Y-60943365D01*
X174936268Y-60943365D01*
G37*
G36*
X168612268Y-60891365D02*
G01*
X168650938Y-60903096D01*
X168686577Y-60922146D01*
X168717817Y-60947783D01*
X168743454Y-60979023D01*
X168762504Y-61014662D01*
X168774235Y-61053332D01*
X168778800Y-61099688D01*
X168778800Y-61750912D01*
X168774235Y-61797268D01*
X168762504Y-61835938D01*
X168743454Y-61871577D01*
X168717817Y-61902817D01*
X168686577Y-61928454D01*
X168650938Y-61947504D01*
X168612268Y-61959235D01*
X168565912Y-61963800D01*
X167489688Y-61963800D01*
X167443332Y-61959235D01*
X167404662Y-61947504D01*
X167369023Y-61928454D01*
X167337783Y-61902817D01*
X167312146Y-61871577D01*
X167293096Y-61835938D01*
X167281365Y-61797268D01*
X167276800Y-61750912D01*
X167276800Y-61099688D01*
X167281365Y-61053332D01*
X167293096Y-61014662D01*
X167312146Y-60979023D01*
X167337783Y-60947783D01*
X167369023Y-60922146D01*
X167404662Y-60903096D01*
X167443332Y-60891365D01*
X167489688Y-60886800D01*
X168565912Y-60886800D01*
X168612268Y-60891365D01*
X168612268Y-60891365D01*
G37*
G36*
X170766268Y-60891365D02*
G01*
X170804938Y-60903096D01*
X170840577Y-60922146D01*
X170871817Y-60947783D01*
X170897454Y-60979023D01*
X170916504Y-61014662D01*
X170928235Y-61053332D01*
X170932800Y-61099688D01*
X170932800Y-61750912D01*
X170928235Y-61797268D01*
X170916504Y-61835938D01*
X170897454Y-61871577D01*
X170871817Y-61902817D01*
X170840577Y-61928454D01*
X170804938Y-61947504D01*
X170766268Y-61959235D01*
X170719912Y-61963800D01*
X169643688Y-61963800D01*
X169597332Y-61959235D01*
X169558662Y-61947504D01*
X169523023Y-61928454D01*
X169491783Y-61902817D01*
X169466146Y-61871577D01*
X169447096Y-61835938D01*
X169435365Y-61797268D01*
X169430800Y-61750912D01*
X169430800Y-61099688D01*
X169435365Y-61053332D01*
X169447096Y-61014662D01*
X169466146Y-60979023D01*
X169491783Y-60947783D01*
X169523023Y-60922146D01*
X169558662Y-60903096D01*
X169597332Y-60891365D01*
X169643688Y-60886800D01*
X170719912Y-60886800D01*
X170766268Y-60891365D01*
X170766268Y-60891365D01*
G37*
G36*
X142400721Y-56924974D02*
G01*
X142500995Y-56966509D01*
X142500996Y-56966510D01*
X142591242Y-57026810D01*
X142667990Y-57103558D01*
X142698345Y-57148988D01*
X142728291Y-57193805D01*
X142769826Y-57294079D01*
X142791000Y-57400530D01*
X142791000Y-57509070D01*
X142769826Y-57615521D01*
X142728291Y-57715795D01*
X142727784Y-57716554D01*
X142667990Y-57806042D01*
X142591242Y-57882790D01*
X142545812Y-57913145D01*
X142500995Y-57943091D01*
X142400721Y-57984626D01*
X142294270Y-58005800D01*
X142185730Y-58005800D01*
X142079279Y-57984626D01*
X141979005Y-57943091D01*
X141934188Y-57913145D01*
X141888758Y-57882790D01*
X141812010Y-57806042D01*
X141752216Y-57716554D01*
X141751709Y-57715795D01*
X141710174Y-57615521D01*
X141689000Y-57509070D01*
X141689000Y-57400530D01*
X141710174Y-57294079D01*
X141751709Y-57193805D01*
X141781655Y-57148988D01*
X141812010Y-57103558D01*
X141888758Y-57026810D01*
X141979004Y-56966510D01*
X141979005Y-56966509D01*
X142079279Y-56924974D01*
X142185730Y-56903800D01*
X142294270Y-56903800D01*
X142400721Y-56924974D01*
X142400721Y-56924974D01*
G37*
G36*
X203676425Y-55984760D02*
G01*
X203676428Y-55984761D01*
X203676429Y-55984761D01*
X203855693Y-56039140D01*
X203855696Y-56039142D01*
X203855697Y-56039142D01*
X204020903Y-56127446D01*
X204165712Y-56246288D01*
X204284554Y-56391097D01*
X204311634Y-56441761D01*
X204372860Y-56556307D01*
X204386774Y-56602177D01*
X204427240Y-56735575D01*
X204445601Y-56922000D01*
X204427240Y-57108425D01*
X204427239Y-57108428D01*
X204427239Y-57108429D01*
X204372860Y-57287693D01*
X204372858Y-57287696D01*
X204372858Y-57287697D01*
X204284554Y-57452903D01*
X204165712Y-57597712D01*
X204020903Y-57716554D01*
X203855697Y-57804858D01*
X203855693Y-57804860D01*
X203676429Y-57859239D01*
X203676428Y-57859239D01*
X203676425Y-57859240D01*
X203536718Y-57873000D01*
X201243282Y-57873000D01*
X201103575Y-57859240D01*
X201103572Y-57859239D01*
X201103571Y-57859239D01*
X200924307Y-57804860D01*
X200924303Y-57804858D01*
X200759097Y-57716554D01*
X200614288Y-57597712D01*
X200495446Y-57452903D01*
X200407142Y-57287697D01*
X200407142Y-57287696D01*
X200407140Y-57287693D01*
X200352761Y-57108429D01*
X200352761Y-57108428D01*
X200352760Y-57108425D01*
X200334399Y-56922000D01*
X200352760Y-56735575D01*
X200393226Y-56602177D01*
X200407140Y-56556307D01*
X200468366Y-56441761D01*
X200495446Y-56391097D01*
X200614288Y-56246288D01*
X200759097Y-56127446D01*
X200924303Y-56039142D01*
X200924304Y-56039142D01*
X200924307Y-56039140D01*
X201103571Y-55984761D01*
X201103572Y-55984761D01*
X201103575Y-55984760D01*
X201243282Y-55971000D01*
X203536718Y-55971000D01*
X203676425Y-55984760D01*
X203676425Y-55984760D01*
G37*
G36*
X149468023Y-55930313D02*
G01*
X149628442Y-55978976D01*
X149761106Y-56049886D01*
X149776278Y-56057996D01*
X149905859Y-56164341D01*
X150012204Y-56293922D01*
X150012205Y-56293924D01*
X150091224Y-56441758D01*
X150139887Y-56602177D01*
X150156317Y-56769000D01*
X150139887Y-56935823D01*
X150091224Y-57096242D01*
X150039076Y-57193804D01*
X150012204Y-57244078D01*
X149905859Y-57373659D01*
X149776278Y-57480004D01*
X149776276Y-57480005D01*
X149628442Y-57559024D01*
X149468023Y-57607687D01*
X149343004Y-57620000D01*
X149259396Y-57620000D01*
X149134377Y-57607687D01*
X148973958Y-57559024D01*
X148826124Y-57480005D01*
X148826122Y-57480004D01*
X148696541Y-57373659D01*
X148590196Y-57244078D01*
X148563324Y-57193804D01*
X148511176Y-57096242D01*
X148462513Y-56935823D01*
X148446083Y-56769000D01*
X148462513Y-56602177D01*
X148511176Y-56441758D01*
X148590195Y-56293924D01*
X148590196Y-56293922D01*
X148696541Y-56164341D01*
X148826122Y-56057996D01*
X148841294Y-56049886D01*
X148973958Y-55978976D01*
X149134377Y-55930313D01*
X149259396Y-55918000D01*
X149343004Y-55918000D01*
X149468023Y-55930313D01*
X149468023Y-55930313D01*
G37*
G36*
X169788023Y-55930313D02*
G01*
X169948442Y-55978976D01*
X170081106Y-56049886D01*
X170096278Y-56057996D01*
X170225859Y-56164341D01*
X170332204Y-56293922D01*
X170332205Y-56293924D01*
X170411224Y-56441758D01*
X170459887Y-56602177D01*
X170476317Y-56769000D01*
X170459887Y-56935823D01*
X170411224Y-57096242D01*
X170359076Y-57193804D01*
X170332204Y-57244078D01*
X170225859Y-57373659D01*
X170096278Y-57480004D01*
X170096276Y-57480005D01*
X169948442Y-57559024D01*
X169788023Y-57607687D01*
X169663004Y-57620000D01*
X169579396Y-57620000D01*
X169454377Y-57607687D01*
X169293958Y-57559024D01*
X169146124Y-57480005D01*
X169146122Y-57480004D01*
X169016541Y-57373659D01*
X168910196Y-57244078D01*
X168883324Y-57193804D01*
X168831176Y-57096242D01*
X168782513Y-56935823D01*
X168766083Y-56769000D01*
X168782513Y-56602177D01*
X168831176Y-56441758D01*
X168910195Y-56293924D01*
X168910196Y-56293922D01*
X169016541Y-56164341D01*
X169146122Y-56057996D01*
X169161294Y-56049886D01*
X169293958Y-55978976D01*
X169454377Y-55930313D01*
X169579396Y-55918000D01*
X169663004Y-55918000D01*
X169788023Y-55930313D01*
X169788023Y-55930313D01*
G37*
G36*
X157088023Y-55930313D02*
G01*
X157248442Y-55978976D01*
X157381106Y-56049886D01*
X157396278Y-56057996D01*
X157525859Y-56164341D01*
X157632204Y-56293922D01*
X157632205Y-56293924D01*
X157711224Y-56441758D01*
X157759887Y-56602177D01*
X157776317Y-56769000D01*
X157759887Y-56935823D01*
X157711224Y-57096242D01*
X157659076Y-57193804D01*
X157632204Y-57244078D01*
X157525859Y-57373659D01*
X157396278Y-57480004D01*
X157396276Y-57480005D01*
X157248442Y-57559024D01*
X157088023Y-57607687D01*
X156963004Y-57620000D01*
X156879396Y-57620000D01*
X156754377Y-57607687D01*
X156593958Y-57559024D01*
X156446124Y-57480005D01*
X156446122Y-57480004D01*
X156316541Y-57373659D01*
X156210196Y-57244078D01*
X156183324Y-57193804D01*
X156131176Y-57096242D01*
X156082513Y-56935823D01*
X156066083Y-56769000D01*
X156082513Y-56602177D01*
X156131176Y-56441758D01*
X156210195Y-56293924D01*
X156210196Y-56293922D01*
X156316541Y-56164341D01*
X156446122Y-56057996D01*
X156461294Y-56049886D01*
X156593958Y-55978976D01*
X156754377Y-55930313D01*
X156879396Y-55918000D01*
X156963004Y-55918000D01*
X157088023Y-55930313D01*
X157088023Y-55930313D01*
G37*
G36*
X172328023Y-55930313D02*
G01*
X172488442Y-55978976D01*
X172621106Y-56049886D01*
X172636278Y-56057996D01*
X172765859Y-56164341D01*
X172872204Y-56293922D01*
X172872205Y-56293924D01*
X172951224Y-56441758D01*
X172999887Y-56602177D01*
X173016317Y-56769000D01*
X172999887Y-56935823D01*
X172951224Y-57096242D01*
X172899076Y-57193804D01*
X172872204Y-57244078D01*
X172765859Y-57373659D01*
X172636278Y-57480004D01*
X172636276Y-57480005D01*
X172488442Y-57559024D01*
X172328023Y-57607687D01*
X172203004Y-57620000D01*
X172119396Y-57620000D01*
X171994377Y-57607687D01*
X171833958Y-57559024D01*
X171686124Y-57480005D01*
X171686122Y-57480004D01*
X171556541Y-57373659D01*
X171450196Y-57244078D01*
X171423324Y-57193804D01*
X171371176Y-57096242D01*
X171322513Y-56935823D01*
X171306083Y-56769000D01*
X171322513Y-56602177D01*
X171371176Y-56441758D01*
X171450195Y-56293924D01*
X171450196Y-56293922D01*
X171556541Y-56164341D01*
X171686122Y-56057996D01*
X171701294Y-56049886D01*
X171833958Y-55978976D01*
X171994377Y-55930313D01*
X172119396Y-55918000D01*
X172203004Y-55918000D01*
X172328023Y-55930313D01*
X172328023Y-55930313D01*
G37*
G36*
X167248023Y-55930313D02*
G01*
X167408442Y-55978976D01*
X167541106Y-56049886D01*
X167556278Y-56057996D01*
X167685859Y-56164341D01*
X167792204Y-56293922D01*
X167792205Y-56293924D01*
X167871224Y-56441758D01*
X167919887Y-56602177D01*
X167936317Y-56769000D01*
X167919887Y-56935823D01*
X167871224Y-57096242D01*
X167819076Y-57193804D01*
X167792204Y-57244078D01*
X167685859Y-57373659D01*
X167556278Y-57480004D01*
X167556276Y-57480005D01*
X167408442Y-57559024D01*
X167248023Y-57607687D01*
X167123004Y-57620000D01*
X167039396Y-57620000D01*
X166914377Y-57607687D01*
X166753958Y-57559024D01*
X166606124Y-57480005D01*
X166606122Y-57480004D01*
X166476541Y-57373659D01*
X166370196Y-57244078D01*
X166343324Y-57193804D01*
X166291176Y-57096242D01*
X166242513Y-56935823D01*
X166226083Y-56769000D01*
X166242513Y-56602177D01*
X166291176Y-56441758D01*
X166370195Y-56293924D01*
X166370196Y-56293922D01*
X166476541Y-56164341D01*
X166606122Y-56057996D01*
X166621294Y-56049886D01*
X166753958Y-55978976D01*
X166914377Y-55930313D01*
X167039396Y-55918000D01*
X167123004Y-55918000D01*
X167248023Y-55930313D01*
X167248023Y-55930313D01*
G37*
G36*
X174868023Y-55930313D02*
G01*
X175028442Y-55978976D01*
X175161106Y-56049886D01*
X175176278Y-56057996D01*
X175305859Y-56164341D01*
X175412204Y-56293922D01*
X175412205Y-56293924D01*
X175491224Y-56441758D01*
X175539887Y-56602177D01*
X175556317Y-56769000D01*
X175539887Y-56935823D01*
X175491224Y-57096242D01*
X175439076Y-57193804D01*
X175412204Y-57244078D01*
X175305859Y-57373659D01*
X175176278Y-57480004D01*
X175176276Y-57480005D01*
X175028442Y-57559024D01*
X174868023Y-57607687D01*
X174743004Y-57620000D01*
X174659396Y-57620000D01*
X174534377Y-57607687D01*
X174373958Y-57559024D01*
X174226124Y-57480005D01*
X174226122Y-57480004D01*
X174096541Y-57373659D01*
X173990196Y-57244078D01*
X173963324Y-57193804D01*
X173911176Y-57096242D01*
X173862513Y-56935823D01*
X173846083Y-56769000D01*
X173862513Y-56602177D01*
X173911176Y-56441758D01*
X173990195Y-56293924D01*
X173990196Y-56293922D01*
X174096541Y-56164341D01*
X174226122Y-56057996D01*
X174241294Y-56049886D01*
X174373958Y-55978976D01*
X174534377Y-55930313D01*
X174659396Y-55918000D01*
X174743004Y-55918000D01*
X174868023Y-55930313D01*
X174868023Y-55930313D01*
G37*
G36*
X164708023Y-55930313D02*
G01*
X164868442Y-55978976D01*
X165001106Y-56049886D01*
X165016278Y-56057996D01*
X165145859Y-56164341D01*
X165252204Y-56293922D01*
X165252205Y-56293924D01*
X165331224Y-56441758D01*
X165379887Y-56602177D01*
X165396317Y-56769000D01*
X165379887Y-56935823D01*
X165331224Y-57096242D01*
X165279076Y-57193804D01*
X165252204Y-57244078D01*
X165145859Y-57373659D01*
X165016278Y-57480004D01*
X165016276Y-57480005D01*
X164868442Y-57559024D01*
X164708023Y-57607687D01*
X164583004Y-57620000D01*
X164499396Y-57620000D01*
X164374377Y-57607687D01*
X164213958Y-57559024D01*
X164066124Y-57480005D01*
X164066122Y-57480004D01*
X163936541Y-57373659D01*
X163830196Y-57244078D01*
X163803324Y-57193804D01*
X163751176Y-57096242D01*
X163702513Y-56935823D01*
X163686083Y-56769000D01*
X163702513Y-56602177D01*
X163751176Y-56441758D01*
X163830195Y-56293924D01*
X163830196Y-56293922D01*
X163936541Y-56164341D01*
X164066122Y-56057996D01*
X164081294Y-56049886D01*
X164213958Y-55978976D01*
X164374377Y-55930313D01*
X164499396Y-55918000D01*
X164583004Y-55918000D01*
X164708023Y-55930313D01*
X164708023Y-55930313D01*
G37*
G36*
X177408023Y-55930313D02*
G01*
X177568442Y-55978976D01*
X177701106Y-56049886D01*
X177716278Y-56057996D01*
X177845859Y-56164341D01*
X177952204Y-56293922D01*
X177952205Y-56293924D01*
X178031224Y-56441758D01*
X178079887Y-56602177D01*
X178096317Y-56769000D01*
X178079887Y-56935823D01*
X178031224Y-57096242D01*
X177979076Y-57193804D01*
X177952204Y-57244078D01*
X177845859Y-57373659D01*
X177716278Y-57480004D01*
X177716276Y-57480005D01*
X177568442Y-57559024D01*
X177408023Y-57607687D01*
X177283004Y-57620000D01*
X177199396Y-57620000D01*
X177074377Y-57607687D01*
X176913958Y-57559024D01*
X176766124Y-57480005D01*
X176766122Y-57480004D01*
X176636541Y-57373659D01*
X176530196Y-57244078D01*
X176503324Y-57193804D01*
X176451176Y-57096242D01*
X176402513Y-56935823D01*
X176386083Y-56769000D01*
X176402513Y-56602177D01*
X176451176Y-56441758D01*
X176530195Y-56293924D01*
X176530196Y-56293922D01*
X176636541Y-56164341D01*
X176766122Y-56057996D01*
X176781294Y-56049886D01*
X176913958Y-55978976D01*
X177074377Y-55930313D01*
X177199396Y-55918000D01*
X177283004Y-55918000D01*
X177408023Y-55930313D01*
X177408023Y-55930313D01*
G37*
G36*
X159628023Y-55930313D02*
G01*
X159788442Y-55978976D01*
X159921106Y-56049886D01*
X159936278Y-56057996D01*
X160065859Y-56164341D01*
X160172204Y-56293922D01*
X160172205Y-56293924D01*
X160251224Y-56441758D01*
X160299887Y-56602177D01*
X160316317Y-56769000D01*
X160299887Y-56935823D01*
X160251224Y-57096242D01*
X160199076Y-57193804D01*
X160172204Y-57244078D01*
X160065859Y-57373659D01*
X159936278Y-57480004D01*
X159936276Y-57480005D01*
X159788442Y-57559024D01*
X159628023Y-57607687D01*
X159503004Y-57620000D01*
X159419396Y-57620000D01*
X159294377Y-57607687D01*
X159133958Y-57559024D01*
X158986124Y-57480005D01*
X158986122Y-57480004D01*
X158856541Y-57373659D01*
X158750196Y-57244078D01*
X158723324Y-57193804D01*
X158671176Y-57096242D01*
X158622513Y-56935823D01*
X158606083Y-56769000D01*
X158622513Y-56602177D01*
X158671176Y-56441758D01*
X158750195Y-56293924D01*
X158750196Y-56293922D01*
X158856541Y-56164341D01*
X158986122Y-56057996D01*
X159001294Y-56049886D01*
X159133958Y-55978976D01*
X159294377Y-55930313D01*
X159419396Y-55918000D01*
X159503004Y-55918000D01*
X159628023Y-55930313D01*
X159628023Y-55930313D01*
G37*
G36*
X179948023Y-55930313D02*
G01*
X180108442Y-55978976D01*
X180241106Y-56049886D01*
X180256278Y-56057996D01*
X180385859Y-56164341D01*
X180492204Y-56293922D01*
X180492205Y-56293924D01*
X180571224Y-56441758D01*
X180619887Y-56602177D01*
X180636317Y-56769000D01*
X180619887Y-56935823D01*
X180571224Y-57096242D01*
X180519076Y-57193804D01*
X180492204Y-57244078D01*
X180385859Y-57373659D01*
X180256278Y-57480004D01*
X180256276Y-57480005D01*
X180108442Y-57559024D01*
X179948023Y-57607687D01*
X179823004Y-57620000D01*
X179739396Y-57620000D01*
X179614377Y-57607687D01*
X179453958Y-57559024D01*
X179306124Y-57480005D01*
X179306122Y-57480004D01*
X179176541Y-57373659D01*
X179070196Y-57244078D01*
X179043324Y-57193804D01*
X178991176Y-57096242D01*
X178942513Y-56935823D01*
X178926083Y-56769000D01*
X178942513Y-56602177D01*
X178991176Y-56441758D01*
X179070195Y-56293924D01*
X179070196Y-56293922D01*
X179176541Y-56164341D01*
X179306122Y-56057996D01*
X179321294Y-56049886D01*
X179453958Y-55978976D01*
X179614377Y-55930313D01*
X179739396Y-55918000D01*
X179823004Y-55918000D01*
X179948023Y-55930313D01*
X179948023Y-55930313D01*
G37*
G36*
X154548023Y-55930313D02*
G01*
X154708442Y-55978976D01*
X154841106Y-56049886D01*
X154856278Y-56057996D01*
X154985859Y-56164341D01*
X155092204Y-56293922D01*
X155092205Y-56293924D01*
X155171224Y-56441758D01*
X155219887Y-56602177D01*
X155236317Y-56769000D01*
X155219887Y-56935823D01*
X155171224Y-57096242D01*
X155119076Y-57193804D01*
X155092204Y-57244078D01*
X154985859Y-57373659D01*
X154856278Y-57480004D01*
X154856276Y-57480005D01*
X154708442Y-57559024D01*
X154548023Y-57607687D01*
X154423004Y-57620000D01*
X154339396Y-57620000D01*
X154214377Y-57607687D01*
X154053958Y-57559024D01*
X153906124Y-57480005D01*
X153906122Y-57480004D01*
X153776541Y-57373659D01*
X153670196Y-57244078D01*
X153643324Y-57193804D01*
X153591176Y-57096242D01*
X153542513Y-56935823D01*
X153526083Y-56769000D01*
X153542513Y-56602177D01*
X153591176Y-56441758D01*
X153670195Y-56293924D01*
X153670196Y-56293922D01*
X153776541Y-56164341D01*
X153906122Y-56057996D01*
X153921294Y-56049886D01*
X154053958Y-55978976D01*
X154214377Y-55930313D01*
X154339396Y-55918000D01*
X154423004Y-55918000D01*
X154548023Y-55930313D01*
X154548023Y-55930313D01*
G37*
G36*
X146928023Y-55930313D02*
G01*
X147088442Y-55978976D01*
X147221106Y-56049886D01*
X147236278Y-56057996D01*
X147365859Y-56164341D01*
X147472204Y-56293922D01*
X147472205Y-56293924D01*
X147551224Y-56441758D01*
X147599887Y-56602177D01*
X147616317Y-56769000D01*
X147599887Y-56935823D01*
X147551224Y-57096242D01*
X147499076Y-57193804D01*
X147472204Y-57244078D01*
X147365859Y-57373659D01*
X147236278Y-57480004D01*
X147236276Y-57480005D01*
X147088442Y-57559024D01*
X146928023Y-57607687D01*
X146803004Y-57620000D01*
X146719396Y-57620000D01*
X146594377Y-57607687D01*
X146433958Y-57559024D01*
X146286124Y-57480005D01*
X146286122Y-57480004D01*
X146156541Y-57373659D01*
X146050196Y-57244078D01*
X146023324Y-57193804D01*
X145971176Y-57096242D01*
X145922513Y-56935823D01*
X145906083Y-56769000D01*
X145922513Y-56602177D01*
X145971176Y-56441758D01*
X146050195Y-56293924D01*
X146050196Y-56293922D01*
X146156541Y-56164341D01*
X146286122Y-56057996D01*
X146301294Y-56049886D01*
X146433958Y-55978976D01*
X146594377Y-55930313D01*
X146719396Y-55918000D01*
X146803004Y-55918000D01*
X146928023Y-55930313D01*
X146928023Y-55930313D01*
G37*
G36*
X183172200Y-57620000D02*
G01*
X181470200Y-57620000D01*
X181470200Y-55918000D01*
X183172200Y-55918000D01*
X183172200Y-57620000D01*
X183172200Y-57620000D01*
G37*
G36*
X152008023Y-55930313D02*
G01*
X152168442Y-55978976D01*
X152301106Y-56049886D01*
X152316278Y-56057996D01*
X152445859Y-56164341D01*
X152552204Y-56293922D01*
X152552205Y-56293924D01*
X152631224Y-56441758D01*
X152679887Y-56602177D01*
X152696317Y-56769000D01*
X152679887Y-56935823D01*
X152631224Y-57096242D01*
X152579076Y-57193804D01*
X152552204Y-57244078D01*
X152445859Y-57373659D01*
X152316278Y-57480004D01*
X152316276Y-57480005D01*
X152168442Y-57559024D01*
X152008023Y-57607687D01*
X151883004Y-57620000D01*
X151799396Y-57620000D01*
X151674377Y-57607687D01*
X151513958Y-57559024D01*
X151366124Y-57480005D01*
X151366122Y-57480004D01*
X151236541Y-57373659D01*
X151130196Y-57244078D01*
X151103324Y-57193804D01*
X151051176Y-57096242D01*
X151002513Y-56935823D01*
X150986083Y-56769000D01*
X151002513Y-56602177D01*
X151051176Y-56441758D01*
X151130195Y-56293924D01*
X151130196Y-56293922D01*
X151236541Y-56164341D01*
X151366122Y-56057996D01*
X151381294Y-56049886D01*
X151513958Y-55978976D01*
X151674377Y-55930313D01*
X151799396Y-55918000D01*
X151883004Y-55918000D01*
X152008023Y-55930313D01*
X152008023Y-55930313D01*
G37*
G36*
X208186721Y-55146974D02*
G01*
X208286995Y-55188509D01*
X208286996Y-55188510D01*
X208377242Y-55248810D01*
X208453990Y-55325558D01*
X208453991Y-55325560D01*
X208514291Y-55415805D01*
X208555826Y-55516079D01*
X208577000Y-55622530D01*
X208577000Y-55731070D01*
X208555826Y-55837521D01*
X208514291Y-55937795D01*
X208514290Y-55937796D01*
X208453990Y-56028042D01*
X208377242Y-56104790D01*
X208343335Y-56127446D01*
X208286995Y-56165091D01*
X208186721Y-56206626D01*
X208080270Y-56227800D01*
X207971730Y-56227800D01*
X207865279Y-56206626D01*
X207765005Y-56165091D01*
X207708665Y-56127446D01*
X207674758Y-56104790D01*
X207598010Y-56028042D01*
X207537710Y-55937796D01*
X207537709Y-55937795D01*
X207496174Y-55837521D01*
X207475000Y-55731070D01*
X207475000Y-55622530D01*
X207496174Y-55516079D01*
X207537709Y-55415805D01*
X207598009Y-55325560D01*
X207598010Y-55325558D01*
X207674758Y-55248810D01*
X207765004Y-55188510D01*
X207765005Y-55188509D01*
X207865279Y-55146974D01*
X207971730Y-55125800D01*
X208080270Y-55125800D01*
X208186721Y-55146974D01*
X208186721Y-55146974D01*
G37*
M02*
