G04 #@! TF.GenerationSoftware,KiCad,Pcbnew,5.1.3-ffb9f22~84~ubuntu19.04.1*
G04 #@! TF.CreationDate,2019-08-06T17:14:25+02:00*
G04 #@! TF.ProjectId,420-transmitter,3432302d-7472-4616-9e73-6d6974746572,rev?*
G04 #@! TF.SameCoordinates,Original*
G04 #@! TF.FileFunction,Soldermask,Top*
G04 #@! TF.FilePolarity,Negative*
%FSLAX46Y46*%
G04 Gerber Fmt 4.6, Leading zero omitted, Abs format (unit mm)*
G04 Created by KiCad (PCBNEW 5.1.3-ffb9f22~84~ubuntu19.04.1) date 2019-08-06 17:14:25*
%MOMM*%
%LPD*%
G04 APERTURE LIST*
%ADD10C,0.100000*%
G04 APERTURE END LIST*
D10*
G36*
X199169721Y-105438974D02*
G01*
X199269995Y-105480509D01*
X199269996Y-105480510D01*
X199360242Y-105540810D01*
X199436990Y-105617558D01*
X199436991Y-105617560D01*
X199497291Y-105707805D01*
X199538826Y-105808079D01*
X199560000Y-105914530D01*
X199560000Y-106023070D01*
X199538826Y-106129521D01*
X199497291Y-106229795D01*
X199497290Y-106229796D01*
X199436990Y-106320042D01*
X199360242Y-106396790D01*
X199314812Y-106427145D01*
X199269995Y-106457091D01*
X199169721Y-106498626D01*
X199063270Y-106519800D01*
X198954730Y-106519800D01*
X198848279Y-106498626D01*
X198748005Y-106457091D01*
X198703188Y-106427145D01*
X198657758Y-106396790D01*
X198581010Y-106320042D01*
X198520710Y-106229796D01*
X198520709Y-106229795D01*
X198479174Y-106129521D01*
X198458000Y-106023070D01*
X198458000Y-105914530D01*
X198479174Y-105808079D01*
X198520709Y-105707805D01*
X198581009Y-105617560D01*
X198581010Y-105617558D01*
X198657758Y-105540810D01*
X198748004Y-105480510D01*
X198748005Y-105480509D01*
X198848279Y-105438974D01*
X198954730Y-105417800D01*
X199063270Y-105417800D01*
X199169721Y-105438974D01*
X199169721Y-105438974D01*
G37*
G36*
X196502721Y-105438974D02*
G01*
X196602995Y-105480509D01*
X196602996Y-105480510D01*
X196693242Y-105540810D01*
X196769990Y-105617558D01*
X196769991Y-105617560D01*
X196830291Y-105707805D01*
X196871826Y-105808079D01*
X196893000Y-105914530D01*
X196893000Y-106023070D01*
X196871826Y-106129521D01*
X196830291Y-106229795D01*
X196830290Y-106229796D01*
X196769990Y-106320042D01*
X196693242Y-106396790D01*
X196647812Y-106427145D01*
X196602995Y-106457091D01*
X196502721Y-106498626D01*
X196396270Y-106519800D01*
X196287730Y-106519800D01*
X196181279Y-106498626D01*
X196081005Y-106457091D01*
X196036188Y-106427145D01*
X195990758Y-106396790D01*
X195914010Y-106320042D01*
X195853710Y-106229796D01*
X195853709Y-106229795D01*
X195812174Y-106129521D01*
X195791000Y-106023070D01*
X195791000Y-105914530D01*
X195812174Y-105808079D01*
X195853709Y-105707805D01*
X195914009Y-105617560D01*
X195914010Y-105617558D01*
X195990758Y-105540810D01*
X196081004Y-105480510D01*
X196081005Y-105480509D01*
X196181279Y-105438974D01*
X196287730Y-105417800D01*
X196396270Y-105417800D01*
X196502721Y-105438974D01*
X196502721Y-105438974D01*
G37*
G36*
X142400721Y-104803974D02*
G01*
X142500995Y-104845509D01*
X142500996Y-104845510D01*
X142591242Y-104905810D01*
X142667990Y-104982558D01*
X142667991Y-104982560D01*
X142728291Y-105072805D01*
X142769826Y-105173079D01*
X142791000Y-105279530D01*
X142791000Y-105388070D01*
X142769826Y-105494521D01*
X142728291Y-105594795D01*
X142728290Y-105594796D01*
X142667990Y-105685042D01*
X142591242Y-105761790D01*
X142545812Y-105792145D01*
X142500995Y-105822091D01*
X142400721Y-105863626D01*
X142294270Y-105884800D01*
X142185730Y-105884800D01*
X142079279Y-105863626D01*
X141979005Y-105822091D01*
X141934188Y-105792145D01*
X141888758Y-105761790D01*
X141812010Y-105685042D01*
X141751710Y-105594796D01*
X141751709Y-105594795D01*
X141710174Y-105494521D01*
X141689000Y-105388070D01*
X141689000Y-105279530D01*
X141710174Y-105173079D01*
X141751709Y-105072805D01*
X141812009Y-104982560D01*
X141812010Y-104982558D01*
X141888758Y-104905810D01*
X141979004Y-104845510D01*
X141979005Y-104845509D01*
X142079279Y-104803974D01*
X142185730Y-104782800D01*
X142294270Y-104782800D01*
X142400721Y-104803974D01*
X142400721Y-104803974D01*
G37*
G36*
X146928023Y-104190313D02*
G01*
X147088442Y-104238976D01*
X147221106Y-104309886D01*
X147236278Y-104317996D01*
X147365859Y-104424341D01*
X147472204Y-104553922D01*
X147472205Y-104553924D01*
X147551224Y-104701758D01*
X147599887Y-104862177D01*
X147616317Y-105029000D01*
X147599887Y-105195823D01*
X147551224Y-105356242D01*
X147507003Y-105438974D01*
X147472204Y-105504078D01*
X147365859Y-105633659D01*
X147236278Y-105740004D01*
X147236276Y-105740005D01*
X147088442Y-105819024D01*
X146928023Y-105867687D01*
X146803004Y-105880000D01*
X146719396Y-105880000D01*
X146594377Y-105867687D01*
X146433958Y-105819024D01*
X146286124Y-105740005D01*
X146286122Y-105740004D01*
X146156541Y-105633659D01*
X146050196Y-105504078D01*
X146015397Y-105438974D01*
X145971176Y-105356242D01*
X145922513Y-105195823D01*
X145906083Y-105029000D01*
X145922513Y-104862177D01*
X145971176Y-104701758D01*
X146050195Y-104553924D01*
X146050196Y-104553922D01*
X146156541Y-104424341D01*
X146286122Y-104317996D01*
X146301294Y-104309886D01*
X146433958Y-104238976D01*
X146594377Y-104190313D01*
X146719396Y-104178000D01*
X146803004Y-104178000D01*
X146928023Y-104190313D01*
X146928023Y-104190313D01*
G37*
G36*
X149468023Y-104190313D02*
G01*
X149628442Y-104238976D01*
X149761106Y-104309886D01*
X149776278Y-104317996D01*
X149905859Y-104424341D01*
X150012204Y-104553922D01*
X150012205Y-104553924D01*
X150091224Y-104701758D01*
X150139887Y-104862177D01*
X150156317Y-105029000D01*
X150139887Y-105195823D01*
X150091224Y-105356242D01*
X150047003Y-105438974D01*
X150012204Y-105504078D01*
X149905859Y-105633659D01*
X149776278Y-105740004D01*
X149776276Y-105740005D01*
X149628442Y-105819024D01*
X149468023Y-105867687D01*
X149343004Y-105880000D01*
X149259396Y-105880000D01*
X149134377Y-105867687D01*
X148973958Y-105819024D01*
X148826124Y-105740005D01*
X148826122Y-105740004D01*
X148696541Y-105633659D01*
X148590196Y-105504078D01*
X148555397Y-105438974D01*
X148511176Y-105356242D01*
X148462513Y-105195823D01*
X148446083Y-105029000D01*
X148462513Y-104862177D01*
X148511176Y-104701758D01*
X148590195Y-104553924D01*
X148590196Y-104553922D01*
X148696541Y-104424341D01*
X148826122Y-104317996D01*
X148841294Y-104309886D01*
X148973958Y-104238976D01*
X149134377Y-104190313D01*
X149259396Y-104178000D01*
X149343004Y-104178000D01*
X149468023Y-104190313D01*
X149468023Y-104190313D01*
G37*
G36*
X186548023Y-104190313D02*
G01*
X186708442Y-104238976D01*
X186841106Y-104309886D01*
X186856278Y-104317996D01*
X186985859Y-104424341D01*
X187092204Y-104553922D01*
X187092205Y-104553924D01*
X187171224Y-104701758D01*
X187219887Y-104862177D01*
X187236317Y-105029000D01*
X187219887Y-105195823D01*
X187171224Y-105356242D01*
X187127003Y-105438974D01*
X187092204Y-105504078D01*
X186985859Y-105633659D01*
X186856278Y-105740004D01*
X186856276Y-105740005D01*
X186708442Y-105819024D01*
X186548023Y-105867687D01*
X186423004Y-105880000D01*
X186339396Y-105880000D01*
X186214377Y-105867687D01*
X186053958Y-105819024D01*
X185906124Y-105740005D01*
X185906122Y-105740004D01*
X185776541Y-105633659D01*
X185670196Y-105504078D01*
X185635397Y-105438974D01*
X185591176Y-105356242D01*
X185542513Y-105195823D01*
X185526083Y-105029000D01*
X185542513Y-104862177D01*
X185591176Y-104701758D01*
X185670195Y-104553924D01*
X185670196Y-104553922D01*
X185776541Y-104424341D01*
X185906122Y-104317996D01*
X185921294Y-104309886D01*
X186053958Y-104238976D01*
X186214377Y-104190313D01*
X186339396Y-104178000D01*
X186423004Y-104178000D01*
X186548023Y-104190313D01*
X186548023Y-104190313D01*
G37*
G36*
X184008023Y-104190313D02*
G01*
X184168442Y-104238976D01*
X184301106Y-104309886D01*
X184316278Y-104317996D01*
X184445859Y-104424341D01*
X184552204Y-104553922D01*
X184552205Y-104553924D01*
X184631224Y-104701758D01*
X184679887Y-104862177D01*
X184696317Y-105029000D01*
X184679887Y-105195823D01*
X184631224Y-105356242D01*
X184587003Y-105438974D01*
X184552204Y-105504078D01*
X184445859Y-105633659D01*
X184316278Y-105740004D01*
X184316276Y-105740005D01*
X184168442Y-105819024D01*
X184008023Y-105867687D01*
X183883004Y-105880000D01*
X183799396Y-105880000D01*
X183674377Y-105867687D01*
X183513958Y-105819024D01*
X183366124Y-105740005D01*
X183366122Y-105740004D01*
X183236541Y-105633659D01*
X183130196Y-105504078D01*
X183095397Y-105438974D01*
X183051176Y-105356242D01*
X183002513Y-105195823D01*
X182986083Y-105029000D01*
X183002513Y-104862177D01*
X183051176Y-104701758D01*
X183130195Y-104553924D01*
X183130196Y-104553922D01*
X183236541Y-104424341D01*
X183366122Y-104317996D01*
X183381294Y-104309886D01*
X183513958Y-104238976D01*
X183674377Y-104190313D01*
X183799396Y-104178000D01*
X183883004Y-104178000D01*
X184008023Y-104190313D01*
X184008023Y-104190313D01*
G37*
G36*
X181468023Y-104190313D02*
G01*
X181628442Y-104238976D01*
X181761106Y-104309886D01*
X181776278Y-104317996D01*
X181905859Y-104424341D01*
X182012204Y-104553922D01*
X182012205Y-104553924D01*
X182091224Y-104701758D01*
X182139887Y-104862177D01*
X182156317Y-105029000D01*
X182139887Y-105195823D01*
X182091224Y-105356242D01*
X182047003Y-105438974D01*
X182012204Y-105504078D01*
X181905859Y-105633659D01*
X181776278Y-105740004D01*
X181776276Y-105740005D01*
X181628442Y-105819024D01*
X181468023Y-105867687D01*
X181343004Y-105880000D01*
X181259396Y-105880000D01*
X181134377Y-105867687D01*
X180973958Y-105819024D01*
X180826124Y-105740005D01*
X180826122Y-105740004D01*
X180696541Y-105633659D01*
X180590196Y-105504078D01*
X180555397Y-105438974D01*
X180511176Y-105356242D01*
X180462513Y-105195823D01*
X180446083Y-105029000D01*
X180462513Y-104862177D01*
X180511176Y-104701758D01*
X180590195Y-104553924D01*
X180590196Y-104553922D01*
X180696541Y-104424341D01*
X180826122Y-104317996D01*
X180841294Y-104309886D01*
X180973958Y-104238976D01*
X181134377Y-104190313D01*
X181259396Y-104178000D01*
X181343004Y-104178000D01*
X181468023Y-104190313D01*
X181468023Y-104190313D01*
G37*
G36*
X178928023Y-104190313D02*
G01*
X179088442Y-104238976D01*
X179221106Y-104309886D01*
X179236278Y-104317996D01*
X179365859Y-104424341D01*
X179472204Y-104553922D01*
X179472205Y-104553924D01*
X179551224Y-104701758D01*
X179599887Y-104862177D01*
X179616317Y-105029000D01*
X179599887Y-105195823D01*
X179551224Y-105356242D01*
X179507003Y-105438974D01*
X179472204Y-105504078D01*
X179365859Y-105633659D01*
X179236278Y-105740004D01*
X179236276Y-105740005D01*
X179088442Y-105819024D01*
X178928023Y-105867687D01*
X178803004Y-105880000D01*
X178719396Y-105880000D01*
X178594377Y-105867687D01*
X178433958Y-105819024D01*
X178286124Y-105740005D01*
X178286122Y-105740004D01*
X178156541Y-105633659D01*
X178050196Y-105504078D01*
X178015397Y-105438974D01*
X177971176Y-105356242D01*
X177922513Y-105195823D01*
X177906083Y-105029000D01*
X177922513Y-104862177D01*
X177971176Y-104701758D01*
X178050195Y-104553924D01*
X178050196Y-104553922D01*
X178156541Y-104424341D01*
X178286122Y-104317996D01*
X178301294Y-104309886D01*
X178433958Y-104238976D01*
X178594377Y-104190313D01*
X178719396Y-104178000D01*
X178803004Y-104178000D01*
X178928023Y-104190313D01*
X178928023Y-104190313D01*
G37*
G36*
X176388023Y-104190313D02*
G01*
X176548442Y-104238976D01*
X176681106Y-104309886D01*
X176696278Y-104317996D01*
X176825859Y-104424341D01*
X176932204Y-104553922D01*
X176932205Y-104553924D01*
X177011224Y-104701758D01*
X177059887Y-104862177D01*
X177076317Y-105029000D01*
X177059887Y-105195823D01*
X177011224Y-105356242D01*
X176967003Y-105438974D01*
X176932204Y-105504078D01*
X176825859Y-105633659D01*
X176696278Y-105740004D01*
X176696276Y-105740005D01*
X176548442Y-105819024D01*
X176388023Y-105867687D01*
X176263004Y-105880000D01*
X176179396Y-105880000D01*
X176054377Y-105867687D01*
X175893958Y-105819024D01*
X175746124Y-105740005D01*
X175746122Y-105740004D01*
X175616541Y-105633659D01*
X175510196Y-105504078D01*
X175475397Y-105438974D01*
X175431176Y-105356242D01*
X175382513Y-105195823D01*
X175366083Y-105029000D01*
X175382513Y-104862177D01*
X175431176Y-104701758D01*
X175510195Y-104553924D01*
X175510196Y-104553922D01*
X175616541Y-104424341D01*
X175746122Y-104317996D01*
X175761294Y-104309886D01*
X175893958Y-104238976D01*
X176054377Y-104190313D01*
X176179396Y-104178000D01*
X176263004Y-104178000D01*
X176388023Y-104190313D01*
X176388023Y-104190313D01*
G37*
G36*
X173848023Y-104190313D02*
G01*
X174008442Y-104238976D01*
X174141106Y-104309886D01*
X174156278Y-104317996D01*
X174285859Y-104424341D01*
X174392204Y-104553922D01*
X174392205Y-104553924D01*
X174471224Y-104701758D01*
X174519887Y-104862177D01*
X174536317Y-105029000D01*
X174519887Y-105195823D01*
X174471224Y-105356242D01*
X174427003Y-105438974D01*
X174392204Y-105504078D01*
X174285859Y-105633659D01*
X174156278Y-105740004D01*
X174156276Y-105740005D01*
X174008442Y-105819024D01*
X173848023Y-105867687D01*
X173723004Y-105880000D01*
X173639396Y-105880000D01*
X173514377Y-105867687D01*
X173353958Y-105819024D01*
X173206124Y-105740005D01*
X173206122Y-105740004D01*
X173076541Y-105633659D01*
X172970196Y-105504078D01*
X172935397Y-105438974D01*
X172891176Y-105356242D01*
X172842513Y-105195823D01*
X172826083Y-105029000D01*
X172842513Y-104862177D01*
X172891176Y-104701758D01*
X172970195Y-104553924D01*
X172970196Y-104553922D01*
X173076541Y-104424341D01*
X173206122Y-104317996D01*
X173221294Y-104309886D01*
X173353958Y-104238976D01*
X173514377Y-104190313D01*
X173639396Y-104178000D01*
X173723004Y-104178000D01*
X173848023Y-104190313D01*
X173848023Y-104190313D01*
G37*
G36*
X171308023Y-104190313D02*
G01*
X171468442Y-104238976D01*
X171601106Y-104309886D01*
X171616278Y-104317996D01*
X171745859Y-104424341D01*
X171852204Y-104553922D01*
X171852205Y-104553924D01*
X171931224Y-104701758D01*
X171979887Y-104862177D01*
X171996317Y-105029000D01*
X171979887Y-105195823D01*
X171931224Y-105356242D01*
X171887003Y-105438974D01*
X171852204Y-105504078D01*
X171745859Y-105633659D01*
X171616278Y-105740004D01*
X171616276Y-105740005D01*
X171468442Y-105819024D01*
X171308023Y-105867687D01*
X171183004Y-105880000D01*
X171099396Y-105880000D01*
X170974377Y-105867687D01*
X170813958Y-105819024D01*
X170666124Y-105740005D01*
X170666122Y-105740004D01*
X170536541Y-105633659D01*
X170430196Y-105504078D01*
X170395397Y-105438974D01*
X170351176Y-105356242D01*
X170302513Y-105195823D01*
X170286083Y-105029000D01*
X170302513Y-104862177D01*
X170351176Y-104701758D01*
X170430195Y-104553924D01*
X170430196Y-104553922D01*
X170536541Y-104424341D01*
X170666122Y-104317996D01*
X170681294Y-104309886D01*
X170813958Y-104238976D01*
X170974377Y-104190313D01*
X171099396Y-104178000D01*
X171183004Y-104178000D01*
X171308023Y-104190313D01*
X171308023Y-104190313D01*
G37*
G36*
X164708023Y-104190313D02*
G01*
X164868442Y-104238976D01*
X165001106Y-104309886D01*
X165016278Y-104317996D01*
X165145859Y-104424341D01*
X165252204Y-104553922D01*
X165252205Y-104553924D01*
X165331224Y-104701758D01*
X165379887Y-104862177D01*
X165396317Y-105029000D01*
X165379887Y-105195823D01*
X165331224Y-105356242D01*
X165287003Y-105438974D01*
X165252204Y-105504078D01*
X165145859Y-105633659D01*
X165016278Y-105740004D01*
X165016276Y-105740005D01*
X164868442Y-105819024D01*
X164708023Y-105867687D01*
X164583004Y-105880000D01*
X164499396Y-105880000D01*
X164374377Y-105867687D01*
X164213958Y-105819024D01*
X164066124Y-105740005D01*
X164066122Y-105740004D01*
X163936541Y-105633659D01*
X163830196Y-105504078D01*
X163795397Y-105438974D01*
X163751176Y-105356242D01*
X163702513Y-105195823D01*
X163686083Y-105029000D01*
X163702513Y-104862177D01*
X163751176Y-104701758D01*
X163830195Y-104553924D01*
X163830196Y-104553922D01*
X163936541Y-104424341D01*
X164066122Y-104317996D01*
X164081294Y-104309886D01*
X164213958Y-104238976D01*
X164374377Y-104190313D01*
X164499396Y-104178000D01*
X164583004Y-104178000D01*
X164708023Y-104190313D01*
X164708023Y-104190313D01*
G37*
G36*
X191628023Y-104190313D02*
G01*
X191788442Y-104238976D01*
X191921106Y-104309886D01*
X191936278Y-104317996D01*
X192065859Y-104424341D01*
X192172204Y-104553922D01*
X192172205Y-104553924D01*
X192251224Y-104701758D01*
X192299887Y-104862177D01*
X192316317Y-105029000D01*
X192299887Y-105195823D01*
X192251224Y-105356242D01*
X192207003Y-105438974D01*
X192172204Y-105504078D01*
X192065859Y-105633659D01*
X191936278Y-105740004D01*
X191936276Y-105740005D01*
X191788442Y-105819024D01*
X191628023Y-105867687D01*
X191503004Y-105880000D01*
X191419396Y-105880000D01*
X191294377Y-105867687D01*
X191133958Y-105819024D01*
X190986124Y-105740005D01*
X190986122Y-105740004D01*
X190856541Y-105633659D01*
X190750196Y-105504078D01*
X190715397Y-105438974D01*
X190671176Y-105356242D01*
X190622513Y-105195823D01*
X190606083Y-105029000D01*
X190622513Y-104862177D01*
X190671176Y-104701758D01*
X190750195Y-104553924D01*
X190750196Y-104553922D01*
X190856541Y-104424341D01*
X190986122Y-104317996D01*
X191001294Y-104309886D01*
X191133958Y-104238976D01*
X191294377Y-104190313D01*
X191419396Y-104178000D01*
X191503004Y-104178000D01*
X191628023Y-104190313D01*
X191628023Y-104190313D01*
G37*
G36*
X189088023Y-104190313D02*
G01*
X189248442Y-104238976D01*
X189381106Y-104309886D01*
X189396278Y-104317996D01*
X189525859Y-104424341D01*
X189632204Y-104553922D01*
X189632205Y-104553924D01*
X189711224Y-104701758D01*
X189759887Y-104862177D01*
X189776317Y-105029000D01*
X189759887Y-105195823D01*
X189711224Y-105356242D01*
X189667003Y-105438974D01*
X189632204Y-105504078D01*
X189525859Y-105633659D01*
X189396278Y-105740004D01*
X189396276Y-105740005D01*
X189248442Y-105819024D01*
X189088023Y-105867687D01*
X188963004Y-105880000D01*
X188879396Y-105880000D01*
X188754377Y-105867687D01*
X188593958Y-105819024D01*
X188446124Y-105740005D01*
X188446122Y-105740004D01*
X188316541Y-105633659D01*
X188210196Y-105504078D01*
X188175397Y-105438974D01*
X188131176Y-105356242D01*
X188082513Y-105195823D01*
X188066083Y-105029000D01*
X188082513Y-104862177D01*
X188131176Y-104701758D01*
X188210195Y-104553924D01*
X188210196Y-104553922D01*
X188316541Y-104424341D01*
X188446122Y-104317996D01*
X188461294Y-104309886D01*
X188593958Y-104238976D01*
X188754377Y-104190313D01*
X188879396Y-104178000D01*
X188963004Y-104178000D01*
X189088023Y-104190313D01*
X189088023Y-104190313D01*
G37*
G36*
X152008023Y-104190313D02*
G01*
X152168442Y-104238976D01*
X152301106Y-104309886D01*
X152316278Y-104317996D01*
X152445859Y-104424341D01*
X152552204Y-104553922D01*
X152552205Y-104553924D01*
X152631224Y-104701758D01*
X152679887Y-104862177D01*
X152696317Y-105029000D01*
X152679887Y-105195823D01*
X152631224Y-105356242D01*
X152587003Y-105438974D01*
X152552204Y-105504078D01*
X152445859Y-105633659D01*
X152316278Y-105740004D01*
X152316276Y-105740005D01*
X152168442Y-105819024D01*
X152008023Y-105867687D01*
X151883004Y-105880000D01*
X151799396Y-105880000D01*
X151674377Y-105867687D01*
X151513958Y-105819024D01*
X151366124Y-105740005D01*
X151366122Y-105740004D01*
X151236541Y-105633659D01*
X151130196Y-105504078D01*
X151095397Y-105438974D01*
X151051176Y-105356242D01*
X151002513Y-105195823D01*
X150986083Y-105029000D01*
X151002513Y-104862177D01*
X151051176Y-104701758D01*
X151130195Y-104553924D01*
X151130196Y-104553922D01*
X151236541Y-104424341D01*
X151366122Y-104317996D01*
X151381294Y-104309886D01*
X151513958Y-104238976D01*
X151674377Y-104190313D01*
X151799396Y-104178000D01*
X151883004Y-104178000D01*
X152008023Y-104190313D01*
X152008023Y-104190313D01*
G37*
G36*
X154548023Y-104190313D02*
G01*
X154708442Y-104238976D01*
X154841106Y-104309886D01*
X154856278Y-104317996D01*
X154985859Y-104424341D01*
X155092204Y-104553922D01*
X155092205Y-104553924D01*
X155171224Y-104701758D01*
X155219887Y-104862177D01*
X155236317Y-105029000D01*
X155219887Y-105195823D01*
X155171224Y-105356242D01*
X155127003Y-105438974D01*
X155092204Y-105504078D01*
X154985859Y-105633659D01*
X154856278Y-105740004D01*
X154856276Y-105740005D01*
X154708442Y-105819024D01*
X154548023Y-105867687D01*
X154423004Y-105880000D01*
X154339396Y-105880000D01*
X154214377Y-105867687D01*
X154053958Y-105819024D01*
X153906124Y-105740005D01*
X153906122Y-105740004D01*
X153776541Y-105633659D01*
X153670196Y-105504078D01*
X153635397Y-105438974D01*
X153591176Y-105356242D01*
X153542513Y-105195823D01*
X153526083Y-105029000D01*
X153542513Y-104862177D01*
X153591176Y-104701758D01*
X153670195Y-104553924D01*
X153670196Y-104553922D01*
X153776541Y-104424341D01*
X153906122Y-104317996D01*
X153921294Y-104309886D01*
X154053958Y-104238976D01*
X154214377Y-104190313D01*
X154339396Y-104178000D01*
X154423004Y-104178000D01*
X154548023Y-104190313D01*
X154548023Y-104190313D01*
G37*
G36*
X159628023Y-104190313D02*
G01*
X159788442Y-104238976D01*
X159921106Y-104309886D01*
X159936278Y-104317996D01*
X160065859Y-104424341D01*
X160172204Y-104553922D01*
X160172205Y-104553924D01*
X160251224Y-104701758D01*
X160299887Y-104862177D01*
X160316317Y-105029000D01*
X160299887Y-105195823D01*
X160251224Y-105356242D01*
X160207003Y-105438974D01*
X160172204Y-105504078D01*
X160065859Y-105633659D01*
X159936278Y-105740004D01*
X159936276Y-105740005D01*
X159788442Y-105819024D01*
X159628023Y-105867687D01*
X159503004Y-105880000D01*
X159419396Y-105880000D01*
X159294377Y-105867687D01*
X159133958Y-105819024D01*
X158986124Y-105740005D01*
X158986122Y-105740004D01*
X158856541Y-105633659D01*
X158750196Y-105504078D01*
X158715397Y-105438974D01*
X158671176Y-105356242D01*
X158622513Y-105195823D01*
X158606083Y-105029000D01*
X158622513Y-104862177D01*
X158671176Y-104701758D01*
X158750195Y-104553924D01*
X158750196Y-104553922D01*
X158856541Y-104424341D01*
X158986122Y-104317996D01*
X159001294Y-104309886D01*
X159133958Y-104238976D01*
X159294377Y-104190313D01*
X159419396Y-104178000D01*
X159503004Y-104178000D01*
X159628023Y-104190313D01*
X159628023Y-104190313D01*
G37*
G36*
X168768023Y-104190313D02*
G01*
X168928442Y-104238976D01*
X169061106Y-104309886D01*
X169076278Y-104317996D01*
X169205859Y-104424341D01*
X169312204Y-104553922D01*
X169312205Y-104553924D01*
X169391224Y-104701758D01*
X169439887Y-104862177D01*
X169456317Y-105029000D01*
X169439887Y-105195823D01*
X169391224Y-105356242D01*
X169347003Y-105438974D01*
X169312204Y-105504078D01*
X169205859Y-105633659D01*
X169076278Y-105740004D01*
X169076276Y-105740005D01*
X168928442Y-105819024D01*
X168768023Y-105867687D01*
X168643004Y-105880000D01*
X168559396Y-105880000D01*
X168434377Y-105867687D01*
X168273958Y-105819024D01*
X168126124Y-105740005D01*
X168126122Y-105740004D01*
X167996541Y-105633659D01*
X167890196Y-105504078D01*
X167855397Y-105438974D01*
X167811176Y-105356242D01*
X167762513Y-105195823D01*
X167746083Y-105029000D01*
X167762513Y-104862177D01*
X167811176Y-104701758D01*
X167890195Y-104553924D01*
X167890196Y-104553922D01*
X167996541Y-104424341D01*
X168126122Y-104317996D01*
X168141294Y-104309886D01*
X168273958Y-104238976D01*
X168434377Y-104190313D01*
X168559396Y-104178000D01*
X168643004Y-104178000D01*
X168768023Y-104190313D01*
X168768023Y-104190313D01*
G37*
G36*
X162168023Y-104190313D02*
G01*
X162328442Y-104238976D01*
X162461106Y-104309886D01*
X162476278Y-104317996D01*
X162605859Y-104424341D01*
X162712204Y-104553922D01*
X162712205Y-104553924D01*
X162791224Y-104701758D01*
X162839887Y-104862177D01*
X162856317Y-105029000D01*
X162839887Y-105195823D01*
X162791224Y-105356242D01*
X162747003Y-105438974D01*
X162712204Y-105504078D01*
X162605859Y-105633659D01*
X162476278Y-105740004D01*
X162476276Y-105740005D01*
X162328442Y-105819024D01*
X162168023Y-105867687D01*
X162043004Y-105880000D01*
X161959396Y-105880000D01*
X161834377Y-105867687D01*
X161673958Y-105819024D01*
X161526124Y-105740005D01*
X161526122Y-105740004D01*
X161396541Y-105633659D01*
X161290196Y-105504078D01*
X161255397Y-105438974D01*
X161211176Y-105356242D01*
X161162513Y-105195823D01*
X161146083Y-105029000D01*
X161162513Y-104862177D01*
X161211176Y-104701758D01*
X161290195Y-104553924D01*
X161290196Y-104553922D01*
X161396541Y-104424341D01*
X161526122Y-104317996D01*
X161541294Y-104309886D01*
X161673958Y-104238976D01*
X161834377Y-104190313D01*
X161959396Y-104178000D01*
X162043004Y-104178000D01*
X162168023Y-104190313D01*
X162168023Y-104190313D01*
G37*
G36*
X157088023Y-104190313D02*
G01*
X157248442Y-104238976D01*
X157381106Y-104309886D01*
X157396278Y-104317996D01*
X157525859Y-104424341D01*
X157632204Y-104553922D01*
X157632205Y-104553924D01*
X157711224Y-104701758D01*
X157759887Y-104862177D01*
X157776317Y-105029000D01*
X157759887Y-105195823D01*
X157711224Y-105356242D01*
X157667003Y-105438974D01*
X157632204Y-105504078D01*
X157525859Y-105633659D01*
X157396278Y-105740004D01*
X157396276Y-105740005D01*
X157248442Y-105819024D01*
X157088023Y-105867687D01*
X156963004Y-105880000D01*
X156879396Y-105880000D01*
X156754377Y-105867687D01*
X156593958Y-105819024D01*
X156446124Y-105740005D01*
X156446122Y-105740004D01*
X156316541Y-105633659D01*
X156210196Y-105504078D01*
X156175397Y-105438974D01*
X156131176Y-105356242D01*
X156082513Y-105195823D01*
X156066083Y-105029000D01*
X156082513Y-104862177D01*
X156131176Y-104701758D01*
X156210195Y-104553924D01*
X156210196Y-104553922D01*
X156316541Y-104424341D01*
X156446122Y-104317996D01*
X156461294Y-104309886D01*
X156593958Y-104238976D01*
X156754377Y-104190313D01*
X156879396Y-104178000D01*
X156963004Y-104178000D01*
X157088023Y-104190313D01*
X157088023Y-104190313D01*
G37*
G36*
X208537997Y-101261051D02*
G01*
X208571652Y-101271261D01*
X208602665Y-101287838D01*
X208629851Y-101310149D01*
X208652162Y-101337335D01*
X208668739Y-101368348D01*
X208678949Y-101402003D01*
X208683000Y-101443138D01*
X208683000Y-102772862D01*
X208678949Y-102813997D01*
X208668739Y-102847652D01*
X208652162Y-102878665D01*
X208629851Y-102905851D01*
X208602665Y-102928162D01*
X208571652Y-102944739D01*
X208537997Y-102954949D01*
X208496862Y-102959000D01*
X205267138Y-102959000D01*
X205226003Y-102954949D01*
X205192348Y-102944739D01*
X205161335Y-102928162D01*
X205134149Y-102905851D01*
X205111838Y-102878665D01*
X205095261Y-102847652D01*
X205085051Y-102813997D01*
X205081000Y-102772862D01*
X205081000Y-101443138D01*
X205085051Y-101402003D01*
X205095261Y-101368348D01*
X205111838Y-101337335D01*
X205134149Y-101310149D01*
X205161335Y-101287838D01*
X205192348Y-101271261D01*
X205226003Y-101261051D01*
X205267138Y-101257000D01*
X208496862Y-101257000D01*
X208537997Y-101261051D01*
X208537997Y-101261051D01*
G37*
G36*
X202937997Y-101261051D02*
G01*
X202971652Y-101271261D01*
X203002665Y-101287838D01*
X203029851Y-101310149D01*
X203052162Y-101337335D01*
X203068739Y-101368348D01*
X203078949Y-101402003D01*
X203083000Y-101443138D01*
X203083000Y-102772862D01*
X203078949Y-102813997D01*
X203068739Y-102847652D01*
X203052162Y-102878665D01*
X203029851Y-102905851D01*
X203002665Y-102928162D01*
X202971652Y-102944739D01*
X202937997Y-102954949D01*
X202896862Y-102959000D01*
X199667138Y-102959000D01*
X199626003Y-102954949D01*
X199592348Y-102944739D01*
X199561335Y-102928162D01*
X199534149Y-102905851D01*
X199511838Y-102878665D01*
X199495261Y-102847652D01*
X199485051Y-102813997D01*
X199481000Y-102772862D01*
X199481000Y-101443138D01*
X199485051Y-101402003D01*
X199495261Y-101368348D01*
X199511838Y-101337335D01*
X199534149Y-101310149D01*
X199561335Y-101287838D01*
X199592348Y-101271261D01*
X199626003Y-101261051D01*
X199667138Y-101257000D01*
X202896862Y-101257000D01*
X202937997Y-101261051D01*
X202937997Y-101261051D01*
G37*
G36*
X197350000Y-102727800D02*
G01*
X193048000Y-102727800D01*
X193048000Y-101125800D01*
X197350000Y-101125800D01*
X197350000Y-102727800D01*
X197350000Y-102727800D01*
G37*
G36*
X156569798Y-99644047D02*
G01*
X156605367Y-99654837D01*
X156638139Y-99672354D01*
X156666869Y-99695931D01*
X156690446Y-99724661D01*
X156707963Y-99757433D01*
X156718753Y-99793002D01*
X156723000Y-99836125D01*
X156723000Y-102195475D01*
X156718753Y-102238598D01*
X156707963Y-102274167D01*
X156690446Y-102306939D01*
X156666869Y-102335669D01*
X156638139Y-102359246D01*
X156605367Y-102376763D01*
X156569798Y-102387553D01*
X156526675Y-102391800D01*
X155467325Y-102391800D01*
X155424202Y-102387553D01*
X155388633Y-102376763D01*
X155355861Y-102359246D01*
X155327131Y-102335669D01*
X155303554Y-102306939D01*
X155286037Y-102274167D01*
X155275247Y-102238598D01*
X155271000Y-102195475D01*
X155271000Y-99836125D01*
X155275247Y-99793002D01*
X155286037Y-99757433D01*
X155303554Y-99724661D01*
X155327131Y-99695931D01*
X155355861Y-99672354D01*
X155388633Y-99654837D01*
X155424202Y-99644047D01*
X155467325Y-99639800D01*
X156526675Y-99639800D01*
X156569798Y-99644047D01*
X156569798Y-99644047D01*
G37*
G36*
X152069798Y-99644047D02*
G01*
X152105367Y-99654837D01*
X152138139Y-99672354D01*
X152166869Y-99695931D01*
X152190446Y-99724661D01*
X152207963Y-99757433D01*
X152218753Y-99793002D01*
X152223000Y-99836125D01*
X152223000Y-102195475D01*
X152218753Y-102238598D01*
X152207963Y-102274167D01*
X152190446Y-102306939D01*
X152166869Y-102335669D01*
X152138139Y-102359246D01*
X152105367Y-102376763D01*
X152069798Y-102387553D01*
X152026675Y-102391800D01*
X150967325Y-102391800D01*
X150924202Y-102387553D01*
X150888633Y-102376763D01*
X150855861Y-102359246D01*
X150827131Y-102335669D01*
X150803554Y-102306939D01*
X150786037Y-102274167D01*
X150775247Y-102238598D01*
X150771000Y-102195475D01*
X150771000Y-99836125D01*
X150775247Y-99793002D01*
X150786037Y-99757433D01*
X150803554Y-99724661D01*
X150827131Y-99695931D01*
X150855861Y-99672354D01*
X150888633Y-99654837D01*
X150924202Y-99644047D01*
X150967325Y-99639800D01*
X152026675Y-99639800D01*
X152069798Y-99644047D01*
X152069798Y-99644047D01*
G37*
G36*
X141780585Y-98605602D02*
G01*
X141930410Y-98635404D01*
X142212674Y-98752321D01*
X142466705Y-98922059D01*
X142682741Y-99138095D01*
X142852479Y-99392126D01*
X142969396Y-99674390D01*
X142982230Y-99738912D01*
X143029000Y-99974039D01*
X143029000Y-100279561D01*
X142999198Y-100429385D01*
X142969396Y-100579210D01*
X142852479Y-100861474D01*
X142682741Y-101115505D01*
X142466705Y-101331541D01*
X142212674Y-101501279D01*
X141930410Y-101618196D01*
X141780585Y-101647998D01*
X141630761Y-101677800D01*
X141325239Y-101677800D01*
X141175415Y-101647998D01*
X141025590Y-101618196D01*
X140743326Y-101501279D01*
X140489295Y-101331541D01*
X140273259Y-101115505D01*
X140103521Y-100861474D01*
X139986604Y-100579210D01*
X139956802Y-100429385D01*
X139927000Y-100279561D01*
X139927000Y-99974039D01*
X139973770Y-99738912D01*
X139986604Y-99674390D01*
X140103521Y-99392126D01*
X140273259Y-99138095D01*
X140489295Y-98922059D01*
X140743326Y-98752321D01*
X141025590Y-98635404D01*
X141175415Y-98605602D01*
X141325239Y-98575800D01*
X141630761Y-98575800D01*
X141780585Y-98605602D01*
X141780585Y-98605602D01*
G37*
G36*
X168102400Y-101373000D02*
G01*
X166800400Y-101373000D01*
X166800400Y-100371000D01*
X168102400Y-100371000D01*
X168102400Y-101373000D01*
X168102400Y-101373000D01*
G37*
G36*
X181095589Y-99238876D02*
G01*
X181194893Y-99258629D01*
X181335206Y-99316748D01*
X181461484Y-99401125D01*
X181568875Y-99508516D01*
X181653252Y-99634794D01*
X181711371Y-99775107D01*
X181717474Y-99805789D01*
X181739487Y-99916454D01*
X181741000Y-99924063D01*
X181741000Y-100075937D01*
X181711371Y-100224893D01*
X181653252Y-100365206D01*
X181568875Y-100491484D01*
X181461484Y-100598875D01*
X181335206Y-100683252D01*
X181194893Y-100741371D01*
X181095589Y-100761124D01*
X181045938Y-100771000D01*
X180894062Y-100771000D01*
X180844411Y-100761124D01*
X180745107Y-100741371D01*
X180604794Y-100683252D01*
X180478516Y-100598875D01*
X180371125Y-100491484D01*
X180286748Y-100365206D01*
X180228629Y-100224893D01*
X180199000Y-100075937D01*
X180199000Y-99924063D01*
X180200514Y-99916454D01*
X180222526Y-99805789D01*
X180228629Y-99775107D01*
X180286748Y-99634794D01*
X180371125Y-99508516D01*
X180478516Y-99401125D01*
X180604794Y-99316748D01*
X180745107Y-99258629D01*
X180844411Y-99238876D01*
X180894062Y-99229000D01*
X181045938Y-99229000D01*
X181095589Y-99238876D01*
X181095589Y-99238876D01*
G37*
G36*
X186937589Y-99238876D02*
G01*
X187036893Y-99258629D01*
X187177206Y-99316748D01*
X187303484Y-99401125D01*
X187410875Y-99508516D01*
X187495252Y-99634794D01*
X187553371Y-99775107D01*
X187559474Y-99805789D01*
X187581487Y-99916454D01*
X187583000Y-99924063D01*
X187583000Y-100075937D01*
X187553371Y-100224893D01*
X187495252Y-100365206D01*
X187410875Y-100491484D01*
X187303484Y-100598875D01*
X187177206Y-100683252D01*
X187036893Y-100741371D01*
X186937589Y-100761124D01*
X186887938Y-100771000D01*
X186736062Y-100771000D01*
X186686411Y-100761124D01*
X186587107Y-100741371D01*
X186446794Y-100683252D01*
X186320516Y-100598875D01*
X186213125Y-100491484D01*
X186128748Y-100365206D01*
X186070629Y-100224893D01*
X186041000Y-100075937D01*
X186041000Y-99924063D01*
X186042514Y-99916454D01*
X186064526Y-99805789D01*
X186070629Y-99775107D01*
X186128748Y-99634794D01*
X186213125Y-99508516D01*
X186320516Y-99401125D01*
X186446794Y-99316748D01*
X186587107Y-99258629D01*
X186686411Y-99238876D01*
X186736062Y-99229000D01*
X186887938Y-99229000D01*
X186937589Y-99238876D01*
X186937589Y-99238876D01*
G37*
G36*
X165299668Y-98955565D02*
G01*
X165338338Y-98967296D01*
X165373977Y-98986346D01*
X165405217Y-99011983D01*
X165430854Y-99043223D01*
X165449904Y-99078862D01*
X165461635Y-99117532D01*
X165466200Y-99163888D01*
X165466200Y-99815112D01*
X165461635Y-99861468D01*
X165449904Y-99900138D01*
X165430854Y-99935777D01*
X165405217Y-99967017D01*
X165373977Y-99992654D01*
X165338338Y-100011704D01*
X165299668Y-100023435D01*
X165253312Y-100028000D01*
X164177088Y-100028000D01*
X164130732Y-100023435D01*
X164092062Y-100011704D01*
X164056423Y-99992654D01*
X164025183Y-99967017D01*
X163999546Y-99935777D01*
X163980496Y-99900138D01*
X163968765Y-99861468D01*
X163964200Y-99815112D01*
X163964200Y-99163888D01*
X163968765Y-99117532D01*
X163980496Y-99078862D01*
X163999546Y-99043223D01*
X164025183Y-99011983D01*
X164056423Y-98986346D01*
X164092062Y-98967296D01*
X164130732Y-98955565D01*
X164177088Y-98951000D01*
X165253312Y-98951000D01*
X165299668Y-98955565D01*
X165299668Y-98955565D01*
G37*
G36*
X170772068Y-98955565D02*
G01*
X170810738Y-98967296D01*
X170846377Y-98986346D01*
X170877617Y-99011983D01*
X170903254Y-99043223D01*
X170922304Y-99078862D01*
X170934035Y-99117532D01*
X170938600Y-99163888D01*
X170938600Y-99815112D01*
X170934035Y-99861468D01*
X170922304Y-99900138D01*
X170903254Y-99935777D01*
X170877617Y-99967017D01*
X170846377Y-99992654D01*
X170810738Y-100011704D01*
X170772068Y-100023435D01*
X170725712Y-100028000D01*
X169649488Y-100028000D01*
X169603132Y-100023435D01*
X169564462Y-100011704D01*
X169528823Y-99992654D01*
X169497583Y-99967017D01*
X169471946Y-99935777D01*
X169452896Y-99900138D01*
X169441165Y-99861468D01*
X169436600Y-99815112D01*
X169436600Y-99163888D01*
X169441165Y-99117532D01*
X169452896Y-99078862D01*
X169471946Y-99043223D01*
X169497583Y-99011983D01*
X169528823Y-98986346D01*
X169564462Y-98967296D01*
X169603132Y-98955565D01*
X169649488Y-98951000D01*
X170725712Y-98951000D01*
X170772068Y-98955565D01*
X170772068Y-98955565D01*
G37*
G36*
X175844468Y-98955565D02*
G01*
X175883138Y-98967296D01*
X175918777Y-98986346D01*
X175950017Y-99011983D01*
X175975654Y-99043223D01*
X175994704Y-99078862D01*
X176006435Y-99117532D01*
X176011000Y-99163888D01*
X176011000Y-99815112D01*
X176006435Y-99861468D01*
X175994704Y-99900138D01*
X175975654Y-99935777D01*
X175950017Y-99967017D01*
X175918777Y-99992654D01*
X175883138Y-100011704D01*
X175844468Y-100023435D01*
X175798112Y-100028000D01*
X174721888Y-100028000D01*
X174675532Y-100023435D01*
X174636862Y-100011704D01*
X174601223Y-99992654D01*
X174569983Y-99967017D01*
X174544346Y-99935777D01*
X174525296Y-99900138D01*
X174513565Y-99861468D01*
X174509000Y-99815112D01*
X174509000Y-99163888D01*
X174513565Y-99117532D01*
X174525296Y-99078862D01*
X174544346Y-99043223D01*
X174569983Y-99011983D01*
X174601223Y-98986346D01*
X174636862Y-98967296D01*
X174675532Y-98955565D01*
X174721888Y-98951000D01*
X175798112Y-98951000D01*
X175844468Y-98955565D01*
X175844468Y-98955565D01*
G37*
G36*
X173308268Y-98955565D02*
G01*
X173346938Y-98967296D01*
X173382577Y-98986346D01*
X173413817Y-99011983D01*
X173439454Y-99043223D01*
X173458504Y-99078862D01*
X173470235Y-99117532D01*
X173474800Y-99163888D01*
X173474800Y-99815112D01*
X173470235Y-99861468D01*
X173458504Y-99900138D01*
X173439454Y-99935777D01*
X173413817Y-99967017D01*
X173382577Y-99992654D01*
X173346938Y-100011704D01*
X173308268Y-100023435D01*
X173261912Y-100028000D01*
X172185688Y-100028000D01*
X172139332Y-100023435D01*
X172100662Y-100011704D01*
X172065023Y-99992654D01*
X172033783Y-99967017D01*
X172008146Y-99935777D01*
X171989096Y-99900138D01*
X171977365Y-99861468D01*
X171972800Y-99815112D01*
X171972800Y-99163888D01*
X171977365Y-99117532D01*
X171989096Y-99078862D01*
X172008146Y-99043223D01*
X172033783Y-99011983D01*
X172065023Y-98986346D01*
X172100662Y-98967296D01*
X172139332Y-98955565D01*
X172185688Y-98951000D01*
X173261912Y-98951000D01*
X173308268Y-98955565D01*
X173308268Y-98955565D01*
G37*
G36*
X162763468Y-98879365D02*
G01*
X162802138Y-98891096D01*
X162837777Y-98910146D01*
X162869017Y-98935783D01*
X162894654Y-98967023D01*
X162913704Y-99002662D01*
X162925435Y-99041332D01*
X162930000Y-99087688D01*
X162930000Y-99738912D01*
X162925435Y-99785268D01*
X162913704Y-99823938D01*
X162894654Y-99859577D01*
X162869017Y-99890817D01*
X162837777Y-99916454D01*
X162802138Y-99935504D01*
X162763468Y-99947235D01*
X162717112Y-99951800D01*
X161640888Y-99951800D01*
X161594532Y-99947235D01*
X161555862Y-99935504D01*
X161520223Y-99916454D01*
X161488983Y-99890817D01*
X161463346Y-99859577D01*
X161444296Y-99823938D01*
X161432565Y-99785268D01*
X161428000Y-99738912D01*
X161428000Y-99087688D01*
X161432565Y-99041332D01*
X161444296Y-99002662D01*
X161463346Y-98967023D01*
X161488983Y-98935783D01*
X161520223Y-98910146D01*
X161555862Y-98891096D01*
X161594532Y-98879365D01*
X161640888Y-98874800D01*
X162717112Y-98874800D01*
X162763468Y-98879365D01*
X162763468Y-98879365D01*
G37*
G36*
X197350000Y-99127800D02*
G01*
X193048000Y-99127800D01*
X193048000Y-97525800D01*
X197350000Y-97525800D01*
X197350000Y-99127800D01*
X197350000Y-99127800D01*
G37*
G36*
X181095589Y-96698876D02*
G01*
X181194893Y-96718629D01*
X181335206Y-96776748D01*
X181461484Y-96861125D01*
X181568875Y-96968516D01*
X181653252Y-97094794D01*
X181711371Y-97235107D01*
X181741000Y-97384063D01*
X181741000Y-97535937D01*
X181711371Y-97684893D01*
X181653252Y-97825206D01*
X181568875Y-97951484D01*
X181461484Y-98058875D01*
X181335206Y-98143252D01*
X181194893Y-98201371D01*
X181095589Y-98221124D01*
X181045938Y-98231000D01*
X180894062Y-98231000D01*
X180844411Y-98221124D01*
X180745107Y-98201371D01*
X180604794Y-98143252D01*
X180478516Y-98058875D01*
X180371125Y-97951484D01*
X180286748Y-97825206D01*
X180228629Y-97684893D01*
X180199000Y-97535937D01*
X180199000Y-97384063D01*
X180228629Y-97235107D01*
X180286748Y-97094794D01*
X180371125Y-96968516D01*
X180478516Y-96861125D01*
X180604794Y-96776748D01*
X180745107Y-96718629D01*
X180844411Y-96698876D01*
X180894062Y-96689000D01*
X181045938Y-96689000D01*
X181095589Y-96698876D01*
X181095589Y-96698876D01*
G37*
G36*
X186937589Y-96698876D02*
G01*
X187036893Y-96718629D01*
X187177206Y-96776748D01*
X187303484Y-96861125D01*
X187410875Y-96968516D01*
X187495252Y-97094794D01*
X187553371Y-97235107D01*
X187583000Y-97384063D01*
X187583000Y-97535937D01*
X187553371Y-97684893D01*
X187495252Y-97825206D01*
X187410875Y-97951484D01*
X187303484Y-98058875D01*
X187177206Y-98143252D01*
X187036893Y-98201371D01*
X186937589Y-98221124D01*
X186887938Y-98231000D01*
X186736062Y-98231000D01*
X186686411Y-98221124D01*
X186587107Y-98201371D01*
X186446794Y-98143252D01*
X186320516Y-98058875D01*
X186213125Y-97951484D01*
X186128748Y-97825206D01*
X186070629Y-97684893D01*
X186041000Y-97535937D01*
X186041000Y-97384063D01*
X186070629Y-97235107D01*
X186128748Y-97094794D01*
X186213125Y-96968516D01*
X186320516Y-96861125D01*
X186446794Y-96776748D01*
X186587107Y-96718629D01*
X186686411Y-96698876D01*
X186736062Y-96689000D01*
X186887938Y-96689000D01*
X186937589Y-96698876D01*
X186937589Y-96698876D01*
G37*
G36*
X170772068Y-97080565D02*
G01*
X170810738Y-97092296D01*
X170846377Y-97111346D01*
X170877617Y-97136983D01*
X170903254Y-97168223D01*
X170922304Y-97203862D01*
X170934035Y-97242532D01*
X170938600Y-97288888D01*
X170938600Y-97940112D01*
X170934035Y-97986468D01*
X170922304Y-98025138D01*
X170903254Y-98060777D01*
X170877617Y-98092017D01*
X170846377Y-98117654D01*
X170810738Y-98136704D01*
X170772068Y-98148435D01*
X170725712Y-98153000D01*
X169649488Y-98153000D01*
X169603132Y-98148435D01*
X169564462Y-98136704D01*
X169528823Y-98117654D01*
X169497583Y-98092017D01*
X169471946Y-98060777D01*
X169452896Y-98025138D01*
X169441165Y-97986468D01*
X169436600Y-97940112D01*
X169436600Y-97288888D01*
X169441165Y-97242532D01*
X169452896Y-97203862D01*
X169471946Y-97168223D01*
X169497583Y-97136983D01*
X169528823Y-97111346D01*
X169564462Y-97092296D01*
X169603132Y-97080565D01*
X169649488Y-97076000D01*
X170725712Y-97076000D01*
X170772068Y-97080565D01*
X170772068Y-97080565D01*
G37*
G36*
X173308268Y-97080565D02*
G01*
X173346938Y-97092296D01*
X173382577Y-97111346D01*
X173413817Y-97136983D01*
X173439454Y-97168223D01*
X173458504Y-97203862D01*
X173470235Y-97242532D01*
X173474800Y-97288888D01*
X173474800Y-97940112D01*
X173470235Y-97986468D01*
X173458504Y-98025138D01*
X173439454Y-98060777D01*
X173413817Y-98092017D01*
X173382577Y-98117654D01*
X173346938Y-98136704D01*
X173308268Y-98148435D01*
X173261912Y-98153000D01*
X172185688Y-98153000D01*
X172139332Y-98148435D01*
X172100662Y-98136704D01*
X172065023Y-98117654D01*
X172033783Y-98092017D01*
X172008146Y-98060777D01*
X171989096Y-98025138D01*
X171977365Y-97986468D01*
X171972800Y-97940112D01*
X171972800Y-97288888D01*
X171977365Y-97242532D01*
X171989096Y-97203862D01*
X172008146Y-97168223D01*
X172033783Y-97136983D01*
X172065023Y-97111346D01*
X172100662Y-97092296D01*
X172139332Y-97080565D01*
X172185688Y-97076000D01*
X173261912Y-97076000D01*
X173308268Y-97080565D01*
X173308268Y-97080565D01*
G37*
G36*
X175844468Y-97080565D02*
G01*
X175883138Y-97092296D01*
X175918777Y-97111346D01*
X175950017Y-97136983D01*
X175975654Y-97168223D01*
X175994704Y-97203862D01*
X176006435Y-97242532D01*
X176011000Y-97288888D01*
X176011000Y-97940112D01*
X176006435Y-97986468D01*
X175994704Y-98025138D01*
X175975654Y-98060777D01*
X175950017Y-98092017D01*
X175918777Y-98117654D01*
X175883138Y-98136704D01*
X175844468Y-98148435D01*
X175798112Y-98153000D01*
X174721888Y-98153000D01*
X174675532Y-98148435D01*
X174636862Y-98136704D01*
X174601223Y-98117654D01*
X174569983Y-98092017D01*
X174544346Y-98060777D01*
X174525296Y-98025138D01*
X174513565Y-97986468D01*
X174509000Y-97940112D01*
X174509000Y-97288888D01*
X174513565Y-97242532D01*
X174525296Y-97203862D01*
X174544346Y-97168223D01*
X174569983Y-97136983D01*
X174601223Y-97111346D01*
X174636862Y-97092296D01*
X174675532Y-97080565D01*
X174721888Y-97076000D01*
X175798112Y-97076000D01*
X175844468Y-97080565D01*
X175844468Y-97080565D01*
G37*
G36*
X165299668Y-97080565D02*
G01*
X165338338Y-97092296D01*
X165373977Y-97111346D01*
X165405217Y-97136983D01*
X165430854Y-97168223D01*
X165449904Y-97203862D01*
X165461635Y-97242532D01*
X165466200Y-97288888D01*
X165466200Y-97940112D01*
X165461635Y-97986468D01*
X165449904Y-98025138D01*
X165430854Y-98060777D01*
X165405217Y-98092017D01*
X165373977Y-98117654D01*
X165338338Y-98136704D01*
X165299668Y-98148435D01*
X165253312Y-98153000D01*
X164177088Y-98153000D01*
X164130732Y-98148435D01*
X164092062Y-98136704D01*
X164056423Y-98117654D01*
X164025183Y-98092017D01*
X163999546Y-98060777D01*
X163980496Y-98025138D01*
X163968765Y-97986468D01*
X163964200Y-97940112D01*
X163964200Y-97288888D01*
X163968765Y-97242532D01*
X163980496Y-97203862D01*
X163999546Y-97168223D01*
X164025183Y-97136983D01*
X164056423Y-97111346D01*
X164092062Y-97092296D01*
X164130732Y-97080565D01*
X164177088Y-97076000D01*
X165253312Y-97076000D01*
X165299668Y-97080565D01*
X165299668Y-97080565D01*
G37*
G36*
X162763468Y-97004365D02*
G01*
X162802138Y-97016096D01*
X162837777Y-97035146D01*
X162869017Y-97060783D01*
X162894654Y-97092023D01*
X162913704Y-97127662D01*
X162925435Y-97166332D01*
X162930000Y-97212688D01*
X162930000Y-97863912D01*
X162925435Y-97910268D01*
X162913704Y-97948938D01*
X162894654Y-97984577D01*
X162869017Y-98015817D01*
X162837777Y-98041454D01*
X162802138Y-98060504D01*
X162763468Y-98072235D01*
X162717112Y-98076800D01*
X161640888Y-98076800D01*
X161594532Y-98072235D01*
X161555862Y-98060504D01*
X161520223Y-98041454D01*
X161488983Y-98015817D01*
X161463346Y-97984577D01*
X161444296Y-97948938D01*
X161432565Y-97910268D01*
X161428000Y-97863912D01*
X161428000Y-97212688D01*
X161432565Y-97166332D01*
X161444296Y-97127662D01*
X161463346Y-97092023D01*
X161488983Y-97060783D01*
X161520223Y-97035146D01*
X161555862Y-97016096D01*
X161594532Y-97004365D01*
X161640888Y-96999800D01*
X162717112Y-96999800D01*
X162763468Y-97004365D01*
X162763468Y-97004365D01*
G37*
G36*
X168102400Y-98073000D02*
G01*
X166800400Y-98073000D01*
X166800400Y-97071000D01*
X168102400Y-97071000D01*
X168102400Y-98073000D01*
X168102400Y-98073000D01*
G37*
G36*
X156728000Y-98020800D02*
G01*
X154626000Y-98020800D01*
X154626000Y-96418800D01*
X156728000Y-96418800D01*
X156728000Y-98020800D01*
X156728000Y-98020800D01*
G37*
G36*
X150428000Y-96870800D02*
G01*
X148326000Y-96870800D01*
X148326000Y-92968800D01*
X150428000Y-92968800D01*
X150428000Y-96870800D01*
X150428000Y-96870800D01*
G37*
G36*
X143029000Y-96597800D02*
G01*
X139927000Y-96597800D01*
X139927000Y-93495800D01*
X143029000Y-93495800D01*
X143029000Y-96597800D01*
X143029000Y-96597800D01*
G37*
G36*
X207263000Y-96455000D02*
G01*
X204661000Y-96455000D01*
X204661000Y-94553000D01*
X207263000Y-94553000D01*
X207263000Y-96455000D01*
X207263000Y-96455000D01*
G37*
G36*
X203263000Y-96455000D02*
G01*
X200661000Y-96455000D01*
X200661000Y-94553000D01*
X203263000Y-94553000D01*
X203263000Y-96455000D01*
X203263000Y-96455000D01*
G37*
G36*
X163187000Y-95812800D02*
G01*
X162185000Y-95812800D01*
X162185000Y-94910800D01*
X163187000Y-94910800D01*
X163187000Y-95812800D01*
X163187000Y-95812800D01*
G37*
G36*
X198413468Y-94249565D02*
G01*
X198452138Y-94261296D01*
X198487777Y-94280346D01*
X198519017Y-94305983D01*
X198544654Y-94337223D01*
X198563704Y-94372862D01*
X198575435Y-94411532D01*
X198580000Y-94457888D01*
X198580000Y-95534112D01*
X198575435Y-95580468D01*
X198563704Y-95619138D01*
X198544654Y-95654777D01*
X198519017Y-95686017D01*
X198487777Y-95711654D01*
X198452138Y-95730704D01*
X198413468Y-95742435D01*
X198367112Y-95747000D01*
X197715888Y-95747000D01*
X197669532Y-95742435D01*
X197630862Y-95730704D01*
X197595223Y-95711654D01*
X197563983Y-95686017D01*
X197538346Y-95654777D01*
X197519296Y-95619138D01*
X197507565Y-95580468D01*
X197503000Y-95534112D01*
X197503000Y-94457888D01*
X197507565Y-94411532D01*
X197519296Y-94372862D01*
X197538346Y-94337223D01*
X197563983Y-94305983D01*
X197595223Y-94280346D01*
X197630862Y-94261296D01*
X197669532Y-94249565D01*
X197715888Y-94245000D01*
X198367112Y-94245000D01*
X198413468Y-94249565D01*
X198413468Y-94249565D01*
G37*
G36*
X196538468Y-94249565D02*
G01*
X196577138Y-94261296D01*
X196612777Y-94280346D01*
X196644017Y-94305983D01*
X196669654Y-94337223D01*
X196688704Y-94372862D01*
X196700435Y-94411532D01*
X196705000Y-94457888D01*
X196705000Y-95534112D01*
X196700435Y-95580468D01*
X196688704Y-95619138D01*
X196669654Y-95654777D01*
X196644017Y-95686017D01*
X196612777Y-95711654D01*
X196577138Y-95730704D01*
X196538468Y-95742435D01*
X196492112Y-95747000D01*
X195840888Y-95747000D01*
X195794532Y-95742435D01*
X195755862Y-95730704D01*
X195720223Y-95711654D01*
X195688983Y-95686017D01*
X195663346Y-95654777D01*
X195644296Y-95619138D01*
X195632565Y-95580468D01*
X195628000Y-95534112D01*
X195628000Y-94457888D01*
X195632565Y-94411532D01*
X195644296Y-94372862D01*
X195663346Y-94337223D01*
X195688983Y-94305983D01*
X195720223Y-94280346D01*
X195755862Y-94261296D01*
X195794532Y-94249565D01*
X195840888Y-94245000D01*
X196492112Y-94245000D01*
X196538468Y-94249565D01*
X196538468Y-94249565D01*
G37*
G36*
X192982468Y-94249565D02*
G01*
X193021138Y-94261296D01*
X193056777Y-94280346D01*
X193088017Y-94305983D01*
X193113654Y-94337223D01*
X193132704Y-94372862D01*
X193144435Y-94411532D01*
X193149000Y-94457888D01*
X193149000Y-95534112D01*
X193144435Y-95580468D01*
X193132704Y-95619138D01*
X193113654Y-95654777D01*
X193088017Y-95686017D01*
X193056777Y-95711654D01*
X193021138Y-95730704D01*
X192982468Y-95742435D01*
X192936112Y-95747000D01*
X192284888Y-95747000D01*
X192238532Y-95742435D01*
X192199862Y-95730704D01*
X192164223Y-95711654D01*
X192132983Y-95686017D01*
X192107346Y-95654777D01*
X192088296Y-95619138D01*
X192076565Y-95580468D01*
X192072000Y-95534112D01*
X192072000Y-94457888D01*
X192076565Y-94411532D01*
X192088296Y-94372862D01*
X192107346Y-94337223D01*
X192132983Y-94305983D01*
X192164223Y-94280346D01*
X192199862Y-94261296D01*
X192238532Y-94249565D01*
X192284888Y-94245000D01*
X192936112Y-94245000D01*
X192982468Y-94249565D01*
X192982468Y-94249565D01*
G37*
G36*
X194857468Y-94249565D02*
G01*
X194896138Y-94261296D01*
X194931777Y-94280346D01*
X194963017Y-94305983D01*
X194988654Y-94337223D01*
X195007704Y-94372862D01*
X195019435Y-94411532D01*
X195024000Y-94457888D01*
X195024000Y-95534112D01*
X195019435Y-95580468D01*
X195007704Y-95619138D01*
X194988654Y-95654777D01*
X194963017Y-95686017D01*
X194931777Y-95711654D01*
X194896138Y-95730704D01*
X194857468Y-95742435D01*
X194811112Y-95747000D01*
X194159888Y-95747000D01*
X194113532Y-95742435D01*
X194074862Y-95730704D01*
X194039223Y-95711654D01*
X194007983Y-95686017D01*
X193982346Y-95654777D01*
X193963296Y-95619138D01*
X193951565Y-95580468D01*
X193947000Y-95534112D01*
X193947000Y-94457888D01*
X193951565Y-94411532D01*
X193963296Y-94372862D01*
X193982346Y-94337223D01*
X194007983Y-94305983D01*
X194039223Y-94280346D01*
X194074862Y-94261296D01*
X194113532Y-94249565D01*
X194159888Y-94245000D01*
X194811112Y-94245000D01*
X194857468Y-94249565D01*
X194857468Y-94249565D01*
G37*
G36*
X156728000Y-95720800D02*
G01*
X154626000Y-95720800D01*
X154626000Y-94118800D01*
X156728000Y-94118800D01*
X156728000Y-95720800D01*
X156728000Y-95720800D01*
G37*
G36*
X181095589Y-94158876D02*
G01*
X181194893Y-94178629D01*
X181335206Y-94236748D01*
X181461484Y-94321125D01*
X181568875Y-94428516D01*
X181653252Y-94554794D01*
X181711371Y-94695107D01*
X181741000Y-94844063D01*
X181741000Y-94995937D01*
X181711371Y-95144893D01*
X181653252Y-95285206D01*
X181568875Y-95411484D01*
X181461484Y-95518875D01*
X181335206Y-95603252D01*
X181194893Y-95661371D01*
X181095589Y-95681124D01*
X181045938Y-95691000D01*
X180894062Y-95691000D01*
X180844411Y-95681124D01*
X180745107Y-95661371D01*
X180604794Y-95603252D01*
X180478516Y-95518875D01*
X180371125Y-95411484D01*
X180286748Y-95285206D01*
X180228629Y-95144893D01*
X180199000Y-94995937D01*
X180199000Y-94844063D01*
X180228629Y-94695107D01*
X180286748Y-94554794D01*
X180371125Y-94428516D01*
X180478516Y-94321125D01*
X180604794Y-94236748D01*
X180745107Y-94178629D01*
X180844411Y-94158876D01*
X180894062Y-94149000D01*
X181045938Y-94149000D01*
X181095589Y-94158876D01*
X181095589Y-94158876D01*
G37*
G36*
X186937589Y-94158876D02*
G01*
X187036893Y-94178629D01*
X187177206Y-94236748D01*
X187303484Y-94321125D01*
X187410875Y-94428516D01*
X187495252Y-94554794D01*
X187553371Y-94695107D01*
X187583000Y-94844063D01*
X187583000Y-94995937D01*
X187553371Y-95144893D01*
X187495252Y-95285206D01*
X187410875Y-95411484D01*
X187303484Y-95518875D01*
X187177206Y-95603252D01*
X187036893Y-95661371D01*
X186937589Y-95681124D01*
X186887938Y-95691000D01*
X186736062Y-95691000D01*
X186686411Y-95681124D01*
X186587107Y-95661371D01*
X186446794Y-95603252D01*
X186320516Y-95518875D01*
X186213125Y-95411484D01*
X186128748Y-95285206D01*
X186070629Y-95144893D01*
X186041000Y-94995937D01*
X186041000Y-94844063D01*
X186070629Y-94695107D01*
X186128748Y-94554794D01*
X186213125Y-94428516D01*
X186320516Y-94321125D01*
X186446794Y-94236748D01*
X186587107Y-94178629D01*
X186686411Y-94158876D01*
X186736062Y-94149000D01*
X186887938Y-94149000D01*
X186937589Y-94158876D01*
X186937589Y-94158876D01*
G37*
G36*
X174425000Y-94864800D02*
G01*
X172573000Y-94864800D01*
X172573000Y-94212800D01*
X174425000Y-94212800D01*
X174425000Y-94864800D01*
X174425000Y-94864800D01*
G37*
G36*
X167025000Y-94864800D02*
G01*
X165173000Y-94864800D01*
X165173000Y-94212800D01*
X167025000Y-94212800D01*
X167025000Y-94864800D01*
X167025000Y-94864800D01*
G37*
G36*
X161187000Y-94862800D02*
G01*
X160185000Y-94862800D01*
X160185000Y-93960800D01*
X161187000Y-93960800D01*
X161187000Y-94862800D01*
X161187000Y-94862800D01*
G37*
G36*
X163187000Y-93912800D02*
G01*
X162185000Y-93912800D01*
X162185000Y-93010800D01*
X163187000Y-93010800D01*
X163187000Y-93912800D01*
X163187000Y-93912800D01*
G37*
G36*
X174425000Y-93594800D02*
G01*
X172573000Y-93594800D01*
X172573000Y-92942800D01*
X174425000Y-92942800D01*
X174425000Y-93594800D01*
X174425000Y-93594800D01*
G37*
G36*
X167025000Y-93594800D02*
G01*
X165173000Y-93594800D01*
X165173000Y-92942800D01*
X167025000Y-92942800D01*
X167025000Y-93594800D01*
X167025000Y-93594800D01*
G37*
G36*
X156728000Y-93420800D02*
G01*
X154626000Y-93420800D01*
X154626000Y-91818800D01*
X156728000Y-91818800D01*
X156728000Y-93420800D01*
X156728000Y-93420800D01*
G37*
G36*
X174425000Y-92324800D02*
G01*
X172573000Y-92324800D01*
X172573000Y-91672800D01*
X174425000Y-91672800D01*
X174425000Y-92324800D01*
X174425000Y-92324800D01*
G37*
G36*
X167025000Y-92324800D02*
G01*
X165173000Y-92324800D01*
X165173000Y-91672800D01*
X167025000Y-91672800D01*
X167025000Y-92324800D01*
X167025000Y-92324800D01*
G37*
G36*
X196337000Y-92197000D02*
G01*
X195585000Y-92197000D01*
X195585000Y-90785000D01*
X196337000Y-90785000D01*
X196337000Y-92197000D01*
X196337000Y-92197000D01*
G37*
G36*
X197607000Y-92197000D02*
G01*
X196855000Y-92197000D01*
X196855000Y-90785000D01*
X197607000Y-90785000D01*
X197607000Y-92197000D01*
X197607000Y-92197000D01*
G37*
G36*
X193797000Y-92197000D02*
G01*
X193045000Y-92197000D01*
X193045000Y-90785000D01*
X193797000Y-90785000D01*
X193797000Y-92197000D01*
X193797000Y-92197000D01*
G37*
G36*
X195067000Y-92197000D02*
G01*
X194315000Y-92197000D01*
X194315000Y-90785000D01*
X195067000Y-90785000D01*
X195067000Y-92197000D01*
X195067000Y-92197000D01*
G37*
G36*
X163187000Y-91475000D02*
G01*
X162185000Y-91475000D01*
X162185000Y-90573000D01*
X163187000Y-90573000D01*
X163187000Y-91475000D01*
X163187000Y-91475000D01*
G37*
G36*
X167025000Y-91054800D02*
G01*
X165173000Y-91054800D01*
X165173000Y-90402800D01*
X167025000Y-90402800D01*
X167025000Y-91054800D01*
X167025000Y-91054800D01*
G37*
G36*
X174425000Y-91054800D02*
G01*
X172573000Y-91054800D01*
X172573000Y-90402800D01*
X174425000Y-90402800D01*
X174425000Y-91054800D01*
X174425000Y-91054800D01*
G37*
G36*
X178672443Y-89199319D02*
G01*
X178738627Y-89205837D01*
X178908466Y-89257357D01*
X179064991Y-89341022D01*
X179100729Y-89370352D01*
X179202186Y-89453614D01*
X179258759Y-89522550D01*
X179314778Y-89590809D01*
X179398443Y-89747334D01*
X179449963Y-89917173D01*
X179467359Y-90093800D01*
X179449963Y-90270427D01*
X179398443Y-90440266D01*
X179314778Y-90596791D01*
X179285448Y-90632529D01*
X179202186Y-90733986D01*
X179100729Y-90817248D01*
X179064991Y-90846578D01*
X178908466Y-90930243D01*
X178738627Y-90981763D01*
X178672443Y-90988281D01*
X178606260Y-90994800D01*
X178517740Y-90994800D01*
X178451557Y-90988281D01*
X178385373Y-90981763D01*
X178215534Y-90930243D01*
X178059009Y-90846578D01*
X178023271Y-90817248D01*
X177921814Y-90733986D01*
X177838552Y-90632529D01*
X177809222Y-90596791D01*
X177725557Y-90440266D01*
X177674037Y-90270427D01*
X177656641Y-90093800D01*
X177674037Y-89917173D01*
X177725557Y-89747334D01*
X177809222Y-89590809D01*
X177865241Y-89522550D01*
X177921814Y-89453614D01*
X178023271Y-89370352D01*
X178059009Y-89341022D01*
X178215534Y-89257357D01*
X178385373Y-89205837D01*
X178451558Y-89199318D01*
X178517740Y-89192800D01*
X178606260Y-89192800D01*
X178672443Y-89199319D01*
X178672443Y-89199319D01*
G37*
G36*
X184543000Y-90994800D02*
G01*
X182741000Y-90994800D01*
X182741000Y-89192800D01*
X184543000Y-89192800D01*
X184543000Y-90994800D01*
X184543000Y-90994800D01*
G37*
G36*
X181212443Y-89199319D02*
G01*
X181278627Y-89205837D01*
X181448466Y-89257357D01*
X181604991Y-89341022D01*
X181640729Y-89370352D01*
X181742186Y-89453614D01*
X181798759Y-89522550D01*
X181854778Y-89590809D01*
X181938443Y-89747334D01*
X181989963Y-89917173D01*
X182007359Y-90093800D01*
X181989963Y-90270427D01*
X181938443Y-90440266D01*
X181854778Y-90596791D01*
X181825448Y-90632529D01*
X181742186Y-90733986D01*
X181640729Y-90817248D01*
X181604991Y-90846578D01*
X181448466Y-90930243D01*
X181278627Y-90981763D01*
X181212443Y-90988281D01*
X181146260Y-90994800D01*
X181057740Y-90994800D01*
X180991557Y-90988281D01*
X180925373Y-90981763D01*
X180755534Y-90930243D01*
X180599009Y-90846578D01*
X180563271Y-90817248D01*
X180461814Y-90733986D01*
X180378552Y-90632529D01*
X180349222Y-90596791D01*
X180265557Y-90440266D01*
X180214037Y-90270427D01*
X180196641Y-90093800D01*
X180214037Y-89917173D01*
X180265557Y-89747334D01*
X180349222Y-89590809D01*
X180405241Y-89522550D01*
X180461814Y-89453614D01*
X180563271Y-89370352D01*
X180599009Y-89341022D01*
X180755534Y-89257357D01*
X180925373Y-89205837D01*
X180991558Y-89199318D01*
X181057740Y-89192800D01*
X181146260Y-89192800D01*
X181212443Y-89199319D01*
X181212443Y-89199319D01*
G37*
G36*
X141780585Y-87497334D02*
G01*
X141930410Y-87527136D01*
X142212674Y-87644053D01*
X142466705Y-87813791D01*
X142682741Y-88029827D01*
X142852479Y-88283858D01*
X142969396Y-88566122D01*
X142969396Y-88566123D01*
X143029000Y-88865771D01*
X143029000Y-89171293D01*
X142999198Y-89321117D01*
X142969396Y-89470942D01*
X142852479Y-89753206D01*
X142682741Y-90007237D01*
X142466705Y-90223273D01*
X142212674Y-90393011D01*
X141930410Y-90509928D01*
X141780585Y-90539730D01*
X141630761Y-90569532D01*
X141325239Y-90569532D01*
X141175415Y-90539730D01*
X141025590Y-90509928D01*
X140743326Y-90393011D01*
X140489295Y-90223273D01*
X140273259Y-90007237D01*
X140103521Y-89753206D01*
X139986604Y-89470942D01*
X139956802Y-89321117D01*
X139927000Y-89171293D01*
X139927000Y-88865771D01*
X139986604Y-88566123D01*
X139986604Y-88566122D01*
X140103521Y-88283858D01*
X140273259Y-88029827D01*
X140489295Y-87813791D01*
X140743326Y-87644053D01*
X141025590Y-87527136D01*
X141175415Y-87497334D01*
X141325239Y-87467532D01*
X141630761Y-87467532D01*
X141780585Y-87497334D01*
X141780585Y-87497334D01*
G37*
G36*
X161187000Y-90525000D02*
G01*
X160185000Y-90525000D01*
X160185000Y-89623000D01*
X161187000Y-89623000D01*
X161187000Y-90525000D01*
X161187000Y-90525000D01*
G37*
G36*
X196877000Y-90022000D02*
G01*
X193775000Y-90022000D01*
X193775000Y-87270000D01*
X196877000Y-87270000D01*
X196877000Y-90022000D01*
X196877000Y-90022000D01*
G37*
G36*
X188290468Y-88719365D02*
G01*
X188329138Y-88731096D01*
X188364777Y-88750146D01*
X188396017Y-88775783D01*
X188421654Y-88807023D01*
X188440704Y-88842662D01*
X188452435Y-88881332D01*
X188457000Y-88927688D01*
X188457000Y-89578912D01*
X188452435Y-89625268D01*
X188440704Y-89663938D01*
X188421654Y-89699577D01*
X188396017Y-89730817D01*
X188364777Y-89756454D01*
X188329138Y-89775504D01*
X188290468Y-89787235D01*
X188244112Y-89791800D01*
X187167888Y-89791800D01*
X187121532Y-89787235D01*
X187082862Y-89775504D01*
X187047223Y-89756454D01*
X187015983Y-89730817D01*
X186990346Y-89699577D01*
X186971296Y-89663938D01*
X186959565Y-89625268D01*
X186955000Y-89578912D01*
X186955000Y-88927688D01*
X186959565Y-88881332D01*
X186971296Y-88842662D01*
X186990346Y-88807023D01*
X187015983Y-88775783D01*
X187047223Y-88750146D01*
X187082862Y-88731096D01*
X187121532Y-88719365D01*
X187167888Y-88714800D01*
X188244112Y-88714800D01*
X188290468Y-88719365D01*
X188290468Y-88719365D01*
G37*
G36*
X202937997Y-88053051D02*
G01*
X202971652Y-88063261D01*
X203002665Y-88079838D01*
X203029851Y-88102149D01*
X203052162Y-88129335D01*
X203068739Y-88160348D01*
X203078949Y-88194003D01*
X203083000Y-88235138D01*
X203083000Y-89564862D01*
X203078949Y-89605997D01*
X203068739Y-89639652D01*
X203052162Y-89670665D01*
X203029851Y-89697851D01*
X203002665Y-89720162D01*
X202971652Y-89736739D01*
X202937997Y-89746949D01*
X202896862Y-89751000D01*
X199667138Y-89751000D01*
X199626003Y-89746949D01*
X199592348Y-89736739D01*
X199561335Y-89720162D01*
X199534149Y-89697851D01*
X199511838Y-89670665D01*
X199495261Y-89639652D01*
X199485051Y-89605997D01*
X199481000Y-89564862D01*
X199481000Y-88235138D01*
X199485051Y-88194003D01*
X199495261Y-88160348D01*
X199511838Y-88129335D01*
X199534149Y-88102149D01*
X199561335Y-88079838D01*
X199592348Y-88063261D01*
X199626003Y-88053051D01*
X199667138Y-88049000D01*
X202896862Y-88049000D01*
X202937997Y-88053051D01*
X202937997Y-88053051D01*
G37*
G36*
X208537997Y-88053051D02*
G01*
X208571652Y-88063261D01*
X208602665Y-88079838D01*
X208629851Y-88102149D01*
X208652162Y-88129335D01*
X208668739Y-88160348D01*
X208678949Y-88194003D01*
X208683000Y-88235138D01*
X208683000Y-89564862D01*
X208678949Y-89605997D01*
X208668739Y-89639652D01*
X208652162Y-89670665D01*
X208629851Y-89697851D01*
X208602665Y-89720162D01*
X208571652Y-89736739D01*
X208537997Y-89746949D01*
X208496862Y-89751000D01*
X205267138Y-89751000D01*
X205226003Y-89746949D01*
X205192348Y-89736739D01*
X205161335Y-89720162D01*
X205134149Y-89697851D01*
X205111838Y-89670665D01*
X205095261Y-89639652D01*
X205085051Y-89605997D01*
X205081000Y-89564862D01*
X205081000Y-88235138D01*
X205085051Y-88194003D01*
X205095261Y-88160348D01*
X205111838Y-88129335D01*
X205134149Y-88102149D01*
X205161335Y-88079838D01*
X205192348Y-88063261D01*
X205226003Y-88053051D01*
X205267138Y-88049000D01*
X208496862Y-88049000D01*
X208537997Y-88053051D01*
X208537997Y-88053051D01*
G37*
G36*
X163187000Y-89575000D02*
G01*
X162185000Y-89575000D01*
X162185000Y-88673000D01*
X163187000Y-88673000D01*
X163187000Y-89575000D01*
X163187000Y-89575000D01*
G37*
G36*
X188290468Y-86844365D02*
G01*
X188329138Y-86856096D01*
X188364777Y-86875146D01*
X188396017Y-86900783D01*
X188421654Y-86932023D01*
X188440704Y-86967662D01*
X188452435Y-87006332D01*
X188457000Y-87052688D01*
X188457000Y-87703912D01*
X188452435Y-87750268D01*
X188440704Y-87788938D01*
X188421654Y-87824577D01*
X188396017Y-87855817D01*
X188364777Y-87881454D01*
X188329138Y-87900504D01*
X188290468Y-87912235D01*
X188244112Y-87916800D01*
X187167888Y-87916800D01*
X187121532Y-87912235D01*
X187082862Y-87900504D01*
X187047223Y-87881454D01*
X187015983Y-87855817D01*
X186990346Y-87824577D01*
X186971296Y-87788938D01*
X186959565Y-87750268D01*
X186955000Y-87703912D01*
X186955000Y-87052688D01*
X186959565Y-87006332D01*
X186971296Y-86967662D01*
X186990346Y-86932023D01*
X187015983Y-86900783D01*
X187047223Y-86875146D01*
X187082862Y-86856096D01*
X187121532Y-86844365D01*
X187167888Y-86839800D01*
X188244112Y-86839800D01*
X188290468Y-86844365D01*
X188290468Y-86844365D01*
G37*
G36*
X178758468Y-86172365D02*
G01*
X178797138Y-86184096D01*
X178832777Y-86203146D01*
X178864017Y-86228783D01*
X178889654Y-86260023D01*
X178908704Y-86295662D01*
X178920435Y-86334332D01*
X178925000Y-86380688D01*
X178925000Y-87456912D01*
X178920435Y-87503268D01*
X178908704Y-87541938D01*
X178889654Y-87577577D01*
X178864017Y-87608817D01*
X178832777Y-87634454D01*
X178797138Y-87653504D01*
X178758468Y-87665235D01*
X178712112Y-87669800D01*
X178060888Y-87669800D01*
X178014532Y-87665235D01*
X177975862Y-87653504D01*
X177940223Y-87634454D01*
X177908983Y-87608817D01*
X177883346Y-87577577D01*
X177864296Y-87541938D01*
X177852565Y-87503268D01*
X177848000Y-87456912D01*
X177848000Y-86380688D01*
X177852565Y-86334332D01*
X177864296Y-86295662D01*
X177883346Y-86260023D01*
X177908983Y-86228783D01*
X177940223Y-86203146D01*
X177975862Y-86184096D01*
X178014532Y-86172365D01*
X178060888Y-86167800D01*
X178712112Y-86167800D01*
X178758468Y-86172365D01*
X178758468Y-86172365D01*
G37*
G36*
X180633468Y-86172365D02*
G01*
X180672138Y-86184096D01*
X180707777Y-86203146D01*
X180739017Y-86228783D01*
X180764654Y-86260023D01*
X180783704Y-86295662D01*
X180795435Y-86334332D01*
X180800000Y-86380688D01*
X180800000Y-87456912D01*
X180795435Y-87503268D01*
X180783704Y-87541938D01*
X180764654Y-87577577D01*
X180739017Y-87608817D01*
X180707777Y-87634454D01*
X180672138Y-87653504D01*
X180633468Y-87665235D01*
X180587112Y-87669800D01*
X179935888Y-87669800D01*
X179889532Y-87665235D01*
X179850862Y-87653504D01*
X179815223Y-87634454D01*
X179783983Y-87608817D01*
X179758346Y-87577577D01*
X179739296Y-87541938D01*
X179727565Y-87503268D01*
X179723000Y-87456912D01*
X179723000Y-86380688D01*
X179727565Y-86334332D01*
X179739296Y-86295662D01*
X179758346Y-86260023D01*
X179783983Y-86228783D01*
X179815223Y-86203146D01*
X179850862Y-86184096D01*
X179889532Y-86172365D01*
X179935888Y-86167800D01*
X180587112Y-86167800D01*
X180633468Y-86172365D01*
X180633468Y-86172365D01*
G37*
G36*
X184316468Y-86172365D02*
G01*
X184355138Y-86184096D01*
X184390777Y-86203146D01*
X184422017Y-86228783D01*
X184447654Y-86260023D01*
X184466704Y-86295662D01*
X184478435Y-86334332D01*
X184483000Y-86380688D01*
X184483000Y-87456912D01*
X184478435Y-87503268D01*
X184466704Y-87541938D01*
X184447654Y-87577577D01*
X184422017Y-87608817D01*
X184390777Y-87634454D01*
X184355138Y-87653504D01*
X184316468Y-87665235D01*
X184270112Y-87669800D01*
X183618888Y-87669800D01*
X183572532Y-87665235D01*
X183533862Y-87653504D01*
X183498223Y-87634454D01*
X183466983Y-87608817D01*
X183441346Y-87577577D01*
X183422296Y-87541938D01*
X183410565Y-87503268D01*
X183406000Y-87456912D01*
X183406000Y-86380688D01*
X183410565Y-86334332D01*
X183422296Y-86295662D01*
X183441346Y-86260023D01*
X183466983Y-86228783D01*
X183498223Y-86203146D01*
X183533862Y-86184096D01*
X183572532Y-86172365D01*
X183618888Y-86167800D01*
X184270112Y-86167800D01*
X184316468Y-86172365D01*
X184316468Y-86172365D01*
G37*
G36*
X182441468Y-86172365D02*
G01*
X182480138Y-86184096D01*
X182515777Y-86203146D01*
X182547017Y-86228783D01*
X182572654Y-86260023D01*
X182591704Y-86295662D01*
X182603435Y-86334332D01*
X182608000Y-86380688D01*
X182608000Y-87456912D01*
X182603435Y-87503268D01*
X182591704Y-87541938D01*
X182572654Y-87577577D01*
X182547017Y-87608817D01*
X182515777Y-87634454D01*
X182480138Y-87653504D01*
X182441468Y-87665235D01*
X182395112Y-87669800D01*
X181743888Y-87669800D01*
X181697532Y-87665235D01*
X181658862Y-87653504D01*
X181623223Y-87634454D01*
X181591983Y-87608817D01*
X181566346Y-87577577D01*
X181547296Y-87541938D01*
X181535565Y-87503268D01*
X181531000Y-87456912D01*
X181531000Y-86380688D01*
X181535565Y-86334332D01*
X181547296Y-86295662D01*
X181566346Y-86260023D01*
X181591983Y-86228783D01*
X181623223Y-86203146D01*
X181658862Y-86184096D01*
X181697532Y-86172365D01*
X181743888Y-86167800D01*
X182395112Y-86167800D01*
X182441468Y-86172365D01*
X182441468Y-86172365D01*
G37*
G36*
X164893400Y-87587000D02*
G01*
X164341400Y-87587000D01*
X164341400Y-86885000D01*
X164893400Y-86885000D01*
X164893400Y-87587000D01*
X164893400Y-87587000D01*
G37*
G36*
X162636468Y-86509565D02*
G01*
X162675138Y-86521296D01*
X162710777Y-86540346D01*
X162742017Y-86565983D01*
X162767654Y-86597223D01*
X162786704Y-86632862D01*
X162798435Y-86671532D01*
X162803000Y-86717888D01*
X162803000Y-87369112D01*
X162798435Y-87415468D01*
X162786704Y-87454138D01*
X162767654Y-87489777D01*
X162742017Y-87521017D01*
X162710777Y-87546654D01*
X162675138Y-87565704D01*
X162636468Y-87577435D01*
X162590112Y-87582000D01*
X161513888Y-87582000D01*
X161467532Y-87577435D01*
X161428862Y-87565704D01*
X161393223Y-87546654D01*
X161361983Y-87521017D01*
X161336346Y-87489777D01*
X161317296Y-87454138D01*
X161305565Y-87415468D01*
X161301000Y-87369112D01*
X161301000Y-86717888D01*
X161305565Y-86671532D01*
X161317296Y-86632862D01*
X161336346Y-86597223D01*
X161361983Y-86565983D01*
X161393223Y-86540346D01*
X161428862Y-86521296D01*
X161467532Y-86509565D01*
X161513888Y-86505000D01*
X162590112Y-86505000D01*
X162636468Y-86509565D01*
X162636468Y-86509565D01*
G37*
G36*
X167767268Y-86509565D02*
G01*
X167805938Y-86521296D01*
X167841577Y-86540346D01*
X167872817Y-86565983D01*
X167898454Y-86597223D01*
X167917504Y-86632862D01*
X167929235Y-86671532D01*
X167933800Y-86717888D01*
X167933800Y-87369112D01*
X167929235Y-87415468D01*
X167917504Y-87454138D01*
X167898454Y-87489777D01*
X167872817Y-87521017D01*
X167841577Y-87546654D01*
X167805938Y-87565704D01*
X167767268Y-87577435D01*
X167720912Y-87582000D01*
X166644688Y-87582000D01*
X166598332Y-87577435D01*
X166559662Y-87565704D01*
X166524023Y-87546654D01*
X166492783Y-87521017D01*
X166467146Y-87489777D01*
X166448096Y-87454138D01*
X166436365Y-87415468D01*
X166431800Y-87369112D01*
X166431800Y-86717888D01*
X166436365Y-86671532D01*
X166448096Y-86632862D01*
X166467146Y-86597223D01*
X166492783Y-86565983D01*
X166524023Y-86540346D01*
X166559662Y-86521296D01*
X166598332Y-86509565D01*
X166644688Y-86505000D01*
X167720912Y-86505000D01*
X167767268Y-86509565D01*
X167767268Y-86509565D01*
G37*
G36*
X170332668Y-86509565D02*
G01*
X170371338Y-86521296D01*
X170406977Y-86540346D01*
X170438217Y-86565983D01*
X170463854Y-86597223D01*
X170482904Y-86632862D01*
X170494635Y-86671532D01*
X170499200Y-86717888D01*
X170499200Y-87369112D01*
X170494635Y-87415468D01*
X170482904Y-87454138D01*
X170463854Y-87489777D01*
X170438217Y-87521017D01*
X170406977Y-87546654D01*
X170371338Y-87565704D01*
X170332668Y-87577435D01*
X170286312Y-87582000D01*
X169210088Y-87582000D01*
X169163732Y-87577435D01*
X169125062Y-87565704D01*
X169089423Y-87546654D01*
X169058183Y-87521017D01*
X169032546Y-87489777D01*
X169013496Y-87454138D01*
X169001765Y-87415468D01*
X168997200Y-87369112D01*
X168997200Y-86717888D01*
X169001765Y-86671532D01*
X169013496Y-86632862D01*
X169032546Y-86597223D01*
X169058183Y-86565983D01*
X169089423Y-86540346D01*
X169125062Y-86521296D01*
X169163732Y-86509565D01*
X169210088Y-86505000D01*
X170286312Y-86505000D01*
X170332668Y-86509565D01*
X170332668Y-86509565D01*
G37*
G36*
X172898068Y-86509565D02*
G01*
X172936738Y-86521296D01*
X172972377Y-86540346D01*
X173003617Y-86565983D01*
X173029254Y-86597223D01*
X173048304Y-86632862D01*
X173060035Y-86671532D01*
X173064600Y-86717888D01*
X173064600Y-87369112D01*
X173060035Y-87415468D01*
X173048304Y-87454138D01*
X173029254Y-87489777D01*
X173003617Y-87521017D01*
X172972377Y-87546654D01*
X172936738Y-87565704D01*
X172898068Y-87577435D01*
X172851712Y-87582000D01*
X171775488Y-87582000D01*
X171729132Y-87577435D01*
X171690462Y-87565704D01*
X171654823Y-87546654D01*
X171623583Y-87521017D01*
X171597946Y-87489777D01*
X171578896Y-87454138D01*
X171567165Y-87415468D01*
X171562600Y-87369112D01*
X171562600Y-86717888D01*
X171567165Y-86671532D01*
X171578896Y-86632862D01*
X171597946Y-86597223D01*
X171623583Y-86565983D01*
X171654823Y-86540346D01*
X171690462Y-86521296D01*
X171729132Y-86509565D01*
X171775488Y-86505000D01*
X172851712Y-86505000D01*
X172898068Y-86509565D01*
X172898068Y-86509565D01*
G37*
G36*
X175463468Y-86509565D02*
G01*
X175502138Y-86521296D01*
X175537777Y-86540346D01*
X175569017Y-86565983D01*
X175594654Y-86597223D01*
X175613704Y-86632862D01*
X175625435Y-86671532D01*
X175630000Y-86717888D01*
X175630000Y-87369112D01*
X175625435Y-87415468D01*
X175613704Y-87454138D01*
X175594654Y-87489777D01*
X175569017Y-87521017D01*
X175537777Y-87546654D01*
X175502138Y-87565704D01*
X175463468Y-87577435D01*
X175417112Y-87582000D01*
X174340888Y-87582000D01*
X174294532Y-87577435D01*
X174255862Y-87565704D01*
X174220223Y-87546654D01*
X174188983Y-87521017D01*
X174163346Y-87489777D01*
X174144296Y-87454138D01*
X174132565Y-87415468D01*
X174128000Y-87369112D01*
X174128000Y-86717888D01*
X174132565Y-86671532D01*
X174144296Y-86632862D01*
X174163346Y-86597223D01*
X174188983Y-86565983D01*
X174220223Y-86540346D01*
X174255862Y-86521296D01*
X174294532Y-86509565D01*
X174340888Y-86505000D01*
X175417112Y-86505000D01*
X175463468Y-86509565D01*
X175463468Y-86509565D01*
G37*
G36*
X196337000Y-86507000D02*
G01*
X195585000Y-86507000D01*
X195585000Y-85095000D01*
X196337000Y-85095000D01*
X196337000Y-86507000D01*
X196337000Y-86507000D01*
G37*
G36*
X195067000Y-86507000D02*
G01*
X194315000Y-86507000D01*
X194315000Y-85095000D01*
X195067000Y-85095000D01*
X195067000Y-86507000D01*
X195067000Y-86507000D01*
G37*
G36*
X197607000Y-86507000D02*
G01*
X196855000Y-86507000D01*
X196855000Y-85095000D01*
X197607000Y-85095000D01*
X197607000Y-86507000D01*
X197607000Y-86507000D01*
G37*
G36*
X193772000Y-86507000D02*
G01*
X193070000Y-86507000D01*
X193070000Y-85095000D01*
X193772000Y-85095000D01*
X193772000Y-86507000D01*
X193772000Y-86507000D01*
G37*
G36*
X158459468Y-84983565D02*
G01*
X158498138Y-84995296D01*
X158533777Y-85014346D01*
X158565017Y-85039983D01*
X158590654Y-85071223D01*
X158609704Y-85106862D01*
X158621435Y-85145532D01*
X158626000Y-85191888D01*
X158626000Y-86268112D01*
X158621435Y-86314468D01*
X158609704Y-86353138D01*
X158590654Y-86388777D01*
X158565017Y-86420017D01*
X158533777Y-86445654D01*
X158498138Y-86464704D01*
X158459468Y-86476435D01*
X158413112Y-86481000D01*
X157761888Y-86481000D01*
X157715532Y-86476435D01*
X157676862Y-86464704D01*
X157641223Y-86445654D01*
X157609983Y-86420017D01*
X157584346Y-86388777D01*
X157565296Y-86353138D01*
X157553565Y-86314468D01*
X157549000Y-86268112D01*
X157549000Y-85191888D01*
X157553565Y-85145532D01*
X157565296Y-85106862D01*
X157584346Y-85071223D01*
X157609983Y-85039983D01*
X157641223Y-85014346D01*
X157676862Y-84995296D01*
X157715532Y-84983565D01*
X157761888Y-84979000D01*
X158413112Y-84979000D01*
X158459468Y-84983565D01*
X158459468Y-84983565D01*
G37*
G36*
X153028468Y-84983565D02*
G01*
X153067138Y-84995296D01*
X153102777Y-85014346D01*
X153134017Y-85039983D01*
X153159654Y-85071223D01*
X153178704Y-85106862D01*
X153190435Y-85145532D01*
X153195000Y-85191888D01*
X153195000Y-86268112D01*
X153190435Y-86314468D01*
X153178704Y-86353138D01*
X153159654Y-86388777D01*
X153134017Y-86420017D01*
X153102777Y-86445654D01*
X153067138Y-86464704D01*
X153028468Y-86476435D01*
X152982112Y-86481000D01*
X152330888Y-86481000D01*
X152284532Y-86476435D01*
X152245862Y-86464704D01*
X152210223Y-86445654D01*
X152178983Y-86420017D01*
X152153346Y-86388777D01*
X152134296Y-86353138D01*
X152122565Y-86314468D01*
X152118000Y-86268112D01*
X152118000Y-85191888D01*
X152122565Y-85145532D01*
X152134296Y-85106862D01*
X152153346Y-85071223D01*
X152178983Y-85039983D01*
X152210223Y-85014346D01*
X152245862Y-84995296D01*
X152284532Y-84983565D01*
X152330888Y-84979000D01*
X152982112Y-84979000D01*
X153028468Y-84983565D01*
X153028468Y-84983565D01*
G37*
G36*
X156584468Y-84983565D02*
G01*
X156623138Y-84995296D01*
X156658777Y-85014346D01*
X156690017Y-85039983D01*
X156715654Y-85071223D01*
X156734704Y-85106862D01*
X156746435Y-85145532D01*
X156751000Y-85191888D01*
X156751000Y-86268112D01*
X156746435Y-86314468D01*
X156734704Y-86353138D01*
X156715654Y-86388777D01*
X156690017Y-86420017D01*
X156658777Y-86445654D01*
X156623138Y-86464704D01*
X156584468Y-86476435D01*
X156538112Y-86481000D01*
X155886888Y-86481000D01*
X155840532Y-86476435D01*
X155801862Y-86464704D01*
X155766223Y-86445654D01*
X155734983Y-86420017D01*
X155709346Y-86388777D01*
X155690296Y-86353138D01*
X155678565Y-86314468D01*
X155674000Y-86268112D01*
X155674000Y-85191888D01*
X155678565Y-85145532D01*
X155690296Y-85106862D01*
X155709346Y-85071223D01*
X155734983Y-85039983D01*
X155766223Y-85014346D01*
X155801862Y-84995296D01*
X155840532Y-84983565D01*
X155886888Y-84979000D01*
X156538112Y-84979000D01*
X156584468Y-84983565D01*
X156584468Y-84983565D01*
G37*
G36*
X149472468Y-84983565D02*
G01*
X149511138Y-84995296D01*
X149546777Y-85014346D01*
X149578017Y-85039983D01*
X149603654Y-85071223D01*
X149622704Y-85106862D01*
X149634435Y-85145532D01*
X149639000Y-85191888D01*
X149639000Y-86268112D01*
X149634435Y-86314468D01*
X149622704Y-86353138D01*
X149603654Y-86388777D01*
X149578017Y-86420017D01*
X149546777Y-86445654D01*
X149511138Y-86464704D01*
X149472468Y-86476435D01*
X149426112Y-86481000D01*
X148774888Y-86481000D01*
X148728532Y-86476435D01*
X148689862Y-86464704D01*
X148654223Y-86445654D01*
X148622983Y-86420017D01*
X148597346Y-86388777D01*
X148578296Y-86353138D01*
X148566565Y-86314468D01*
X148562000Y-86268112D01*
X148562000Y-85191888D01*
X148566565Y-85145532D01*
X148578296Y-85106862D01*
X148597346Y-85071223D01*
X148622983Y-85039983D01*
X148654223Y-85014346D01*
X148689862Y-84995296D01*
X148728532Y-84983565D01*
X148774888Y-84979000D01*
X149426112Y-84979000D01*
X149472468Y-84983565D01*
X149472468Y-84983565D01*
G37*
G36*
X151347468Y-84983565D02*
G01*
X151386138Y-84995296D01*
X151421777Y-85014346D01*
X151453017Y-85039983D01*
X151478654Y-85071223D01*
X151497704Y-85106862D01*
X151509435Y-85145532D01*
X151514000Y-85191888D01*
X151514000Y-86268112D01*
X151509435Y-86314468D01*
X151497704Y-86353138D01*
X151478654Y-86388777D01*
X151453017Y-86420017D01*
X151421777Y-86445654D01*
X151386138Y-86464704D01*
X151347468Y-86476435D01*
X151301112Y-86481000D01*
X150649888Y-86481000D01*
X150603532Y-86476435D01*
X150564862Y-86464704D01*
X150529223Y-86445654D01*
X150497983Y-86420017D01*
X150472346Y-86388777D01*
X150453296Y-86353138D01*
X150441565Y-86314468D01*
X150437000Y-86268112D01*
X150437000Y-85191888D01*
X150441565Y-85145532D01*
X150453296Y-85106862D01*
X150472346Y-85071223D01*
X150497983Y-85039983D01*
X150529223Y-85014346D01*
X150564862Y-84995296D01*
X150603532Y-84983565D01*
X150649888Y-84979000D01*
X151301112Y-84979000D01*
X151347468Y-84983565D01*
X151347468Y-84983565D01*
G37*
G36*
X154903468Y-84983565D02*
G01*
X154942138Y-84995296D01*
X154977777Y-85014346D01*
X155009017Y-85039983D01*
X155034654Y-85071223D01*
X155053704Y-85106862D01*
X155065435Y-85145532D01*
X155070000Y-85191888D01*
X155070000Y-86268112D01*
X155065435Y-86314468D01*
X155053704Y-86353138D01*
X155034654Y-86388777D01*
X155009017Y-86420017D01*
X154977777Y-86445654D01*
X154942138Y-86464704D01*
X154903468Y-86476435D01*
X154857112Y-86481000D01*
X154205888Y-86481000D01*
X154159532Y-86476435D01*
X154120862Y-86464704D01*
X154085223Y-86445654D01*
X154053983Y-86420017D01*
X154028346Y-86388777D01*
X154009296Y-86353138D01*
X153997565Y-86314468D01*
X153993000Y-86268112D01*
X153993000Y-85191888D01*
X153997565Y-85145532D01*
X154009296Y-85106862D01*
X154028346Y-85071223D01*
X154053983Y-85039983D01*
X154085223Y-85014346D01*
X154120862Y-84995296D01*
X154159532Y-84983565D01*
X154205888Y-84979000D01*
X154857112Y-84979000D01*
X154903468Y-84983565D01*
X154903468Y-84983565D01*
G37*
G36*
X188245468Y-85163365D02*
G01*
X188284138Y-85175096D01*
X188319777Y-85194146D01*
X188351017Y-85219783D01*
X188376654Y-85251023D01*
X188395704Y-85286662D01*
X188407435Y-85325332D01*
X188412000Y-85371688D01*
X188412000Y-86022912D01*
X188407435Y-86069268D01*
X188395704Y-86107938D01*
X188376654Y-86143577D01*
X188351017Y-86174817D01*
X188319777Y-86200454D01*
X188284138Y-86219504D01*
X188245468Y-86231235D01*
X188199112Y-86235800D01*
X187122888Y-86235800D01*
X187076532Y-86231235D01*
X187037862Y-86219504D01*
X187002223Y-86200454D01*
X186970983Y-86174817D01*
X186945346Y-86143577D01*
X186926296Y-86107938D01*
X186914565Y-86069268D01*
X186910000Y-86022912D01*
X186910000Y-85371688D01*
X186914565Y-85325332D01*
X186926296Y-85286662D01*
X186945346Y-85251023D01*
X186970983Y-85219783D01*
X187002223Y-85194146D01*
X187037862Y-85175096D01*
X187076532Y-85163365D01*
X187122888Y-85158800D01*
X188199112Y-85158800D01*
X188245468Y-85163365D01*
X188245468Y-85163365D01*
G37*
G36*
X175463468Y-84634565D02*
G01*
X175502138Y-84646296D01*
X175537777Y-84665346D01*
X175569017Y-84690983D01*
X175594654Y-84722223D01*
X175613704Y-84757862D01*
X175625435Y-84796532D01*
X175630000Y-84842888D01*
X175630000Y-85494112D01*
X175625435Y-85540468D01*
X175613704Y-85579138D01*
X175594654Y-85614777D01*
X175569017Y-85646017D01*
X175537777Y-85671654D01*
X175502138Y-85690704D01*
X175463468Y-85702435D01*
X175417112Y-85707000D01*
X174340888Y-85707000D01*
X174294532Y-85702435D01*
X174255862Y-85690704D01*
X174220223Y-85671654D01*
X174188983Y-85646017D01*
X174163346Y-85614777D01*
X174144296Y-85579138D01*
X174132565Y-85540468D01*
X174128000Y-85494112D01*
X174128000Y-84842888D01*
X174132565Y-84796532D01*
X174144296Y-84757862D01*
X174163346Y-84722223D01*
X174188983Y-84690983D01*
X174220223Y-84665346D01*
X174255862Y-84646296D01*
X174294532Y-84634565D01*
X174340888Y-84630000D01*
X175417112Y-84630000D01*
X175463468Y-84634565D01*
X175463468Y-84634565D01*
G37*
G36*
X172898068Y-84634565D02*
G01*
X172936738Y-84646296D01*
X172972377Y-84665346D01*
X173003617Y-84690983D01*
X173029254Y-84722223D01*
X173048304Y-84757862D01*
X173060035Y-84796532D01*
X173064600Y-84842888D01*
X173064600Y-85494112D01*
X173060035Y-85540468D01*
X173048304Y-85579138D01*
X173029254Y-85614777D01*
X173003617Y-85646017D01*
X172972377Y-85671654D01*
X172936738Y-85690704D01*
X172898068Y-85702435D01*
X172851712Y-85707000D01*
X171775488Y-85707000D01*
X171729132Y-85702435D01*
X171690462Y-85690704D01*
X171654823Y-85671654D01*
X171623583Y-85646017D01*
X171597946Y-85614777D01*
X171578896Y-85579138D01*
X171567165Y-85540468D01*
X171562600Y-85494112D01*
X171562600Y-84842888D01*
X171567165Y-84796532D01*
X171578896Y-84757862D01*
X171597946Y-84722223D01*
X171623583Y-84690983D01*
X171654823Y-84665346D01*
X171690462Y-84646296D01*
X171729132Y-84634565D01*
X171775488Y-84630000D01*
X172851712Y-84630000D01*
X172898068Y-84634565D01*
X172898068Y-84634565D01*
G37*
G36*
X162636468Y-84634565D02*
G01*
X162675138Y-84646296D01*
X162710777Y-84665346D01*
X162742017Y-84690983D01*
X162767654Y-84722223D01*
X162786704Y-84757862D01*
X162798435Y-84796532D01*
X162803000Y-84842888D01*
X162803000Y-85494112D01*
X162798435Y-85540468D01*
X162786704Y-85579138D01*
X162767654Y-85614777D01*
X162742017Y-85646017D01*
X162710777Y-85671654D01*
X162675138Y-85690704D01*
X162636468Y-85702435D01*
X162590112Y-85707000D01*
X161513888Y-85707000D01*
X161467532Y-85702435D01*
X161428862Y-85690704D01*
X161393223Y-85671654D01*
X161361983Y-85646017D01*
X161336346Y-85614777D01*
X161317296Y-85579138D01*
X161305565Y-85540468D01*
X161301000Y-85494112D01*
X161301000Y-84842888D01*
X161305565Y-84796532D01*
X161317296Y-84757862D01*
X161336346Y-84722223D01*
X161361983Y-84690983D01*
X161393223Y-84665346D01*
X161428862Y-84646296D01*
X161467532Y-84634565D01*
X161513888Y-84630000D01*
X162590112Y-84630000D01*
X162636468Y-84634565D01*
X162636468Y-84634565D01*
G37*
G36*
X167767268Y-84634565D02*
G01*
X167805938Y-84646296D01*
X167841577Y-84665346D01*
X167872817Y-84690983D01*
X167898454Y-84722223D01*
X167917504Y-84757862D01*
X167929235Y-84796532D01*
X167933800Y-84842888D01*
X167933800Y-85494112D01*
X167929235Y-85540468D01*
X167917504Y-85579138D01*
X167898454Y-85614777D01*
X167872817Y-85646017D01*
X167841577Y-85671654D01*
X167805938Y-85690704D01*
X167767268Y-85702435D01*
X167720912Y-85707000D01*
X166644688Y-85707000D01*
X166598332Y-85702435D01*
X166559662Y-85690704D01*
X166524023Y-85671654D01*
X166492783Y-85646017D01*
X166467146Y-85614777D01*
X166448096Y-85579138D01*
X166436365Y-85540468D01*
X166431800Y-85494112D01*
X166431800Y-84842888D01*
X166436365Y-84796532D01*
X166448096Y-84757862D01*
X166467146Y-84722223D01*
X166492783Y-84690983D01*
X166524023Y-84665346D01*
X166559662Y-84646296D01*
X166598332Y-84634565D01*
X166644688Y-84630000D01*
X167720912Y-84630000D01*
X167767268Y-84634565D01*
X167767268Y-84634565D01*
G37*
G36*
X170332668Y-84634565D02*
G01*
X170371338Y-84646296D01*
X170406977Y-84665346D01*
X170438217Y-84690983D01*
X170463854Y-84722223D01*
X170482904Y-84757862D01*
X170494635Y-84796532D01*
X170499200Y-84842888D01*
X170499200Y-85494112D01*
X170494635Y-85540468D01*
X170482904Y-85579138D01*
X170463854Y-85614777D01*
X170438217Y-85646017D01*
X170406977Y-85671654D01*
X170371338Y-85690704D01*
X170332668Y-85702435D01*
X170286312Y-85707000D01*
X169210088Y-85707000D01*
X169163732Y-85702435D01*
X169125062Y-85690704D01*
X169089423Y-85671654D01*
X169058183Y-85646017D01*
X169032546Y-85614777D01*
X169013496Y-85579138D01*
X169001765Y-85540468D01*
X168997200Y-85494112D01*
X168997200Y-84842888D01*
X169001765Y-84796532D01*
X169013496Y-84757862D01*
X169032546Y-84722223D01*
X169058183Y-84690983D01*
X169089423Y-84665346D01*
X169125062Y-84646296D01*
X169163732Y-84634565D01*
X169210088Y-84630000D01*
X170286312Y-84630000D01*
X170332668Y-84634565D01*
X170332668Y-84634565D01*
G37*
G36*
X143029000Y-85489532D02*
G01*
X139927000Y-85489532D01*
X139927000Y-82387532D01*
X143029000Y-82387532D01*
X143029000Y-85489532D01*
X143029000Y-85489532D01*
G37*
G36*
X164893400Y-85487000D02*
G01*
X164341400Y-85487000D01*
X164341400Y-84785000D01*
X164893400Y-84785000D01*
X164893400Y-85487000D01*
X164893400Y-85487000D01*
G37*
G36*
X178658720Y-84399320D02*
G01*
X177957280Y-84399320D01*
X177957280Y-83098440D01*
X178658720Y-83098440D01*
X178658720Y-84399320D01*
X178658720Y-84399320D01*
G37*
G36*
X182468720Y-84399320D02*
G01*
X181767280Y-84399320D01*
X181767280Y-83098440D01*
X182468720Y-83098440D01*
X182468720Y-84399320D01*
X182468720Y-84399320D01*
G37*
G36*
X181198720Y-84399320D02*
G01*
X180497280Y-84399320D01*
X180497280Y-83098440D01*
X181198720Y-83098440D01*
X181198720Y-84399320D01*
X181198720Y-84399320D01*
G37*
G36*
X179928720Y-84399320D02*
G01*
X179227280Y-84399320D01*
X179227280Y-83098440D01*
X179928720Y-83098440D01*
X179928720Y-84399320D01*
X179928720Y-84399320D01*
G37*
G36*
X177388720Y-84399320D02*
G01*
X176687280Y-84399320D01*
X176687280Y-83098440D01*
X177388720Y-83098440D01*
X177388720Y-84399320D01*
X177388720Y-84399320D01*
G37*
G36*
X183738720Y-84399320D02*
G01*
X183037280Y-84399320D01*
X183037280Y-83098440D01*
X183738720Y-83098440D01*
X183738720Y-84399320D01*
X183738720Y-84399320D01*
G37*
G36*
X185008720Y-84399320D02*
G01*
X184307280Y-84399320D01*
X184307280Y-83098440D01*
X185008720Y-83098440D01*
X185008720Y-84399320D01*
X185008720Y-84399320D01*
G37*
G36*
X188245468Y-83288365D02*
G01*
X188284138Y-83300096D01*
X188319777Y-83319146D01*
X188351017Y-83344783D01*
X188376654Y-83376023D01*
X188395704Y-83411662D01*
X188407435Y-83450332D01*
X188412000Y-83496688D01*
X188412000Y-84147912D01*
X188407435Y-84194268D01*
X188395704Y-84232938D01*
X188376654Y-84268577D01*
X188351017Y-84299817D01*
X188319777Y-84325454D01*
X188284138Y-84344504D01*
X188245468Y-84356235D01*
X188199112Y-84360800D01*
X187122888Y-84360800D01*
X187076532Y-84356235D01*
X187037862Y-84344504D01*
X187002223Y-84325454D01*
X186970983Y-84299817D01*
X186945346Y-84268577D01*
X186926296Y-84232938D01*
X186914565Y-84194268D01*
X186910000Y-84147912D01*
X186910000Y-83496688D01*
X186914565Y-83450332D01*
X186926296Y-83411662D01*
X186945346Y-83376023D01*
X186970983Y-83344783D01*
X187002223Y-83319146D01*
X187037862Y-83300096D01*
X187076532Y-83288365D01*
X187122888Y-83283800D01*
X188199112Y-83283800D01*
X188245468Y-83288365D01*
X188245468Y-83288365D01*
G37*
G36*
X204167000Y-83959000D02*
G01*
X202765000Y-83959000D01*
X202765000Y-82157000D01*
X204167000Y-82157000D01*
X204167000Y-83959000D01*
X204167000Y-83959000D01*
G37*
G36*
X207667000Y-83959000D02*
G01*
X206265000Y-83959000D01*
X206265000Y-82157000D01*
X207667000Y-82157000D01*
X207667000Y-83959000D01*
X207667000Y-83959000D01*
G37*
G36*
X195111468Y-82311565D02*
G01*
X195150138Y-82323296D01*
X195185777Y-82342346D01*
X195217017Y-82367983D01*
X195242654Y-82399223D01*
X195261704Y-82434862D01*
X195273435Y-82473532D01*
X195278000Y-82519888D01*
X195278000Y-83596112D01*
X195273435Y-83642468D01*
X195261704Y-83681138D01*
X195242654Y-83716777D01*
X195217017Y-83748017D01*
X195185777Y-83773654D01*
X195150138Y-83792704D01*
X195111468Y-83804435D01*
X195065112Y-83809000D01*
X194413888Y-83809000D01*
X194367532Y-83804435D01*
X194328862Y-83792704D01*
X194293223Y-83773654D01*
X194261983Y-83748017D01*
X194236346Y-83716777D01*
X194217296Y-83681138D01*
X194205565Y-83642468D01*
X194201000Y-83596112D01*
X194201000Y-82519888D01*
X194205565Y-82473532D01*
X194217296Y-82434862D01*
X194236346Y-82399223D01*
X194261983Y-82367983D01*
X194293223Y-82342346D01*
X194328862Y-82323296D01*
X194367532Y-82311565D01*
X194413888Y-82307000D01*
X195065112Y-82307000D01*
X195111468Y-82311565D01*
X195111468Y-82311565D01*
G37*
G36*
X198667468Y-82311565D02*
G01*
X198706138Y-82323296D01*
X198741777Y-82342346D01*
X198773017Y-82367983D01*
X198798654Y-82399223D01*
X198817704Y-82434862D01*
X198829435Y-82473532D01*
X198834000Y-82519888D01*
X198834000Y-83596112D01*
X198829435Y-83642468D01*
X198817704Y-83681138D01*
X198798654Y-83716777D01*
X198773017Y-83748017D01*
X198741777Y-83773654D01*
X198706138Y-83792704D01*
X198667468Y-83804435D01*
X198621112Y-83809000D01*
X197969888Y-83809000D01*
X197923532Y-83804435D01*
X197884862Y-83792704D01*
X197849223Y-83773654D01*
X197817983Y-83748017D01*
X197792346Y-83716777D01*
X197773296Y-83681138D01*
X197761565Y-83642468D01*
X197757000Y-83596112D01*
X197757000Y-82519888D01*
X197761565Y-82473532D01*
X197773296Y-82434862D01*
X197792346Y-82399223D01*
X197817983Y-82367983D01*
X197849223Y-82342346D01*
X197884862Y-82323296D01*
X197923532Y-82311565D01*
X197969888Y-82307000D01*
X198621112Y-82307000D01*
X198667468Y-82311565D01*
X198667468Y-82311565D01*
G37*
G36*
X196792468Y-82311565D02*
G01*
X196831138Y-82323296D01*
X196866777Y-82342346D01*
X196898017Y-82367983D01*
X196923654Y-82399223D01*
X196942704Y-82434862D01*
X196954435Y-82473532D01*
X196959000Y-82519888D01*
X196959000Y-83596112D01*
X196954435Y-83642468D01*
X196942704Y-83681138D01*
X196923654Y-83716777D01*
X196898017Y-83748017D01*
X196866777Y-83773654D01*
X196831138Y-83792704D01*
X196792468Y-83804435D01*
X196746112Y-83809000D01*
X196094888Y-83809000D01*
X196048532Y-83804435D01*
X196009862Y-83792704D01*
X195974223Y-83773654D01*
X195942983Y-83748017D01*
X195917346Y-83716777D01*
X195898296Y-83681138D01*
X195886565Y-83642468D01*
X195882000Y-83596112D01*
X195882000Y-82519888D01*
X195886565Y-82473532D01*
X195898296Y-82434862D01*
X195917346Y-82399223D01*
X195942983Y-82367983D01*
X195974223Y-82342346D01*
X196009862Y-82323296D01*
X196048532Y-82311565D01*
X196094888Y-82307000D01*
X196746112Y-82307000D01*
X196792468Y-82311565D01*
X196792468Y-82311565D01*
G37*
G36*
X193236468Y-82311565D02*
G01*
X193275138Y-82323296D01*
X193310777Y-82342346D01*
X193342017Y-82367983D01*
X193367654Y-82399223D01*
X193386704Y-82434862D01*
X193398435Y-82473532D01*
X193403000Y-82519888D01*
X193403000Y-83596112D01*
X193398435Y-83642468D01*
X193386704Y-83681138D01*
X193367654Y-83716777D01*
X193342017Y-83748017D01*
X193310777Y-83773654D01*
X193275138Y-83792704D01*
X193236468Y-83804435D01*
X193190112Y-83809000D01*
X192538888Y-83809000D01*
X192492532Y-83804435D01*
X192453862Y-83792704D01*
X192418223Y-83773654D01*
X192386983Y-83748017D01*
X192361346Y-83716777D01*
X192342296Y-83681138D01*
X192330565Y-83642468D01*
X192326000Y-83596112D01*
X192326000Y-82519888D01*
X192330565Y-82473532D01*
X192342296Y-82434862D01*
X192361346Y-82399223D01*
X192386983Y-82367983D01*
X192418223Y-82342346D01*
X192453862Y-82323296D01*
X192492532Y-82311565D01*
X192538888Y-82307000D01*
X193190112Y-82307000D01*
X193236468Y-82311565D01*
X193236468Y-82311565D01*
G37*
G36*
X160180721Y-82324974D02*
G01*
X160280995Y-82366509D01*
X160304683Y-82382337D01*
X160371242Y-82426810D01*
X160447990Y-82503558D01*
X160447991Y-82503560D01*
X160508291Y-82593805D01*
X160549826Y-82694079D01*
X160571000Y-82800530D01*
X160571000Y-82909070D01*
X160549826Y-83015521D01*
X160508291Y-83115795D01*
X160508290Y-83115796D01*
X160447990Y-83206042D01*
X160371242Y-83282790D01*
X160339057Y-83304295D01*
X160280995Y-83343091D01*
X160180721Y-83384626D01*
X160074270Y-83405800D01*
X159965730Y-83405800D01*
X159859279Y-83384626D01*
X159759005Y-83343091D01*
X159700943Y-83304295D01*
X159668758Y-83282790D01*
X159592010Y-83206042D01*
X159531710Y-83115796D01*
X159531709Y-83115795D01*
X159490174Y-83015521D01*
X159469000Y-82909070D01*
X159469000Y-82800530D01*
X159490174Y-82694079D01*
X159531709Y-82593805D01*
X159592009Y-82503560D01*
X159592010Y-82503558D01*
X159668758Y-82426810D01*
X159735317Y-82382337D01*
X159759005Y-82366509D01*
X159859279Y-82324974D01*
X159965730Y-82303800D01*
X160074270Y-82303800D01*
X160180721Y-82324974D01*
X160180721Y-82324974D01*
G37*
G36*
X157966000Y-82881000D02*
G01*
X156114000Y-82881000D01*
X156114000Y-82229000D01*
X157966000Y-82229000D01*
X157966000Y-82881000D01*
X157966000Y-82881000D01*
G37*
G36*
X150566000Y-82881000D02*
G01*
X148714000Y-82881000D01*
X148714000Y-82229000D01*
X150566000Y-82229000D01*
X150566000Y-82881000D01*
X150566000Y-82881000D01*
G37*
G36*
X188290468Y-81429565D02*
G01*
X188329138Y-81441296D01*
X188364777Y-81460346D01*
X188396017Y-81485983D01*
X188421654Y-81517223D01*
X188440704Y-81552862D01*
X188452435Y-81591532D01*
X188457000Y-81637888D01*
X188457000Y-82289112D01*
X188452435Y-82335468D01*
X188440704Y-82374138D01*
X188421654Y-82409777D01*
X188396017Y-82441017D01*
X188364777Y-82466654D01*
X188329138Y-82485704D01*
X188290468Y-82497435D01*
X188244112Y-82502000D01*
X187167888Y-82502000D01*
X187121532Y-82497435D01*
X187082862Y-82485704D01*
X187047223Y-82466654D01*
X187015983Y-82441017D01*
X186990346Y-82409777D01*
X186971296Y-82374138D01*
X186959565Y-82335468D01*
X186955000Y-82289112D01*
X186955000Y-81637888D01*
X186959565Y-81591532D01*
X186971296Y-81552862D01*
X186990346Y-81517223D01*
X187015983Y-81485983D01*
X187047223Y-81460346D01*
X187082862Y-81441296D01*
X187121532Y-81429565D01*
X187167888Y-81425000D01*
X188244112Y-81425000D01*
X188290468Y-81429565D01*
X188290468Y-81429565D01*
G37*
G36*
X150566000Y-81611000D02*
G01*
X148714000Y-81611000D01*
X148714000Y-80959000D01*
X150566000Y-80959000D01*
X150566000Y-81611000D01*
X150566000Y-81611000D01*
G37*
G36*
X157966000Y-81611000D02*
G01*
X156114000Y-81611000D01*
X156114000Y-80959000D01*
X157966000Y-80959000D01*
X157966000Y-81611000D01*
X157966000Y-81611000D01*
G37*
G36*
X204704604Y-79342347D02*
G01*
X204741144Y-79353432D01*
X204774821Y-79371433D01*
X204804341Y-79395659D01*
X204828567Y-79425179D01*
X204846568Y-79458856D01*
X204857653Y-79495396D01*
X204862000Y-79539538D01*
X204862000Y-80988462D01*
X204857653Y-81032604D01*
X204846568Y-81069144D01*
X204828567Y-81102821D01*
X204804341Y-81132341D01*
X204774821Y-81156567D01*
X204741144Y-81174568D01*
X204704604Y-81185653D01*
X204660462Y-81190000D01*
X203711538Y-81190000D01*
X203667396Y-81185653D01*
X203630856Y-81174568D01*
X203597179Y-81156567D01*
X203567659Y-81132341D01*
X203543433Y-81102821D01*
X203525432Y-81069144D01*
X203514347Y-81032604D01*
X203510000Y-80988462D01*
X203510000Y-79539538D01*
X203514347Y-79495396D01*
X203525432Y-79458856D01*
X203543433Y-79425179D01*
X203567659Y-79395659D01*
X203597179Y-79371433D01*
X203630856Y-79353432D01*
X203667396Y-79342347D01*
X203711538Y-79338000D01*
X204660462Y-79338000D01*
X204704604Y-79342347D01*
X204704604Y-79342347D01*
G37*
G36*
X207504604Y-79342347D02*
G01*
X207541144Y-79353432D01*
X207574821Y-79371433D01*
X207604341Y-79395659D01*
X207628567Y-79425179D01*
X207646568Y-79458856D01*
X207657653Y-79495396D01*
X207662000Y-79539538D01*
X207662000Y-80988462D01*
X207657653Y-81032604D01*
X207646568Y-81069144D01*
X207628567Y-81102821D01*
X207604341Y-81132341D01*
X207574821Y-81156567D01*
X207541144Y-81174568D01*
X207504604Y-81185653D01*
X207460462Y-81190000D01*
X206511538Y-81190000D01*
X206467396Y-81185653D01*
X206430856Y-81174568D01*
X206397179Y-81156567D01*
X206367659Y-81132341D01*
X206343433Y-81102821D01*
X206325432Y-81069144D01*
X206314347Y-81032604D01*
X206310000Y-80988462D01*
X206310000Y-79539538D01*
X206314347Y-79495396D01*
X206325432Y-79458856D01*
X206343433Y-79425179D01*
X206367659Y-79395659D01*
X206397179Y-79371433D01*
X206430856Y-79353432D01*
X206467396Y-79342347D01*
X206511538Y-79338000D01*
X207460462Y-79338000D01*
X207504604Y-79342347D01*
X207504604Y-79342347D01*
G37*
G36*
X188290468Y-79554565D02*
G01*
X188329138Y-79566296D01*
X188364777Y-79585346D01*
X188396017Y-79610983D01*
X188421654Y-79642223D01*
X188440704Y-79677862D01*
X188452435Y-79716532D01*
X188457000Y-79762888D01*
X188457000Y-80414112D01*
X188452435Y-80460468D01*
X188440704Y-80499138D01*
X188421654Y-80534777D01*
X188396017Y-80566017D01*
X188364777Y-80591654D01*
X188329138Y-80610704D01*
X188290468Y-80622435D01*
X188244112Y-80627000D01*
X187167888Y-80627000D01*
X187121532Y-80622435D01*
X187082862Y-80610704D01*
X187047223Y-80591654D01*
X187015983Y-80566017D01*
X186990346Y-80534777D01*
X186971296Y-80499138D01*
X186959565Y-80460468D01*
X186955000Y-80414112D01*
X186955000Y-79762888D01*
X186959565Y-79716532D01*
X186971296Y-79677862D01*
X186990346Y-79642223D01*
X187015983Y-79610983D01*
X187047223Y-79585346D01*
X187082862Y-79566296D01*
X187121532Y-79554565D01*
X187167888Y-79550000D01*
X188244112Y-79550000D01*
X188290468Y-79554565D01*
X188290468Y-79554565D01*
G37*
G36*
X150566000Y-80341000D02*
G01*
X148714000Y-80341000D01*
X148714000Y-79689000D01*
X150566000Y-79689000D01*
X150566000Y-80341000D01*
X150566000Y-80341000D01*
G37*
G36*
X157966000Y-80341000D02*
G01*
X156114000Y-80341000D01*
X156114000Y-79689000D01*
X157966000Y-79689000D01*
X157966000Y-80341000D01*
X157966000Y-80341000D01*
G37*
G36*
X197223000Y-79563000D02*
G01*
X192921000Y-79563000D01*
X192921000Y-77961000D01*
X197223000Y-77961000D01*
X197223000Y-79563000D01*
X197223000Y-79563000D01*
G37*
G36*
X160180721Y-78387974D02*
G01*
X160280995Y-78429509D01*
X160325812Y-78459455D01*
X160371242Y-78489810D01*
X160447990Y-78566558D01*
X160478345Y-78611988D01*
X160508291Y-78656805D01*
X160549826Y-78757079D01*
X160571000Y-78863530D01*
X160571000Y-78972070D01*
X160549826Y-79078521D01*
X160508291Y-79178795D01*
X160508290Y-79178796D01*
X160447990Y-79269042D01*
X160371242Y-79345790D01*
X160332864Y-79371433D01*
X160280995Y-79406091D01*
X160180721Y-79447626D01*
X160074270Y-79468800D01*
X159965730Y-79468800D01*
X159859279Y-79447626D01*
X159759005Y-79406091D01*
X159707136Y-79371433D01*
X159668758Y-79345790D01*
X159592010Y-79269042D01*
X159531710Y-79178796D01*
X159531709Y-79178795D01*
X159490174Y-79078521D01*
X159469000Y-78972070D01*
X159469000Y-78863530D01*
X159490174Y-78757079D01*
X159531709Y-78656805D01*
X159561655Y-78611988D01*
X159592010Y-78566558D01*
X159668758Y-78489810D01*
X159714188Y-78459455D01*
X159759005Y-78429509D01*
X159859279Y-78387974D01*
X159965730Y-78366800D01*
X160074270Y-78366800D01*
X160180721Y-78387974D01*
X160180721Y-78387974D01*
G37*
G36*
X141730015Y-76379009D02*
G01*
X141930410Y-76418870D01*
X142212674Y-76535787D01*
X142466705Y-76705525D01*
X142682741Y-76921561D01*
X142852479Y-77175592D01*
X142969396Y-77457856D01*
X143029000Y-77757506D01*
X143029000Y-78063026D01*
X142969396Y-78362676D01*
X142852479Y-78644940D01*
X142682741Y-78898971D01*
X142466705Y-79115007D01*
X142212674Y-79284745D01*
X141930410Y-79401662D01*
X141852305Y-79417198D01*
X141630761Y-79461266D01*
X141325239Y-79461266D01*
X141103695Y-79417198D01*
X141025590Y-79401662D01*
X140743326Y-79284745D01*
X140489295Y-79115007D01*
X140273259Y-78898971D01*
X140103521Y-78644940D01*
X139986604Y-78362676D01*
X139927000Y-78063026D01*
X139927000Y-77757506D01*
X139986604Y-77457856D01*
X140103521Y-77175592D01*
X140273259Y-76921561D01*
X140489295Y-76705525D01*
X140743326Y-76535787D01*
X141025590Y-76418870D01*
X141225985Y-76379009D01*
X141325239Y-76359266D01*
X141630761Y-76359266D01*
X141730015Y-76379009D01*
X141730015Y-76379009D01*
G37*
G36*
X150566000Y-79071000D02*
G01*
X148714000Y-79071000D01*
X148714000Y-78419000D01*
X150566000Y-78419000D01*
X150566000Y-79071000D01*
X150566000Y-79071000D01*
G37*
G36*
X157966000Y-79071000D02*
G01*
X156114000Y-79071000D01*
X156114000Y-78419000D01*
X157966000Y-78419000D01*
X157966000Y-79071000D01*
X157966000Y-79071000D01*
G37*
G36*
X188245468Y-77797365D02*
G01*
X188284138Y-77809096D01*
X188319777Y-77828146D01*
X188351017Y-77853783D01*
X188376654Y-77885023D01*
X188395704Y-77920662D01*
X188407435Y-77959332D01*
X188412000Y-78005688D01*
X188412000Y-78656912D01*
X188407435Y-78703268D01*
X188395704Y-78741938D01*
X188376654Y-78777577D01*
X188351017Y-78808817D01*
X188319777Y-78834454D01*
X188284138Y-78853504D01*
X188245468Y-78865235D01*
X188199112Y-78869800D01*
X187122888Y-78869800D01*
X187076532Y-78865235D01*
X187037862Y-78853504D01*
X187002223Y-78834454D01*
X186970983Y-78808817D01*
X186945346Y-78777577D01*
X186926296Y-78741938D01*
X186914565Y-78703268D01*
X186910000Y-78656912D01*
X186910000Y-78005688D01*
X186914565Y-77959332D01*
X186926296Y-77920662D01*
X186945346Y-77885023D01*
X186970983Y-77853783D01*
X187002223Y-77828146D01*
X187037862Y-77809096D01*
X187076532Y-77797365D01*
X187122888Y-77792800D01*
X188199112Y-77792800D01*
X188245468Y-77797365D01*
X188245468Y-77797365D01*
G37*
G36*
X183738720Y-78801160D02*
G01*
X183037280Y-78801160D01*
X183037280Y-77500280D01*
X183738720Y-77500280D01*
X183738720Y-78801160D01*
X183738720Y-78801160D01*
G37*
G36*
X185008720Y-78801160D02*
G01*
X184307280Y-78801160D01*
X184307280Y-77500280D01*
X185008720Y-77500280D01*
X185008720Y-78801160D01*
X185008720Y-78801160D01*
G37*
G36*
X182468720Y-78801160D02*
G01*
X181767280Y-78801160D01*
X181767280Y-77500280D01*
X182468720Y-77500280D01*
X182468720Y-78801160D01*
X182468720Y-78801160D01*
G37*
G36*
X179928720Y-78801160D02*
G01*
X179227280Y-78801160D01*
X179227280Y-77500280D01*
X179928720Y-77500280D01*
X179928720Y-78801160D01*
X179928720Y-78801160D01*
G37*
G36*
X177388720Y-78801160D02*
G01*
X176687280Y-78801160D01*
X176687280Y-77500280D01*
X177388720Y-77500280D01*
X177388720Y-78801160D01*
X177388720Y-78801160D01*
G37*
G36*
X178658720Y-78801160D02*
G01*
X177957280Y-78801160D01*
X177957280Y-77500280D01*
X178658720Y-77500280D01*
X178658720Y-78801160D01*
X178658720Y-78801160D01*
G37*
G36*
X181198720Y-78801160D02*
G01*
X180497280Y-78801160D01*
X180497280Y-77500280D01*
X181198720Y-77500280D01*
X181198720Y-78801160D01*
X181198720Y-78801160D01*
G37*
G36*
X200101468Y-77365565D02*
G01*
X200140138Y-77377296D01*
X200175777Y-77396346D01*
X200207017Y-77421983D01*
X200232654Y-77453223D01*
X200251704Y-77488862D01*
X200263435Y-77527532D01*
X200268000Y-77573888D01*
X200268000Y-78225112D01*
X200263435Y-78271468D01*
X200251704Y-78310138D01*
X200232654Y-78345777D01*
X200207017Y-78377017D01*
X200175777Y-78402654D01*
X200140138Y-78421704D01*
X200101468Y-78433435D01*
X200055112Y-78438000D01*
X198978888Y-78438000D01*
X198932532Y-78433435D01*
X198893862Y-78421704D01*
X198858223Y-78402654D01*
X198826983Y-78377017D01*
X198801346Y-78345777D01*
X198782296Y-78310138D01*
X198770565Y-78271468D01*
X198766000Y-78225112D01*
X198766000Y-77573888D01*
X198770565Y-77527532D01*
X198782296Y-77488862D01*
X198801346Y-77453223D01*
X198826983Y-77421983D01*
X198858223Y-77396346D01*
X198893862Y-77377296D01*
X198932532Y-77365565D01*
X198978888Y-77361000D01*
X200055112Y-77361000D01*
X200101468Y-77365565D01*
X200101468Y-77365565D01*
G37*
G36*
X167772200Y-78005000D02*
G01*
X166470200Y-78005000D01*
X166470200Y-77003000D01*
X167772200Y-77003000D01*
X167772200Y-78005000D01*
X167772200Y-78005000D01*
G37*
G36*
X203636443Y-75987519D02*
G01*
X203702627Y-75994037D01*
X203872466Y-76045557D01*
X203872468Y-76045558D01*
X203901616Y-76061138D01*
X204028991Y-76129222D01*
X204058761Y-76153654D01*
X204166186Y-76241814D01*
X204249448Y-76343271D01*
X204278778Y-76379009D01*
X204362443Y-76535534D01*
X204413963Y-76705373D01*
X204431359Y-76882000D01*
X204413963Y-77058627D01*
X204362443Y-77228466D01*
X204278778Y-77384991D01*
X204269459Y-77396346D01*
X204166186Y-77522186D01*
X204064729Y-77605448D01*
X204028991Y-77634778D01*
X203872466Y-77718443D01*
X203702627Y-77769963D01*
X203636443Y-77776481D01*
X203570260Y-77783000D01*
X203481740Y-77783000D01*
X203415557Y-77776481D01*
X203349373Y-77769963D01*
X203179534Y-77718443D01*
X203023009Y-77634778D01*
X202987271Y-77605448D01*
X202885814Y-77522186D01*
X202782541Y-77396346D01*
X202773222Y-77384991D01*
X202689557Y-77228466D01*
X202638037Y-77058627D01*
X202620641Y-76882000D01*
X202638037Y-76705373D01*
X202689557Y-76535534D01*
X202773222Y-76379009D01*
X202802552Y-76343271D01*
X202885814Y-76241814D01*
X202993239Y-76153654D01*
X203023009Y-76129222D01*
X203150384Y-76061138D01*
X203179532Y-76045558D01*
X203179534Y-76045557D01*
X203349373Y-75994037D01*
X203415557Y-75987519D01*
X203481740Y-75981000D01*
X203570260Y-75981000D01*
X203636443Y-75987519D01*
X203636443Y-75987519D01*
G37*
G36*
X206967000Y-77783000D02*
G01*
X205165000Y-77783000D01*
X205165000Y-75981000D01*
X206967000Y-75981000D01*
X206967000Y-77783000D01*
X206967000Y-77783000D01*
G37*
G36*
X188245468Y-75922365D02*
G01*
X188284138Y-75934096D01*
X188319777Y-75953146D01*
X188351017Y-75978783D01*
X188376654Y-76010023D01*
X188395704Y-76045662D01*
X188407435Y-76084332D01*
X188412000Y-76130688D01*
X188412000Y-76781912D01*
X188407435Y-76828268D01*
X188395704Y-76866938D01*
X188376654Y-76902577D01*
X188351017Y-76933817D01*
X188319777Y-76959454D01*
X188284138Y-76978504D01*
X188245468Y-76990235D01*
X188199112Y-76994800D01*
X187122888Y-76994800D01*
X187076532Y-76990235D01*
X187037862Y-76978504D01*
X187002223Y-76959454D01*
X186970983Y-76933817D01*
X186945346Y-76902577D01*
X186926296Y-76866938D01*
X186914565Y-76828268D01*
X186910000Y-76781912D01*
X186910000Y-76130688D01*
X186914565Y-76084332D01*
X186926296Y-76045662D01*
X186945346Y-76010023D01*
X186970983Y-75978783D01*
X187002223Y-75953146D01*
X187037862Y-75934096D01*
X187076532Y-75922365D01*
X187122888Y-75917800D01*
X188199112Y-75917800D01*
X188245468Y-75922365D01*
X188245468Y-75922365D01*
G37*
G36*
X165071068Y-75587565D02*
G01*
X165109738Y-75599296D01*
X165145377Y-75618346D01*
X165176617Y-75643983D01*
X165202254Y-75675223D01*
X165221304Y-75710862D01*
X165233035Y-75749532D01*
X165237600Y-75795888D01*
X165237600Y-76447112D01*
X165233035Y-76493468D01*
X165221304Y-76532138D01*
X165202254Y-76567777D01*
X165176617Y-76599017D01*
X165145377Y-76624654D01*
X165109738Y-76643704D01*
X165071068Y-76655435D01*
X165024712Y-76660000D01*
X163948488Y-76660000D01*
X163902132Y-76655435D01*
X163863462Y-76643704D01*
X163827823Y-76624654D01*
X163796583Y-76599017D01*
X163770946Y-76567777D01*
X163751896Y-76532138D01*
X163740165Y-76493468D01*
X163735600Y-76447112D01*
X163735600Y-75795888D01*
X163740165Y-75749532D01*
X163751896Y-75710862D01*
X163770946Y-75675223D01*
X163796583Y-75643983D01*
X163827823Y-75618346D01*
X163863462Y-75599296D01*
X163902132Y-75587565D01*
X163948488Y-75583000D01*
X165024712Y-75583000D01*
X165071068Y-75587565D01*
X165071068Y-75587565D01*
G37*
G36*
X175209468Y-75587565D02*
G01*
X175248138Y-75599296D01*
X175283777Y-75618346D01*
X175315017Y-75643983D01*
X175340654Y-75675223D01*
X175359704Y-75710862D01*
X175371435Y-75749532D01*
X175376000Y-75795888D01*
X175376000Y-76447112D01*
X175371435Y-76493468D01*
X175359704Y-76532138D01*
X175340654Y-76567777D01*
X175315017Y-76599017D01*
X175283777Y-76624654D01*
X175248138Y-76643704D01*
X175209468Y-76655435D01*
X175163112Y-76660000D01*
X174086888Y-76660000D01*
X174040532Y-76655435D01*
X174001862Y-76643704D01*
X173966223Y-76624654D01*
X173934983Y-76599017D01*
X173909346Y-76567777D01*
X173890296Y-76532138D01*
X173878565Y-76493468D01*
X173874000Y-76447112D01*
X173874000Y-75795888D01*
X173878565Y-75749532D01*
X173890296Y-75710862D01*
X173909346Y-75675223D01*
X173934983Y-75643983D01*
X173966223Y-75618346D01*
X174001862Y-75599296D01*
X174040532Y-75587565D01*
X174086888Y-75583000D01*
X175163112Y-75583000D01*
X175209468Y-75587565D01*
X175209468Y-75587565D01*
G37*
G36*
X172774868Y-75587565D02*
G01*
X172813538Y-75599296D01*
X172849177Y-75618346D01*
X172880417Y-75643983D01*
X172906054Y-75675223D01*
X172925104Y-75710862D01*
X172936835Y-75749532D01*
X172941400Y-75795888D01*
X172941400Y-76447112D01*
X172936835Y-76493468D01*
X172925104Y-76532138D01*
X172906054Y-76567777D01*
X172880417Y-76599017D01*
X172849177Y-76624654D01*
X172813538Y-76643704D01*
X172774868Y-76655435D01*
X172728512Y-76660000D01*
X171652288Y-76660000D01*
X171605932Y-76655435D01*
X171567262Y-76643704D01*
X171531623Y-76624654D01*
X171500383Y-76599017D01*
X171474746Y-76567777D01*
X171455696Y-76532138D01*
X171443965Y-76493468D01*
X171439400Y-76447112D01*
X171439400Y-75795888D01*
X171443965Y-75749532D01*
X171455696Y-75710862D01*
X171474746Y-75675223D01*
X171500383Y-75643983D01*
X171531623Y-75618346D01*
X171567262Y-75599296D01*
X171605932Y-75587565D01*
X171652288Y-75583000D01*
X172728512Y-75583000D01*
X172774868Y-75587565D01*
X172774868Y-75587565D01*
G37*
G36*
X170340268Y-75587565D02*
G01*
X170378938Y-75599296D01*
X170414577Y-75618346D01*
X170445817Y-75643983D01*
X170471454Y-75675223D01*
X170490504Y-75710862D01*
X170502235Y-75749532D01*
X170506800Y-75795888D01*
X170506800Y-76447112D01*
X170502235Y-76493468D01*
X170490504Y-76532138D01*
X170471454Y-76567777D01*
X170445817Y-76599017D01*
X170414577Y-76624654D01*
X170378938Y-76643704D01*
X170340268Y-76655435D01*
X170293912Y-76660000D01*
X169217688Y-76660000D01*
X169171332Y-76655435D01*
X169132662Y-76643704D01*
X169097023Y-76624654D01*
X169065783Y-76599017D01*
X169040146Y-76567777D01*
X169021096Y-76532138D01*
X169009365Y-76493468D01*
X169004800Y-76447112D01*
X169004800Y-75795888D01*
X169009365Y-75749532D01*
X169021096Y-75710862D01*
X169040146Y-75675223D01*
X169065783Y-75643983D01*
X169097023Y-75618346D01*
X169132662Y-75599296D01*
X169171332Y-75587565D01*
X169217688Y-75583000D01*
X170293912Y-75583000D01*
X170340268Y-75587565D01*
X170340268Y-75587565D01*
G37*
G36*
X162636468Y-75587565D02*
G01*
X162675138Y-75599296D01*
X162710777Y-75618346D01*
X162742017Y-75643983D01*
X162767654Y-75675223D01*
X162786704Y-75710862D01*
X162798435Y-75749532D01*
X162803000Y-75795888D01*
X162803000Y-76447112D01*
X162798435Y-76493468D01*
X162786704Y-76532138D01*
X162767654Y-76567777D01*
X162742017Y-76599017D01*
X162710777Y-76624654D01*
X162675138Y-76643704D01*
X162636468Y-76655435D01*
X162590112Y-76660000D01*
X161513888Y-76660000D01*
X161467532Y-76655435D01*
X161428862Y-76643704D01*
X161393223Y-76624654D01*
X161361983Y-76599017D01*
X161336346Y-76567777D01*
X161317296Y-76532138D01*
X161305565Y-76493468D01*
X161301000Y-76447112D01*
X161301000Y-75795888D01*
X161305565Y-75749532D01*
X161317296Y-75710862D01*
X161336346Y-75675223D01*
X161361983Y-75643983D01*
X161393223Y-75618346D01*
X161428862Y-75599296D01*
X161467532Y-75587565D01*
X161513888Y-75583000D01*
X162590112Y-75583000D01*
X162636468Y-75587565D01*
X162636468Y-75587565D01*
G37*
G36*
X200101468Y-75490565D02*
G01*
X200140138Y-75502296D01*
X200175777Y-75521346D01*
X200207017Y-75546983D01*
X200232654Y-75578223D01*
X200251704Y-75613862D01*
X200263435Y-75652532D01*
X200268000Y-75698888D01*
X200268000Y-76350112D01*
X200263435Y-76396468D01*
X200251704Y-76435138D01*
X200232654Y-76470777D01*
X200207017Y-76502017D01*
X200175777Y-76527654D01*
X200140138Y-76546704D01*
X200101468Y-76558435D01*
X200055112Y-76563000D01*
X198978888Y-76563000D01*
X198932532Y-76558435D01*
X198893862Y-76546704D01*
X198858223Y-76527654D01*
X198826983Y-76502017D01*
X198801346Y-76470777D01*
X198782296Y-76435138D01*
X198770565Y-76396468D01*
X198766000Y-76350112D01*
X198766000Y-75698888D01*
X198770565Y-75652532D01*
X198782296Y-75613862D01*
X198801346Y-75578223D01*
X198826983Y-75546983D01*
X198858223Y-75521346D01*
X198893862Y-75502296D01*
X198932532Y-75490565D01*
X198978888Y-75486000D01*
X200055112Y-75486000D01*
X200101468Y-75490565D01*
X200101468Y-75490565D01*
G37*
G36*
X182441468Y-74691565D02*
G01*
X182480138Y-74703296D01*
X182515777Y-74722346D01*
X182547017Y-74747983D01*
X182572654Y-74779223D01*
X182591704Y-74814862D01*
X182603435Y-74853532D01*
X182608000Y-74899888D01*
X182608000Y-75976112D01*
X182603435Y-76022468D01*
X182591704Y-76061138D01*
X182572654Y-76096777D01*
X182547017Y-76128017D01*
X182515777Y-76153654D01*
X182480138Y-76172704D01*
X182441468Y-76184435D01*
X182395112Y-76189000D01*
X181743888Y-76189000D01*
X181697532Y-76184435D01*
X181658862Y-76172704D01*
X181623223Y-76153654D01*
X181591983Y-76128017D01*
X181566346Y-76096777D01*
X181547296Y-76061138D01*
X181535565Y-76022468D01*
X181531000Y-75976112D01*
X181531000Y-74899888D01*
X181535565Y-74853532D01*
X181547296Y-74814862D01*
X181566346Y-74779223D01*
X181591983Y-74747983D01*
X181623223Y-74722346D01*
X181658862Y-74703296D01*
X181697532Y-74691565D01*
X181743888Y-74687000D01*
X182395112Y-74687000D01*
X182441468Y-74691565D01*
X182441468Y-74691565D01*
G37*
G36*
X184316468Y-74691565D02*
G01*
X184355138Y-74703296D01*
X184390777Y-74722346D01*
X184422017Y-74747983D01*
X184447654Y-74779223D01*
X184466704Y-74814862D01*
X184478435Y-74853532D01*
X184483000Y-74899888D01*
X184483000Y-75976112D01*
X184478435Y-76022468D01*
X184466704Y-76061138D01*
X184447654Y-76096777D01*
X184422017Y-76128017D01*
X184390777Y-76153654D01*
X184355138Y-76172704D01*
X184316468Y-76184435D01*
X184270112Y-76189000D01*
X183618888Y-76189000D01*
X183572532Y-76184435D01*
X183533862Y-76172704D01*
X183498223Y-76153654D01*
X183466983Y-76128017D01*
X183441346Y-76096777D01*
X183422296Y-76061138D01*
X183410565Y-76022468D01*
X183406000Y-75976112D01*
X183406000Y-74899888D01*
X183410565Y-74853532D01*
X183422296Y-74814862D01*
X183441346Y-74779223D01*
X183466983Y-74747983D01*
X183498223Y-74722346D01*
X183533862Y-74703296D01*
X183572532Y-74691565D01*
X183618888Y-74687000D01*
X184270112Y-74687000D01*
X184316468Y-74691565D01*
X184316468Y-74691565D01*
G37*
G36*
X152693468Y-74691565D02*
G01*
X152732138Y-74703296D01*
X152767777Y-74722346D01*
X152799017Y-74747983D01*
X152824654Y-74779223D01*
X152843704Y-74814862D01*
X152855435Y-74853532D01*
X152860000Y-74899888D01*
X152860000Y-75976112D01*
X152855435Y-76022468D01*
X152843704Y-76061138D01*
X152824654Y-76096777D01*
X152799017Y-76128017D01*
X152767777Y-76153654D01*
X152732138Y-76172704D01*
X152693468Y-76184435D01*
X152647112Y-76189000D01*
X151995888Y-76189000D01*
X151949532Y-76184435D01*
X151910862Y-76172704D01*
X151875223Y-76153654D01*
X151843983Y-76128017D01*
X151818346Y-76096777D01*
X151799296Y-76061138D01*
X151787565Y-76022468D01*
X151783000Y-75976112D01*
X151783000Y-74899888D01*
X151787565Y-74853532D01*
X151799296Y-74814862D01*
X151818346Y-74779223D01*
X151843983Y-74747983D01*
X151875223Y-74722346D01*
X151910862Y-74703296D01*
X151949532Y-74691565D01*
X151995888Y-74687000D01*
X152647112Y-74687000D01*
X152693468Y-74691565D01*
X152693468Y-74691565D01*
G37*
G36*
X180633468Y-74691565D02*
G01*
X180672138Y-74703296D01*
X180707777Y-74722346D01*
X180739017Y-74747983D01*
X180764654Y-74779223D01*
X180783704Y-74814862D01*
X180795435Y-74853532D01*
X180800000Y-74899888D01*
X180800000Y-75976112D01*
X180795435Y-76022468D01*
X180783704Y-76061138D01*
X180764654Y-76096777D01*
X180739017Y-76128017D01*
X180707777Y-76153654D01*
X180672138Y-76172704D01*
X180633468Y-76184435D01*
X180587112Y-76189000D01*
X179935888Y-76189000D01*
X179889532Y-76184435D01*
X179850862Y-76172704D01*
X179815223Y-76153654D01*
X179783983Y-76128017D01*
X179758346Y-76096777D01*
X179739296Y-76061138D01*
X179727565Y-76022468D01*
X179723000Y-75976112D01*
X179723000Y-74899888D01*
X179727565Y-74853532D01*
X179739296Y-74814862D01*
X179758346Y-74779223D01*
X179783983Y-74747983D01*
X179815223Y-74722346D01*
X179850862Y-74703296D01*
X179889532Y-74691565D01*
X179935888Y-74687000D01*
X180587112Y-74687000D01*
X180633468Y-74691565D01*
X180633468Y-74691565D01*
G37*
G36*
X150818468Y-74691565D02*
G01*
X150857138Y-74703296D01*
X150892777Y-74722346D01*
X150924017Y-74747983D01*
X150949654Y-74779223D01*
X150968704Y-74814862D01*
X150980435Y-74853532D01*
X150985000Y-74899888D01*
X150985000Y-75976112D01*
X150980435Y-76022468D01*
X150968704Y-76061138D01*
X150949654Y-76096777D01*
X150924017Y-76128017D01*
X150892777Y-76153654D01*
X150857138Y-76172704D01*
X150818468Y-76184435D01*
X150772112Y-76189000D01*
X150120888Y-76189000D01*
X150074532Y-76184435D01*
X150035862Y-76172704D01*
X150000223Y-76153654D01*
X149968983Y-76128017D01*
X149943346Y-76096777D01*
X149924296Y-76061138D01*
X149912565Y-76022468D01*
X149908000Y-75976112D01*
X149908000Y-74899888D01*
X149912565Y-74853532D01*
X149924296Y-74814862D01*
X149943346Y-74779223D01*
X149968983Y-74747983D01*
X150000223Y-74722346D01*
X150035862Y-74703296D01*
X150074532Y-74691565D01*
X150120888Y-74687000D01*
X150772112Y-74687000D01*
X150818468Y-74691565D01*
X150818468Y-74691565D01*
G37*
G36*
X154374468Y-74691565D02*
G01*
X154413138Y-74703296D01*
X154448777Y-74722346D01*
X154480017Y-74747983D01*
X154505654Y-74779223D01*
X154524704Y-74814862D01*
X154536435Y-74853532D01*
X154541000Y-74899888D01*
X154541000Y-75976112D01*
X154536435Y-76022468D01*
X154524704Y-76061138D01*
X154505654Y-76096777D01*
X154480017Y-76128017D01*
X154448777Y-76153654D01*
X154413138Y-76172704D01*
X154374468Y-76184435D01*
X154328112Y-76189000D01*
X153676888Y-76189000D01*
X153630532Y-76184435D01*
X153591862Y-76172704D01*
X153556223Y-76153654D01*
X153524983Y-76128017D01*
X153499346Y-76096777D01*
X153480296Y-76061138D01*
X153468565Y-76022468D01*
X153464000Y-75976112D01*
X153464000Y-74899888D01*
X153468565Y-74853532D01*
X153480296Y-74814862D01*
X153499346Y-74779223D01*
X153524983Y-74747983D01*
X153556223Y-74722346D01*
X153591862Y-74703296D01*
X153630532Y-74691565D01*
X153676888Y-74687000D01*
X154328112Y-74687000D01*
X154374468Y-74691565D01*
X154374468Y-74691565D01*
G37*
G36*
X156249468Y-74691565D02*
G01*
X156288138Y-74703296D01*
X156323777Y-74722346D01*
X156355017Y-74747983D01*
X156380654Y-74779223D01*
X156399704Y-74814862D01*
X156411435Y-74853532D01*
X156416000Y-74899888D01*
X156416000Y-75976112D01*
X156411435Y-76022468D01*
X156399704Y-76061138D01*
X156380654Y-76096777D01*
X156355017Y-76128017D01*
X156323777Y-76153654D01*
X156288138Y-76172704D01*
X156249468Y-76184435D01*
X156203112Y-76189000D01*
X155551888Y-76189000D01*
X155505532Y-76184435D01*
X155466862Y-76172704D01*
X155431223Y-76153654D01*
X155399983Y-76128017D01*
X155374346Y-76096777D01*
X155355296Y-76061138D01*
X155343565Y-76022468D01*
X155339000Y-75976112D01*
X155339000Y-74899888D01*
X155343565Y-74853532D01*
X155355296Y-74814862D01*
X155374346Y-74779223D01*
X155399983Y-74747983D01*
X155431223Y-74722346D01*
X155466862Y-74703296D01*
X155505532Y-74691565D01*
X155551888Y-74687000D01*
X156203112Y-74687000D01*
X156249468Y-74691565D01*
X156249468Y-74691565D01*
G37*
G36*
X178758468Y-74691565D02*
G01*
X178797138Y-74703296D01*
X178832777Y-74722346D01*
X178864017Y-74747983D01*
X178889654Y-74779223D01*
X178908704Y-74814862D01*
X178920435Y-74853532D01*
X178925000Y-74899888D01*
X178925000Y-75976112D01*
X178920435Y-76022468D01*
X178908704Y-76061138D01*
X178889654Y-76096777D01*
X178864017Y-76128017D01*
X178832777Y-76153654D01*
X178797138Y-76172704D01*
X178758468Y-76184435D01*
X178712112Y-76189000D01*
X178060888Y-76189000D01*
X178014532Y-76184435D01*
X177975862Y-76172704D01*
X177940223Y-76153654D01*
X177908983Y-76128017D01*
X177883346Y-76096777D01*
X177864296Y-76061138D01*
X177852565Y-76022468D01*
X177848000Y-75976112D01*
X177848000Y-74899888D01*
X177852565Y-74853532D01*
X177864296Y-74814862D01*
X177883346Y-74779223D01*
X177908983Y-74747983D01*
X177940223Y-74722346D01*
X177975862Y-74703296D01*
X178014532Y-74691565D01*
X178060888Y-74687000D01*
X178712112Y-74687000D01*
X178758468Y-74691565D01*
X178758468Y-74691565D01*
G37*
G36*
X197223000Y-75963000D02*
G01*
X192921000Y-75963000D01*
X192921000Y-74361000D01*
X197223000Y-74361000D01*
X197223000Y-75963000D01*
X197223000Y-75963000D01*
G37*
G36*
X188290468Y-74241365D02*
G01*
X188329138Y-74253096D01*
X188364777Y-74272146D01*
X188396017Y-74297783D01*
X188421654Y-74329023D01*
X188440704Y-74364662D01*
X188452435Y-74403332D01*
X188457000Y-74449688D01*
X188457000Y-75100912D01*
X188452435Y-75147268D01*
X188440704Y-75185938D01*
X188421654Y-75221577D01*
X188396017Y-75252817D01*
X188364777Y-75278454D01*
X188329138Y-75297504D01*
X188290468Y-75309235D01*
X188244112Y-75313800D01*
X187167888Y-75313800D01*
X187121532Y-75309235D01*
X187082862Y-75297504D01*
X187047223Y-75278454D01*
X187015983Y-75252817D01*
X186990346Y-75221577D01*
X186971296Y-75185938D01*
X186959565Y-75147268D01*
X186955000Y-75100912D01*
X186955000Y-74449688D01*
X186959565Y-74403332D01*
X186971296Y-74364662D01*
X186990346Y-74329023D01*
X187015983Y-74297783D01*
X187047223Y-74272146D01*
X187082862Y-74253096D01*
X187121532Y-74241365D01*
X187167888Y-74236800D01*
X188244112Y-74236800D01*
X188290468Y-74241365D01*
X188290468Y-74241365D01*
G37*
G36*
X165071068Y-73712565D02*
G01*
X165109738Y-73724296D01*
X165145377Y-73743346D01*
X165176617Y-73768983D01*
X165202254Y-73800223D01*
X165221304Y-73835862D01*
X165233035Y-73874532D01*
X165237600Y-73920888D01*
X165237600Y-74572112D01*
X165233035Y-74618468D01*
X165221304Y-74657138D01*
X165202254Y-74692777D01*
X165176617Y-74724017D01*
X165145377Y-74749654D01*
X165109738Y-74768704D01*
X165071068Y-74780435D01*
X165024712Y-74785000D01*
X163948488Y-74785000D01*
X163902132Y-74780435D01*
X163863462Y-74768704D01*
X163827823Y-74749654D01*
X163796583Y-74724017D01*
X163770946Y-74692777D01*
X163751896Y-74657138D01*
X163740165Y-74618468D01*
X163735600Y-74572112D01*
X163735600Y-73920888D01*
X163740165Y-73874532D01*
X163751896Y-73835862D01*
X163770946Y-73800223D01*
X163796583Y-73768983D01*
X163827823Y-73743346D01*
X163863462Y-73724296D01*
X163902132Y-73712565D01*
X163948488Y-73708000D01*
X165024712Y-73708000D01*
X165071068Y-73712565D01*
X165071068Y-73712565D01*
G37*
G36*
X170340268Y-73712565D02*
G01*
X170378938Y-73724296D01*
X170414577Y-73743346D01*
X170445817Y-73768983D01*
X170471454Y-73800223D01*
X170490504Y-73835862D01*
X170502235Y-73874532D01*
X170506800Y-73920888D01*
X170506800Y-74572112D01*
X170502235Y-74618468D01*
X170490504Y-74657138D01*
X170471454Y-74692777D01*
X170445817Y-74724017D01*
X170414577Y-74749654D01*
X170378938Y-74768704D01*
X170340268Y-74780435D01*
X170293912Y-74785000D01*
X169217688Y-74785000D01*
X169171332Y-74780435D01*
X169132662Y-74768704D01*
X169097023Y-74749654D01*
X169065783Y-74724017D01*
X169040146Y-74692777D01*
X169021096Y-74657138D01*
X169009365Y-74618468D01*
X169004800Y-74572112D01*
X169004800Y-73920888D01*
X169009365Y-73874532D01*
X169021096Y-73835862D01*
X169040146Y-73800223D01*
X169065783Y-73768983D01*
X169097023Y-73743346D01*
X169132662Y-73724296D01*
X169171332Y-73712565D01*
X169217688Y-73708000D01*
X170293912Y-73708000D01*
X170340268Y-73712565D01*
X170340268Y-73712565D01*
G37*
G36*
X172774868Y-73712565D02*
G01*
X172813538Y-73724296D01*
X172849177Y-73743346D01*
X172880417Y-73768983D01*
X172906054Y-73800223D01*
X172925104Y-73835862D01*
X172936835Y-73874532D01*
X172941400Y-73920888D01*
X172941400Y-74572112D01*
X172936835Y-74618468D01*
X172925104Y-74657138D01*
X172906054Y-74692777D01*
X172880417Y-74724017D01*
X172849177Y-74749654D01*
X172813538Y-74768704D01*
X172774868Y-74780435D01*
X172728512Y-74785000D01*
X171652288Y-74785000D01*
X171605932Y-74780435D01*
X171567262Y-74768704D01*
X171531623Y-74749654D01*
X171500383Y-74724017D01*
X171474746Y-74692777D01*
X171455696Y-74657138D01*
X171443965Y-74618468D01*
X171439400Y-74572112D01*
X171439400Y-73920888D01*
X171443965Y-73874532D01*
X171455696Y-73835862D01*
X171474746Y-73800223D01*
X171500383Y-73768983D01*
X171531623Y-73743346D01*
X171567262Y-73724296D01*
X171605932Y-73712565D01*
X171652288Y-73708000D01*
X172728512Y-73708000D01*
X172774868Y-73712565D01*
X172774868Y-73712565D01*
G37*
G36*
X175209468Y-73712565D02*
G01*
X175248138Y-73724296D01*
X175283777Y-73743346D01*
X175315017Y-73768983D01*
X175340654Y-73800223D01*
X175359704Y-73835862D01*
X175371435Y-73874532D01*
X175376000Y-73920888D01*
X175376000Y-74572112D01*
X175371435Y-74618468D01*
X175359704Y-74657138D01*
X175340654Y-74692777D01*
X175315017Y-74724017D01*
X175283777Y-74749654D01*
X175248138Y-74768704D01*
X175209468Y-74780435D01*
X175163112Y-74785000D01*
X174086888Y-74785000D01*
X174040532Y-74780435D01*
X174001862Y-74768704D01*
X173966223Y-74749654D01*
X173934983Y-74724017D01*
X173909346Y-74692777D01*
X173890296Y-74657138D01*
X173878565Y-74618468D01*
X173874000Y-74572112D01*
X173874000Y-73920888D01*
X173878565Y-73874532D01*
X173890296Y-73835862D01*
X173909346Y-73800223D01*
X173934983Y-73768983D01*
X173966223Y-73743346D01*
X174001862Y-73724296D01*
X174040532Y-73712565D01*
X174086888Y-73708000D01*
X175163112Y-73708000D01*
X175209468Y-73712565D01*
X175209468Y-73712565D01*
G37*
G36*
X162636468Y-73712565D02*
G01*
X162675138Y-73724296D01*
X162710777Y-73743346D01*
X162742017Y-73768983D01*
X162767654Y-73800223D01*
X162786704Y-73835862D01*
X162798435Y-73874532D01*
X162803000Y-73920888D01*
X162803000Y-74572112D01*
X162798435Y-74618468D01*
X162786704Y-74657138D01*
X162767654Y-74692777D01*
X162742017Y-74724017D01*
X162710777Y-74749654D01*
X162675138Y-74768704D01*
X162636468Y-74780435D01*
X162590112Y-74785000D01*
X161513888Y-74785000D01*
X161467532Y-74780435D01*
X161428862Y-74768704D01*
X161393223Y-74749654D01*
X161361983Y-74724017D01*
X161336346Y-74692777D01*
X161317296Y-74657138D01*
X161305565Y-74618468D01*
X161301000Y-74572112D01*
X161301000Y-73920888D01*
X161305565Y-73874532D01*
X161317296Y-73835862D01*
X161336346Y-73800223D01*
X161361983Y-73768983D01*
X161393223Y-73743346D01*
X161428862Y-73724296D01*
X161467532Y-73712565D01*
X161513888Y-73708000D01*
X162590112Y-73708000D01*
X162636468Y-73712565D01*
X162636468Y-73712565D01*
G37*
G36*
X167772200Y-74705000D02*
G01*
X166470200Y-74705000D01*
X166470200Y-73703000D01*
X167772200Y-73703000D01*
X167772200Y-74705000D01*
X167772200Y-74705000D01*
G37*
G36*
X207667000Y-74561000D02*
G01*
X206265000Y-74561000D01*
X206265000Y-72759000D01*
X207667000Y-72759000D01*
X207667000Y-74561000D01*
X207667000Y-74561000D01*
G37*
G36*
X204167000Y-74561000D02*
G01*
X202765000Y-74561000D01*
X202765000Y-72759000D01*
X204167000Y-72759000D01*
X204167000Y-74561000D01*
X204167000Y-74561000D01*
G37*
G36*
X143029000Y-74381266D02*
G01*
X139927000Y-74381266D01*
X139927000Y-71279266D01*
X143029000Y-71279266D01*
X143029000Y-74381266D01*
X143029000Y-74381266D01*
G37*
G36*
X188290468Y-72366365D02*
G01*
X188329138Y-72378096D01*
X188364777Y-72397146D01*
X188396017Y-72422783D01*
X188421654Y-72454023D01*
X188440704Y-72489662D01*
X188452435Y-72528332D01*
X188457000Y-72574688D01*
X188457000Y-73225912D01*
X188452435Y-73272268D01*
X188440704Y-73310938D01*
X188421654Y-73346577D01*
X188396017Y-73377817D01*
X188364777Y-73403454D01*
X188329138Y-73422504D01*
X188290468Y-73434235D01*
X188244112Y-73438800D01*
X187167888Y-73438800D01*
X187121532Y-73434235D01*
X187082862Y-73422504D01*
X187047223Y-73403454D01*
X187015983Y-73377817D01*
X186990346Y-73346577D01*
X186971296Y-73310938D01*
X186959565Y-73272268D01*
X186955000Y-73225912D01*
X186955000Y-72574688D01*
X186959565Y-72528332D01*
X186971296Y-72489662D01*
X186990346Y-72454023D01*
X187015983Y-72422783D01*
X187047223Y-72397146D01*
X187082862Y-72378096D01*
X187121532Y-72366365D01*
X187167888Y-72361800D01*
X188244112Y-72361800D01*
X188290468Y-72366365D01*
X188290468Y-72366365D01*
G37*
G36*
X178672442Y-70911318D02*
G01*
X178738627Y-70917837D01*
X178908466Y-70969357D01*
X179064991Y-71053022D01*
X179100729Y-71082352D01*
X179202186Y-71165614D01*
X179285448Y-71267071D01*
X179314778Y-71302809D01*
X179398443Y-71459334D01*
X179449963Y-71629173D01*
X179467359Y-71805800D01*
X179449963Y-71982427D01*
X179398443Y-72152266D01*
X179314778Y-72308791D01*
X179285448Y-72344529D01*
X179202186Y-72445986D01*
X179102236Y-72528012D01*
X179064991Y-72558578D01*
X179027679Y-72578522D01*
X178929407Y-72631050D01*
X178908466Y-72642243D01*
X178738627Y-72693763D01*
X178672443Y-72700281D01*
X178606260Y-72706800D01*
X178517740Y-72706800D01*
X178451557Y-72700281D01*
X178385373Y-72693763D01*
X178215534Y-72642243D01*
X178194594Y-72631050D01*
X178096321Y-72578522D01*
X178059009Y-72558578D01*
X178021764Y-72528012D01*
X177921814Y-72445986D01*
X177838552Y-72344529D01*
X177809222Y-72308791D01*
X177725557Y-72152266D01*
X177674037Y-71982427D01*
X177656641Y-71805800D01*
X177674037Y-71629173D01*
X177725557Y-71459334D01*
X177809222Y-71302809D01*
X177838552Y-71267071D01*
X177921814Y-71165614D01*
X178023271Y-71082352D01*
X178059009Y-71053022D01*
X178215534Y-70969357D01*
X178385373Y-70917837D01*
X178451558Y-70911318D01*
X178517740Y-70904800D01*
X178606260Y-70904800D01*
X178672442Y-70911318D01*
X178672442Y-70911318D01*
G37*
G36*
X181212442Y-70911318D02*
G01*
X181278627Y-70917837D01*
X181448466Y-70969357D01*
X181604991Y-71053022D01*
X181640729Y-71082352D01*
X181742186Y-71165614D01*
X181825448Y-71267071D01*
X181854778Y-71302809D01*
X181938443Y-71459334D01*
X181989963Y-71629173D01*
X182007359Y-71805800D01*
X181989963Y-71982427D01*
X181938443Y-72152266D01*
X181854778Y-72308791D01*
X181825448Y-72344529D01*
X181742186Y-72445986D01*
X181642236Y-72528012D01*
X181604991Y-72558578D01*
X181567679Y-72578522D01*
X181469407Y-72631050D01*
X181448466Y-72642243D01*
X181278627Y-72693763D01*
X181212443Y-72700281D01*
X181146260Y-72706800D01*
X181057740Y-72706800D01*
X180991557Y-72700281D01*
X180925373Y-72693763D01*
X180755534Y-72642243D01*
X180734594Y-72631050D01*
X180636321Y-72578522D01*
X180599009Y-72558578D01*
X180561764Y-72528012D01*
X180461814Y-72445986D01*
X180378552Y-72344529D01*
X180349222Y-72308791D01*
X180265557Y-72152266D01*
X180214037Y-71982427D01*
X180196641Y-71805800D01*
X180214037Y-71629173D01*
X180265557Y-71459334D01*
X180349222Y-71302809D01*
X180378552Y-71267071D01*
X180461814Y-71165614D01*
X180563271Y-71082352D01*
X180599009Y-71053022D01*
X180755534Y-70969357D01*
X180925373Y-70917837D01*
X180991558Y-70911318D01*
X181057740Y-70904800D01*
X181146260Y-70904800D01*
X181212442Y-70911318D01*
X181212442Y-70911318D01*
G37*
G36*
X184543000Y-72706800D02*
G01*
X182741000Y-72706800D01*
X182741000Y-70904800D01*
X184543000Y-70904800D01*
X184543000Y-72706800D01*
X184543000Y-72706800D01*
G37*
G36*
X193454721Y-71529974D02*
G01*
X193554995Y-71571509D01*
X193554996Y-71571510D01*
X193645242Y-71631810D01*
X193721990Y-71708558D01*
X193721991Y-71708560D01*
X193782291Y-71798805D01*
X193823826Y-71899079D01*
X193845000Y-72005530D01*
X193845000Y-72114070D01*
X193823826Y-72220521D01*
X193782291Y-72320795D01*
X193782290Y-72320796D01*
X193721990Y-72411042D01*
X193645242Y-72487790D01*
X193642440Y-72489662D01*
X193554995Y-72548091D01*
X193454721Y-72589626D01*
X193348270Y-72610800D01*
X193239730Y-72610800D01*
X193133279Y-72589626D01*
X193033005Y-72548091D01*
X192945560Y-72489662D01*
X192942758Y-72487790D01*
X192866010Y-72411042D01*
X192805710Y-72320796D01*
X192805709Y-72320795D01*
X192764174Y-72220521D01*
X192743000Y-72114070D01*
X192743000Y-72005530D01*
X192764174Y-71899079D01*
X192805709Y-71798805D01*
X192866009Y-71708560D01*
X192866010Y-71708558D01*
X192942758Y-71631810D01*
X193033004Y-71571510D01*
X193033005Y-71571509D01*
X193133279Y-71529974D01*
X193239730Y-71508800D01*
X193348270Y-71508800D01*
X193454721Y-71529974D01*
X193454721Y-71529974D01*
G37*
G36*
X195486721Y-71529974D02*
G01*
X195586995Y-71571509D01*
X195586996Y-71571510D01*
X195677242Y-71631810D01*
X195753990Y-71708558D01*
X195753991Y-71708560D01*
X195814291Y-71798805D01*
X195855826Y-71899079D01*
X195877000Y-72005530D01*
X195877000Y-72114070D01*
X195855826Y-72220521D01*
X195814291Y-72320795D01*
X195814290Y-72320796D01*
X195753990Y-72411042D01*
X195677242Y-72487790D01*
X195674440Y-72489662D01*
X195586995Y-72548091D01*
X195486721Y-72589626D01*
X195380270Y-72610800D01*
X195271730Y-72610800D01*
X195165279Y-72589626D01*
X195065005Y-72548091D01*
X194977560Y-72489662D01*
X194974758Y-72487790D01*
X194898010Y-72411042D01*
X194837710Y-72320796D01*
X194837709Y-72320795D01*
X194796174Y-72220521D01*
X194775000Y-72114070D01*
X194775000Y-72005530D01*
X194796174Y-71899079D01*
X194837709Y-71798805D01*
X194898009Y-71708560D01*
X194898010Y-71708558D01*
X194974758Y-71631810D01*
X195065004Y-71571510D01*
X195065005Y-71571509D01*
X195165279Y-71529974D01*
X195271730Y-71508800D01*
X195380270Y-71508800D01*
X195486721Y-71529974D01*
X195486721Y-71529974D01*
G37*
G36*
X163187000Y-72425000D02*
G01*
X162185000Y-72425000D01*
X162185000Y-71523000D01*
X163187000Y-71523000D01*
X163187000Y-72425000D01*
X163187000Y-72425000D01*
G37*
G36*
X161187000Y-71475000D02*
G01*
X160185000Y-71475000D01*
X160185000Y-70573000D01*
X161187000Y-70573000D01*
X161187000Y-71475000D01*
X161187000Y-71475000D01*
G37*
G36*
X156569798Y-68148047D02*
G01*
X156605367Y-68158837D01*
X156638139Y-68176354D01*
X156666869Y-68199931D01*
X156690446Y-68228661D01*
X156707963Y-68261433D01*
X156718753Y-68297002D01*
X156723000Y-68340125D01*
X156723000Y-70699475D01*
X156718753Y-70742598D01*
X156707963Y-70778167D01*
X156690446Y-70810939D01*
X156666869Y-70839669D01*
X156638139Y-70863246D01*
X156605367Y-70880763D01*
X156569798Y-70891553D01*
X156526675Y-70895800D01*
X155467325Y-70895800D01*
X155424202Y-70891553D01*
X155388633Y-70880763D01*
X155355861Y-70863246D01*
X155327131Y-70839669D01*
X155303554Y-70810939D01*
X155286037Y-70778167D01*
X155275247Y-70742598D01*
X155271000Y-70699475D01*
X155271000Y-68340125D01*
X155275247Y-68297002D01*
X155286037Y-68261433D01*
X155303554Y-68228661D01*
X155327131Y-68199931D01*
X155355861Y-68176354D01*
X155388633Y-68158837D01*
X155424202Y-68148047D01*
X155467325Y-68143800D01*
X156526675Y-68143800D01*
X156569798Y-68148047D01*
X156569798Y-68148047D01*
G37*
G36*
X152069798Y-68148047D02*
G01*
X152105367Y-68158837D01*
X152138139Y-68176354D01*
X152166869Y-68199931D01*
X152190446Y-68228661D01*
X152207963Y-68261433D01*
X152218753Y-68297002D01*
X152223000Y-68340125D01*
X152223000Y-70699475D01*
X152218753Y-70742598D01*
X152207963Y-70778167D01*
X152190446Y-70810939D01*
X152166869Y-70839669D01*
X152138139Y-70863246D01*
X152105367Y-70880763D01*
X152069798Y-70891553D01*
X152026675Y-70895800D01*
X150967325Y-70895800D01*
X150924202Y-70891553D01*
X150888633Y-70880763D01*
X150855861Y-70863246D01*
X150827131Y-70839669D01*
X150803554Y-70810939D01*
X150786037Y-70778167D01*
X150775247Y-70742598D01*
X150771000Y-70699475D01*
X150771000Y-68340125D01*
X150775247Y-68297002D01*
X150786037Y-68261433D01*
X150803554Y-68228661D01*
X150827131Y-68199931D01*
X150855861Y-68176354D01*
X150888633Y-68158837D01*
X150924202Y-68148047D01*
X150967325Y-68143800D01*
X152026675Y-68143800D01*
X152069798Y-68148047D01*
X152069798Y-68148047D01*
G37*
G36*
X203367000Y-70797000D02*
G01*
X200765000Y-70797000D01*
X200765000Y-68395000D01*
X203367000Y-68395000D01*
X203367000Y-70797000D01*
X203367000Y-70797000D01*
G37*
G36*
X207667000Y-70797000D02*
G01*
X205065000Y-70797000D01*
X205065000Y-68395000D01*
X207667000Y-68395000D01*
X207667000Y-70797000D01*
X207667000Y-70797000D01*
G37*
G36*
X166771000Y-70734800D02*
G01*
X164919000Y-70734800D01*
X164919000Y-70082800D01*
X166771000Y-70082800D01*
X166771000Y-70734800D01*
X166771000Y-70734800D01*
G37*
G36*
X174171000Y-70734800D02*
G01*
X172319000Y-70734800D01*
X172319000Y-70082800D01*
X174171000Y-70082800D01*
X174171000Y-70734800D01*
X174171000Y-70734800D01*
G37*
G36*
X163187000Y-70525000D02*
G01*
X162185000Y-70525000D01*
X162185000Y-69623000D01*
X163187000Y-69623000D01*
X163187000Y-70525000D01*
X163187000Y-70525000D01*
G37*
G36*
X174171000Y-69464800D02*
G01*
X172319000Y-69464800D01*
X172319000Y-68812800D01*
X174171000Y-68812800D01*
X174171000Y-69464800D01*
X174171000Y-69464800D01*
G37*
G36*
X166771000Y-69464800D02*
G01*
X164919000Y-69464800D01*
X164919000Y-68812800D01*
X166771000Y-68812800D01*
X166771000Y-69464800D01*
X166771000Y-69464800D01*
G37*
G36*
X141763346Y-65277373D02*
G01*
X141930410Y-65310604D01*
X142212674Y-65427521D01*
X142466705Y-65597259D01*
X142682741Y-65813295D01*
X142852479Y-66067326D01*
X142969396Y-66349590D01*
X143029000Y-66649240D01*
X143029000Y-66954760D01*
X142969396Y-67254410D01*
X142852479Y-67536674D01*
X142682741Y-67790705D01*
X142466705Y-68006741D01*
X142212674Y-68176479D01*
X141930410Y-68293396D01*
X141780585Y-68323198D01*
X141630761Y-68353000D01*
X141325239Y-68353000D01*
X141175415Y-68323198D01*
X141025590Y-68293396D01*
X140743326Y-68176479D01*
X140489295Y-68006741D01*
X140273259Y-67790705D01*
X140103521Y-67536674D01*
X139986604Y-67254410D01*
X139927000Y-66954760D01*
X139927000Y-66649240D01*
X139986604Y-66349590D01*
X140103521Y-66067326D01*
X140273259Y-65813295D01*
X140489295Y-65597259D01*
X140743326Y-65427521D01*
X141025590Y-65310604D01*
X141192654Y-65277373D01*
X141325239Y-65251000D01*
X141630761Y-65251000D01*
X141763346Y-65277373D01*
X141763346Y-65277373D01*
G37*
G36*
X163187000Y-68234000D02*
G01*
X162185000Y-68234000D01*
X162185000Y-67332000D01*
X163187000Y-67332000D01*
X163187000Y-68234000D01*
X163187000Y-68234000D01*
G37*
G36*
X174171000Y-68194800D02*
G01*
X172319000Y-68194800D01*
X172319000Y-67542800D01*
X174171000Y-67542800D01*
X174171000Y-68194800D01*
X174171000Y-68194800D01*
G37*
G36*
X166771000Y-68194800D02*
G01*
X164919000Y-68194800D01*
X164919000Y-67542800D01*
X166771000Y-67542800D01*
X166771000Y-68194800D01*
X166771000Y-68194800D01*
G37*
G36*
X193866468Y-66055565D02*
G01*
X193905138Y-66067296D01*
X193940777Y-66086346D01*
X193972017Y-66111983D01*
X193997654Y-66143223D01*
X194016704Y-66178862D01*
X194028435Y-66217532D01*
X194033000Y-66263888D01*
X194033000Y-67340112D01*
X194028435Y-67386468D01*
X194016704Y-67425138D01*
X193997654Y-67460777D01*
X193972017Y-67492017D01*
X193940777Y-67517654D01*
X193905138Y-67536704D01*
X193866468Y-67548435D01*
X193820112Y-67553000D01*
X193168888Y-67553000D01*
X193122532Y-67548435D01*
X193083862Y-67536704D01*
X193048223Y-67517654D01*
X193016983Y-67492017D01*
X192991346Y-67460777D01*
X192972296Y-67425138D01*
X192960565Y-67386468D01*
X192956000Y-67340112D01*
X192956000Y-66263888D01*
X192960565Y-66217532D01*
X192972296Y-66178862D01*
X192991346Y-66143223D01*
X193016983Y-66111983D01*
X193048223Y-66086346D01*
X193083862Y-66067296D01*
X193122532Y-66055565D01*
X193168888Y-66051000D01*
X193820112Y-66051000D01*
X193866468Y-66055565D01*
X193866468Y-66055565D01*
G37*
G36*
X195741468Y-66055565D02*
G01*
X195780138Y-66067296D01*
X195815777Y-66086346D01*
X195847017Y-66111983D01*
X195872654Y-66143223D01*
X195891704Y-66178862D01*
X195903435Y-66217532D01*
X195908000Y-66263888D01*
X195908000Y-67340112D01*
X195903435Y-67386468D01*
X195891704Y-67425138D01*
X195872654Y-67460777D01*
X195847017Y-67492017D01*
X195815777Y-67517654D01*
X195780138Y-67536704D01*
X195741468Y-67548435D01*
X195695112Y-67553000D01*
X195043888Y-67553000D01*
X194997532Y-67548435D01*
X194958862Y-67536704D01*
X194923223Y-67517654D01*
X194891983Y-67492017D01*
X194866346Y-67460777D01*
X194847296Y-67425138D01*
X194835565Y-67386468D01*
X194831000Y-67340112D01*
X194831000Y-66263888D01*
X194835565Y-66217532D01*
X194847296Y-66178862D01*
X194866346Y-66143223D01*
X194891983Y-66111983D01*
X194923223Y-66086346D01*
X194958862Y-66067296D01*
X194997532Y-66055565D01*
X195043888Y-66051000D01*
X195695112Y-66051000D01*
X195741468Y-66055565D01*
X195741468Y-66055565D01*
G37*
G36*
X181095589Y-65786876D02*
G01*
X181194893Y-65806629D01*
X181335206Y-65864748D01*
X181461484Y-65949125D01*
X181568875Y-66056516D01*
X181653252Y-66182794D01*
X181711371Y-66323107D01*
X181741000Y-66472063D01*
X181741000Y-66623937D01*
X181711371Y-66772893D01*
X181653252Y-66913206D01*
X181568875Y-67039484D01*
X181461484Y-67146875D01*
X181335206Y-67231252D01*
X181194893Y-67289371D01*
X181095589Y-67309124D01*
X181045938Y-67319000D01*
X180894062Y-67319000D01*
X180844411Y-67309124D01*
X180745107Y-67289371D01*
X180604794Y-67231252D01*
X180478516Y-67146875D01*
X180371125Y-67039484D01*
X180286748Y-66913206D01*
X180228629Y-66772893D01*
X180199000Y-66623937D01*
X180199000Y-66472063D01*
X180228629Y-66323107D01*
X180286748Y-66182794D01*
X180371125Y-66056516D01*
X180478516Y-65949125D01*
X180604794Y-65864748D01*
X180745107Y-65806629D01*
X180844411Y-65786876D01*
X180894062Y-65777000D01*
X181045938Y-65777000D01*
X181095589Y-65786876D01*
X181095589Y-65786876D01*
G37*
G36*
X186937589Y-65786876D02*
G01*
X187036893Y-65806629D01*
X187177206Y-65864748D01*
X187303484Y-65949125D01*
X187410875Y-66056516D01*
X187495252Y-66182794D01*
X187553371Y-66323107D01*
X187583000Y-66472063D01*
X187583000Y-66623937D01*
X187553371Y-66772893D01*
X187495252Y-66913206D01*
X187410875Y-67039484D01*
X187303484Y-67146875D01*
X187177206Y-67231252D01*
X187036893Y-67289371D01*
X186937589Y-67309124D01*
X186887938Y-67319000D01*
X186736062Y-67319000D01*
X186686411Y-67309124D01*
X186587107Y-67289371D01*
X186446794Y-67231252D01*
X186320516Y-67146875D01*
X186213125Y-67039484D01*
X186128748Y-66913206D01*
X186070629Y-66772893D01*
X186041000Y-66623937D01*
X186041000Y-66472063D01*
X186070629Y-66323107D01*
X186128748Y-66182794D01*
X186213125Y-66056516D01*
X186320516Y-65949125D01*
X186446794Y-65864748D01*
X186587107Y-65806629D01*
X186686411Y-65786876D01*
X186736062Y-65777000D01*
X186887938Y-65777000D01*
X186937589Y-65786876D01*
X186937589Y-65786876D01*
G37*
G36*
X161187000Y-67284000D02*
G01*
X160185000Y-67284000D01*
X160185000Y-66382000D01*
X161187000Y-66382000D01*
X161187000Y-67284000D01*
X161187000Y-67284000D01*
G37*
G36*
X174171000Y-66924800D02*
G01*
X172319000Y-66924800D01*
X172319000Y-66272800D01*
X174171000Y-66272800D01*
X174171000Y-66924800D01*
X174171000Y-66924800D01*
G37*
G36*
X166771000Y-66924800D02*
G01*
X164919000Y-66924800D01*
X164919000Y-66272800D01*
X166771000Y-66272800D01*
X166771000Y-66924800D01*
X166771000Y-66924800D01*
G37*
G36*
X163187000Y-66334000D02*
G01*
X162185000Y-66334000D01*
X162185000Y-65432000D01*
X163187000Y-65432000D01*
X163187000Y-66334000D01*
X163187000Y-66334000D01*
G37*
G36*
X156728000Y-66270800D02*
G01*
X154626000Y-66270800D01*
X154626000Y-64668800D01*
X156728000Y-64668800D01*
X156728000Y-66270800D01*
X156728000Y-66270800D01*
G37*
G36*
X193866468Y-63825315D02*
G01*
X193905138Y-63837046D01*
X193940777Y-63856096D01*
X193972017Y-63881733D01*
X193997654Y-63912973D01*
X194016704Y-63948612D01*
X194028435Y-63987282D01*
X194033000Y-64033638D01*
X194033000Y-65109862D01*
X194028435Y-65156218D01*
X194016704Y-65194888D01*
X193997654Y-65230527D01*
X193972017Y-65261767D01*
X193940777Y-65287404D01*
X193905138Y-65306454D01*
X193866468Y-65318185D01*
X193820112Y-65322750D01*
X193168888Y-65322750D01*
X193122532Y-65318185D01*
X193083862Y-65306454D01*
X193048223Y-65287404D01*
X193016983Y-65261767D01*
X192991346Y-65230527D01*
X192972296Y-65194888D01*
X192960565Y-65156218D01*
X192956000Y-65109862D01*
X192956000Y-64033638D01*
X192960565Y-63987282D01*
X192972296Y-63948612D01*
X192991346Y-63912973D01*
X193016983Y-63881733D01*
X193048223Y-63856096D01*
X193083862Y-63837046D01*
X193122532Y-63825315D01*
X193168888Y-63820750D01*
X193820112Y-63820750D01*
X193866468Y-63825315D01*
X193866468Y-63825315D01*
G37*
G36*
X195741468Y-63825315D02*
G01*
X195780138Y-63837046D01*
X195815777Y-63856096D01*
X195847017Y-63881733D01*
X195872654Y-63912973D01*
X195891704Y-63948612D01*
X195903435Y-63987282D01*
X195908000Y-64033638D01*
X195908000Y-65109862D01*
X195903435Y-65156218D01*
X195891704Y-65194888D01*
X195872654Y-65230527D01*
X195847017Y-65261767D01*
X195815777Y-65287404D01*
X195780138Y-65306454D01*
X195741468Y-65318185D01*
X195695112Y-65322750D01*
X195043888Y-65322750D01*
X194997532Y-65318185D01*
X194958862Y-65306454D01*
X194923223Y-65287404D01*
X194891983Y-65261767D01*
X194866346Y-65230527D01*
X194847296Y-65194888D01*
X194835565Y-65156218D01*
X194831000Y-65109862D01*
X194831000Y-64033638D01*
X194835565Y-63987282D01*
X194847296Y-63948612D01*
X194866346Y-63912973D01*
X194891983Y-63881733D01*
X194923223Y-63856096D01*
X194958862Y-63837046D01*
X194997532Y-63825315D01*
X195043888Y-63820750D01*
X195695112Y-63820750D01*
X195741468Y-63825315D01*
X195741468Y-63825315D01*
G37*
G36*
X150428000Y-65120800D02*
G01*
X148326000Y-65120800D01*
X148326000Y-61218800D01*
X150428000Y-61218800D01*
X150428000Y-65120800D01*
X150428000Y-65120800D01*
G37*
G36*
X186937589Y-63246876D02*
G01*
X187036893Y-63266629D01*
X187177206Y-63324748D01*
X187303484Y-63409125D01*
X187410875Y-63516516D01*
X187495252Y-63642794D01*
X187553371Y-63783107D01*
X187583000Y-63932063D01*
X187583000Y-64083937D01*
X187553371Y-64232893D01*
X187495252Y-64373206D01*
X187410875Y-64499484D01*
X187303484Y-64606875D01*
X187177206Y-64691252D01*
X187036893Y-64749371D01*
X186937589Y-64769124D01*
X186887938Y-64779000D01*
X186736062Y-64779000D01*
X186686411Y-64769124D01*
X186587107Y-64749371D01*
X186446794Y-64691252D01*
X186320516Y-64606875D01*
X186213125Y-64499484D01*
X186128748Y-64373206D01*
X186070629Y-64232893D01*
X186041000Y-64083937D01*
X186041000Y-63932063D01*
X186070629Y-63783107D01*
X186128748Y-63642794D01*
X186213125Y-63516516D01*
X186320516Y-63409125D01*
X186446794Y-63324748D01*
X186587107Y-63266629D01*
X186686411Y-63246876D01*
X186736062Y-63237000D01*
X186887938Y-63237000D01*
X186937589Y-63246876D01*
X186937589Y-63246876D01*
G37*
G36*
X181095589Y-63246876D02*
G01*
X181194893Y-63266629D01*
X181335206Y-63324748D01*
X181461484Y-63409125D01*
X181568875Y-63516516D01*
X181653252Y-63642794D01*
X181711371Y-63783107D01*
X181741000Y-63932063D01*
X181741000Y-64083937D01*
X181711371Y-64232893D01*
X181653252Y-64373206D01*
X181568875Y-64499484D01*
X181461484Y-64606875D01*
X181335206Y-64691252D01*
X181194893Y-64749371D01*
X181095589Y-64769124D01*
X181045938Y-64779000D01*
X180894062Y-64779000D01*
X180844411Y-64769124D01*
X180745107Y-64749371D01*
X180604794Y-64691252D01*
X180478516Y-64606875D01*
X180371125Y-64499484D01*
X180286748Y-64373206D01*
X180228629Y-64232893D01*
X180199000Y-64083937D01*
X180199000Y-63932063D01*
X180228629Y-63783107D01*
X180286748Y-63642794D01*
X180371125Y-63516516D01*
X180478516Y-63409125D01*
X180604794Y-63324748D01*
X180745107Y-63266629D01*
X180844411Y-63246876D01*
X180894062Y-63237000D01*
X181045938Y-63237000D01*
X181095589Y-63246876D01*
X181095589Y-63246876D01*
G37*
G36*
X164483000Y-64397000D02*
G01*
X163931000Y-64397000D01*
X163931000Y-63695000D01*
X164483000Y-63695000D01*
X164483000Y-64397000D01*
X164483000Y-64397000D01*
G37*
G36*
X167332468Y-63319565D02*
G01*
X167371138Y-63331296D01*
X167406777Y-63350346D01*
X167438017Y-63375983D01*
X167463654Y-63407223D01*
X167482704Y-63442862D01*
X167494435Y-63481532D01*
X167499000Y-63527888D01*
X167499000Y-64179112D01*
X167494435Y-64225468D01*
X167482704Y-64264138D01*
X167463654Y-64299777D01*
X167438017Y-64331017D01*
X167406777Y-64356654D01*
X167371138Y-64375704D01*
X167332468Y-64387435D01*
X167286112Y-64392000D01*
X166209888Y-64392000D01*
X166163532Y-64387435D01*
X166124862Y-64375704D01*
X166089223Y-64356654D01*
X166057983Y-64331017D01*
X166032346Y-64299777D01*
X166013296Y-64264138D01*
X166001565Y-64225468D01*
X165997000Y-64179112D01*
X165997000Y-63527888D01*
X166001565Y-63481532D01*
X166013296Y-63442862D01*
X166032346Y-63407223D01*
X166057983Y-63375983D01*
X166089223Y-63350346D01*
X166124862Y-63331296D01*
X166163532Y-63319565D01*
X166209888Y-63315000D01*
X167286112Y-63315000D01*
X167332468Y-63319565D01*
X167332468Y-63319565D01*
G37*
G36*
X162250468Y-63319565D02*
G01*
X162289138Y-63331296D01*
X162324777Y-63350346D01*
X162356017Y-63375983D01*
X162381654Y-63407223D01*
X162400704Y-63442862D01*
X162412435Y-63481532D01*
X162417000Y-63527888D01*
X162417000Y-64179112D01*
X162412435Y-64225468D01*
X162400704Y-64264138D01*
X162381654Y-64299777D01*
X162356017Y-64331017D01*
X162324777Y-64356654D01*
X162289138Y-64375704D01*
X162250468Y-64387435D01*
X162204112Y-64392000D01*
X161127888Y-64392000D01*
X161081532Y-64387435D01*
X161042862Y-64375704D01*
X161007223Y-64356654D01*
X160975983Y-64331017D01*
X160950346Y-64299777D01*
X160931296Y-64264138D01*
X160919565Y-64225468D01*
X160915000Y-64179112D01*
X160915000Y-63527888D01*
X160919565Y-63481532D01*
X160931296Y-63442862D01*
X160950346Y-63407223D01*
X160975983Y-63375983D01*
X161007223Y-63350346D01*
X161042862Y-63331296D01*
X161081532Y-63319565D01*
X161127888Y-63315000D01*
X162204112Y-63315000D01*
X162250468Y-63319565D01*
X162250468Y-63319565D01*
G37*
G36*
X169873468Y-63319565D02*
G01*
X169912138Y-63331296D01*
X169947777Y-63350346D01*
X169979017Y-63375983D01*
X170004654Y-63407223D01*
X170023704Y-63442862D01*
X170035435Y-63481532D01*
X170040000Y-63527888D01*
X170040000Y-64179112D01*
X170035435Y-64225468D01*
X170023704Y-64264138D01*
X170004654Y-64299777D01*
X169979017Y-64331017D01*
X169947777Y-64356654D01*
X169912138Y-64375704D01*
X169873468Y-64387435D01*
X169827112Y-64392000D01*
X168750888Y-64392000D01*
X168704532Y-64387435D01*
X168665862Y-64375704D01*
X168630223Y-64356654D01*
X168598983Y-64331017D01*
X168573346Y-64299777D01*
X168554296Y-64264138D01*
X168542565Y-64225468D01*
X168538000Y-64179112D01*
X168538000Y-63527888D01*
X168542565Y-63481532D01*
X168554296Y-63442862D01*
X168573346Y-63407223D01*
X168598983Y-63375983D01*
X168630223Y-63350346D01*
X168665862Y-63331296D01*
X168704532Y-63319565D01*
X168750888Y-63315000D01*
X169827112Y-63315000D01*
X169873468Y-63319565D01*
X169873468Y-63319565D01*
G37*
G36*
X172414468Y-63319565D02*
G01*
X172453138Y-63331296D01*
X172488777Y-63350346D01*
X172520017Y-63375983D01*
X172545654Y-63407223D01*
X172564704Y-63442862D01*
X172576435Y-63481532D01*
X172581000Y-63527888D01*
X172581000Y-64179112D01*
X172576435Y-64225468D01*
X172564704Y-64264138D01*
X172545654Y-64299777D01*
X172520017Y-64331017D01*
X172488777Y-64356654D01*
X172453138Y-64375704D01*
X172414468Y-64387435D01*
X172368112Y-64392000D01*
X171291888Y-64392000D01*
X171245532Y-64387435D01*
X171206862Y-64375704D01*
X171171223Y-64356654D01*
X171139983Y-64331017D01*
X171114346Y-64299777D01*
X171095296Y-64264138D01*
X171083565Y-64225468D01*
X171079000Y-64179112D01*
X171079000Y-63527888D01*
X171083565Y-63481532D01*
X171095296Y-63442862D01*
X171114346Y-63407223D01*
X171139983Y-63375983D01*
X171171223Y-63350346D01*
X171206862Y-63331296D01*
X171245532Y-63319565D01*
X171291888Y-63315000D01*
X172368112Y-63315000D01*
X172414468Y-63319565D01*
X172414468Y-63319565D01*
G37*
G36*
X174955468Y-63319565D02*
G01*
X174994138Y-63331296D01*
X175029777Y-63350346D01*
X175061017Y-63375983D01*
X175086654Y-63407223D01*
X175105704Y-63442862D01*
X175117435Y-63481532D01*
X175122000Y-63527888D01*
X175122000Y-64179112D01*
X175117435Y-64225468D01*
X175105704Y-64264138D01*
X175086654Y-64299777D01*
X175061017Y-64331017D01*
X175029777Y-64356654D01*
X174994138Y-64375704D01*
X174955468Y-64387435D01*
X174909112Y-64392000D01*
X173832888Y-64392000D01*
X173786532Y-64387435D01*
X173747862Y-64375704D01*
X173712223Y-64356654D01*
X173680983Y-64331017D01*
X173655346Y-64299777D01*
X173636296Y-64264138D01*
X173624565Y-64225468D01*
X173620000Y-64179112D01*
X173620000Y-63527888D01*
X173624565Y-63481532D01*
X173636296Y-63442862D01*
X173655346Y-63407223D01*
X173680983Y-63375983D01*
X173712223Y-63350346D01*
X173747862Y-63331296D01*
X173786532Y-63319565D01*
X173832888Y-63315000D01*
X174909112Y-63315000D01*
X174955468Y-63319565D01*
X174955468Y-63319565D01*
G37*
G36*
X200341000Y-63973000D02*
G01*
X198439000Y-63973000D01*
X198439000Y-59471000D01*
X200341000Y-59471000D01*
X200341000Y-63973000D01*
X200341000Y-63973000D01*
G37*
G36*
X156728000Y-63970800D02*
G01*
X154626000Y-63970800D01*
X154626000Y-62368800D01*
X156728000Y-62368800D01*
X156728000Y-63970800D01*
X156728000Y-63970800D01*
G37*
G36*
X205376424Y-59684760D02*
G01*
X205376427Y-59684761D01*
X205376428Y-59684761D01*
X205555692Y-59739140D01*
X205555695Y-59739142D01*
X205555696Y-59739142D01*
X205720903Y-59827446D01*
X205865712Y-59946288D01*
X205984554Y-60091097D01*
X206072858Y-60256303D01*
X206072860Y-60256307D01*
X206072860Y-60256308D01*
X206127240Y-60435575D01*
X206141000Y-60575282D01*
X206141000Y-62868718D01*
X206127240Y-63008425D01*
X206127239Y-63008428D01*
X206127239Y-63008429D01*
X206072860Y-63187693D01*
X206072858Y-63187696D01*
X206072858Y-63187697D01*
X205984554Y-63352903D01*
X205865712Y-63497712D01*
X205720903Y-63616554D01*
X205574140Y-63695000D01*
X205555693Y-63704860D01*
X205376429Y-63759239D01*
X205376428Y-63759239D01*
X205376425Y-63759240D01*
X205190000Y-63777601D01*
X205003576Y-63759240D01*
X205003573Y-63759239D01*
X205003572Y-63759239D01*
X204824308Y-63704860D01*
X204805861Y-63695000D01*
X204659098Y-63616554D01*
X204514289Y-63497712D01*
X204395447Y-63352903D01*
X204307143Y-63187697D01*
X204307143Y-63187696D01*
X204307141Y-63187693D01*
X204252762Y-63008429D01*
X204252762Y-63008428D01*
X204252761Y-63008425D01*
X204239001Y-62868718D01*
X204239000Y-60575283D01*
X204252760Y-60435576D01*
X204252761Y-60435572D01*
X204307140Y-60256308D01*
X204307143Y-60256303D01*
X204395446Y-60091097D01*
X204514288Y-59946288D01*
X204659097Y-59827446D01*
X204824303Y-59739142D01*
X204824304Y-59739142D01*
X204824307Y-59739140D01*
X205003571Y-59684761D01*
X205003572Y-59684761D01*
X205003575Y-59684760D01*
X205190000Y-59666399D01*
X205376424Y-59684760D01*
X205376424Y-59684760D01*
G37*
G36*
X143029000Y-63273000D02*
G01*
X139927000Y-63273000D01*
X139927000Y-60171000D01*
X143029000Y-60171000D01*
X143029000Y-63273000D01*
X143029000Y-63273000D01*
G37*
G36*
X195741468Y-61595065D02*
G01*
X195780138Y-61606796D01*
X195815777Y-61625846D01*
X195847017Y-61651483D01*
X195872654Y-61682723D01*
X195891704Y-61718362D01*
X195903435Y-61757032D01*
X195908000Y-61803388D01*
X195908000Y-62879612D01*
X195903435Y-62925968D01*
X195891704Y-62964638D01*
X195872654Y-63000277D01*
X195847017Y-63031517D01*
X195815777Y-63057154D01*
X195780138Y-63076204D01*
X195741468Y-63087935D01*
X195695112Y-63092500D01*
X195043888Y-63092500D01*
X194997532Y-63087935D01*
X194958862Y-63076204D01*
X194923223Y-63057154D01*
X194891983Y-63031517D01*
X194866346Y-63000277D01*
X194847296Y-62964638D01*
X194835565Y-62925968D01*
X194831000Y-62879612D01*
X194831000Y-61803388D01*
X194835565Y-61757032D01*
X194847296Y-61718362D01*
X194866346Y-61682723D01*
X194891983Y-61651483D01*
X194923223Y-61625846D01*
X194958862Y-61606796D01*
X194997532Y-61595065D01*
X195043888Y-61590500D01*
X195695112Y-61590500D01*
X195741468Y-61595065D01*
X195741468Y-61595065D01*
G37*
G36*
X193866468Y-61595065D02*
G01*
X193905138Y-61606796D01*
X193940777Y-61625846D01*
X193972017Y-61651483D01*
X193997654Y-61682723D01*
X194016704Y-61718362D01*
X194028435Y-61757032D01*
X194033000Y-61803388D01*
X194033000Y-62879612D01*
X194028435Y-62925968D01*
X194016704Y-62964638D01*
X193997654Y-63000277D01*
X193972017Y-63031517D01*
X193940777Y-63057154D01*
X193905138Y-63076204D01*
X193866468Y-63087935D01*
X193820112Y-63092500D01*
X193168888Y-63092500D01*
X193122532Y-63087935D01*
X193083862Y-63076204D01*
X193048223Y-63057154D01*
X193016983Y-63031517D01*
X192991346Y-63000277D01*
X192972296Y-62964638D01*
X192960565Y-62925968D01*
X192956000Y-62879612D01*
X192956000Y-61803388D01*
X192960565Y-61757032D01*
X192972296Y-61718362D01*
X192991346Y-61682723D01*
X193016983Y-61651483D01*
X193048223Y-61625846D01*
X193083862Y-61606796D01*
X193122532Y-61595065D01*
X193168888Y-61590500D01*
X193820112Y-61590500D01*
X193866468Y-61595065D01*
X193866468Y-61595065D01*
G37*
G36*
X172414468Y-61444565D02*
G01*
X172453138Y-61456296D01*
X172488777Y-61475346D01*
X172520017Y-61500983D01*
X172545654Y-61532223D01*
X172564704Y-61567862D01*
X172576435Y-61606532D01*
X172581000Y-61652888D01*
X172581000Y-62304112D01*
X172576435Y-62350468D01*
X172564704Y-62389138D01*
X172545654Y-62424777D01*
X172520017Y-62456017D01*
X172488777Y-62481654D01*
X172453138Y-62500704D01*
X172414468Y-62512435D01*
X172368112Y-62517000D01*
X171291888Y-62517000D01*
X171245532Y-62512435D01*
X171206862Y-62500704D01*
X171171223Y-62481654D01*
X171139983Y-62456017D01*
X171114346Y-62424777D01*
X171095296Y-62389138D01*
X171083565Y-62350468D01*
X171079000Y-62304112D01*
X171079000Y-61652888D01*
X171083565Y-61606532D01*
X171095296Y-61567862D01*
X171114346Y-61532223D01*
X171139983Y-61500983D01*
X171171223Y-61475346D01*
X171206862Y-61456296D01*
X171245532Y-61444565D01*
X171291888Y-61440000D01*
X172368112Y-61440000D01*
X172414468Y-61444565D01*
X172414468Y-61444565D01*
G37*
G36*
X174955468Y-61444565D02*
G01*
X174994138Y-61456296D01*
X175029777Y-61475346D01*
X175061017Y-61500983D01*
X175086654Y-61532223D01*
X175105704Y-61567862D01*
X175117435Y-61606532D01*
X175122000Y-61652888D01*
X175122000Y-62304112D01*
X175117435Y-62350468D01*
X175105704Y-62389138D01*
X175086654Y-62424777D01*
X175061017Y-62456017D01*
X175029777Y-62481654D01*
X174994138Y-62500704D01*
X174955468Y-62512435D01*
X174909112Y-62517000D01*
X173832888Y-62517000D01*
X173786532Y-62512435D01*
X173747862Y-62500704D01*
X173712223Y-62481654D01*
X173680983Y-62456017D01*
X173655346Y-62424777D01*
X173636296Y-62389138D01*
X173624565Y-62350468D01*
X173620000Y-62304112D01*
X173620000Y-61652888D01*
X173624565Y-61606532D01*
X173636296Y-61567862D01*
X173655346Y-61532223D01*
X173680983Y-61500983D01*
X173712223Y-61475346D01*
X173747862Y-61456296D01*
X173786532Y-61444565D01*
X173832888Y-61440000D01*
X174909112Y-61440000D01*
X174955468Y-61444565D01*
X174955468Y-61444565D01*
G37*
G36*
X169873468Y-61444565D02*
G01*
X169912138Y-61456296D01*
X169947777Y-61475346D01*
X169979017Y-61500983D01*
X170004654Y-61532223D01*
X170023704Y-61567862D01*
X170035435Y-61606532D01*
X170040000Y-61652888D01*
X170040000Y-62304112D01*
X170035435Y-62350468D01*
X170023704Y-62389138D01*
X170004654Y-62424777D01*
X169979017Y-62456017D01*
X169947777Y-62481654D01*
X169912138Y-62500704D01*
X169873468Y-62512435D01*
X169827112Y-62517000D01*
X168750888Y-62517000D01*
X168704532Y-62512435D01*
X168665862Y-62500704D01*
X168630223Y-62481654D01*
X168598983Y-62456017D01*
X168573346Y-62424777D01*
X168554296Y-62389138D01*
X168542565Y-62350468D01*
X168538000Y-62304112D01*
X168538000Y-61652888D01*
X168542565Y-61606532D01*
X168554296Y-61567862D01*
X168573346Y-61532223D01*
X168598983Y-61500983D01*
X168630223Y-61475346D01*
X168665862Y-61456296D01*
X168704532Y-61444565D01*
X168750888Y-61440000D01*
X169827112Y-61440000D01*
X169873468Y-61444565D01*
X169873468Y-61444565D01*
G37*
G36*
X162250468Y-61444565D02*
G01*
X162289138Y-61456296D01*
X162324777Y-61475346D01*
X162356017Y-61500983D01*
X162381654Y-61532223D01*
X162400704Y-61567862D01*
X162412435Y-61606532D01*
X162417000Y-61652888D01*
X162417000Y-62304112D01*
X162412435Y-62350468D01*
X162400704Y-62389138D01*
X162381654Y-62424777D01*
X162356017Y-62456017D01*
X162324777Y-62481654D01*
X162289138Y-62500704D01*
X162250468Y-62512435D01*
X162204112Y-62517000D01*
X161127888Y-62517000D01*
X161081532Y-62512435D01*
X161042862Y-62500704D01*
X161007223Y-62481654D01*
X160975983Y-62456017D01*
X160950346Y-62424777D01*
X160931296Y-62389138D01*
X160919565Y-62350468D01*
X160915000Y-62304112D01*
X160915000Y-61652888D01*
X160919565Y-61606532D01*
X160931296Y-61567862D01*
X160950346Y-61532223D01*
X160975983Y-61500983D01*
X161007223Y-61475346D01*
X161042862Y-61456296D01*
X161081532Y-61444565D01*
X161127888Y-61440000D01*
X162204112Y-61440000D01*
X162250468Y-61444565D01*
X162250468Y-61444565D01*
G37*
G36*
X167332468Y-61444565D02*
G01*
X167371138Y-61456296D01*
X167406777Y-61475346D01*
X167438017Y-61500983D01*
X167463654Y-61532223D01*
X167482704Y-61567862D01*
X167494435Y-61606532D01*
X167499000Y-61652888D01*
X167499000Y-62304112D01*
X167494435Y-62350468D01*
X167482704Y-62389138D01*
X167463654Y-62424777D01*
X167438017Y-62456017D01*
X167406777Y-62481654D01*
X167371138Y-62500704D01*
X167332468Y-62512435D01*
X167286112Y-62517000D01*
X166209888Y-62517000D01*
X166163532Y-62512435D01*
X166124862Y-62500704D01*
X166089223Y-62481654D01*
X166057983Y-62456017D01*
X166032346Y-62424777D01*
X166013296Y-62389138D01*
X166001565Y-62350468D01*
X165997000Y-62304112D01*
X165997000Y-61652888D01*
X166001565Y-61606532D01*
X166013296Y-61567862D01*
X166032346Y-61532223D01*
X166057983Y-61500983D01*
X166089223Y-61475346D01*
X166124862Y-61456296D01*
X166163532Y-61444565D01*
X166209888Y-61440000D01*
X167286112Y-61440000D01*
X167332468Y-61444565D01*
X167332468Y-61444565D01*
G37*
G36*
X164483000Y-62297000D02*
G01*
X163931000Y-62297000D01*
X163931000Y-61595000D01*
X164483000Y-61595000D01*
X164483000Y-62297000D01*
X164483000Y-62297000D01*
G37*
G36*
X181095589Y-60706876D02*
G01*
X181194893Y-60726629D01*
X181335206Y-60784748D01*
X181461484Y-60869125D01*
X181568875Y-60976516D01*
X181653252Y-61102794D01*
X181711371Y-61243107D01*
X181741000Y-61392063D01*
X181741000Y-61543937D01*
X181711371Y-61692893D01*
X181653252Y-61833206D01*
X181568875Y-61959484D01*
X181461484Y-62066875D01*
X181335206Y-62151252D01*
X181194893Y-62209371D01*
X181095589Y-62229124D01*
X181045938Y-62239000D01*
X180894062Y-62239000D01*
X180844411Y-62229124D01*
X180745107Y-62209371D01*
X180604794Y-62151252D01*
X180478516Y-62066875D01*
X180371125Y-61959484D01*
X180286748Y-61833206D01*
X180228629Y-61692893D01*
X180199000Y-61543937D01*
X180199000Y-61392063D01*
X180228629Y-61243107D01*
X180286748Y-61102794D01*
X180371125Y-60976516D01*
X180478516Y-60869125D01*
X180604794Y-60784748D01*
X180745107Y-60726629D01*
X180844411Y-60706876D01*
X180894062Y-60697000D01*
X181045938Y-60697000D01*
X181095589Y-60706876D01*
X181095589Y-60706876D01*
G37*
G36*
X186937589Y-60706876D02*
G01*
X187036893Y-60726629D01*
X187177206Y-60784748D01*
X187303484Y-60869125D01*
X187410875Y-60976516D01*
X187495252Y-61102794D01*
X187553371Y-61243107D01*
X187583000Y-61392063D01*
X187583000Y-61543937D01*
X187553371Y-61692893D01*
X187495252Y-61833206D01*
X187410875Y-61959484D01*
X187303484Y-62066875D01*
X187177206Y-62151252D01*
X187036893Y-62209371D01*
X186937589Y-62229124D01*
X186887938Y-62239000D01*
X186736062Y-62239000D01*
X186686411Y-62229124D01*
X186587107Y-62209371D01*
X186446794Y-62151252D01*
X186320516Y-62066875D01*
X186213125Y-61959484D01*
X186128748Y-61833206D01*
X186070629Y-61692893D01*
X186041000Y-61543937D01*
X186041000Y-61392063D01*
X186070629Y-61243107D01*
X186128748Y-61102794D01*
X186213125Y-60976516D01*
X186320516Y-60869125D01*
X186446794Y-60784748D01*
X186587107Y-60726629D01*
X186686411Y-60706876D01*
X186736062Y-60697000D01*
X186887938Y-60697000D01*
X186937589Y-60706876D01*
X186937589Y-60706876D01*
G37*
G36*
X156728000Y-61670800D02*
G01*
X154626000Y-61670800D01*
X154626000Y-60068800D01*
X156728000Y-60068800D01*
X156728000Y-61670800D01*
X156728000Y-61670800D01*
G37*
G36*
X195741468Y-59364815D02*
G01*
X195780138Y-59376546D01*
X195815777Y-59395596D01*
X195847017Y-59421233D01*
X195872654Y-59452473D01*
X195891704Y-59488112D01*
X195903435Y-59526782D01*
X195908000Y-59573138D01*
X195908000Y-60649362D01*
X195903435Y-60695718D01*
X195891704Y-60734388D01*
X195872654Y-60770027D01*
X195847017Y-60801267D01*
X195815777Y-60826904D01*
X195780138Y-60845954D01*
X195741468Y-60857685D01*
X195695112Y-60862250D01*
X195043888Y-60862250D01*
X194997532Y-60857685D01*
X194958862Y-60845954D01*
X194923223Y-60826904D01*
X194891983Y-60801267D01*
X194866346Y-60770027D01*
X194847296Y-60734388D01*
X194835565Y-60695718D01*
X194831000Y-60649362D01*
X194831000Y-59573138D01*
X194835565Y-59526782D01*
X194847296Y-59488112D01*
X194866346Y-59452473D01*
X194891983Y-59421233D01*
X194923223Y-59395596D01*
X194958862Y-59376546D01*
X194997532Y-59364815D01*
X195043888Y-59360250D01*
X195695112Y-59360250D01*
X195741468Y-59364815D01*
X195741468Y-59364815D01*
G37*
G36*
X193866468Y-59364815D02*
G01*
X193905138Y-59376546D01*
X193940777Y-59395596D01*
X193972017Y-59421233D01*
X193997654Y-59452473D01*
X194016704Y-59488112D01*
X194028435Y-59526782D01*
X194033000Y-59573138D01*
X194033000Y-60649362D01*
X194028435Y-60695718D01*
X194016704Y-60734388D01*
X193997654Y-60770027D01*
X193972017Y-60801267D01*
X193940777Y-60826904D01*
X193905138Y-60845954D01*
X193866468Y-60857685D01*
X193820112Y-60862250D01*
X193168888Y-60862250D01*
X193122532Y-60857685D01*
X193083862Y-60845954D01*
X193048223Y-60826904D01*
X193016983Y-60801267D01*
X192991346Y-60770027D01*
X192972296Y-60734388D01*
X192960565Y-60695718D01*
X192956000Y-60649362D01*
X192956000Y-59573138D01*
X192960565Y-59526782D01*
X192972296Y-59488112D01*
X192991346Y-59452473D01*
X193016983Y-59421233D01*
X193048223Y-59395596D01*
X193083862Y-59376546D01*
X193122532Y-59364815D01*
X193168888Y-59360250D01*
X193820112Y-59360250D01*
X193866468Y-59364815D01*
X193866468Y-59364815D01*
G37*
G36*
X193998468Y-56581565D02*
G01*
X194037138Y-56593296D01*
X194072777Y-56612346D01*
X194104017Y-56637983D01*
X194129654Y-56669223D01*
X194148704Y-56704862D01*
X194160435Y-56743532D01*
X194165000Y-56789888D01*
X194165000Y-57866112D01*
X194160435Y-57912468D01*
X194148704Y-57951138D01*
X194129654Y-57986777D01*
X194104017Y-58018017D01*
X194072777Y-58043654D01*
X194037138Y-58062704D01*
X193998468Y-58074435D01*
X193952112Y-58079000D01*
X193300888Y-58079000D01*
X193254532Y-58074435D01*
X193215862Y-58062704D01*
X193180223Y-58043654D01*
X193148983Y-58018017D01*
X193123346Y-57986777D01*
X193104296Y-57951138D01*
X193092565Y-57912468D01*
X193088000Y-57866112D01*
X193088000Y-56789888D01*
X193092565Y-56743532D01*
X193104296Y-56704862D01*
X193123346Y-56669223D01*
X193148983Y-56637983D01*
X193180223Y-56612346D01*
X193215862Y-56593296D01*
X193254532Y-56581565D01*
X193300888Y-56577000D01*
X193952112Y-56577000D01*
X193998468Y-56581565D01*
X193998468Y-56581565D01*
G37*
G36*
X195873468Y-56581565D02*
G01*
X195912138Y-56593296D01*
X195947777Y-56612346D01*
X195979017Y-56637983D01*
X196004654Y-56669223D01*
X196023704Y-56704862D01*
X196035435Y-56743532D01*
X196040000Y-56789888D01*
X196040000Y-57866112D01*
X196035435Y-57912468D01*
X196023704Y-57951138D01*
X196004654Y-57986777D01*
X195979017Y-58018017D01*
X195947777Y-58043654D01*
X195912138Y-58062704D01*
X195873468Y-58074435D01*
X195827112Y-58079000D01*
X195175888Y-58079000D01*
X195129532Y-58074435D01*
X195090862Y-58062704D01*
X195055223Y-58043654D01*
X195023983Y-58018017D01*
X194998346Y-57986777D01*
X194979296Y-57951138D01*
X194967565Y-57912468D01*
X194963000Y-57866112D01*
X194963000Y-56789888D01*
X194967565Y-56743532D01*
X194979296Y-56704862D01*
X194998346Y-56669223D01*
X195023983Y-56637983D01*
X195055223Y-56612346D01*
X195090862Y-56593296D01*
X195129532Y-56581565D01*
X195175888Y-56577000D01*
X195827112Y-56577000D01*
X195873468Y-56581565D01*
X195873468Y-56581565D01*
G37*
G36*
X191047468Y-56581565D02*
G01*
X191086138Y-56593296D01*
X191121777Y-56612346D01*
X191153017Y-56637983D01*
X191178654Y-56669223D01*
X191197704Y-56704862D01*
X191209435Y-56743532D01*
X191214000Y-56789888D01*
X191214000Y-57866112D01*
X191209435Y-57912468D01*
X191197704Y-57951138D01*
X191178654Y-57986777D01*
X191153017Y-58018017D01*
X191121777Y-58043654D01*
X191086138Y-58062704D01*
X191047468Y-58074435D01*
X191001112Y-58079000D01*
X190349888Y-58079000D01*
X190303532Y-58074435D01*
X190264862Y-58062704D01*
X190229223Y-58043654D01*
X190197983Y-58018017D01*
X190172346Y-57986777D01*
X190153296Y-57951138D01*
X190141565Y-57912468D01*
X190137000Y-57866112D01*
X190137000Y-56789888D01*
X190141565Y-56743532D01*
X190153296Y-56704862D01*
X190172346Y-56669223D01*
X190197983Y-56637983D01*
X190229223Y-56612346D01*
X190264862Y-56593296D01*
X190303532Y-56581565D01*
X190349888Y-56577000D01*
X191001112Y-56577000D01*
X191047468Y-56581565D01*
X191047468Y-56581565D01*
G37*
G36*
X189172468Y-56581565D02*
G01*
X189211138Y-56593296D01*
X189246777Y-56612346D01*
X189278017Y-56637983D01*
X189303654Y-56669223D01*
X189322704Y-56704862D01*
X189334435Y-56743532D01*
X189339000Y-56789888D01*
X189339000Y-57866112D01*
X189334435Y-57912468D01*
X189322704Y-57951138D01*
X189303654Y-57986777D01*
X189278017Y-58018017D01*
X189246777Y-58043654D01*
X189211138Y-58062704D01*
X189172468Y-58074435D01*
X189126112Y-58079000D01*
X188474888Y-58079000D01*
X188428532Y-58074435D01*
X188389862Y-58062704D01*
X188354223Y-58043654D01*
X188322983Y-58018017D01*
X188297346Y-57986777D01*
X188278296Y-57951138D01*
X188266565Y-57912468D01*
X188262000Y-57866112D01*
X188262000Y-56789888D01*
X188266565Y-56743532D01*
X188278296Y-56704862D01*
X188297346Y-56669223D01*
X188322983Y-56637983D01*
X188354223Y-56612346D01*
X188389862Y-56593296D01*
X188428532Y-56581565D01*
X188474888Y-56577000D01*
X189126112Y-56577000D01*
X189172468Y-56581565D01*
X189172468Y-56581565D01*
G37*
G36*
X142400721Y-56924974D02*
G01*
X142500995Y-56966509D01*
X142500996Y-56966510D01*
X142591242Y-57026810D01*
X142667990Y-57103558D01*
X142698345Y-57148988D01*
X142728291Y-57193805D01*
X142769826Y-57294079D01*
X142791000Y-57400530D01*
X142791000Y-57509070D01*
X142769826Y-57615521D01*
X142728291Y-57715795D01*
X142727784Y-57716554D01*
X142667990Y-57806042D01*
X142591242Y-57882790D01*
X142546825Y-57912468D01*
X142500995Y-57943091D01*
X142400721Y-57984626D01*
X142294270Y-58005800D01*
X142185730Y-58005800D01*
X142079279Y-57984626D01*
X141979005Y-57943091D01*
X141933175Y-57912468D01*
X141888758Y-57882790D01*
X141812010Y-57806042D01*
X141752216Y-57716554D01*
X141751709Y-57715795D01*
X141710174Y-57615521D01*
X141689000Y-57509070D01*
X141689000Y-57400530D01*
X141710174Y-57294079D01*
X141751709Y-57193805D01*
X141781655Y-57148988D01*
X141812010Y-57103558D01*
X141888758Y-57026810D01*
X141979004Y-56966510D01*
X141979005Y-56966509D01*
X142079279Y-56924974D01*
X142185730Y-56903800D01*
X142294270Y-56903800D01*
X142400721Y-56924974D01*
X142400721Y-56924974D01*
G37*
G36*
X203676425Y-55984760D02*
G01*
X203676428Y-55984761D01*
X203676429Y-55984761D01*
X203855693Y-56039140D01*
X203855696Y-56039142D01*
X203855697Y-56039142D01*
X204020903Y-56127446D01*
X204165712Y-56246288D01*
X204284554Y-56391097D01*
X204311634Y-56441761D01*
X204372860Y-56556307D01*
X204427239Y-56735571D01*
X204427240Y-56735575D01*
X204445601Y-56922000D01*
X204427240Y-57108425D01*
X204427239Y-57108428D01*
X204427239Y-57108429D01*
X204372860Y-57287693D01*
X204372858Y-57287696D01*
X204372858Y-57287697D01*
X204284554Y-57452903D01*
X204165712Y-57597712D01*
X204020903Y-57716554D01*
X203855697Y-57804858D01*
X203855693Y-57804860D01*
X203676429Y-57859239D01*
X203676428Y-57859239D01*
X203676425Y-57859240D01*
X203536718Y-57873000D01*
X201243282Y-57873000D01*
X201103575Y-57859240D01*
X201103572Y-57859239D01*
X201103571Y-57859239D01*
X200924307Y-57804860D01*
X200924303Y-57804858D01*
X200759097Y-57716554D01*
X200614288Y-57597712D01*
X200495446Y-57452903D01*
X200407142Y-57287697D01*
X200407142Y-57287696D01*
X200407140Y-57287693D01*
X200352761Y-57108429D01*
X200352761Y-57108428D01*
X200352760Y-57108425D01*
X200334399Y-56922000D01*
X200352760Y-56735575D01*
X200352761Y-56735571D01*
X200407140Y-56556307D01*
X200468366Y-56441761D01*
X200495446Y-56391097D01*
X200614288Y-56246288D01*
X200759097Y-56127446D01*
X200924303Y-56039142D01*
X200924304Y-56039142D01*
X200924307Y-56039140D01*
X201103571Y-55984761D01*
X201103572Y-55984761D01*
X201103575Y-55984760D01*
X201243282Y-55971000D01*
X203536718Y-55971000D01*
X203676425Y-55984760D01*
X203676425Y-55984760D01*
G37*
G36*
X154548023Y-55930313D02*
G01*
X154708442Y-55978976D01*
X154841106Y-56049886D01*
X154856278Y-56057996D01*
X154985859Y-56164341D01*
X155092204Y-56293922D01*
X155092205Y-56293924D01*
X155171224Y-56441758D01*
X155219887Y-56602177D01*
X155236317Y-56769000D01*
X155219887Y-56935823D01*
X155171224Y-57096242D01*
X155119076Y-57193804D01*
X155092204Y-57244078D01*
X154985859Y-57373659D01*
X154856278Y-57480004D01*
X154856276Y-57480005D01*
X154708442Y-57559024D01*
X154548023Y-57607687D01*
X154423004Y-57620000D01*
X154339396Y-57620000D01*
X154214377Y-57607687D01*
X154053958Y-57559024D01*
X153906124Y-57480005D01*
X153906122Y-57480004D01*
X153776541Y-57373659D01*
X153670196Y-57244078D01*
X153643324Y-57193804D01*
X153591176Y-57096242D01*
X153542513Y-56935823D01*
X153526083Y-56769000D01*
X153542513Y-56602177D01*
X153591176Y-56441758D01*
X153670195Y-56293924D01*
X153670196Y-56293922D01*
X153776541Y-56164341D01*
X153906122Y-56057996D01*
X153921294Y-56049886D01*
X154053958Y-55978976D01*
X154214377Y-55930313D01*
X154339396Y-55918000D01*
X154423004Y-55918000D01*
X154548023Y-55930313D01*
X154548023Y-55930313D01*
G37*
G36*
X149468023Y-55930313D02*
G01*
X149628442Y-55978976D01*
X149761106Y-56049886D01*
X149776278Y-56057996D01*
X149905859Y-56164341D01*
X150012204Y-56293922D01*
X150012205Y-56293924D01*
X150091224Y-56441758D01*
X150139887Y-56602177D01*
X150156317Y-56769000D01*
X150139887Y-56935823D01*
X150091224Y-57096242D01*
X150039076Y-57193804D01*
X150012204Y-57244078D01*
X149905859Y-57373659D01*
X149776278Y-57480004D01*
X149776276Y-57480005D01*
X149628442Y-57559024D01*
X149468023Y-57607687D01*
X149343004Y-57620000D01*
X149259396Y-57620000D01*
X149134377Y-57607687D01*
X148973958Y-57559024D01*
X148826124Y-57480005D01*
X148826122Y-57480004D01*
X148696541Y-57373659D01*
X148590196Y-57244078D01*
X148563324Y-57193804D01*
X148511176Y-57096242D01*
X148462513Y-56935823D01*
X148446083Y-56769000D01*
X148462513Y-56602177D01*
X148511176Y-56441758D01*
X148590195Y-56293924D01*
X148590196Y-56293922D01*
X148696541Y-56164341D01*
X148826122Y-56057996D01*
X148841294Y-56049886D01*
X148973958Y-55978976D01*
X149134377Y-55930313D01*
X149259396Y-55918000D01*
X149343004Y-55918000D01*
X149468023Y-55930313D01*
X149468023Y-55930313D01*
G37*
G36*
X169788023Y-55930313D02*
G01*
X169948442Y-55978976D01*
X170081106Y-56049886D01*
X170096278Y-56057996D01*
X170225859Y-56164341D01*
X170332204Y-56293922D01*
X170332205Y-56293924D01*
X170411224Y-56441758D01*
X170459887Y-56602177D01*
X170476317Y-56769000D01*
X170459887Y-56935823D01*
X170411224Y-57096242D01*
X170359076Y-57193804D01*
X170332204Y-57244078D01*
X170225859Y-57373659D01*
X170096278Y-57480004D01*
X170096276Y-57480005D01*
X169948442Y-57559024D01*
X169788023Y-57607687D01*
X169663004Y-57620000D01*
X169579396Y-57620000D01*
X169454377Y-57607687D01*
X169293958Y-57559024D01*
X169146124Y-57480005D01*
X169146122Y-57480004D01*
X169016541Y-57373659D01*
X168910196Y-57244078D01*
X168883324Y-57193804D01*
X168831176Y-57096242D01*
X168782513Y-56935823D01*
X168766083Y-56769000D01*
X168782513Y-56602177D01*
X168831176Y-56441758D01*
X168910195Y-56293924D01*
X168910196Y-56293922D01*
X169016541Y-56164341D01*
X169146122Y-56057996D01*
X169161294Y-56049886D01*
X169293958Y-55978976D01*
X169454377Y-55930313D01*
X169579396Y-55918000D01*
X169663004Y-55918000D01*
X169788023Y-55930313D01*
X169788023Y-55930313D01*
G37*
G36*
X172328023Y-55930313D02*
G01*
X172488442Y-55978976D01*
X172621106Y-56049886D01*
X172636278Y-56057996D01*
X172765859Y-56164341D01*
X172872204Y-56293922D01*
X172872205Y-56293924D01*
X172951224Y-56441758D01*
X172999887Y-56602177D01*
X173016317Y-56769000D01*
X172999887Y-56935823D01*
X172951224Y-57096242D01*
X172899076Y-57193804D01*
X172872204Y-57244078D01*
X172765859Y-57373659D01*
X172636278Y-57480004D01*
X172636276Y-57480005D01*
X172488442Y-57559024D01*
X172328023Y-57607687D01*
X172203004Y-57620000D01*
X172119396Y-57620000D01*
X171994377Y-57607687D01*
X171833958Y-57559024D01*
X171686124Y-57480005D01*
X171686122Y-57480004D01*
X171556541Y-57373659D01*
X171450196Y-57244078D01*
X171423324Y-57193804D01*
X171371176Y-57096242D01*
X171322513Y-56935823D01*
X171306083Y-56769000D01*
X171322513Y-56602177D01*
X171371176Y-56441758D01*
X171450195Y-56293924D01*
X171450196Y-56293922D01*
X171556541Y-56164341D01*
X171686122Y-56057996D01*
X171701294Y-56049886D01*
X171833958Y-55978976D01*
X171994377Y-55930313D01*
X172119396Y-55918000D01*
X172203004Y-55918000D01*
X172328023Y-55930313D01*
X172328023Y-55930313D01*
G37*
G36*
X167248023Y-55930313D02*
G01*
X167408442Y-55978976D01*
X167541106Y-56049886D01*
X167556278Y-56057996D01*
X167685859Y-56164341D01*
X167792204Y-56293922D01*
X167792205Y-56293924D01*
X167871224Y-56441758D01*
X167919887Y-56602177D01*
X167936317Y-56769000D01*
X167919887Y-56935823D01*
X167871224Y-57096242D01*
X167819076Y-57193804D01*
X167792204Y-57244078D01*
X167685859Y-57373659D01*
X167556278Y-57480004D01*
X167556276Y-57480005D01*
X167408442Y-57559024D01*
X167248023Y-57607687D01*
X167123004Y-57620000D01*
X167039396Y-57620000D01*
X166914377Y-57607687D01*
X166753958Y-57559024D01*
X166606124Y-57480005D01*
X166606122Y-57480004D01*
X166476541Y-57373659D01*
X166370196Y-57244078D01*
X166343324Y-57193804D01*
X166291176Y-57096242D01*
X166242513Y-56935823D01*
X166226083Y-56769000D01*
X166242513Y-56602177D01*
X166291176Y-56441758D01*
X166370195Y-56293924D01*
X166370196Y-56293922D01*
X166476541Y-56164341D01*
X166606122Y-56057996D01*
X166621294Y-56049886D01*
X166753958Y-55978976D01*
X166914377Y-55930313D01*
X167039396Y-55918000D01*
X167123004Y-55918000D01*
X167248023Y-55930313D01*
X167248023Y-55930313D01*
G37*
G36*
X174868023Y-55930313D02*
G01*
X175028442Y-55978976D01*
X175161106Y-56049886D01*
X175176278Y-56057996D01*
X175305859Y-56164341D01*
X175412204Y-56293922D01*
X175412205Y-56293924D01*
X175491224Y-56441758D01*
X175539887Y-56602177D01*
X175556317Y-56769000D01*
X175539887Y-56935823D01*
X175491224Y-57096242D01*
X175439076Y-57193804D01*
X175412204Y-57244078D01*
X175305859Y-57373659D01*
X175176278Y-57480004D01*
X175176276Y-57480005D01*
X175028442Y-57559024D01*
X174868023Y-57607687D01*
X174743004Y-57620000D01*
X174659396Y-57620000D01*
X174534377Y-57607687D01*
X174373958Y-57559024D01*
X174226124Y-57480005D01*
X174226122Y-57480004D01*
X174096541Y-57373659D01*
X173990196Y-57244078D01*
X173963324Y-57193804D01*
X173911176Y-57096242D01*
X173862513Y-56935823D01*
X173846083Y-56769000D01*
X173862513Y-56602177D01*
X173911176Y-56441758D01*
X173990195Y-56293924D01*
X173990196Y-56293922D01*
X174096541Y-56164341D01*
X174226122Y-56057996D01*
X174241294Y-56049886D01*
X174373958Y-55978976D01*
X174534377Y-55930313D01*
X174659396Y-55918000D01*
X174743004Y-55918000D01*
X174868023Y-55930313D01*
X174868023Y-55930313D01*
G37*
G36*
X164708023Y-55930313D02*
G01*
X164868442Y-55978976D01*
X165001106Y-56049886D01*
X165016278Y-56057996D01*
X165145859Y-56164341D01*
X165252204Y-56293922D01*
X165252205Y-56293924D01*
X165331224Y-56441758D01*
X165379887Y-56602177D01*
X165396317Y-56769000D01*
X165379887Y-56935823D01*
X165331224Y-57096242D01*
X165279076Y-57193804D01*
X165252204Y-57244078D01*
X165145859Y-57373659D01*
X165016278Y-57480004D01*
X165016276Y-57480005D01*
X164868442Y-57559024D01*
X164708023Y-57607687D01*
X164583004Y-57620000D01*
X164499396Y-57620000D01*
X164374377Y-57607687D01*
X164213958Y-57559024D01*
X164066124Y-57480005D01*
X164066122Y-57480004D01*
X163936541Y-57373659D01*
X163830196Y-57244078D01*
X163803324Y-57193804D01*
X163751176Y-57096242D01*
X163702513Y-56935823D01*
X163686083Y-56769000D01*
X163702513Y-56602177D01*
X163751176Y-56441758D01*
X163830195Y-56293924D01*
X163830196Y-56293922D01*
X163936541Y-56164341D01*
X164066122Y-56057996D01*
X164081294Y-56049886D01*
X164213958Y-55978976D01*
X164374377Y-55930313D01*
X164499396Y-55918000D01*
X164583004Y-55918000D01*
X164708023Y-55930313D01*
X164708023Y-55930313D01*
G37*
G36*
X177408023Y-55930313D02*
G01*
X177568442Y-55978976D01*
X177701106Y-56049886D01*
X177716278Y-56057996D01*
X177845859Y-56164341D01*
X177952204Y-56293922D01*
X177952205Y-56293924D01*
X178031224Y-56441758D01*
X178079887Y-56602177D01*
X178096317Y-56769000D01*
X178079887Y-56935823D01*
X178031224Y-57096242D01*
X177979076Y-57193804D01*
X177952204Y-57244078D01*
X177845859Y-57373659D01*
X177716278Y-57480004D01*
X177716276Y-57480005D01*
X177568442Y-57559024D01*
X177408023Y-57607687D01*
X177283004Y-57620000D01*
X177199396Y-57620000D01*
X177074377Y-57607687D01*
X176913958Y-57559024D01*
X176766124Y-57480005D01*
X176766122Y-57480004D01*
X176636541Y-57373659D01*
X176530196Y-57244078D01*
X176503324Y-57193804D01*
X176451176Y-57096242D01*
X176402513Y-56935823D01*
X176386083Y-56769000D01*
X176402513Y-56602177D01*
X176451176Y-56441758D01*
X176530195Y-56293924D01*
X176530196Y-56293922D01*
X176636541Y-56164341D01*
X176766122Y-56057996D01*
X176781294Y-56049886D01*
X176913958Y-55978976D01*
X177074377Y-55930313D01*
X177199396Y-55918000D01*
X177283004Y-55918000D01*
X177408023Y-55930313D01*
X177408023Y-55930313D01*
G37*
G36*
X159628023Y-55930313D02*
G01*
X159788442Y-55978976D01*
X159921106Y-56049886D01*
X159936278Y-56057996D01*
X160065859Y-56164341D01*
X160172204Y-56293922D01*
X160172205Y-56293924D01*
X160251224Y-56441758D01*
X160299887Y-56602177D01*
X160316317Y-56769000D01*
X160299887Y-56935823D01*
X160251224Y-57096242D01*
X160199076Y-57193804D01*
X160172204Y-57244078D01*
X160065859Y-57373659D01*
X159936278Y-57480004D01*
X159936276Y-57480005D01*
X159788442Y-57559024D01*
X159628023Y-57607687D01*
X159503004Y-57620000D01*
X159419396Y-57620000D01*
X159294377Y-57607687D01*
X159133958Y-57559024D01*
X158986124Y-57480005D01*
X158986122Y-57480004D01*
X158856541Y-57373659D01*
X158750196Y-57244078D01*
X158723324Y-57193804D01*
X158671176Y-57096242D01*
X158622513Y-56935823D01*
X158606083Y-56769000D01*
X158622513Y-56602177D01*
X158671176Y-56441758D01*
X158750195Y-56293924D01*
X158750196Y-56293922D01*
X158856541Y-56164341D01*
X158986122Y-56057996D01*
X159001294Y-56049886D01*
X159133958Y-55978976D01*
X159294377Y-55930313D01*
X159419396Y-55918000D01*
X159503004Y-55918000D01*
X159628023Y-55930313D01*
X159628023Y-55930313D01*
G37*
G36*
X179948023Y-55930313D02*
G01*
X180108442Y-55978976D01*
X180241106Y-56049886D01*
X180256278Y-56057996D01*
X180385859Y-56164341D01*
X180492204Y-56293922D01*
X180492205Y-56293924D01*
X180571224Y-56441758D01*
X180619887Y-56602177D01*
X180636317Y-56769000D01*
X180619887Y-56935823D01*
X180571224Y-57096242D01*
X180519076Y-57193804D01*
X180492204Y-57244078D01*
X180385859Y-57373659D01*
X180256278Y-57480004D01*
X180256276Y-57480005D01*
X180108442Y-57559024D01*
X179948023Y-57607687D01*
X179823004Y-57620000D01*
X179739396Y-57620000D01*
X179614377Y-57607687D01*
X179453958Y-57559024D01*
X179306124Y-57480005D01*
X179306122Y-57480004D01*
X179176541Y-57373659D01*
X179070196Y-57244078D01*
X179043324Y-57193804D01*
X178991176Y-57096242D01*
X178942513Y-56935823D01*
X178926083Y-56769000D01*
X178942513Y-56602177D01*
X178991176Y-56441758D01*
X179070195Y-56293924D01*
X179070196Y-56293922D01*
X179176541Y-56164341D01*
X179306122Y-56057996D01*
X179321294Y-56049886D01*
X179453958Y-55978976D01*
X179614377Y-55930313D01*
X179739396Y-55918000D01*
X179823004Y-55918000D01*
X179948023Y-55930313D01*
X179948023Y-55930313D01*
G37*
G36*
X157088023Y-55930313D02*
G01*
X157248442Y-55978976D01*
X157381106Y-56049886D01*
X157396278Y-56057996D01*
X157525859Y-56164341D01*
X157632204Y-56293922D01*
X157632205Y-56293924D01*
X157711224Y-56441758D01*
X157759887Y-56602177D01*
X157776317Y-56769000D01*
X157759887Y-56935823D01*
X157711224Y-57096242D01*
X157659076Y-57193804D01*
X157632204Y-57244078D01*
X157525859Y-57373659D01*
X157396278Y-57480004D01*
X157396276Y-57480005D01*
X157248442Y-57559024D01*
X157088023Y-57607687D01*
X156963004Y-57620000D01*
X156879396Y-57620000D01*
X156754377Y-57607687D01*
X156593958Y-57559024D01*
X156446124Y-57480005D01*
X156446122Y-57480004D01*
X156316541Y-57373659D01*
X156210196Y-57244078D01*
X156183324Y-57193804D01*
X156131176Y-57096242D01*
X156082513Y-56935823D01*
X156066083Y-56769000D01*
X156082513Y-56602177D01*
X156131176Y-56441758D01*
X156210195Y-56293924D01*
X156210196Y-56293922D01*
X156316541Y-56164341D01*
X156446122Y-56057996D01*
X156461294Y-56049886D01*
X156593958Y-55978976D01*
X156754377Y-55930313D01*
X156879396Y-55918000D01*
X156963004Y-55918000D01*
X157088023Y-55930313D01*
X157088023Y-55930313D01*
G37*
G36*
X146928023Y-55930313D02*
G01*
X147088442Y-55978976D01*
X147221106Y-56049886D01*
X147236278Y-56057996D01*
X147365859Y-56164341D01*
X147472204Y-56293922D01*
X147472205Y-56293924D01*
X147551224Y-56441758D01*
X147599887Y-56602177D01*
X147616317Y-56769000D01*
X147599887Y-56935823D01*
X147551224Y-57096242D01*
X147499076Y-57193804D01*
X147472204Y-57244078D01*
X147365859Y-57373659D01*
X147236278Y-57480004D01*
X147236276Y-57480005D01*
X147088442Y-57559024D01*
X146928023Y-57607687D01*
X146803004Y-57620000D01*
X146719396Y-57620000D01*
X146594377Y-57607687D01*
X146433958Y-57559024D01*
X146286124Y-57480005D01*
X146286122Y-57480004D01*
X146156541Y-57373659D01*
X146050196Y-57244078D01*
X146023324Y-57193804D01*
X145971176Y-57096242D01*
X145922513Y-56935823D01*
X145906083Y-56769000D01*
X145922513Y-56602177D01*
X145971176Y-56441758D01*
X146050195Y-56293924D01*
X146050196Y-56293922D01*
X146156541Y-56164341D01*
X146286122Y-56057996D01*
X146301294Y-56049886D01*
X146433958Y-55978976D01*
X146594377Y-55930313D01*
X146719396Y-55918000D01*
X146803004Y-55918000D01*
X146928023Y-55930313D01*
X146928023Y-55930313D01*
G37*
G36*
X183172200Y-57620000D02*
G01*
X181470200Y-57620000D01*
X181470200Y-55918000D01*
X183172200Y-55918000D01*
X183172200Y-57620000D01*
X183172200Y-57620000D01*
G37*
G36*
X152008023Y-55930313D02*
G01*
X152168442Y-55978976D01*
X152301106Y-56049886D01*
X152316278Y-56057996D01*
X152445859Y-56164341D01*
X152552204Y-56293922D01*
X152552205Y-56293924D01*
X152631224Y-56441758D01*
X152679887Y-56602177D01*
X152696317Y-56769000D01*
X152679887Y-56935823D01*
X152631224Y-57096242D01*
X152579076Y-57193804D01*
X152552204Y-57244078D01*
X152445859Y-57373659D01*
X152316278Y-57480004D01*
X152316276Y-57480005D01*
X152168442Y-57559024D01*
X152008023Y-57607687D01*
X151883004Y-57620000D01*
X151799396Y-57620000D01*
X151674377Y-57607687D01*
X151513958Y-57559024D01*
X151366124Y-57480005D01*
X151366122Y-57480004D01*
X151236541Y-57373659D01*
X151130196Y-57244078D01*
X151103324Y-57193804D01*
X151051176Y-57096242D01*
X151002513Y-56935823D01*
X150986083Y-56769000D01*
X151002513Y-56602177D01*
X151051176Y-56441758D01*
X151130195Y-56293924D01*
X151130196Y-56293922D01*
X151236541Y-56164341D01*
X151366122Y-56057996D01*
X151381294Y-56049886D01*
X151513958Y-55978976D01*
X151674377Y-55930313D01*
X151799396Y-55918000D01*
X151883004Y-55918000D01*
X152008023Y-55930313D01*
X152008023Y-55930313D01*
G37*
G36*
X208186721Y-55146974D02*
G01*
X208286995Y-55188509D01*
X208286996Y-55188510D01*
X208377242Y-55248810D01*
X208453990Y-55325558D01*
X208453991Y-55325560D01*
X208514291Y-55415805D01*
X208555826Y-55516079D01*
X208577000Y-55622530D01*
X208577000Y-55731070D01*
X208555826Y-55837521D01*
X208514291Y-55937795D01*
X208514290Y-55937796D01*
X208453990Y-56028042D01*
X208377242Y-56104790D01*
X208343335Y-56127446D01*
X208286995Y-56165091D01*
X208186721Y-56206626D01*
X208080270Y-56227800D01*
X207971730Y-56227800D01*
X207865279Y-56206626D01*
X207765005Y-56165091D01*
X207708665Y-56127446D01*
X207674758Y-56104790D01*
X207598010Y-56028042D01*
X207537710Y-55937796D01*
X207537709Y-55937795D01*
X207496174Y-55837521D01*
X207475000Y-55731070D01*
X207475000Y-55622530D01*
X207496174Y-55516079D01*
X207537709Y-55415805D01*
X207598009Y-55325560D01*
X207598010Y-55325558D01*
X207674758Y-55248810D01*
X207765004Y-55188510D01*
X207765005Y-55188509D01*
X207865279Y-55146974D01*
X207971730Y-55125800D01*
X208080270Y-55125800D01*
X208186721Y-55146974D01*
X208186721Y-55146974D01*
G37*
M02*
