G04 #@! TF.GenerationSoftware,KiCad,Pcbnew,5.1.3-ffb9f22~84~ubuntu19.04.1*
G04 #@! TF.CreationDate,2019-08-06T17:14:25+02:00*
G04 #@! TF.ProjectId,420-transmitter,3432302d-7472-4616-9e73-6d6974746572,rev?*
G04 #@! TF.SameCoordinates,Original*
G04 #@! TF.FileFunction,Legend,Bot*
G04 #@! TF.FilePolarity,Positive*
%FSLAX46Y46*%
G04 Gerber Fmt 4.6, Leading zero omitted, Abs format (unit mm)*
G04 Created by KiCad (PCBNEW 5.1.3-ffb9f22~84~ubuntu19.04.1) date 2019-08-06 17:14:25*
%MOMM*%
%LPD*%
G04 APERTURE LIST*
%ADD10C,0.127000*%
%ADD11C,0.120000*%
%ADD12C,0.150000*%
G04 APERTURE END LIST*
D10*
X166460714Y-93243399D02*
X166968714Y-93243399D01*
X166170428Y-93061971D02*
X166714714Y-92880542D01*
X166714714Y-93352257D01*
X166968714Y-93642542D02*
X166460714Y-93642542D01*
X166533285Y-93642542D02*
X166497000Y-93678828D01*
X166460714Y-93751399D01*
X166460714Y-93860257D01*
X166497000Y-93932828D01*
X166569571Y-93969114D01*
X166968714Y-93969114D01*
X166569571Y-93969114D02*
X166497000Y-94005399D01*
X166460714Y-94077971D01*
X166460714Y-94186828D01*
X166497000Y-94259399D01*
X166569571Y-94295685D01*
X166968714Y-94295685D01*
X166751000Y-94622257D02*
X166751000Y-94985114D01*
X166968714Y-94549685D02*
X166206714Y-94803685D01*
X166968714Y-95057685D01*
X166896142Y-96327685D02*
X166932428Y-96291399D01*
X166968714Y-96182542D01*
X166968714Y-96109971D01*
X166932428Y-96001114D01*
X166859857Y-95928542D01*
X166787285Y-95892257D01*
X166642142Y-95855971D01*
X166533285Y-95855971D01*
X166388142Y-95892257D01*
X166315571Y-95928542D01*
X166243000Y-96001114D01*
X166206714Y-96109971D01*
X166206714Y-96182542D01*
X166243000Y-96291399D01*
X166279285Y-96327685D01*
X166968714Y-96654257D02*
X166206714Y-96654257D01*
X166569571Y-96654257D02*
X166569571Y-97089685D01*
X166968714Y-97089685D02*
X166206714Y-97089685D01*
X166279285Y-97416257D02*
X166243000Y-97452542D01*
X166206714Y-97525114D01*
X166206714Y-97706542D01*
X166243000Y-97779114D01*
X166279285Y-97815399D01*
X166351857Y-97851685D01*
X166424428Y-97851685D01*
X166533285Y-97815399D01*
X166968714Y-97379971D01*
X166968714Y-97851685D01*
X166751000Y-98722542D02*
X166751000Y-99085399D01*
X166968714Y-98649971D02*
X166206714Y-98903971D01*
X166968714Y-99157971D01*
X166968714Y-99411971D02*
X166206714Y-99411971D01*
X166206714Y-99593399D01*
X166243000Y-99702257D01*
X166315571Y-99774828D01*
X166388142Y-99811114D01*
X166533285Y-99847399D01*
X166642142Y-99847399D01*
X166787285Y-99811114D01*
X166859857Y-99774828D01*
X166932428Y-99702257D01*
X166968714Y-99593399D01*
X166968714Y-99411971D01*
X166206714Y-100391685D02*
X166751000Y-100391685D01*
X166859857Y-100355399D01*
X166932428Y-100282828D01*
X166968714Y-100173971D01*
X166968714Y-100101399D01*
X178090285Y-92154828D02*
X178054000Y-92191114D01*
X178017714Y-92263685D01*
X178017714Y-92445114D01*
X178054000Y-92517685D01*
X178090285Y-92553971D01*
X178162857Y-92590257D01*
X178235428Y-92590257D01*
X178344285Y-92553971D01*
X178779714Y-92118542D01*
X178779714Y-92590257D01*
X178017714Y-93061971D02*
X178017714Y-93134542D01*
X178054000Y-93207114D01*
X178090285Y-93243400D01*
X178162857Y-93279685D01*
X178308000Y-93315971D01*
X178489428Y-93315971D01*
X178634571Y-93279685D01*
X178707142Y-93243400D01*
X178743428Y-93207114D01*
X178779714Y-93134542D01*
X178779714Y-93061971D01*
X178743428Y-92989400D01*
X178707142Y-92953114D01*
X178634571Y-92916828D01*
X178489428Y-92880542D01*
X178308000Y-92880542D01*
X178162857Y-92916828D01*
X178090285Y-92953114D01*
X178054000Y-92989400D01*
X178017714Y-93061971D01*
X178779714Y-93642542D02*
X178271714Y-93642542D01*
X178344285Y-93642542D02*
X178308000Y-93678828D01*
X178271714Y-93751400D01*
X178271714Y-93860257D01*
X178308000Y-93932828D01*
X178380571Y-93969114D01*
X178779714Y-93969114D01*
X178380571Y-93969114D02*
X178308000Y-94005400D01*
X178271714Y-94077971D01*
X178271714Y-94186828D01*
X178308000Y-94259400D01*
X178380571Y-94295685D01*
X178779714Y-94295685D01*
X178562000Y-94622257D02*
X178562000Y-94985114D01*
X178779714Y-94549685D02*
X178017714Y-94803685D01*
X178779714Y-95057685D01*
X178707142Y-96327685D02*
X178743428Y-96291400D01*
X178779714Y-96182542D01*
X178779714Y-96109971D01*
X178743428Y-96001114D01*
X178670857Y-95928542D01*
X178598285Y-95892257D01*
X178453142Y-95855971D01*
X178344285Y-95855971D01*
X178199142Y-95892257D01*
X178126571Y-95928542D01*
X178054000Y-96001114D01*
X178017714Y-96109971D01*
X178017714Y-96182542D01*
X178054000Y-96291400D01*
X178090285Y-96327685D01*
X178779714Y-96654257D02*
X178017714Y-96654257D01*
X178380571Y-96654257D02*
X178380571Y-97089685D01*
X178779714Y-97089685D02*
X178017714Y-97089685D01*
X178090285Y-97416257D02*
X178054000Y-97452542D01*
X178017714Y-97525114D01*
X178017714Y-97706542D01*
X178054000Y-97779114D01*
X178090285Y-97815400D01*
X178162857Y-97851685D01*
X178235428Y-97851685D01*
X178344285Y-97815400D01*
X178779714Y-97379971D01*
X178779714Y-97851685D01*
X178562000Y-98722542D02*
X178562000Y-99085400D01*
X178779714Y-98649971D02*
X178017714Y-98903971D01*
X178779714Y-99157971D01*
X178779714Y-99411971D02*
X178017714Y-99411971D01*
X178017714Y-99593400D01*
X178054000Y-99702257D01*
X178126571Y-99774828D01*
X178199142Y-99811114D01*
X178344285Y-99847400D01*
X178453142Y-99847400D01*
X178598285Y-99811114D01*
X178670857Y-99774828D01*
X178743428Y-99702257D01*
X178779714Y-99593400D01*
X178779714Y-99411971D01*
X178017714Y-100391685D02*
X178562000Y-100391685D01*
X178670857Y-100355400D01*
X178743428Y-100282828D01*
X178779714Y-100173971D01*
X178779714Y-100101400D01*
X178090285Y-59465028D02*
X178054000Y-59501314D01*
X178017714Y-59573885D01*
X178017714Y-59755314D01*
X178054000Y-59827885D01*
X178090285Y-59864171D01*
X178162857Y-59900457D01*
X178235428Y-59900457D01*
X178344285Y-59864171D01*
X178779714Y-59428742D01*
X178779714Y-59900457D01*
X178017714Y-60372171D02*
X178017714Y-60444742D01*
X178054000Y-60517314D01*
X178090285Y-60553600D01*
X178162857Y-60589885D01*
X178308000Y-60626171D01*
X178489428Y-60626171D01*
X178634571Y-60589885D01*
X178707142Y-60553600D01*
X178743428Y-60517314D01*
X178779714Y-60444742D01*
X178779714Y-60372171D01*
X178743428Y-60299600D01*
X178707142Y-60263314D01*
X178634571Y-60227028D01*
X178489428Y-60190742D01*
X178308000Y-60190742D01*
X178162857Y-60227028D01*
X178090285Y-60263314D01*
X178054000Y-60299600D01*
X178017714Y-60372171D01*
X178779714Y-60952742D02*
X178271714Y-60952742D01*
X178344285Y-60952742D02*
X178308000Y-60989028D01*
X178271714Y-61061600D01*
X178271714Y-61170457D01*
X178308000Y-61243028D01*
X178380571Y-61279314D01*
X178779714Y-61279314D01*
X178380571Y-61279314D02*
X178308000Y-61315600D01*
X178271714Y-61388171D01*
X178271714Y-61497028D01*
X178308000Y-61569600D01*
X178380571Y-61605885D01*
X178779714Y-61605885D01*
X178562000Y-61932457D02*
X178562000Y-62295314D01*
X178779714Y-61859885D02*
X178017714Y-62113885D01*
X178779714Y-62367885D01*
X178707142Y-63637885D02*
X178743428Y-63601600D01*
X178779714Y-63492742D01*
X178779714Y-63420171D01*
X178743428Y-63311314D01*
X178670857Y-63238742D01*
X178598285Y-63202457D01*
X178453142Y-63166171D01*
X178344285Y-63166171D01*
X178199142Y-63202457D01*
X178126571Y-63238742D01*
X178054000Y-63311314D01*
X178017714Y-63420171D01*
X178017714Y-63492742D01*
X178054000Y-63601600D01*
X178090285Y-63637885D01*
X178779714Y-63964457D02*
X178017714Y-63964457D01*
X178380571Y-63964457D02*
X178380571Y-64399885D01*
X178779714Y-64399885D02*
X178017714Y-64399885D01*
X178779714Y-65161885D02*
X178779714Y-64726457D01*
X178779714Y-64944171D02*
X178017714Y-64944171D01*
X178126571Y-64871600D01*
X178199142Y-64799028D01*
X178235428Y-64726457D01*
X178562000Y-66032742D02*
X178562000Y-66395600D01*
X178779714Y-65960171D02*
X178017714Y-66214171D01*
X178779714Y-66468171D01*
X178779714Y-66722171D02*
X178017714Y-66722171D01*
X178017714Y-66903600D01*
X178054000Y-67012457D01*
X178126571Y-67085028D01*
X178199142Y-67121314D01*
X178344285Y-67157600D01*
X178453142Y-67157600D01*
X178598285Y-67121314D01*
X178670857Y-67085028D01*
X178743428Y-67012457D01*
X178779714Y-66903600D01*
X178779714Y-66722171D01*
X178017714Y-67701885D02*
X178562000Y-67701885D01*
X178670857Y-67665600D01*
X178743428Y-67593028D01*
X178779714Y-67484171D01*
X178779714Y-67411600D01*
X165978114Y-60553599D02*
X166486114Y-60553599D01*
X165687828Y-60372171D02*
X166232114Y-60190742D01*
X166232114Y-60662457D01*
X166486114Y-60952742D02*
X165978114Y-60952742D01*
X166050685Y-60952742D02*
X166014400Y-60989028D01*
X165978114Y-61061599D01*
X165978114Y-61170457D01*
X166014400Y-61243028D01*
X166086971Y-61279314D01*
X166486114Y-61279314D01*
X166086971Y-61279314D02*
X166014400Y-61315599D01*
X165978114Y-61388171D01*
X165978114Y-61497028D01*
X166014400Y-61569599D01*
X166086971Y-61605885D01*
X166486114Y-61605885D01*
X166268400Y-61932457D02*
X166268400Y-62295314D01*
X166486114Y-61859885D02*
X165724114Y-62113885D01*
X166486114Y-62367885D01*
X166413542Y-63637885D02*
X166449828Y-63601599D01*
X166486114Y-63492742D01*
X166486114Y-63420171D01*
X166449828Y-63311314D01*
X166377257Y-63238742D01*
X166304685Y-63202457D01*
X166159542Y-63166171D01*
X166050685Y-63166171D01*
X165905542Y-63202457D01*
X165832971Y-63238742D01*
X165760400Y-63311314D01*
X165724114Y-63420171D01*
X165724114Y-63492742D01*
X165760400Y-63601599D01*
X165796685Y-63637885D01*
X166486114Y-63964457D02*
X165724114Y-63964457D01*
X166086971Y-63964457D02*
X166086971Y-64399885D01*
X166486114Y-64399885D02*
X165724114Y-64399885D01*
X166486114Y-65161885D02*
X166486114Y-64726457D01*
X166486114Y-64944171D02*
X165724114Y-64944171D01*
X165832971Y-64871599D01*
X165905542Y-64799028D01*
X165941828Y-64726457D01*
X166268400Y-66032742D02*
X166268400Y-66395599D01*
X166486114Y-65960171D02*
X165724114Y-66214171D01*
X166486114Y-66468171D01*
X166486114Y-66722171D02*
X165724114Y-66722171D01*
X165724114Y-66903599D01*
X165760400Y-67012457D01*
X165832971Y-67085028D01*
X165905542Y-67121314D01*
X166050685Y-67157599D01*
X166159542Y-67157599D01*
X166304685Y-67121314D01*
X166377257Y-67085028D01*
X166449828Y-67012457D01*
X166486114Y-66903599D01*
X166486114Y-66722171D01*
X165724114Y-67701885D02*
X166268400Y-67701885D01*
X166377257Y-67665599D01*
X166449828Y-67593028D01*
X166486114Y-67484171D01*
X166486114Y-67411599D01*
D11*
X177469800Y-62156222D02*
X177469800Y-62673378D01*
X176049800Y-62156222D02*
X176049800Y-62673378D01*
X177469800Y-65848222D02*
X177469800Y-66365378D01*
X176049800Y-65848222D02*
X176049800Y-66365378D01*
X173641800Y-62673378D02*
X173641800Y-62156222D01*
X175061800Y-62673378D02*
X175061800Y-62156222D01*
X173641800Y-66365378D02*
X173641800Y-65848222D01*
X175061800Y-66365378D02*
X175061800Y-65848222D01*
X175340800Y-94699222D02*
X175340800Y-95216378D01*
X173920800Y-94699222D02*
X173920800Y-95216378D01*
X177444800Y-98653222D02*
X177444800Y-99170378D01*
X176024800Y-98653222D02*
X176024800Y-99170378D01*
X176024800Y-95216378D02*
X176024800Y-94699222D01*
X177444800Y-95216378D02*
X177444800Y-94699222D01*
X173920800Y-99170378D02*
X173920800Y-98653222D01*
X175340800Y-99170378D02*
X175340800Y-98653222D01*
X169471800Y-62621378D02*
X169471800Y-62104222D01*
X170891800Y-62621378D02*
X170891800Y-62104222D01*
X169471800Y-66375378D02*
X169471800Y-65858222D01*
X170891800Y-66375378D02*
X170891800Y-65858222D01*
X168737800Y-62104222D02*
X168737800Y-62621378D01*
X167317800Y-62104222D02*
X167317800Y-62621378D01*
X168737800Y-65858222D02*
X168737800Y-66375378D01*
X167317800Y-65858222D02*
X167317800Y-66375378D01*
X169824800Y-95319378D02*
X169824800Y-94802222D01*
X171244800Y-95319378D02*
X171244800Y-94802222D01*
X169824800Y-99073378D02*
X169824800Y-98556222D01*
X171244800Y-99073378D02*
X171244800Y-98556222D01*
X168990800Y-94802222D02*
X168990800Y-95319378D01*
X167570800Y-94802222D02*
X167570800Y-95319378D01*
X168990800Y-98556222D02*
X168990800Y-99073378D01*
X167570800Y-98556222D02*
X167570800Y-99073378D01*
D12*
X177236380Y-58462942D02*
X176760190Y-58129609D01*
X177236380Y-57891514D02*
X176236380Y-57891514D01*
X176236380Y-58272466D01*
X176284000Y-58367704D01*
X176331619Y-58415323D01*
X176426857Y-58462942D01*
X176569714Y-58462942D01*
X176664952Y-58415323D01*
X176712571Y-58367704D01*
X176760190Y-58272466D01*
X176760190Y-57891514D01*
X176236380Y-58796276D02*
X176236380Y-59415323D01*
X176617333Y-59081990D01*
X176617333Y-59224847D01*
X176664952Y-59320085D01*
X176712571Y-59367704D01*
X176807809Y-59415323D01*
X177045904Y-59415323D01*
X177141142Y-59367704D01*
X177188761Y-59320085D01*
X177236380Y-59224847D01*
X177236380Y-58939133D01*
X177188761Y-58843895D01*
X177141142Y-58796276D01*
X176236380Y-60034371D02*
X176236380Y-60129609D01*
X176284000Y-60224847D01*
X176331619Y-60272466D01*
X176426857Y-60320085D01*
X176617333Y-60367704D01*
X176855428Y-60367704D01*
X177045904Y-60320085D01*
X177141142Y-60272466D01*
X177188761Y-60224847D01*
X177236380Y-60129609D01*
X177236380Y-60034371D01*
X177188761Y-59939133D01*
X177141142Y-59891514D01*
X177045904Y-59843895D01*
X176855428Y-59796276D01*
X176617333Y-59796276D01*
X176426857Y-59843895D01*
X176331619Y-59891514D01*
X176284000Y-59939133D01*
X176236380Y-60034371D01*
X177236380Y-68622942D02*
X176760190Y-68289609D01*
X177236380Y-68051514D02*
X176236380Y-68051514D01*
X176236380Y-68432466D01*
X176284000Y-68527704D01*
X176331619Y-68575323D01*
X176426857Y-68622942D01*
X176569714Y-68622942D01*
X176664952Y-68575323D01*
X176712571Y-68527704D01*
X176760190Y-68432466D01*
X176760190Y-68051514D01*
X176236380Y-68956276D02*
X176236380Y-69575323D01*
X176617333Y-69241990D01*
X176617333Y-69384847D01*
X176664952Y-69480085D01*
X176712571Y-69527704D01*
X176807809Y-69575323D01*
X177045904Y-69575323D01*
X177141142Y-69527704D01*
X177188761Y-69480085D01*
X177236380Y-69384847D01*
X177236380Y-69099133D01*
X177188761Y-69003895D01*
X177141142Y-68956276D01*
X177236380Y-70527704D02*
X177236380Y-69956276D01*
X177236380Y-70241990D02*
X176236380Y-70241990D01*
X176379238Y-70146752D01*
X176474476Y-70051514D01*
X176522095Y-69956276D01*
X174696380Y-58462942D02*
X174220190Y-58129609D01*
X174696380Y-57891514D02*
X173696380Y-57891514D01*
X173696380Y-58272466D01*
X173744000Y-58367704D01*
X173791619Y-58415323D01*
X173886857Y-58462942D01*
X174029714Y-58462942D01*
X174124952Y-58415323D01*
X174172571Y-58367704D01*
X174220190Y-58272466D01*
X174220190Y-57891514D01*
X173696380Y-58796276D02*
X173696380Y-59415323D01*
X174077333Y-59081990D01*
X174077333Y-59224847D01*
X174124952Y-59320085D01*
X174172571Y-59367704D01*
X174267809Y-59415323D01*
X174505904Y-59415323D01*
X174601142Y-59367704D01*
X174648761Y-59320085D01*
X174696380Y-59224847D01*
X174696380Y-58939133D01*
X174648761Y-58843895D01*
X174601142Y-58796276D01*
X173791619Y-59796276D02*
X173744000Y-59843895D01*
X173696380Y-59939133D01*
X173696380Y-60177228D01*
X173744000Y-60272466D01*
X173791619Y-60320085D01*
X173886857Y-60367704D01*
X173982095Y-60367704D01*
X174124952Y-60320085D01*
X174696380Y-59748657D01*
X174696380Y-60367704D01*
X174696380Y-68622942D02*
X174220190Y-68289609D01*
X174696380Y-68051514D02*
X173696380Y-68051514D01*
X173696380Y-68432466D01*
X173744000Y-68527704D01*
X173791619Y-68575323D01*
X173886857Y-68622942D01*
X174029714Y-68622942D01*
X174124952Y-68575323D01*
X174172571Y-68527704D01*
X174220190Y-68432466D01*
X174220190Y-68051514D01*
X173696380Y-68956276D02*
X173696380Y-69575323D01*
X174077333Y-69241990D01*
X174077333Y-69384847D01*
X174124952Y-69480085D01*
X174172571Y-69527704D01*
X174267809Y-69575323D01*
X174505904Y-69575323D01*
X174601142Y-69527704D01*
X174648761Y-69480085D01*
X174696380Y-69384847D01*
X174696380Y-69099133D01*
X174648761Y-69003895D01*
X174601142Y-68956276D01*
X173696380Y-69908657D02*
X173696380Y-70527704D01*
X174077333Y-70194371D01*
X174077333Y-70337228D01*
X174124952Y-70432466D01*
X174172571Y-70480085D01*
X174267809Y-70527704D01*
X174505904Y-70527704D01*
X174601142Y-70480085D01*
X174648761Y-70432466D01*
X174696380Y-70337228D01*
X174696380Y-70051514D01*
X174648761Y-69956276D01*
X174601142Y-69908657D01*
X175077380Y-91001942D02*
X174601190Y-90668609D01*
X175077380Y-90430514D02*
X174077380Y-90430514D01*
X174077380Y-90811466D01*
X174125000Y-90906704D01*
X174172619Y-90954323D01*
X174267857Y-91001942D01*
X174410714Y-91001942D01*
X174505952Y-90954323D01*
X174553571Y-90906704D01*
X174601190Y-90811466D01*
X174601190Y-90430514D01*
X174077380Y-91335276D02*
X174077380Y-91954323D01*
X174458333Y-91620990D01*
X174458333Y-91763847D01*
X174505952Y-91859085D01*
X174553571Y-91906704D01*
X174648809Y-91954323D01*
X174886904Y-91954323D01*
X174982142Y-91906704D01*
X175029761Y-91859085D01*
X175077380Y-91763847D01*
X175077380Y-91478133D01*
X175029761Y-91382895D01*
X174982142Y-91335276D01*
X174410714Y-92811466D02*
X175077380Y-92811466D01*
X174029761Y-92573371D02*
X174744047Y-92335276D01*
X174744047Y-92954323D01*
X177213380Y-101515942D02*
X176737190Y-101182609D01*
X177213380Y-100944514D02*
X176213380Y-100944514D01*
X176213380Y-101325466D01*
X176261000Y-101420704D01*
X176308619Y-101468323D01*
X176403857Y-101515942D01*
X176546714Y-101515942D01*
X176641952Y-101468323D01*
X176689571Y-101420704D01*
X176737190Y-101325466D01*
X176737190Y-100944514D01*
X176213380Y-101849276D02*
X176213380Y-102468323D01*
X176594333Y-102134990D01*
X176594333Y-102277847D01*
X176641952Y-102373085D01*
X176689571Y-102420704D01*
X176784809Y-102468323D01*
X177022904Y-102468323D01*
X177118142Y-102420704D01*
X177165761Y-102373085D01*
X177213380Y-102277847D01*
X177213380Y-101992133D01*
X177165761Y-101896895D01*
X177118142Y-101849276D01*
X176213380Y-103373085D02*
X176213380Y-102896895D01*
X176689571Y-102849276D01*
X176641952Y-102896895D01*
X176594333Y-102992133D01*
X176594333Y-103230228D01*
X176641952Y-103325466D01*
X176689571Y-103373085D01*
X176784809Y-103420704D01*
X177022904Y-103420704D01*
X177118142Y-103373085D01*
X177165761Y-103325466D01*
X177213380Y-103230228D01*
X177213380Y-102992133D01*
X177165761Y-102896895D01*
X177118142Y-102849276D01*
X177109380Y-91101942D02*
X176633190Y-90768609D01*
X177109380Y-90530514D02*
X176109380Y-90530514D01*
X176109380Y-90911466D01*
X176157000Y-91006704D01*
X176204619Y-91054323D01*
X176299857Y-91101942D01*
X176442714Y-91101942D01*
X176537952Y-91054323D01*
X176585571Y-91006704D01*
X176633190Y-90911466D01*
X176633190Y-90530514D01*
X176109380Y-91435276D02*
X176109380Y-92054323D01*
X176490333Y-91720990D01*
X176490333Y-91863847D01*
X176537952Y-91959085D01*
X176585571Y-92006704D01*
X176680809Y-92054323D01*
X176918904Y-92054323D01*
X177014142Y-92006704D01*
X177061761Y-91959085D01*
X177109380Y-91863847D01*
X177109380Y-91578133D01*
X177061761Y-91482895D01*
X177014142Y-91435276D01*
X176109380Y-92911466D02*
X176109380Y-92720990D01*
X176157000Y-92625752D01*
X176204619Y-92578133D01*
X176347476Y-92482895D01*
X176537952Y-92435276D01*
X176918904Y-92435276D01*
X177014142Y-92482895D01*
X177061761Y-92530514D01*
X177109380Y-92625752D01*
X177109380Y-92816228D01*
X177061761Y-92911466D01*
X177014142Y-92959085D01*
X176918904Y-93006704D01*
X176680809Y-93006704D01*
X176585571Y-92959085D01*
X176537952Y-92911466D01*
X176490333Y-92816228D01*
X176490333Y-92625752D01*
X176537952Y-92530514D01*
X176585571Y-92482895D01*
X176680809Y-92435276D01*
X174977380Y-101515942D02*
X174501190Y-101182609D01*
X174977380Y-100944514D02*
X173977380Y-100944514D01*
X173977380Y-101325466D01*
X174025000Y-101420704D01*
X174072619Y-101468323D01*
X174167857Y-101515942D01*
X174310714Y-101515942D01*
X174405952Y-101468323D01*
X174453571Y-101420704D01*
X174501190Y-101325466D01*
X174501190Y-100944514D01*
X173977380Y-101849276D02*
X173977380Y-102468323D01*
X174358333Y-102134990D01*
X174358333Y-102277847D01*
X174405952Y-102373085D01*
X174453571Y-102420704D01*
X174548809Y-102468323D01*
X174786904Y-102468323D01*
X174882142Y-102420704D01*
X174929761Y-102373085D01*
X174977380Y-102277847D01*
X174977380Y-101992133D01*
X174929761Y-101896895D01*
X174882142Y-101849276D01*
X173977380Y-102801657D02*
X173977380Y-103468323D01*
X174977380Y-103039752D01*
X170632380Y-58462942D02*
X170156190Y-58129609D01*
X170632380Y-57891514D02*
X169632380Y-57891514D01*
X169632380Y-58272466D01*
X169680000Y-58367704D01*
X169727619Y-58415323D01*
X169822857Y-58462942D01*
X169965714Y-58462942D01*
X170060952Y-58415323D01*
X170108571Y-58367704D01*
X170156190Y-58272466D01*
X170156190Y-57891514D01*
X169632380Y-58796276D02*
X169632380Y-59415323D01*
X170013333Y-59081990D01*
X170013333Y-59224847D01*
X170060952Y-59320085D01*
X170108571Y-59367704D01*
X170203809Y-59415323D01*
X170441904Y-59415323D01*
X170537142Y-59367704D01*
X170584761Y-59320085D01*
X170632380Y-59224847D01*
X170632380Y-58939133D01*
X170584761Y-58843895D01*
X170537142Y-58796276D01*
X170060952Y-59986752D02*
X170013333Y-59891514D01*
X169965714Y-59843895D01*
X169870476Y-59796276D01*
X169822857Y-59796276D01*
X169727619Y-59843895D01*
X169680000Y-59891514D01*
X169632380Y-59986752D01*
X169632380Y-60177228D01*
X169680000Y-60272466D01*
X169727619Y-60320085D01*
X169822857Y-60367704D01*
X169870476Y-60367704D01*
X169965714Y-60320085D01*
X170013333Y-60272466D01*
X170060952Y-60177228D01*
X170060952Y-59986752D01*
X170108571Y-59891514D01*
X170156190Y-59843895D01*
X170251428Y-59796276D01*
X170441904Y-59796276D01*
X170537142Y-59843895D01*
X170584761Y-59891514D01*
X170632380Y-59986752D01*
X170632380Y-60177228D01*
X170584761Y-60272466D01*
X170537142Y-60320085D01*
X170441904Y-60367704D01*
X170251428Y-60367704D01*
X170156190Y-60320085D01*
X170108571Y-60272466D01*
X170060952Y-60177228D01*
X170632380Y-68622942D02*
X170156190Y-68289609D01*
X170632380Y-68051514D02*
X169632380Y-68051514D01*
X169632380Y-68432466D01*
X169680000Y-68527704D01*
X169727619Y-68575323D01*
X169822857Y-68622942D01*
X169965714Y-68622942D01*
X170060952Y-68575323D01*
X170108571Y-68527704D01*
X170156190Y-68432466D01*
X170156190Y-68051514D01*
X169632380Y-68956276D02*
X169632380Y-69575323D01*
X170013333Y-69241990D01*
X170013333Y-69384847D01*
X170060952Y-69480085D01*
X170108571Y-69527704D01*
X170203809Y-69575323D01*
X170441904Y-69575323D01*
X170537142Y-69527704D01*
X170584761Y-69480085D01*
X170632380Y-69384847D01*
X170632380Y-69099133D01*
X170584761Y-69003895D01*
X170537142Y-68956276D01*
X170632380Y-70051514D02*
X170632380Y-70241990D01*
X170584761Y-70337228D01*
X170537142Y-70384847D01*
X170394285Y-70480085D01*
X170203809Y-70527704D01*
X169822857Y-70527704D01*
X169727619Y-70480085D01*
X169680000Y-70432466D01*
X169632380Y-70337228D01*
X169632380Y-70146752D01*
X169680000Y-70051514D01*
X169727619Y-70003895D01*
X169822857Y-69956276D01*
X170060952Y-69956276D01*
X170156190Y-70003895D01*
X170203809Y-70051514D01*
X170251428Y-70146752D01*
X170251428Y-70337228D01*
X170203809Y-70432466D01*
X170156190Y-70480085D01*
X170060952Y-70527704D01*
X168600380Y-58562942D02*
X168124190Y-58229609D01*
X168600380Y-57991514D02*
X167600380Y-57991514D01*
X167600380Y-58372466D01*
X167648000Y-58467704D01*
X167695619Y-58515323D01*
X167790857Y-58562942D01*
X167933714Y-58562942D01*
X168028952Y-58515323D01*
X168076571Y-58467704D01*
X168124190Y-58372466D01*
X168124190Y-57991514D01*
X167933714Y-59420085D02*
X168600380Y-59420085D01*
X167552761Y-59181990D02*
X168267047Y-58943895D01*
X168267047Y-59562942D01*
X167600380Y-60134371D02*
X167600380Y-60229609D01*
X167648000Y-60324847D01*
X167695619Y-60372466D01*
X167790857Y-60420085D01*
X167981333Y-60467704D01*
X168219428Y-60467704D01*
X168409904Y-60420085D01*
X168505142Y-60372466D01*
X168552761Y-60324847D01*
X168600380Y-60229609D01*
X168600380Y-60134371D01*
X168552761Y-60039133D01*
X168505142Y-59991514D01*
X168409904Y-59943895D01*
X168219428Y-59896276D01*
X167981333Y-59896276D01*
X167790857Y-59943895D01*
X167695619Y-59991514D01*
X167648000Y-60039133D01*
X167600380Y-60134371D01*
X168446380Y-68722942D02*
X167970190Y-68389609D01*
X168446380Y-68151514D02*
X167446380Y-68151514D01*
X167446380Y-68532466D01*
X167494000Y-68627704D01*
X167541619Y-68675323D01*
X167636857Y-68722942D01*
X167779714Y-68722942D01*
X167874952Y-68675323D01*
X167922571Y-68627704D01*
X167970190Y-68532466D01*
X167970190Y-68151514D01*
X167779714Y-69580085D02*
X168446380Y-69580085D01*
X167398761Y-69341990D02*
X168113047Y-69103895D01*
X168113047Y-69722942D01*
X168446380Y-70627704D02*
X168446380Y-70056276D01*
X168446380Y-70341990D02*
X167446380Y-70341990D01*
X167589238Y-70246752D01*
X167684476Y-70151514D01*
X167732095Y-70056276D01*
X171013380Y-91228942D02*
X170537190Y-90895609D01*
X171013380Y-90657514D02*
X170013380Y-90657514D01*
X170013380Y-91038466D01*
X170061000Y-91133704D01*
X170108619Y-91181323D01*
X170203857Y-91228942D01*
X170346714Y-91228942D01*
X170441952Y-91181323D01*
X170489571Y-91133704D01*
X170537190Y-91038466D01*
X170537190Y-90657514D01*
X170346714Y-92086085D02*
X171013380Y-92086085D01*
X169965761Y-91847990D02*
X170680047Y-91609895D01*
X170680047Y-92228942D01*
X170108619Y-92562276D02*
X170061000Y-92609895D01*
X170013380Y-92705133D01*
X170013380Y-92943228D01*
X170061000Y-93038466D01*
X170108619Y-93086085D01*
X170203857Y-93133704D01*
X170299095Y-93133704D01*
X170441952Y-93086085D01*
X171013380Y-92514657D01*
X171013380Y-93133704D01*
X171013380Y-101388942D02*
X170537190Y-101055609D01*
X171013380Y-100817514D02*
X170013380Y-100817514D01*
X170013380Y-101198466D01*
X170061000Y-101293704D01*
X170108619Y-101341323D01*
X170203857Y-101388942D01*
X170346714Y-101388942D01*
X170441952Y-101341323D01*
X170489571Y-101293704D01*
X170537190Y-101198466D01*
X170537190Y-100817514D01*
X170346714Y-102246085D02*
X171013380Y-102246085D01*
X169965761Y-102007990D02*
X170680047Y-101769895D01*
X170680047Y-102388942D01*
X170013380Y-102674657D02*
X170013380Y-103293704D01*
X170394333Y-102960371D01*
X170394333Y-103103228D01*
X170441952Y-103198466D01*
X170489571Y-103246085D01*
X170584809Y-103293704D01*
X170822904Y-103293704D01*
X170918142Y-103246085D01*
X170965761Y-103198466D01*
X171013380Y-103103228D01*
X171013380Y-102817514D01*
X170965761Y-102722276D01*
X170918142Y-102674657D01*
X168727380Y-91228942D02*
X168251190Y-90895609D01*
X168727380Y-90657514D02*
X167727380Y-90657514D01*
X167727380Y-91038466D01*
X167775000Y-91133704D01*
X167822619Y-91181323D01*
X167917857Y-91228942D01*
X168060714Y-91228942D01*
X168155952Y-91181323D01*
X168203571Y-91133704D01*
X168251190Y-91038466D01*
X168251190Y-90657514D01*
X168060714Y-92086085D02*
X168727380Y-92086085D01*
X167679761Y-91847990D02*
X168394047Y-91609895D01*
X168394047Y-92228942D01*
X168060714Y-93038466D02*
X168727380Y-93038466D01*
X167679761Y-92800371D02*
X168394047Y-92562276D01*
X168394047Y-93181323D01*
X168727380Y-101388942D02*
X168251190Y-101055609D01*
X168727380Y-100817514D02*
X167727380Y-100817514D01*
X167727380Y-101198466D01*
X167775000Y-101293704D01*
X167822619Y-101341323D01*
X167917857Y-101388942D01*
X168060714Y-101388942D01*
X168155952Y-101341323D01*
X168203571Y-101293704D01*
X168251190Y-101198466D01*
X168251190Y-100817514D01*
X168060714Y-102246085D02*
X168727380Y-102246085D01*
X167679761Y-102007990D02*
X168394047Y-101769895D01*
X168394047Y-102388942D01*
X167727380Y-103246085D02*
X167727380Y-102769895D01*
X168203571Y-102722276D01*
X168155952Y-102769895D01*
X168108333Y-102865133D01*
X168108333Y-103103228D01*
X168155952Y-103198466D01*
X168203571Y-103246085D01*
X168298809Y-103293704D01*
X168536904Y-103293704D01*
X168632142Y-103246085D01*
X168679761Y-103198466D01*
X168727380Y-103103228D01*
X168727380Y-102865133D01*
X168679761Y-102769895D01*
X168632142Y-102722276D01*
M02*
