G04 #@! TF.GenerationSoftware,KiCad,Pcbnew,5.1.3-ffb9f22~84~ubuntu19.04.1*
G04 #@! TF.CreationDate,2019-08-06T17:14:25+02:00*
G04 #@! TF.ProjectId,420-transmitter,3432302d-7472-4616-9e73-6d6974746572,rev?*
G04 #@! TF.SameCoordinates,Original*
G04 #@! TF.FileFunction,Legend,Top*
G04 #@! TF.FilePolarity,Positive*
%FSLAX46Y46*%
G04 Gerber Fmt 4.6, Leading zero omitted, Abs format (unit mm)*
G04 Created by KiCad (PCBNEW 5.1.3-ffb9f22~84~ubuntu19.04.1) date 2019-08-06 17:14:25*
%MOMM*%
%LPD*%
G04 APERTURE LIST*
%ADD10C,0.119380*%
%ADD11C,0.127000*%
%ADD12C,0.120000*%
%ADD13C,0.066040*%
%ADD14C,0.203200*%
%ADD15C,0.100000*%
%ADD16C,0.150000*%
%ADD17C,0.050800*%
%ADD18C,0.101600*%
G04 APERTURE END LIST*
D10*
X190971714Y-68801524D02*
X190971714Y-69309524D01*
X190790285Y-68511238D02*
X190608857Y-69055524D01*
X191080571Y-69055524D01*
X191334571Y-68620095D02*
X191370857Y-68583810D01*
X191443428Y-68547524D01*
X191624857Y-68547524D01*
X191697428Y-68583810D01*
X191733714Y-68620095D01*
X191770000Y-68692667D01*
X191770000Y-68765238D01*
X191733714Y-68874095D01*
X191298285Y-69309524D01*
X191770000Y-69309524D01*
X192241714Y-68547524D02*
X192314285Y-68547524D01*
X192386857Y-68583810D01*
X192423142Y-68620095D01*
X192459428Y-68692667D01*
X192495714Y-68837810D01*
X192495714Y-69019238D01*
X192459428Y-69164381D01*
X192423142Y-69236952D01*
X192386857Y-69273238D01*
X192314285Y-69309524D01*
X192241714Y-69309524D01*
X192169142Y-69273238D01*
X192132857Y-69236952D01*
X192096571Y-69164381D01*
X192060285Y-69019238D01*
X192060285Y-68837810D01*
X192096571Y-68692667D01*
X192132857Y-68620095D01*
X192169142Y-68583810D01*
X192241714Y-68547524D01*
X192822285Y-69019238D02*
X193402857Y-69019238D01*
X193656857Y-68801524D02*
X193947142Y-68801524D01*
X193765714Y-68547524D02*
X193765714Y-69200667D01*
X193802000Y-69273238D01*
X193874571Y-69309524D01*
X193947142Y-69309524D01*
X194201142Y-69309524D02*
X194201142Y-68801524D01*
X194201142Y-68946667D02*
X194237428Y-68874095D01*
X194273714Y-68837810D01*
X194346285Y-68801524D01*
X194418857Y-68801524D01*
X194999428Y-69309524D02*
X194999428Y-68910381D01*
X194963142Y-68837810D01*
X194890571Y-68801524D01*
X194745428Y-68801524D01*
X194672857Y-68837810D01*
X194999428Y-69273238D02*
X194926857Y-69309524D01*
X194745428Y-69309524D01*
X194672857Y-69273238D01*
X194636571Y-69200667D01*
X194636571Y-69128095D01*
X194672857Y-69055524D01*
X194745428Y-69019238D01*
X194926857Y-69019238D01*
X194999428Y-68982952D01*
X195362285Y-68801524D02*
X195362285Y-69309524D01*
X195362285Y-68874095D02*
X195398571Y-68837810D01*
X195471142Y-68801524D01*
X195580000Y-68801524D01*
X195652571Y-68837810D01*
X195688857Y-68910381D01*
X195688857Y-69309524D01*
X196015428Y-69273238D02*
X196088000Y-69309524D01*
X196233142Y-69309524D01*
X196305714Y-69273238D01*
X196342000Y-69200667D01*
X196342000Y-69164381D01*
X196305714Y-69091810D01*
X196233142Y-69055524D01*
X196124285Y-69055524D01*
X196051714Y-69019238D01*
X196015428Y-68946667D01*
X196015428Y-68910381D01*
X196051714Y-68837810D01*
X196124285Y-68801524D01*
X196233142Y-68801524D01*
X196305714Y-68837810D01*
X196668571Y-69309524D02*
X196668571Y-68801524D01*
X196668571Y-68874095D02*
X196704857Y-68837810D01*
X196777428Y-68801524D01*
X196886285Y-68801524D01*
X196958857Y-68837810D01*
X196995142Y-68910381D01*
X196995142Y-69309524D01*
X196995142Y-68910381D02*
X197031428Y-68837810D01*
X197104000Y-68801524D01*
X197212857Y-68801524D01*
X197285428Y-68837810D01*
X197321714Y-68910381D01*
X197321714Y-69309524D01*
X197684571Y-69309524D02*
X197684571Y-68801524D01*
X197684571Y-68547524D02*
X197648285Y-68583810D01*
X197684571Y-68620095D01*
X197720857Y-68583810D01*
X197684571Y-68547524D01*
X197684571Y-68620095D01*
X197938571Y-68801524D02*
X198228857Y-68801524D01*
X198047428Y-68547524D02*
X198047428Y-69200667D01*
X198083714Y-69273238D01*
X198156285Y-69309524D01*
X198228857Y-69309524D01*
X198374000Y-68801524D02*
X198664285Y-68801524D01*
X198482857Y-68547524D02*
X198482857Y-69200667D01*
X198519142Y-69273238D01*
X198591714Y-69309524D01*
X198664285Y-69309524D01*
X199208571Y-69273238D02*
X199136000Y-69309524D01*
X198990857Y-69309524D01*
X198918285Y-69273238D01*
X198882000Y-69200667D01*
X198882000Y-68910381D01*
X198918285Y-68837810D01*
X198990857Y-68801524D01*
X199136000Y-68801524D01*
X199208571Y-68837810D01*
X199244857Y-68910381D01*
X199244857Y-68982952D01*
X198882000Y-69055524D01*
X199571428Y-69309524D02*
X199571428Y-68801524D01*
X199571428Y-68946667D02*
X199607714Y-68874095D01*
X199644000Y-68837810D01*
X199716571Y-68801524D01*
X199789142Y-68801524D01*
X192278000Y-70063904D02*
X192459428Y-70571904D01*
X192640857Y-70063904D01*
X193076285Y-69809904D02*
X193148857Y-69809904D01*
X193221428Y-69846190D01*
X193257714Y-69882475D01*
X193294000Y-69955047D01*
X193330285Y-70100190D01*
X193330285Y-70281618D01*
X193294000Y-70426761D01*
X193257714Y-70499332D01*
X193221428Y-70535618D01*
X193148857Y-70571904D01*
X193076285Y-70571904D01*
X193003714Y-70535618D01*
X192967428Y-70499332D01*
X192931142Y-70426761D01*
X192894857Y-70281618D01*
X192894857Y-70100190D01*
X192931142Y-69955047D01*
X192967428Y-69882475D01*
X193003714Y-69846190D01*
X193076285Y-69809904D01*
X193656857Y-70499332D02*
X193693142Y-70535618D01*
X193656857Y-70571904D01*
X193620571Y-70535618D01*
X193656857Y-70499332D01*
X193656857Y-70571904D01*
X194418857Y-70571904D02*
X193983428Y-70571904D01*
X194201142Y-70571904D02*
X194201142Y-69809904D01*
X194128571Y-69918761D01*
X194056000Y-69991332D01*
X193983428Y-70027618D01*
X195326000Y-70571904D02*
X195326000Y-69809904D01*
X195326000Y-70100190D02*
X195398571Y-70063904D01*
X195543714Y-70063904D01*
X195616285Y-70100190D01*
X195652571Y-70136475D01*
X195688857Y-70209047D01*
X195688857Y-70426761D01*
X195652571Y-70499332D01*
X195616285Y-70535618D01*
X195543714Y-70571904D01*
X195398571Y-70571904D01*
X195326000Y-70535618D01*
X195942857Y-70063904D02*
X196124285Y-70571904D01*
X196305714Y-70063904D02*
X196124285Y-70571904D01*
X196051714Y-70753332D01*
X196015428Y-70789618D01*
X195942857Y-70825904D01*
X197176571Y-70571904D02*
X197176571Y-69809904D01*
X197430571Y-70354190D01*
X197684571Y-69809904D01*
X197684571Y-70571904D01*
X198047428Y-70571904D02*
X198047428Y-69809904D01*
X198301428Y-70354190D01*
X198555428Y-69809904D01*
X198555428Y-70571904D01*
D11*
X177328285Y-67941371D02*
X177292000Y-67905085D01*
X177255714Y-67832514D01*
X177255714Y-67651085D01*
X177292000Y-67578514D01*
X177328285Y-67542228D01*
X177400857Y-67505942D01*
X177473428Y-67505942D01*
X177582285Y-67542228D01*
X178017714Y-67977657D01*
X178017714Y-67505942D01*
X177255714Y-67034228D02*
X177255714Y-66961657D01*
X177292000Y-66889085D01*
X177328285Y-66852800D01*
X177400857Y-66816514D01*
X177546000Y-66780228D01*
X177727428Y-66780228D01*
X177872571Y-66816514D01*
X177945142Y-66852800D01*
X177981428Y-66889085D01*
X178017714Y-66961657D01*
X178017714Y-67034228D01*
X177981428Y-67106800D01*
X177945142Y-67143085D01*
X177872571Y-67179371D01*
X177727428Y-67215657D01*
X177546000Y-67215657D01*
X177400857Y-67179371D01*
X177328285Y-67143085D01*
X177292000Y-67106800D01*
X177255714Y-67034228D01*
X178017714Y-66453657D02*
X177509714Y-66453657D01*
X177582285Y-66453657D02*
X177546000Y-66417371D01*
X177509714Y-66344800D01*
X177509714Y-66235942D01*
X177546000Y-66163371D01*
X177618571Y-66127085D01*
X178017714Y-66127085D01*
X177618571Y-66127085D02*
X177546000Y-66090800D01*
X177509714Y-66018228D01*
X177509714Y-65909371D01*
X177546000Y-65836800D01*
X177618571Y-65800514D01*
X178017714Y-65800514D01*
X177800000Y-65473942D02*
X177800000Y-65111085D01*
X178017714Y-65546514D02*
X177255714Y-65292514D01*
X178017714Y-65038514D01*
X177945142Y-63768514D02*
X177981428Y-63804800D01*
X178017714Y-63913657D01*
X178017714Y-63986228D01*
X177981428Y-64095085D01*
X177908857Y-64167657D01*
X177836285Y-64203942D01*
X177691142Y-64240228D01*
X177582285Y-64240228D01*
X177437142Y-64203942D01*
X177364571Y-64167657D01*
X177292000Y-64095085D01*
X177255714Y-63986228D01*
X177255714Y-63913657D01*
X177292000Y-63804800D01*
X177328285Y-63768514D01*
X178017714Y-63441942D02*
X177255714Y-63441942D01*
X177618571Y-63441942D02*
X177618571Y-63006514D01*
X178017714Y-63006514D02*
X177255714Y-63006514D01*
X178017714Y-62244514D02*
X178017714Y-62679942D01*
X178017714Y-62462228D02*
X177255714Y-62462228D01*
X177364571Y-62534800D01*
X177437142Y-62607371D01*
X177473428Y-62679942D01*
X177800000Y-61373657D02*
X177800000Y-61010800D01*
X178017714Y-61446228D02*
X177255714Y-61192228D01*
X178017714Y-60938228D01*
X178017714Y-60684228D02*
X177255714Y-60684228D01*
X177255714Y-60502800D01*
X177292000Y-60393942D01*
X177364571Y-60321371D01*
X177437142Y-60285085D01*
X177582285Y-60248800D01*
X177691142Y-60248800D01*
X177836285Y-60285085D01*
X177908857Y-60321371D01*
X177981428Y-60393942D01*
X178017714Y-60502800D01*
X178017714Y-60684228D01*
X177255714Y-59704514D02*
X177800000Y-59704514D01*
X177908857Y-59740800D01*
X177981428Y-59813371D01*
X178017714Y-59922228D01*
X178017714Y-59994800D01*
X177328285Y-101723371D02*
X177292000Y-101687085D01*
X177255714Y-101614514D01*
X177255714Y-101433085D01*
X177292000Y-101360514D01*
X177328285Y-101324228D01*
X177400857Y-101287942D01*
X177473428Y-101287942D01*
X177582285Y-101324228D01*
X178017714Y-101759657D01*
X178017714Y-101287942D01*
X177255714Y-100816228D02*
X177255714Y-100743657D01*
X177292000Y-100671085D01*
X177328285Y-100634800D01*
X177400857Y-100598514D01*
X177546000Y-100562228D01*
X177727428Y-100562228D01*
X177872571Y-100598514D01*
X177945142Y-100634800D01*
X177981428Y-100671085D01*
X178017714Y-100743657D01*
X178017714Y-100816228D01*
X177981428Y-100888800D01*
X177945142Y-100925085D01*
X177872571Y-100961371D01*
X177727428Y-100997657D01*
X177546000Y-100997657D01*
X177400857Y-100961371D01*
X177328285Y-100925085D01*
X177292000Y-100888800D01*
X177255714Y-100816228D01*
X178017714Y-100235657D02*
X177509714Y-100235657D01*
X177582285Y-100235657D02*
X177546000Y-100199371D01*
X177509714Y-100126800D01*
X177509714Y-100017942D01*
X177546000Y-99945371D01*
X177618571Y-99909085D01*
X178017714Y-99909085D01*
X177618571Y-99909085D02*
X177546000Y-99872800D01*
X177509714Y-99800228D01*
X177509714Y-99691371D01*
X177546000Y-99618800D01*
X177618571Y-99582514D01*
X178017714Y-99582514D01*
X177800000Y-99255942D02*
X177800000Y-98893085D01*
X178017714Y-99328514D02*
X177255714Y-99074514D01*
X178017714Y-98820514D01*
X177945142Y-97550514D02*
X177981428Y-97586800D01*
X178017714Y-97695657D01*
X178017714Y-97768228D01*
X177981428Y-97877085D01*
X177908857Y-97949657D01*
X177836285Y-97985942D01*
X177691142Y-98022228D01*
X177582285Y-98022228D01*
X177437142Y-97985942D01*
X177364571Y-97949657D01*
X177292000Y-97877085D01*
X177255714Y-97768228D01*
X177255714Y-97695657D01*
X177292000Y-97586800D01*
X177328285Y-97550514D01*
X178017714Y-97223942D02*
X177255714Y-97223942D01*
X177618571Y-97223942D02*
X177618571Y-96788514D01*
X178017714Y-96788514D02*
X177255714Y-96788514D01*
X177328285Y-96461942D02*
X177292000Y-96425657D01*
X177255714Y-96353085D01*
X177255714Y-96171657D01*
X177292000Y-96099085D01*
X177328285Y-96062800D01*
X177400857Y-96026514D01*
X177473428Y-96026514D01*
X177582285Y-96062800D01*
X178017714Y-96498228D01*
X178017714Y-96026514D01*
X177800000Y-95155657D02*
X177800000Y-94792800D01*
X178017714Y-95228228D02*
X177255714Y-94974228D01*
X178017714Y-94720228D01*
X178017714Y-94466228D02*
X177255714Y-94466228D01*
X177255714Y-94284800D01*
X177292000Y-94175942D01*
X177364571Y-94103371D01*
X177437142Y-94067085D01*
X177582285Y-94030800D01*
X177691142Y-94030800D01*
X177836285Y-94067085D01*
X177908857Y-94103371D01*
X177981428Y-94175942D01*
X178017714Y-94284800D01*
X178017714Y-94466228D01*
X177255714Y-93486514D02*
X177800000Y-93486514D01*
X177908857Y-93522800D01*
X177981428Y-93595371D01*
X178017714Y-93704228D01*
X178017714Y-93776800D01*
X190082714Y-100870657D02*
X190590714Y-100870657D01*
X189792428Y-101052085D02*
X190336714Y-101233514D01*
X190336714Y-100761800D01*
X190590714Y-100471514D02*
X190082714Y-100471514D01*
X190155285Y-100471514D02*
X190119000Y-100435228D01*
X190082714Y-100362657D01*
X190082714Y-100253800D01*
X190119000Y-100181228D01*
X190191571Y-100144942D01*
X190590714Y-100144942D01*
X190191571Y-100144942D02*
X190119000Y-100108657D01*
X190082714Y-100036085D01*
X190082714Y-99927228D01*
X190119000Y-99854657D01*
X190191571Y-99818371D01*
X190590714Y-99818371D01*
X190373000Y-99491800D02*
X190373000Y-99128942D01*
X190590714Y-99564371D02*
X189828714Y-99310371D01*
X190590714Y-99056371D01*
X190518142Y-97786371D02*
X190554428Y-97822657D01*
X190590714Y-97931514D01*
X190590714Y-98004085D01*
X190554428Y-98112942D01*
X190481857Y-98185514D01*
X190409285Y-98221800D01*
X190264142Y-98258085D01*
X190155285Y-98258085D01*
X190010142Y-98221800D01*
X189937571Y-98185514D01*
X189865000Y-98112942D01*
X189828714Y-98004085D01*
X189828714Y-97931514D01*
X189865000Y-97822657D01*
X189901285Y-97786371D01*
X190590714Y-97459800D02*
X189828714Y-97459800D01*
X190191571Y-97459800D02*
X190191571Y-97024371D01*
X190590714Y-97024371D02*
X189828714Y-97024371D01*
X189901285Y-96697800D02*
X189865000Y-96661514D01*
X189828714Y-96588942D01*
X189828714Y-96407514D01*
X189865000Y-96334942D01*
X189901285Y-96298657D01*
X189973857Y-96262371D01*
X190046428Y-96262371D01*
X190155285Y-96298657D01*
X190590714Y-96734085D01*
X190590714Y-96262371D01*
X190373000Y-95391514D02*
X190373000Y-95028657D01*
X190590714Y-95464085D02*
X189828714Y-95210085D01*
X190590714Y-94956085D01*
X190590714Y-94702085D02*
X189828714Y-94702085D01*
X189828714Y-94520657D01*
X189865000Y-94411800D01*
X189937571Y-94339228D01*
X190010142Y-94302942D01*
X190155285Y-94266657D01*
X190264142Y-94266657D01*
X190409285Y-94302942D01*
X190481857Y-94339228D01*
X190554428Y-94411800D01*
X190590714Y-94520657D01*
X190590714Y-94702085D01*
X189828714Y-93722371D02*
X190373000Y-93722371D01*
X190481857Y-93758657D01*
X190554428Y-93831228D01*
X190590714Y-93940085D01*
X190590714Y-94012657D01*
X190082714Y-67469657D02*
X190590714Y-67469657D01*
X189792428Y-67651085D02*
X190336714Y-67832514D01*
X190336714Y-67360800D01*
X190590714Y-67070514D02*
X190082714Y-67070514D01*
X190155285Y-67070514D02*
X190119000Y-67034228D01*
X190082714Y-66961657D01*
X190082714Y-66852800D01*
X190119000Y-66780228D01*
X190191571Y-66743942D01*
X190590714Y-66743942D01*
X190191571Y-66743942D02*
X190119000Y-66707657D01*
X190082714Y-66635085D01*
X190082714Y-66526228D01*
X190119000Y-66453657D01*
X190191571Y-66417371D01*
X190590714Y-66417371D01*
X190373000Y-66090800D02*
X190373000Y-65727942D01*
X190590714Y-66163371D02*
X189828714Y-65909371D01*
X190590714Y-65655371D01*
X190518142Y-64385371D02*
X190554428Y-64421657D01*
X190590714Y-64530514D01*
X190590714Y-64603085D01*
X190554428Y-64711942D01*
X190481857Y-64784514D01*
X190409285Y-64820800D01*
X190264142Y-64857085D01*
X190155285Y-64857085D01*
X190010142Y-64820800D01*
X189937571Y-64784514D01*
X189865000Y-64711942D01*
X189828714Y-64603085D01*
X189828714Y-64530514D01*
X189865000Y-64421657D01*
X189901285Y-64385371D01*
X190590714Y-64058800D02*
X189828714Y-64058800D01*
X190191571Y-64058800D02*
X190191571Y-63623371D01*
X190590714Y-63623371D02*
X189828714Y-63623371D01*
X190590714Y-62861371D02*
X190590714Y-63296800D01*
X190590714Y-63079085D02*
X189828714Y-63079085D01*
X189937571Y-63151657D01*
X190010142Y-63224228D01*
X190046428Y-63296800D01*
X190373000Y-61990514D02*
X190373000Y-61627657D01*
X190590714Y-62063085D02*
X189828714Y-61809085D01*
X190590714Y-61555085D01*
X190590714Y-61301085D02*
X189828714Y-61301085D01*
X189828714Y-61119657D01*
X189865000Y-61010800D01*
X189937571Y-60938228D01*
X190010142Y-60901942D01*
X190155285Y-60865657D01*
X190264142Y-60865657D01*
X190409285Y-60901942D01*
X190481857Y-60938228D01*
X190554428Y-61010800D01*
X190590714Y-61119657D01*
X190590714Y-61301085D01*
X189828714Y-60321371D02*
X190373000Y-60321371D01*
X190481857Y-60357657D01*
X190554428Y-60430228D01*
X190590714Y-60539085D01*
X190590714Y-60611657D01*
X147359604Y-77847371D02*
X147359604Y-77774800D01*
X147395890Y-77702228D01*
X147432175Y-77665942D01*
X147504747Y-77629657D01*
X147649890Y-77593371D01*
X147831318Y-77593371D01*
X147976461Y-77629657D01*
X148049032Y-77665942D01*
X148085318Y-77702228D01*
X148121604Y-77774800D01*
X148121604Y-77847371D01*
X148085318Y-77919942D01*
X148049032Y-77956228D01*
X147976461Y-77992514D01*
X147831318Y-78028800D01*
X147649890Y-78028800D01*
X147504747Y-77992514D01*
X147432175Y-77956228D01*
X147395890Y-77919942D01*
X147359604Y-77847371D01*
X147831318Y-77266800D02*
X147831318Y-76686228D01*
X148121604Y-75924228D02*
X148121604Y-76359657D01*
X148121604Y-76141942D02*
X147359604Y-76141942D01*
X147468461Y-76214514D01*
X147541032Y-76287085D01*
X147577318Y-76359657D01*
X147359604Y-75452514D02*
X147359604Y-75379942D01*
X147395890Y-75307371D01*
X147432175Y-75271085D01*
X147504747Y-75234800D01*
X147649890Y-75198514D01*
X147831318Y-75198514D01*
X147976461Y-75234800D01*
X148049032Y-75271085D01*
X148085318Y-75307371D01*
X148121604Y-75379942D01*
X148121604Y-75452514D01*
X148085318Y-75525085D01*
X148049032Y-75561371D01*
X147976461Y-75597657D01*
X147831318Y-75633942D01*
X147649890Y-75633942D01*
X147504747Y-75597657D01*
X147432175Y-75561371D01*
X147395890Y-75525085D01*
X147359604Y-75452514D01*
X147359604Y-74980800D02*
X148121604Y-74726800D01*
X147359604Y-74472800D01*
X148049032Y-73202800D02*
X148085318Y-73239085D01*
X148121604Y-73347942D01*
X148121604Y-73420514D01*
X148085318Y-73529371D01*
X148012747Y-73601942D01*
X147940175Y-73638228D01*
X147795032Y-73674514D01*
X147686175Y-73674514D01*
X147541032Y-73638228D01*
X147468461Y-73601942D01*
X147395890Y-73529371D01*
X147359604Y-73420514D01*
X147359604Y-73347942D01*
X147395890Y-73239085D01*
X147432175Y-73202800D01*
X148121604Y-72876228D02*
X147359604Y-72876228D01*
X147722461Y-72876228D02*
X147722461Y-72440800D01*
X148121604Y-72440800D02*
X147359604Y-72440800D01*
X147432175Y-72114228D02*
X147395890Y-72077942D01*
X147359604Y-72005371D01*
X147359604Y-71823942D01*
X147395890Y-71751371D01*
X147432175Y-71715085D01*
X147504747Y-71678800D01*
X147577318Y-71678800D01*
X147686175Y-71715085D01*
X148121604Y-72150514D01*
X148121604Y-71678800D01*
X147359604Y-89277371D02*
X147359604Y-89204800D01*
X147395890Y-89132228D01*
X147432175Y-89095942D01*
X147504747Y-89059657D01*
X147649890Y-89023371D01*
X147831318Y-89023371D01*
X147976461Y-89059657D01*
X148049032Y-89095942D01*
X148085318Y-89132228D01*
X148121604Y-89204800D01*
X148121604Y-89277371D01*
X148085318Y-89349942D01*
X148049032Y-89386228D01*
X147976461Y-89422514D01*
X147831318Y-89458800D01*
X147649890Y-89458800D01*
X147504747Y-89422514D01*
X147432175Y-89386228D01*
X147395890Y-89349942D01*
X147359604Y-89277371D01*
X147831318Y-88696800D02*
X147831318Y-88116228D01*
X148121604Y-87354228D02*
X148121604Y-87789657D01*
X148121604Y-87571942D02*
X147359604Y-87571942D01*
X147468461Y-87644514D01*
X147541032Y-87717085D01*
X147577318Y-87789657D01*
X147359604Y-86882514D02*
X147359604Y-86809942D01*
X147395890Y-86737371D01*
X147432175Y-86701085D01*
X147504747Y-86664800D01*
X147649890Y-86628514D01*
X147831318Y-86628514D01*
X147976461Y-86664800D01*
X148049032Y-86701085D01*
X148085318Y-86737371D01*
X148121604Y-86809942D01*
X148121604Y-86882514D01*
X148085318Y-86955085D01*
X148049032Y-86991371D01*
X147976461Y-87027657D01*
X147831318Y-87063942D01*
X147649890Y-87063942D01*
X147504747Y-87027657D01*
X147432175Y-86991371D01*
X147395890Y-86955085D01*
X147359604Y-86882514D01*
X147359604Y-86410800D02*
X148121604Y-86156800D01*
X147359604Y-85902800D01*
X148049032Y-84632800D02*
X148085318Y-84669085D01*
X148121604Y-84777942D01*
X148121604Y-84850514D01*
X148085318Y-84959371D01*
X148012747Y-85031942D01*
X147940175Y-85068228D01*
X147795032Y-85104514D01*
X147686175Y-85104514D01*
X147541032Y-85068228D01*
X147468461Y-85031942D01*
X147395890Y-84959371D01*
X147359604Y-84850514D01*
X147359604Y-84777942D01*
X147395890Y-84669085D01*
X147432175Y-84632800D01*
X148121604Y-84306228D02*
X147359604Y-84306228D01*
X147722461Y-84306228D02*
X147722461Y-83870800D01*
X148121604Y-83870800D02*
X147359604Y-83870800D01*
X148121604Y-83108800D02*
X148121604Y-83544228D01*
X148121604Y-83326514D02*
X147359604Y-83326514D01*
X147468461Y-83399085D01*
X147541032Y-83471657D01*
X147577318Y-83544228D01*
X147613604Y-100017942D02*
X148121604Y-100017942D01*
X147323318Y-100199371D02*
X147867604Y-100380800D01*
X147867604Y-99909085D01*
X147831318Y-99618800D02*
X147831318Y-99038228D01*
X147432175Y-98711657D02*
X147395890Y-98675371D01*
X147359604Y-98602800D01*
X147359604Y-98421371D01*
X147395890Y-98348800D01*
X147432175Y-98312514D01*
X147504747Y-98276228D01*
X147577318Y-98276228D01*
X147686175Y-98312514D01*
X148121604Y-98747942D01*
X148121604Y-98276228D01*
X147359604Y-97804514D02*
X147359604Y-97731942D01*
X147395890Y-97659371D01*
X147432175Y-97623085D01*
X147504747Y-97586800D01*
X147649890Y-97550514D01*
X147831318Y-97550514D01*
X147976461Y-97586800D01*
X148049032Y-97623085D01*
X148085318Y-97659371D01*
X148121604Y-97731942D01*
X148121604Y-97804514D01*
X148085318Y-97877085D01*
X148049032Y-97913371D01*
X147976461Y-97949657D01*
X147831318Y-97985942D01*
X147649890Y-97985942D01*
X147504747Y-97949657D01*
X147432175Y-97913371D01*
X147395890Y-97877085D01*
X147359604Y-97804514D01*
X148121604Y-97223942D02*
X147613604Y-97223942D01*
X147686175Y-97223942D02*
X147649890Y-97187657D01*
X147613604Y-97115085D01*
X147613604Y-97006228D01*
X147649890Y-96933657D01*
X147722461Y-96897371D01*
X148121604Y-96897371D01*
X147722461Y-96897371D02*
X147649890Y-96861085D01*
X147613604Y-96788514D01*
X147613604Y-96679657D01*
X147649890Y-96607085D01*
X147722461Y-96570800D01*
X148121604Y-96570800D01*
X147903890Y-96244228D02*
X147903890Y-95881371D01*
X148121604Y-96316800D02*
X147359604Y-96062800D01*
X148121604Y-95808800D01*
X148049032Y-94538800D02*
X148085318Y-94575085D01*
X148121604Y-94683942D01*
X148121604Y-94756514D01*
X148085318Y-94865371D01*
X148012747Y-94937942D01*
X147940175Y-94974228D01*
X147795032Y-95010514D01*
X147686175Y-95010514D01*
X147541032Y-94974228D01*
X147468461Y-94937942D01*
X147395890Y-94865371D01*
X147359604Y-94756514D01*
X147359604Y-94683942D01*
X147395890Y-94575085D01*
X147432175Y-94538800D01*
X148121604Y-94212228D02*
X147359604Y-94212228D01*
X147722461Y-94212228D02*
X147722461Y-93776800D01*
X148121604Y-93776800D02*
X147359604Y-93776800D01*
X147432175Y-93450228D02*
X147395890Y-93413942D01*
X147359604Y-93341371D01*
X147359604Y-93159942D01*
X147395890Y-93087371D01*
X147432175Y-93051085D01*
X147504747Y-93014800D01*
X147577318Y-93014800D01*
X147686175Y-93051085D01*
X148121604Y-93486514D01*
X148121604Y-93014800D01*
X147613604Y-66235942D02*
X148121604Y-66235942D01*
X147323318Y-66417371D02*
X147867604Y-66598800D01*
X147867604Y-66127085D01*
X147831318Y-65836800D02*
X147831318Y-65256228D01*
X147432175Y-64929657D02*
X147395890Y-64893371D01*
X147359604Y-64820800D01*
X147359604Y-64639371D01*
X147395890Y-64566800D01*
X147432175Y-64530514D01*
X147504747Y-64494228D01*
X147577318Y-64494228D01*
X147686175Y-64530514D01*
X148121604Y-64965942D01*
X148121604Y-64494228D01*
X147359604Y-64022514D02*
X147359604Y-63949942D01*
X147395890Y-63877371D01*
X147432175Y-63841085D01*
X147504747Y-63804800D01*
X147649890Y-63768514D01*
X147831318Y-63768514D01*
X147976461Y-63804800D01*
X148049032Y-63841085D01*
X148085318Y-63877371D01*
X148121604Y-63949942D01*
X148121604Y-64022514D01*
X148085318Y-64095085D01*
X148049032Y-64131371D01*
X147976461Y-64167657D01*
X147831318Y-64203942D01*
X147649890Y-64203942D01*
X147504747Y-64167657D01*
X147432175Y-64131371D01*
X147395890Y-64095085D01*
X147359604Y-64022514D01*
X148121604Y-63441942D02*
X147613604Y-63441942D01*
X147686175Y-63441942D02*
X147649890Y-63405657D01*
X147613604Y-63333085D01*
X147613604Y-63224228D01*
X147649890Y-63151657D01*
X147722461Y-63115371D01*
X148121604Y-63115371D01*
X147722461Y-63115371D02*
X147649890Y-63079085D01*
X147613604Y-63006514D01*
X147613604Y-62897657D01*
X147649890Y-62825085D01*
X147722461Y-62788800D01*
X148121604Y-62788800D01*
X147903890Y-62462228D02*
X147903890Y-62099371D01*
X148121604Y-62534800D02*
X147359604Y-62280800D01*
X148121604Y-62026800D01*
X148049032Y-60756800D02*
X148085318Y-60793085D01*
X148121604Y-60901942D01*
X148121604Y-60974514D01*
X148085318Y-61083371D01*
X148012747Y-61155942D01*
X147940175Y-61192228D01*
X147795032Y-61228514D01*
X147686175Y-61228514D01*
X147541032Y-61192228D01*
X147468461Y-61155942D01*
X147395890Y-61083371D01*
X147359604Y-60974514D01*
X147359604Y-60901942D01*
X147395890Y-60793085D01*
X147432175Y-60756800D01*
X148121604Y-60430228D02*
X147359604Y-60430228D01*
X147722461Y-60430228D02*
X147722461Y-59994800D01*
X148121604Y-59994800D02*
X147359604Y-59994800D01*
X148121604Y-59232800D02*
X148121604Y-59668228D01*
X148121604Y-59450514D02*
X147359604Y-59450514D01*
X147468461Y-59523085D01*
X147541032Y-59595657D01*
X147577318Y-59668228D01*
D12*
X202666000Y-84058000D02*
X206966000Y-84058000D01*
X202666000Y-82058000D02*
X202666000Y-84058000D01*
X206966000Y-82058000D02*
X202666000Y-82058000D01*
X186701000Y-83074800D02*
X186701000Y-85759800D01*
X188621000Y-83074800D02*
X186701000Y-83074800D01*
X188621000Y-85759800D02*
X188621000Y-83074800D01*
X188621000Y-79078800D02*
X188621000Y-76393800D01*
X186701000Y-79078800D02*
X188621000Y-79078800D01*
X186701000Y-76393800D02*
X186701000Y-79078800D01*
X191423000Y-56368000D02*
X188738000Y-56368000D01*
X191423000Y-58288000D02*
X191423000Y-56368000D01*
X188738000Y-58288000D02*
X191423000Y-58288000D01*
X192879000Y-58288000D02*
X195564000Y-58288000D01*
X192879000Y-56368000D02*
X192879000Y-58288000D01*
X195564000Y-56368000D02*
X192879000Y-56368000D01*
X192599000Y-97576800D02*
X192599000Y-102676800D01*
X197799000Y-97576800D02*
X197799000Y-102676800D01*
X192472000Y-74412000D02*
X192472000Y-79512000D01*
X197672000Y-74412000D02*
X197672000Y-79512000D01*
X137668000Y-70290266D02*
X137668000Y-80450266D01*
X145288000Y-70290266D02*
X137668000Y-70290266D01*
X145288000Y-80450266D02*
X145288000Y-70290266D01*
X137668000Y-80450266D02*
X145288000Y-80450266D01*
X138938000Y-80450266D02*
X138938000Y-70290266D01*
X137668000Y-59182000D02*
X137668000Y-69342000D01*
X145288000Y-59182000D02*
X137668000Y-59182000D01*
X145288000Y-69342000D02*
X145288000Y-59182000D01*
X137668000Y-69342000D02*
X145288000Y-69342000D01*
X138938000Y-69342000D02*
X138938000Y-59182000D01*
X137668000Y-92506800D02*
X137668000Y-102666800D01*
X145288000Y-92506800D02*
X137668000Y-92506800D01*
X145288000Y-102666800D02*
X145288000Y-92506800D01*
X137668000Y-102666800D02*
X145288000Y-102666800D01*
X138938000Y-102666800D02*
X138938000Y-92506800D01*
X137668000Y-81398532D02*
X137668000Y-91558532D01*
X145288000Y-81398532D02*
X137668000Y-81398532D01*
X145288000Y-91558532D02*
X145288000Y-81398532D01*
X137668000Y-91558532D02*
X145288000Y-91558532D01*
X138938000Y-91558532D02*
X138938000Y-81398532D01*
X178440000Y-59123000D02*
X183510000Y-59123000D01*
X178440000Y-68893000D02*
X183510000Y-68893000D01*
X183510000Y-68893000D02*
X183510000Y-59123000D01*
X178440000Y-68893000D02*
X178440000Y-59123000D01*
X184282000Y-59123000D02*
X189352000Y-59123000D01*
X184282000Y-68893000D02*
X189352000Y-68893000D01*
X189352000Y-68893000D02*
X189352000Y-59123000D01*
X184282000Y-68893000D02*
X184282000Y-59123000D01*
X183500000Y-102345000D02*
X178430000Y-102345000D01*
X183500000Y-92575000D02*
X178430000Y-92575000D01*
X178430000Y-92575000D02*
X178430000Y-102345000D01*
X183500000Y-92575000D02*
X183500000Y-102345000D01*
X189342000Y-102345000D02*
X184272000Y-102345000D01*
X189342000Y-92575000D02*
X184272000Y-92575000D01*
X184272000Y-92575000D02*
X184272000Y-102345000D01*
X189342000Y-92575000D02*
X189342000Y-102345000D01*
X207396000Y-75552000D02*
X207396000Y-76882000D01*
X206066000Y-75552000D02*
X207396000Y-75552000D01*
X204796000Y-75552000D02*
X204796000Y-78212000D01*
X204796000Y-78212000D02*
X202196000Y-78212000D01*
X204796000Y-75552000D02*
X202196000Y-75552000D01*
X202196000Y-75552000D02*
X202196000Y-78212000D01*
D13*
X176784000Y-84251800D02*
X177292000Y-84251800D01*
X177292000Y-84251800D02*
X177292000Y-83223100D01*
X176784000Y-83223100D02*
X177292000Y-83223100D01*
X176784000Y-84251800D02*
X176784000Y-83223100D01*
X178054000Y-84251800D02*
X178562000Y-84251800D01*
X178562000Y-84251800D02*
X178562000Y-83223100D01*
X178054000Y-83223100D02*
X178562000Y-83223100D01*
X178054000Y-84251800D02*
X178054000Y-83223100D01*
X179324000Y-84251800D02*
X179832000Y-84251800D01*
X179832000Y-84251800D02*
X179832000Y-83223100D01*
X179324000Y-83223100D02*
X179832000Y-83223100D01*
X179324000Y-84251800D02*
X179324000Y-83223100D01*
X180594000Y-84251800D02*
X181102000Y-84251800D01*
X181102000Y-84251800D02*
X181102000Y-83223100D01*
X180594000Y-83223100D02*
X181102000Y-83223100D01*
X180594000Y-84251800D02*
X180594000Y-83223100D01*
X181864000Y-84251800D02*
X182372000Y-84251800D01*
X182372000Y-84251800D02*
X182372000Y-83223100D01*
X181864000Y-83223100D02*
X182372000Y-83223100D01*
X181864000Y-84251800D02*
X181864000Y-83223100D01*
X183134000Y-84251800D02*
X183642000Y-84251800D01*
X183642000Y-84251800D02*
X183642000Y-83223100D01*
X183134000Y-83223100D02*
X183642000Y-83223100D01*
X183134000Y-84251800D02*
X183134000Y-83223100D01*
X184404000Y-84251800D02*
X184912000Y-84251800D01*
X184912000Y-84251800D02*
X184912000Y-83223100D01*
X184404000Y-83223100D02*
X184912000Y-83223100D01*
X184404000Y-84251800D02*
X184404000Y-83223100D01*
X176784000Y-78663800D02*
X177292000Y-78663800D01*
X177292000Y-78663800D02*
X177292000Y-77584300D01*
X176784000Y-77584300D02*
X177292000Y-77584300D01*
X176784000Y-78663800D02*
X176784000Y-77584300D01*
X178054000Y-78663800D02*
X178562000Y-78663800D01*
X178562000Y-78663800D02*
X178562000Y-77647800D01*
X178054000Y-77647800D02*
X178562000Y-77647800D01*
X178054000Y-78663800D02*
X178054000Y-77647800D01*
X179324000Y-78663800D02*
X179832000Y-78663800D01*
X179832000Y-78663800D02*
X179832000Y-77647800D01*
X179324000Y-77647800D02*
X179832000Y-77647800D01*
X179324000Y-78663800D02*
X179324000Y-77647800D01*
X180594000Y-78663800D02*
X181102000Y-78663800D01*
X181102000Y-78663800D02*
X181102000Y-77647800D01*
X180594000Y-77647800D02*
X181102000Y-77647800D01*
X180594000Y-78663800D02*
X180594000Y-77647800D01*
X181864000Y-78663800D02*
X182372000Y-78663800D01*
X182372000Y-78663800D02*
X182372000Y-77647800D01*
X181864000Y-77647800D02*
X182372000Y-77647800D01*
X181864000Y-78663800D02*
X181864000Y-77647800D01*
X183134000Y-78663800D02*
X183642000Y-78663800D01*
X183642000Y-78663800D02*
X183642000Y-77647800D01*
X183134000Y-77647800D02*
X183642000Y-77647800D01*
X183134000Y-78663800D02*
X183134000Y-77647800D01*
X184404000Y-78663800D02*
X184912000Y-78663800D01*
X184912000Y-78663800D02*
X184912000Y-77647800D01*
X184404000Y-77647800D02*
X184912000Y-77647800D01*
X184404000Y-78663800D02*
X184404000Y-77647800D01*
D14*
X185089800Y-79004160D02*
X176606200Y-79004160D01*
X176606200Y-82895440D02*
X185188860Y-82895440D01*
X185470800Y-82514440D02*
X185470800Y-79385160D01*
X176225200Y-79499460D02*
X176225200Y-80340200D01*
X176225200Y-82613500D02*
X176225200Y-81610200D01*
D15*
X176430460Y-83261200D02*
G75*
G03X176430460Y-83261200I-154460J0D01*
G01*
D14*
X185186320Y-82895440D02*
G75*
G03X185470800Y-82514440I-48260J332740D01*
G01*
X176606200Y-79004160D02*
G75*
G03X176225200Y-79486760I50800J-431800D01*
G01*
X185470800Y-79385160D02*
G75*
G03X185089800Y-79004160I-381000J0D01*
G01*
X176227740Y-82613500D02*
G75*
G03X176606200Y-82895440I330200J48260D01*
G01*
X176276000Y-81610200D02*
G75*
G03X176276000Y-80340200I0J635000D01*
G01*
D12*
X204590000Y-57122000D02*
X213090000Y-57122000D01*
X213090000Y-57122000D02*
X213090000Y-66322000D01*
X213090000Y-66322000D02*
X198390000Y-66322000D01*
X198390000Y-59222000D02*
X198390000Y-57122000D01*
X198390000Y-57122000D02*
X200190000Y-57122000D01*
X198090000Y-64922000D02*
X198090000Y-66622000D01*
X198090000Y-66622000D02*
X199690000Y-66622000D01*
X198390000Y-66322000D02*
X198390000Y-64222000D01*
X156627000Y-66579800D02*
X150617000Y-66579800D01*
X154377000Y-59759800D02*
X150617000Y-59759800D01*
X150617000Y-66579800D02*
X150617000Y-65319800D01*
X150617000Y-59759800D02*
X150617000Y-61019800D01*
X156627000Y-98329800D02*
X150617000Y-98329800D01*
X154377000Y-91509800D02*
X150617000Y-91509800D01*
X150617000Y-98329800D02*
X150617000Y-97069800D01*
X150617000Y-91509800D02*
X150617000Y-92769800D01*
X160926000Y-69444000D02*
X162386000Y-69444000D01*
X160926000Y-72604000D02*
X163086000Y-72604000D01*
X160926000Y-72604000D02*
X160926000Y-71674000D01*
X160926000Y-69444000D02*
X160926000Y-70374000D01*
X160926000Y-92831800D02*
X162386000Y-92831800D01*
X160926000Y-95991800D02*
X163086000Y-95991800D01*
X160926000Y-95991800D02*
X160926000Y-95061800D01*
X160926000Y-92831800D02*
X160926000Y-93761800D01*
X160926000Y-65253000D02*
X162386000Y-65253000D01*
X160926000Y-68413000D02*
X163086000Y-68413000D01*
X160926000Y-68413000D02*
X160926000Y-67483000D01*
X160926000Y-65253000D02*
X160926000Y-66183000D01*
X160926000Y-88494000D02*
X162386000Y-88494000D01*
X160926000Y-91654000D02*
X163086000Y-91654000D01*
X160926000Y-91654000D02*
X160926000Y-90724000D01*
X160926000Y-88494000D02*
X160926000Y-89424000D01*
X207766000Y-71746000D02*
X202066000Y-71746000D01*
X207766000Y-67446000D02*
X202066000Y-67446000D01*
X207766000Y-71746000D02*
X207766000Y-67446000D01*
X204983936Y-81174000D02*
X206188064Y-81174000D01*
X204983936Y-79354000D02*
X206188064Y-79354000D01*
X194690578Y-61631500D02*
X194173422Y-61631500D01*
X194690578Y-63051500D02*
X194173422Y-63051500D01*
X200562000Y-93854000D02*
X205962000Y-93854000D01*
X200562000Y-97154000D02*
X205962000Y-97154000D01*
X200562000Y-93854000D02*
X200562000Y-97154000D01*
D16*
X150590000Y-78100000D02*
X148840000Y-78100000D01*
X150590000Y-83855000D02*
X156090000Y-83855000D01*
X150590000Y-77445000D02*
X156090000Y-77445000D01*
X150590000Y-83855000D02*
X150590000Y-83105000D01*
X156090000Y-83855000D02*
X156090000Y-83105000D01*
X156090000Y-77445000D02*
X156090000Y-78195000D01*
X150590000Y-77445000D02*
X150590000Y-78100000D01*
X172295000Y-71053800D02*
X174045000Y-71053800D01*
X172295000Y-65298800D02*
X166795000Y-65298800D01*
X172295000Y-71708800D02*
X166795000Y-71708800D01*
X172295000Y-65298800D02*
X172295000Y-66048800D01*
X166795000Y-65298800D02*
X166795000Y-66048800D01*
X166795000Y-71708800D02*
X166795000Y-70958800D01*
X172295000Y-71708800D02*
X172295000Y-71053800D01*
D12*
X152344936Y-70879800D02*
X155149064Y-70879800D01*
X152344936Y-68159800D02*
X155149064Y-68159800D01*
X149779422Y-86440000D02*
X150296578Y-86440000D01*
X149779422Y-85020000D02*
X150296578Y-85020000D01*
X153852578Y-85020000D02*
X153335422Y-85020000D01*
X153852578Y-86440000D02*
X153335422Y-86440000D01*
X157408578Y-85020000D02*
X156891422Y-85020000D01*
X157408578Y-86440000D02*
X156891422Y-86440000D01*
X152344936Y-102375800D02*
X155149064Y-102375800D01*
X152344936Y-99655800D02*
X155149064Y-99655800D01*
X162376000Y-63174578D02*
X162376000Y-62657422D01*
X160956000Y-63174578D02*
X160956000Y-62657422D01*
X167458000Y-63174578D02*
X167458000Y-62657422D01*
X166038000Y-63174578D02*
X166038000Y-62657422D01*
X168579000Y-62657422D02*
X168579000Y-63174578D01*
X169999000Y-62657422D02*
X169999000Y-63174578D01*
X171120000Y-62657422D02*
X171120000Y-63174578D01*
X172540000Y-62657422D02*
X172540000Y-63174578D01*
X173661000Y-62657422D02*
X173661000Y-63174578D01*
X175081000Y-62657422D02*
X175081000Y-63174578D01*
X162762000Y-75442578D02*
X162762000Y-74925422D01*
X161342000Y-75442578D02*
X161342000Y-74925422D01*
X163776600Y-74925422D02*
X163776600Y-75442578D01*
X165196600Y-74925422D02*
X165196600Y-75442578D01*
X168121200Y-73604000D02*
X168121200Y-77504000D01*
X166121200Y-73604000D02*
X166121200Y-77504000D01*
X168121200Y-73604000D02*
X166121200Y-73604000D01*
X170465800Y-75442578D02*
X170465800Y-74925422D01*
X169045800Y-75442578D02*
X169045800Y-74925422D01*
X171480400Y-74925422D02*
X171480400Y-75442578D01*
X172900400Y-74925422D02*
X172900400Y-75442578D01*
X173915000Y-74925422D02*
X173915000Y-75442578D01*
X175335000Y-74925422D02*
X175335000Y-75442578D01*
X151642578Y-74728000D02*
X151125422Y-74728000D01*
X151642578Y-76148000D02*
X151125422Y-76148000D01*
X155198578Y-74728000D02*
X154681422Y-74728000D01*
X155198578Y-76148000D02*
X154681422Y-76148000D01*
X162762000Y-86364578D02*
X162762000Y-85847422D01*
X161342000Y-86364578D02*
X161342000Y-85847422D01*
X163357000Y-64496000D02*
X163357000Y-61946000D01*
X165057000Y-64496000D02*
X165057000Y-61946000D01*
X163357000Y-64496000D02*
X165057000Y-64496000D01*
X163767400Y-87686000D02*
X163767400Y-85136000D01*
X165467400Y-87686000D02*
X165467400Y-85136000D01*
X163767400Y-87686000D02*
X165467400Y-87686000D01*
X167892800Y-86364578D02*
X167892800Y-85847422D01*
X166472800Y-86364578D02*
X166472800Y-85847422D01*
X169038200Y-85847422D02*
X169038200Y-86364578D01*
X170458200Y-85847422D02*
X170458200Y-86364578D01*
X171603600Y-85847422D02*
X171603600Y-86364578D01*
X173023600Y-85847422D02*
X173023600Y-86364578D01*
X174169000Y-85847422D02*
X174169000Y-86364578D01*
X175589000Y-85847422D02*
X175589000Y-86364578D01*
X162889000Y-98734378D02*
X162889000Y-98217222D01*
X161469000Y-98734378D02*
X161469000Y-98217222D01*
X164005200Y-98293422D02*
X164005200Y-98810578D01*
X165425200Y-98293422D02*
X165425200Y-98810578D01*
X168451400Y-96972000D02*
X168451400Y-100872000D01*
X166451400Y-96972000D02*
X166451400Y-100872000D01*
X168451400Y-96972000D02*
X166451400Y-96972000D01*
X170897600Y-98810578D02*
X170897600Y-98293422D01*
X169477600Y-98810578D02*
X169477600Y-98293422D01*
X172013800Y-98293422D02*
X172013800Y-98810578D01*
X173433800Y-98293422D02*
X173433800Y-98810578D01*
X174550000Y-98293422D02*
X174550000Y-98810578D01*
X175970000Y-98293422D02*
X175970000Y-98810578D01*
X184972000Y-88763800D02*
X184972000Y-90093800D01*
X183642000Y-88763800D02*
X184972000Y-88763800D01*
X182372000Y-88763800D02*
X182372000Y-91423800D01*
X182372000Y-91423800D02*
X177232000Y-91423800D01*
X182372000Y-88763800D02*
X177232000Y-88763800D01*
X177232000Y-88763800D02*
X177232000Y-91423800D01*
X179065422Y-87628800D02*
X179582578Y-87628800D01*
X179065422Y-86208800D02*
X179582578Y-86208800D01*
X183265578Y-86208800D02*
X182748422Y-86208800D01*
X183265578Y-87628800D02*
X182748422Y-87628800D01*
X179065422Y-76148000D02*
X179582578Y-76148000D01*
X179065422Y-74728000D02*
X179582578Y-74728000D01*
X182748422Y-76148000D02*
X183265578Y-76148000D01*
X182748422Y-74728000D02*
X183265578Y-74728000D01*
X184972000Y-70475800D02*
X184972000Y-71805800D01*
X183642000Y-70475800D02*
X184972000Y-70475800D01*
X182372000Y-70475800D02*
X182372000Y-73135800D01*
X182372000Y-73135800D02*
X177232000Y-73135800D01*
X182372000Y-70475800D02*
X177232000Y-70475800D01*
X177232000Y-70475800D02*
X177232000Y-73135800D01*
X194173422Y-60821250D02*
X194690578Y-60821250D01*
X194173422Y-59401250D02*
X194690578Y-59401250D01*
X194690578Y-63861750D02*
X194173422Y-63861750D01*
X194690578Y-65281750D02*
X194173422Y-65281750D01*
X194173422Y-67512000D02*
X194690578Y-67512000D01*
X194173422Y-66092000D02*
X194690578Y-66092000D01*
X207766000Y-72660000D02*
X203466000Y-72660000D01*
X207766000Y-74660000D02*
X207766000Y-72660000D01*
X203466000Y-74660000D02*
X207766000Y-74660000D01*
X198807000Y-76703422D02*
X198807000Y-77220578D01*
X200227000Y-76703422D02*
X200227000Y-77220578D01*
X188416000Y-74096378D02*
X188416000Y-73579222D01*
X186996000Y-74096378D02*
X186996000Y-73579222D01*
X188416000Y-81284578D02*
X188416000Y-80767422D01*
X186996000Y-81284578D02*
X186996000Y-80767422D01*
X186996000Y-88057222D02*
X186996000Y-88574378D01*
X188416000Y-88057222D02*
X188416000Y-88574378D01*
X194060578Y-82348000D02*
X193543422Y-82348000D01*
X194060578Y-83768000D02*
X193543422Y-83768000D01*
X197616578Y-82348000D02*
X197099422Y-82348000D01*
X197616578Y-83768000D02*
X197099422Y-83768000D01*
X193289422Y-95706000D02*
X193806578Y-95706000D01*
X193289422Y-94286000D02*
X193806578Y-94286000D01*
X196845422Y-95706000D02*
X197362578Y-95706000D01*
X196845422Y-94286000D02*
X197362578Y-94286000D01*
X200038250Y-86658750D02*
X200038250Y-87446250D01*
X199644500Y-87052500D02*
X200432000Y-87052500D01*
X200672000Y-91245563D02*
X201736437Y-92310000D01*
X200672000Y-86554437D02*
X201736437Y-85490000D01*
X200672000Y-86554437D02*
X200672000Y-87840000D01*
X200672000Y-91245563D02*
X200672000Y-89960000D01*
X201736437Y-92310000D02*
X207492000Y-92310000D01*
X201736437Y-85490000D02*
X207492000Y-85490000D01*
X207492000Y-85490000D02*
X207492000Y-87840000D01*
X207492000Y-92310000D02*
X207492000Y-89960000D01*
X200038250Y-99866750D02*
X200038250Y-100654250D01*
X199644500Y-100260500D02*
X200432000Y-100260500D01*
X200672000Y-104453563D02*
X201736437Y-105518000D01*
X200672000Y-99762437D02*
X201736437Y-98698000D01*
X200672000Y-99762437D02*
X200672000Y-101048000D01*
X200672000Y-104453563D02*
X200672000Y-103168000D01*
X201736437Y-105518000D02*
X207492000Y-105518000D01*
X201736437Y-98698000D02*
X207492000Y-98698000D01*
X207492000Y-98698000D02*
X207492000Y-101048000D01*
X207492000Y-105518000D02*
X207492000Y-103168000D01*
D16*
X197901000Y-86571000D02*
X197851000Y-86571000D01*
X197901000Y-90721000D02*
X197756000Y-90721000D01*
X192751000Y-90721000D02*
X192896000Y-90721000D01*
X192751000Y-86571000D02*
X192896000Y-86571000D01*
X197901000Y-86571000D02*
X197901000Y-90721000D01*
X192751000Y-86571000D02*
X192751000Y-90721000D01*
X197851000Y-86571000D02*
X197851000Y-85171000D01*
X172549000Y-95183800D02*
X174299000Y-95183800D01*
X172549000Y-89428800D02*
X167049000Y-89428800D01*
X172549000Y-95838800D02*
X167049000Y-95838800D01*
X172549000Y-89428800D02*
X172549000Y-90178800D01*
X167049000Y-89428800D02*
X167049000Y-90178800D01*
X167049000Y-95838800D02*
X167049000Y-95088800D01*
X172549000Y-95838800D02*
X172549000Y-95183800D01*
D12*
X142940000Y-105333800D02*
G75*
G03X142940000Y-105333800I-700000J0D01*
G01*
X197042000Y-105968800D02*
G75*
G03X197042000Y-105968800I-700000J0D01*
G01*
X142940000Y-57454800D02*
G75*
G03X142940000Y-57454800I-700000J0D01*
G01*
X193994000Y-72059800D02*
G75*
G03X193994000Y-72059800I-700000J0D01*
G01*
X208726000Y-55676800D02*
G75*
G03X208726000Y-55676800I-700000J0D01*
G01*
X196026000Y-72059800D02*
G75*
G03X196026000Y-72059800I-700000J0D01*
G01*
X199709000Y-105968800D02*
G75*
G03X199709000Y-105968800I-700000J0D01*
G01*
X160720000Y-78917800D02*
G75*
G03X160720000Y-78917800I-700000J0D01*
G01*
X160720000Y-82854800D02*
G75*
G03X160720000Y-82854800I-700000J0D01*
G01*
D16*
X209240380Y-83796095D02*
X208240380Y-83796095D01*
X208240380Y-83558000D01*
X208288000Y-83415142D01*
X208383238Y-83319904D01*
X208478476Y-83272285D01*
X208668952Y-83224666D01*
X208811809Y-83224666D01*
X209002285Y-83272285D01*
X209097523Y-83319904D01*
X209192761Y-83415142D01*
X209240380Y-83558000D01*
X209240380Y-83796095D01*
X208240380Y-82891333D02*
X208240380Y-82272285D01*
X208621333Y-82605619D01*
X208621333Y-82462761D01*
X208668952Y-82367523D01*
X208716571Y-82319904D01*
X208811809Y-82272285D01*
X209049904Y-82272285D01*
X209145142Y-82319904D01*
X209192761Y-82367523D01*
X209240380Y-82462761D01*
X209240380Y-82748476D01*
X209192761Y-82843714D01*
X209145142Y-82891333D01*
X190113380Y-87416647D02*
X190113380Y-87892838D01*
X189113380Y-87892838D01*
X189589571Y-87083314D02*
X189589571Y-86749980D01*
X190113380Y-86607123D02*
X190113380Y-87083314D01*
X189113380Y-87083314D01*
X189113380Y-86607123D01*
X190113380Y-86178552D02*
X189113380Y-86178552D01*
X189113380Y-85940457D01*
X189161000Y-85797600D01*
X189256238Y-85702361D01*
X189351476Y-85654742D01*
X189541952Y-85607123D01*
X189684809Y-85607123D01*
X189875285Y-85654742D01*
X189970523Y-85702361D01*
X190065761Y-85797600D01*
X190113380Y-85940457D01*
X190113380Y-86178552D01*
X190208619Y-85416647D02*
X190208619Y-84654742D01*
X189113380Y-84559504D02*
X190113380Y-84226171D01*
X189113380Y-83892838D01*
X190113380Y-83559504D02*
X189446714Y-83559504D01*
X189113380Y-83559504D02*
X189161000Y-83607123D01*
X189208619Y-83559504D01*
X189161000Y-83511885D01*
X189113380Y-83559504D01*
X189208619Y-83559504D01*
X189446714Y-83083314D02*
X190113380Y-83083314D01*
X189541952Y-83083314D02*
X189494333Y-83035695D01*
X189446714Y-82940457D01*
X189446714Y-82797600D01*
X189494333Y-82702361D01*
X189589571Y-82654742D01*
X190113380Y-82654742D01*
X189208619Y-82226171D02*
X189161000Y-82178552D01*
X189113380Y-82083314D01*
X189113380Y-81845219D01*
X189161000Y-81749980D01*
X189208619Y-81702361D01*
X189303857Y-81654742D01*
X189399095Y-81654742D01*
X189541952Y-81702361D01*
X190113380Y-82273790D01*
X190113380Y-81654742D01*
X190113380Y-79914647D02*
X190113380Y-80390838D01*
X189113380Y-80390838D01*
X189589571Y-79581314D02*
X189589571Y-79247980D01*
X190113380Y-79105123D02*
X190113380Y-79581314D01*
X189113380Y-79581314D01*
X189113380Y-79105123D01*
X190113380Y-78676552D02*
X189113380Y-78676552D01*
X189113380Y-78438457D01*
X189161000Y-78295600D01*
X189256238Y-78200361D01*
X189351476Y-78152742D01*
X189541952Y-78105123D01*
X189684809Y-78105123D01*
X189875285Y-78152742D01*
X189970523Y-78200361D01*
X190065761Y-78295600D01*
X190113380Y-78438457D01*
X190113380Y-78676552D01*
X190208619Y-77914647D02*
X190208619Y-77152742D01*
X189113380Y-77057504D02*
X190113380Y-76724171D01*
X189113380Y-76390838D01*
X190113380Y-76057504D02*
X189446714Y-76057504D01*
X189113380Y-76057504D02*
X189161000Y-76105123D01*
X189208619Y-76057504D01*
X189161000Y-76009885D01*
X189113380Y-76057504D01*
X189208619Y-76057504D01*
X189446714Y-75581314D02*
X190113380Y-75581314D01*
X189541952Y-75581314D02*
X189494333Y-75533695D01*
X189446714Y-75438457D01*
X189446714Y-75295600D01*
X189494333Y-75200361D01*
X189589571Y-75152742D01*
X190113380Y-75152742D01*
X190113380Y-74152742D02*
X190113380Y-74724171D01*
X190113380Y-74438457D02*
X189113380Y-74438457D01*
X189256238Y-74533695D01*
X189351476Y-74628933D01*
X189399095Y-74724171D01*
X187674476Y-55748380D02*
X187674476Y-54748380D01*
X188055428Y-54748380D01*
X188150666Y-54796000D01*
X188198285Y-54843619D01*
X188245904Y-54938857D01*
X188245904Y-55081714D01*
X188198285Y-55176952D01*
X188150666Y-55224571D01*
X188055428Y-55272190D01*
X187674476Y-55272190D01*
X188579238Y-54748380D02*
X188817333Y-55748380D01*
X189007809Y-55034095D01*
X189198285Y-55748380D01*
X189436380Y-54748380D01*
X190388761Y-55748380D02*
X190055428Y-55272190D01*
X189817333Y-55748380D02*
X189817333Y-54748380D01*
X190198285Y-54748380D01*
X190293523Y-54796000D01*
X190341142Y-54843619D01*
X190388761Y-54938857D01*
X190388761Y-55081714D01*
X190341142Y-55176952D01*
X190293523Y-55224571D01*
X190198285Y-55272190D01*
X189817333Y-55272190D01*
X190769714Y-54843619D02*
X190817333Y-54796000D01*
X190912571Y-54748380D01*
X191150666Y-54748380D01*
X191245904Y-54796000D01*
X191293523Y-54843619D01*
X191341142Y-54938857D01*
X191341142Y-55034095D01*
X191293523Y-55176952D01*
X190722095Y-55748380D01*
X191341142Y-55748380D01*
X192754476Y-55748380D02*
X192754476Y-54748380D01*
X193135428Y-54748380D01*
X193230666Y-54796000D01*
X193278285Y-54843619D01*
X193325904Y-54938857D01*
X193325904Y-55081714D01*
X193278285Y-55176952D01*
X193230666Y-55224571D01*
X193135428Y-55272190D01*
X192754476Y-55272190D01*
X193659238Y-54748380D02*
X193897333Y-55748380D01*
X194087809Y-55034095D01*
X194278285Y-55748380D01*
X194516380Y-54748380D01*
X195468761Y-55748380D02*
X195135428Y-55272190D01*
X194897333Y-55748380D02*
X194897333Y-54748380D01*
X195278285Y-54748380D01*
X195373523Y-54796000D01*
X195421142Y-54843619D01*
X195468761Y-54938857D01*
X195468761Y-55081714D01*
X195421142Y-55176952D01*
X195373523Y-55224571D01*
X195278285Y-55272190D01*
X194897333Y-55272190D01*
X196421142Y-55748380D02*
X195849714Y-55748380D01*
X196135428Y-55748380D02*
X196135428Y-54748380D01*
X196040190Y-54891238D01*
X195944952Y-54986476D01*
X195849714Y-55034095D01*
X199080380Y-98439266D02*
X199080380Y-98915457D01*
X198080380Y-98915457D01*
X198175619Y-98153552D02*
X198128000Y-98105933D01*
X198080380Y-98010695D01*
X198080380Y-97772600D01*
X198128000Y-97677361D01*
X198175619Y-97629742D01*
X198270857Y-97582123D01*
X198366095Y-97582123D01*
X198508952Y-97629742D01*
X199080380Y-98201171D01*
X199080380Y-97582123D01*
X197556380Y-73369466D02*
X197556380Y-73845657D01*
X196556380Y-73845657D01*
X197556380Y-72512323D02*
X197556380Y-73083752D01*
X197556380Y-72798038D02*
X196556380Y-72798038D01*
X196699238Y-72893276D01*
X196794476Y-72988514D01*
X196842095Y-73083752D01*
X147026380Y-80013133D02*
X147740666Y-80013133D01*
X147883523Y-80060752D01*
X147978761Y-80155990D01*
X148026380Y-80298847D01*
X148026380Y-80394085D01*
X147454952Y-79394085D02*
X147407333Y-79489323D01*
X147359714Y-79536942D01*
X147264476Y-79584561D01*
X147216857Y-79584561D01*
X147121619Y-79536942D01*
X147074000Y-79489323D01*
X147026380Y-79394085D01*
X147026380Y-79203609D01*
X147074000Y-79108371D01*
X147121619Y-79060752D01*
X147216857Y-79013133D01*
X147264476Y-79013133D01*
X147359714Y-79060752D01*
X147407333Y-79108371D01*
X147454952Y-79203609D01*
X147454952Y-79394085D01*
X147502571Y-79489323D01*
X147550190Y-79536942D01*
X147645428Y-79584561D01*
X147835904Y-79584561D01*
X147931142Y-79536942D01*
X147978761Y-79489323D01*
X148026380Y-79394085D01*
X148026380Y-79203609D01*
X147978761Y-79108371D01*
X147931142Y-79060752D01*
X147835904Y-79013133D01*
X147645428Y-79013133D01*
X147550190Y-79060752D01*
X147502571Y-79108371D01*
X147454952Y-79203609D01*
X147026380Y-68837133D02*
X147740666Y-68837133D01*
X147883523Y-68884752D01*
X147978761Y-68979990D01*
X148026380Y-69122847D01*
X148026380Y-69218085D01*
X147026380Y-67932371D02*
X147026380Y-68122847D01*
X147074000Y-68218085D01*
X147121619Y-68265704D01*
X147264476Y-68360942D01*
X147454952Y-68408561D01*
X147835904Y-68408561D01*
X147931142Y-68360942D01*
X147978761Y-68313323D01*
X148026380Y-68218085D01*
X148026380Y-68027609D01*
X147978761Y-67932371D01*
X147931142Y-67884752D01*
X147835904Y-67837133D01*
X147597809Y-67837133D01*
X147502571Y-67884752D01*
X147454952Y-67932371D01*
X147407333Y-68027609D01*
X147407333Y-68218085D01*
X147454952Y-68313323D01*
X147502571Y-68360942D01*
X147597809Y-68408561D01*
X147026380Y-102365133D02*
X147740666Y-102365133D01*
X147883523Y-102412752D01*
X147978761Y-102507990D01*
X148026380Y-102650847D01*
X148026380Y-102746085D01*
X147026380Y-101984180D02*
X147026380Y-101317514D01*
X148026380Y-101746085D01*
X147026380Y-91316133D02*
X147740666Y-91316133D01*
X147883523Y-91363752D01*
X147978761Y-91458990D01*
X148026380Y-91601847D01*
X148026380Y-91697085D01*
X148026380Y-90792323D02*
X148026380Y-90601847D01*
X147978761Y-90506609D01*
X147931142Y-90458990D01*
X147788285Y-90363752D01*
X147597809Y-90316133D01*
X147216857Y-90316133D01*
X147121619Y-90363752D01*
X147074000Y-90411371D01*
X147026380Y-90506609D01*
X147026380Y-90697085D01*
X147074000Y-90792323D01*
X147121619Y-90839942D01*
X147216857Y-90887561D01*
X147454952Y-90887561D01*
X147550190Y-90839942D01*
X147597809Y-90792323D01*
X147645428Y-90697085D01*
X147645428Y-90506609D01*
X147597809Y-90411371D01*
X147550190Y-90363752D01*
X147454952Y-90316133D01*
X181649761Y-58923180D02*
X181316428Y-58446990D01*
X181078333Y-58923180D02*
X181078333Y-57923180D01*
X181459285Y-57923180D01*
X181554523Y-57970800D01*
X181602142Y-58018419D01*
X181649761Y-58113657D01*
X181649761Y-58256514D01*
X181602142Y-58351752D01*
X181554523Y-58399371D01*
X181459285Y-58446990D01*
X181078333Y-58446990D01*
X181935476Y-57923180D02*
X182268809Y-58923180D01*
X182602142Y-57923180D01*
X183459285Y-58923180D02*
X182887857Y-58923180D01*
X183173571Y-58923180D02*
X183173571Y-57923180D01*
X183078333Y-58066038D01*
X182983095Y-58161276D01*
X182887857Y-58208895D01*
X184824761Y-58923180D02*
X184491428Y-58446990D01*
X184253333Y-58923180D02*
X184253333Y-57923180D01*
X184634285Y-57923180D01*
X184729523Y-57970800D01*
X184777142Y-58018419D01*
X184824761Y-58113657D01*
X184824761Y-58256514D01*
X184777142Y-58351752D01*
X184729523Y-58399371D01*
X184634285Y-58446990D01*
X184253333Y-58446990D01*
X185110476Y-57923180D02*
X185443809Y-58923180D01*
X185777142Y-57923180D01*
X186015238Y-57923180D02*
X186634285Y-57923180D01*
X186300952Y-58304133D01*
X186443809Y-58304133D01*
X186539047Y-58351752D01*
X186586666Y-58399371D01*
X186634285Y-58494609D01*
X186634285Y-58732704D01*
X186586666Y-58827942D01*
X186539047Y-58875561D01*
X186443809Y-58923180D01*
X186158095Y-58923180D01*
X186062857Y-58875561D01*
X186015238Y-58827942D01*
X178982761Y-103500180D02*
X178649428Y-103023990D01*
X178411333Y-103500180D02*
X178411333Y-102500180D01*
X178792285Y-102500180D01*
X178887523Y-102547800D01*
X178935142Y-102595419D01*
X178982761Y-102690657D01*
X178982761Y-102833514D01*
X178935142Y-102928752D01*
X178887523Y-102976371D01*
X178792285Y-103023990D01*
X178411333Y-103023990D01*
X179268476Y-102500180D02*
X179601809Y-103500180D01*
X179935142Y-102500180D01*
X180220857Y-102595419D02*
X180268476Y-102547800D01*
X180363714Y-102500180D01*
X180601809Y-102500180D01*
X180697047Y-102547800D01*
X180744666Y-102595419D01*
X180792285Y-102690657D01*
X180792285Y-102785895D01*
X180744666Y-102928752D01*
X180173238Y-103500180D01*
X180792285Y-103500180D01*
X184951761Y-103500180D02*
X184618428Y-103023990D01*
X184380333Y-103500180D02*
X184380333Y-102500180D01*
X184761285Y-102500180D01*
X184856523Y-102547800D01*
X184904142Y-102595419D01*
X184951761Y-102690657D01*
X184951761Y-102833514D01*
X184904142Y-102928752D01*
X184856523Y-102976371D01*
X184761285Y-103023990D01*
X184380333Y-103023990D01*
X185237476Y-102500180D02*
X185570809Y-103500180D01*
X185904142Y-102500180D01*
X186666047Y-102833514D02*
X186666047Y-103500180D01*
X186427952Y-102452561D02*
X186189857Y-103166847D01*
X186808904Y-103166847D01*
X208240380Y-77691523D02*
X208954666Y-77691523D01*
X209097523Y-77739142D01*
X209192761Y-77834380D01*
X209240380Y-77977238D01*
X209240380Y-78072476D01*
X209240380Y-76691523D02*
X209240380Y-77262952D01*
X209240380Y-76977238D02*
X208240380Y-76977238D01*
X208383238Y-77072476D01*
X208478476Y-77167714D01*
X208526095Y-77262952D01*
X208240380Y-76072476D02*
X208240380Y-75977238D01*
X208288000Y-75882000D01*
X208335619Y-75834380D01*
X208430857Y-75786761D01*
X208621333Y-75739142D01*
X208859428Y-75739142D01*
X209049904Y-75786761D01*
X209145142Y-75834380D01*
X209192761Y-75882000D01*
X209240380Y-75977238D01*
X209240380Y-76072476D01*
X209192761Y-76167714D01*
X209145142Y-76215333D01*
X209049904Y-76262952D01*
X208859428Y-76310571D01*
X208621333Y-76310571D01*
X208430857Y-76262952D01*
X208335619Y-76215333D01*
X208288000Y-76167714D01*
X208240380Y-76072476D01*
D17*
X185462171Y-78544257D02*
X185955657Y-78544257D01*
X186013714Y-78515228D01*
X186042742Y-78486200D01*
X186071771Y-78428142D01*
X186071771Y-78312028D01*
X186042742Y-78253971D01*
X186013714Y-78224942D01*
X185955657Y-78195914D01*
X185462171Y-78195914D01*
X185462171Y-77963685D02*
X185462171Y-77586314D01*
X185694400Y-77789514D01*
X185694400Y-77702428D01*
X185723428Y-77644371D01*
X185752457Y-77615342D01*
X185810514Y-77586314D01*
X185955657Y-77586314D01*
X186013714Y-77615342D01*
X186042742Y-77644371D01*
X186071771Y-77702428D01*
X186071771Y-77876600D01*
X186042742Y-77934657D01*
X186013714Y-77963685D01*
D16*
X198072476Y-55764180D02*
X198072476Y-56478466D01*
X198024857Y-56621323D01*
X197929619Y-56716561D01*
X197786761Y-56764180D01*
X197691523Y-56764180D01*
X198453428Y-55764180D02*
X199072476Y-55764180D01*
X198739142Y-56145133D01*
X198882000Y-56145133D01*
X198977238Y-56192752D01*
X199024857Y-56240371D01*
X199072476Y-56335609D01*
X199072476Y-56573704D01*
X199024857Y-56668942D01*
X198977238Y-56716561D01*
X198882000Y-56764180D01*
X198596285Y-56764180D01*
X198501047Y-56716561D01*
X198453428Y-56668942D01*
X199405809Y-55764180D02*
X200024857Y-55764180D01*
X199691523Y-56145133D01*
X199834380Y-56145133D01*
X199929619Y-56192752D01*
X199977238Y-56240371D01*
X200024857Y-56335609D01*
X200024857Y-56573704D01*
X199977238Y-56668942D01*
X199929619Y-56716561D01*
X199834380Y-56764180D01*
X199548666Y-56764180D01*
X199453428Y-56716561D01*
X199405809Y-56668942D01*
X149772619Y-66567038D02*
X149725000Y-66662276D01*
X149629761Y-66757514D01*
X149486904Y-66900371D01*
X149439285Y-66995609D01*
X149439285Y-67090847D01*
X149677380Y-67043228D02*
X149629761Y-67138466D01*
X149534523Y-67233704D01*
X149344047Y-67281323D01*
X149010714Y-67281323D01*
X148820238Y-67233704D01*
X148725000Y-67138466D01*
X148677380Y-67043228D01*
X148677380Y-66852752D01*
X148725000Y-66757514D01*
X148820238Y-66662276D01*
X149010714Y-66614657D01*
X149344047Y-66614657D01*
X149534523Y-66662276D01*
X149629761Y-66757514D01*
X149677380Y-66852752D01*
X149677380Y-67043228D01*
X148677380Y-65709895D02*
X148677380Y-66186085D01*
X149153571Y-66233704D01*
X149105952Y-66186085D01*
X149058333Y-66090847D01*
X149058333Y-65852752D01*
X149105952Y-65757514D01*
X149153571Y-65709895D01*
X149248809Y-65662276D01*
X149486904Y-65662276D01*
X149582142Y-65709895D01*
X149629761Y-65757514D01*
X149677380Y-65852752D01*
X149677380Y-66090847D01*
X149629761Y-66186085D01*
X149582142Y-66233704D01*
X156122619Y-90443038D02*
X156075000Y-90538276D01*
X155979761Y-90633514D01*
X155836904Y-90776371D01*
X155789285Y-90871609D01*
X155789285Y-90966847D01*
X156027380Y-90919228D02*
X155979761Y-91014466D01*
X155884523Y-91109704D01*
X155694047Y-91157323D01*
X155360714Y-91157323D01*
X155170238Y-91109704D01*
X155075000Y-91014466D01*
X155027380Y-90919228D01*
X155027380Y-90728752D01*
X155075000Y-90633514D01*
X155170238Y-90538276D01*
X155360714Y-90490657D01*
X155694047Y-90490657D01*
X155884523Y-90538276D01*
X155979761Y-90633514D01*
X156027380Y-90728752D01*
X156027380Y-90919228D01*
X155027380Y-89633514D02*
X155027380Y-89823990D01*
X155075000Y-89919228D01*
X155122619Y-89966847D01*
X155265476Y-90062085D01*
X155455952Y-90109704D01*
X155836904Y-90109704D01*
X155932142Y-90062085D01*
X155979761Y-90014466D01*
X156027380Y-89919228D01*
X156027380Y-89728752D01*
X155979761Y-89633514D01*
X155932142Y-89585895D01*
X155836904Y-89538276D01*
X155598809Y-89538276D01*
X155503571Y-89585895D01*
X155455952Y-89633514D01*
X155408333Y-89728752D01*
X155408333Y-89919228D01*
X155455952Y-90014466D01*
X155503571Y-90062085D01*
X155598809Y-90109704D01*
X160328619Y-72770238D02*
X160281000Y-72865476D01*
X160185761Y-72960714D01*
X160042904Y-73103571D01*
X159995285Y-73198809D01*
X159995285Y-73294047D01*
X160233380Y-73246428D02*
X160185761Y-73341666D01*
X160090523Y-73436904D01*
X159900047Y-73484523D01*
X159566714Y-73484523D01*
X159376238Y-73436904D01*
X159281000Y-73341666D01*
X159233380Y-73246428D01*
X159233380Y-73055952D01*
X159281000Y-72960714D01*
X159376238Y-72865476D01*
X159566714Y-72817857D01*
X159900047Y-72817857D01*
X160090523Y-72865476D01*
X160185761Y-72960714D01*
X160233380Y-73055952D01*
X160233380Y-73246428D01*
X160233380Y-71865476D02*
X160233380Y-72436904D01*
X160233380Y-72151190D02*
X159233380Y-72151190D01*
X159376238Y-72246428D01*
X159471476Y-72341666D01*
X159519095Y-72436904D01*
X160455619Y-96285038D02*
X160408000Y-96380276D01*
X160312761Y-96475514D01*
X160169904Y-96618371D01*
X160122285Y-96713609D01*
X160122285Y-96808847D01*
X160360380Y-96761228D02*
X160312761Y-96856466D01*
X160217523Y-96951704D01*
X160027047Y-96999323D01*
X159693714Y-96999323D01*
X159503238Y-96951704D01*
X159408000Y-96856466D01*
X159360380Y-96761228D01*
X159360380Y-96570752D01*
X159408000Y-96475514D01*
X159503238Y-96380276D01*
X159693714Y-96332657D01*
X160027047Y-96332657D01*
X160217523Y-96380276D01*
X160312761Y-96475514D01*
X160360380Y-96570752D01*
X160360380Y-96761228D01*
X159455619Y-95951704D02*
X159408000Y-95904085D01*
X159360380Y-95808847D01*
X159360380Y-95570752D01*
X159408000Y-95475514D01*
X159455619Y-95427895D01*
X159550857Y-95380276D01*
X159646095Y-95380276D01*
X159788952Y-95427895D01*
X160360380Y-95999323D01*
X160360380Y-95380276D01*
X160455619Y-65023238D02*
X160408000Y-65118476D01*
X160312761Y-65213714D01*
X160169904Y-65356571D01*
X160122285Y-65451809D01*
X160122285Y-65547047D01*
X160360380Y-65499428D02*
X160312761Y-65594666D01*
X160217523Y-65689904D01*
X160027047Y-65737523D01*
X159693714Y-65737523D01*
X159503238Y-65689904D01*
X159408000Y-65594666D01*
X159360380Y-65499428D01*
X159360380Y-65308952D01*
X159408000Y-65213714D01*
X159503238Y-65118476D01*
X159693714Y-65070857D01*
X160027047Y-65070857D01*
X160217523Y-65118476D01*
X160312761Y-65213714D01*
X160360380Y-65308952D01*
X160360380Y-65499428D01*
X159360380Y-64737523D02*
X159360380Y-64118476D01*
X159741333Y-64451809D01*
X159741333Y-64308952D01*
X159788952Y-64213714D01*
X159836571Y-64166095D01*
X159931809Y-64118476D01*
X160169904Y-64118476D01*
X160265142Y-64166095D01*
X160312761Y-64213714D01*
X160360380Y-64308952D01*
X160360380Y-64594666D01*
X160312761Y-64689904D01*
X160265142Y-64737523D01*
X160582619Y-88391238D02*
X160535000Y-88486476D01*
X160439761Y-88581714D01*
X160296904Y-88724571D01*
X160249285Y-88819809D01*
X160249285Y-88915047D01*
X160487380Y-88867428D02*
X160439761Y-88962666D01*
X160344523Y-89057904D01*
X160154047Y-89105523D01*
X159820714Y-89105523D01*
X159630238Y-89057904D01*
X159535000Y-88962666D01*
X159487380Y-88867428D01*
X159487380Y-88676952D01*
X159535000Y-88581714D01*
X159630238Y-88486476D01*
X159820714Y-88438857D01*
X160154047Y-88438857D01*
X160344523Y-88486476D01*
X160439761Y-88581714D01*
X160487380Y-88676952D01*
X160487380Y-88867428D01*
X159820714Y-87581714D02*
X160487380Y-87581714D01*
X159439761Y-87819809D02*
X160154047Y-88057904D01*
X160154047Y-87438857D01*
X209240380Y-69064095D02*
X208240380Y-69064095D01*
X208240380Y-68826000D01*
X208288000Y-68683142D01*
X208383238Y-68587904D01*
X208478476Y-68540285D01*
X208668952Y-68492666D01*
X208811809Y-68492666D01*
X209002285Y-68540285D01*
X209097523Y-68587904D01*
X209192761Y-68683142D01*
X209240380Y-68826000D01*
X209240380Y-69064095D01*
X208335619Y-68111714D02*
X208288000Y-68064095D01*
X208240380Y-67968857D01*
X208240380Y-67730761D01*
X208288000Y-67635523D01*
X208335619Y-67587904D01*
X208430857Y-67540285D01*
X208526095Y-67540285D01*
X208668952Y-67587904D01*
X209240380Y-68159333D01*
X209240380Y-67540285D01*
X209240380Y-80430666D02*
X208764190Y-80764000D01*
X209240380Y-81002095D02*
X208240380Y-81002095D01*
X208240380Y-80621142D01*
X208288000Y-80525904D01*
X208335619Y-80478285D01*
X208430857Y-80430666D01*
X208573714Y-80430666D01*
X208668952Y-80478285D01*
X208716571Y-80525904D01*
X208764190Y-80621142D01*
X208764190Y-81002095D01*
X209240380Y-79478285D02*
X209240380Y-80049714D01*
X209240380Y-79764000D02*
X208240380Y-79764000D01*
X208383238Y-79859238D01*
X208478476Y-79954476D01*
X208526095Y-80049714D01*
X196329142Y-62793880D02*
X195995809Y-62317690D01*
X195757714Y-62793880D02*
X195757714Y-61793880D01*
X196138666Y-61793880D01*
X196233904Y-61841500D01*
X196281523Y-61889119D01*
X196329142Y-61984357D01*
X196329142Y-62127214D01*
X196281523Y-62222452D01*
X196233904Y-62270071D01*
X196138666Y-62317690D01*
X195757714Y-62317690D01*
X197186285Y-62127214D02*
X197186285Y-62793880D01*
X196948190Y-61746261D02*
X196710095Y-62460547D01*
X197329142Y-62460547D01*
X198138666Y-61793880D02*
X197948190Y-61793880D01*
X197852952Y-61841500D01*
X197805333Y-61889119D01*
X197710095Y-62031976D01*
X197662476Y-62222452D01*
X197662476Y-62603404D01*
X197710095Y-62698642D01*
X197757714Y-62746261D01*
X197852952Y-62793880D01*
X198043428Y-62793880D01*
X198138666Y-62746261D01*
X198186285Y-62698642D01*
X198233904Y-62603404D01*
X198233904Y-62365309D01*
X198186285Y-62270071D01*
X198138666Y-62222452D01*
X198043428Y-62174833D01*
X197852952Y-62174833D01*
X197757714Y-62222452D01*
X197710095Y-62270071D01*
X197662476Y-62365309D01*
X208986380Y-95988095D02*
X207986380Y-95988095D01*
X207986380Y-95750000D01*
X208034000Y-95607142D01*
X208129238Y-95511904D01*
X208224476Y-95464285D01*
X208414952Y-95416666D01*
X208557809Y-95416666D01*
X208748285Y-95464285D01*
X208843523Y-95511904D01*
X208938761Y-95607142D01*
X208986380Y-95750000D01*
X208986380Y-95988095D01*
X208319714Y-94559523D02*
X208986380Y-94559523D01*
X207938761Y-94797619D02*
X208653047Y-95035714D01*
X208653047Y-94416666D01*
X156678380Y-77901704D02*
X157487904Y-77901704D01*
X157583142Y-77854085D01*
X157630761Y-77806466D01*
X157678380Y-77711228D01*
X157678380Y-77520752D01*
X157630761Y-77425514D01*
X157583142Y-77377895D01*
X157487904Y-77330276D01*
X156678380Y-77330276D01*
X156678380Y-76377895D02*
X156678380Y-76854085D01*
X157154571Y-76901704D01*
X157106952Y-76854085D01*
X157059333Y-76758847D01*
X157059333Y-76520752D01*
X157106952Y-76425514D01*
X157154571Y-76377895D01*
X157249809Y-76330276D01*
X157487904Y-76330276D01*
X157583142Y-76377895D01*
X157630761Y-76425514D01*
X157678380Y-76520752D01*
X157678380Y-76758847D01*
X157630761Y-76854085D01*
X157583142Y-76901704D01*
X174844380Y-71805504D02*
X175653904Y-71805504D01*
X175749142Y-71757885D01*
X175796761Y-71710266D01*
X175844380Y-71615028D01*
X175844380Y-71424552D01*
X175796761Y-71329314D01*
X175749142Y-71281695D01*
X175653904Y-71234076D01*
X174844380Y-71234076D01*
X174939619Y-70805504D02*
X174892000Y-70757885D01*
X174844380Y-70662647D01*
X174844380Y-70424552D01*
X174892000Y-70329314D01*
X174939619Y-70281695D01*
X175034857Y-70234076D01*
X175130095Y-70234076D01*
X175272952Y-70281695D01*
X175844380Y-70853123D01*
X175844380Y-70234076D01*
X158263380Y-70162657D02*
X157787190Y-70495990D01*
X158263380Y-70734085D02*
X157263380Y-70734085D01*
X157263380Y-70353133D01*
X157311000Y-70257895D01*
X157358619Y-70210276D01*
X157453857Y-70162657D01*
X157596714Y-70162657D01*
X157691952Y-70210276D01*
X157739571Y-70257895D01*
X157787190Y-70353133D01*
X157787190Y-70734085D01*
X157358619Y-69781704D02*
X157311000Y-69734085D01*
X157263380Y-69638847D01*
X157263380Y-69400752D01*
X157311000Y-69305514D01*
X157358619Y-69257895D01*
X157453857Y-69210276D01*
X157549095Y-69210276D01*
X157691952Y-69257895D01*
X158263380Y-69829323D01*
X158263380Y-69210276D01*
X157596714Y-68353133D02*
X158263380Y-68353133D01*
X157215761Y-68591228D02*
X157930047Y-68829323D01*
X157930047Y-68210276D01*
X149871333Y-87865142D02*
X149823714Y-87912761D01*
X149680857Y-87960380D01*
X149585619Y-87960380D01*
X149442761Y-87912761D01*
X149347523Y-87817523D01*
X149299904Y-87722285D01*
X149252285Y-87531809D01*
X149252285Y-87388952D01*
X149299904Y-87198476D01*
X149347523Y-87103238D01*
X149442761Y-87008000D01*
X149585619Y-86960380D01*
X149680857Y-86960380D01*
X149823714Y-87008000D01*
X149871333Y-87055619D01*
X150347523Y-87960380D02*
X150538000Y-87960380D01*
X150633238Y-87912761D01*
X150680857Y-87865142D01*
X150776095Y-87722285D01*
X150823714Y-87531809D01*
X150823714Y-87150857D01*
X150776095Y-87055619D01*
X150728476Y-87008000D01*
X150633238Y-86960380D01*
X150442761Y-86960380D01*
X150347523Y-87008000D01*
X150299904Y-87055619D01*
X150252285Y-87150857D01*
X150252285Y-87388952D01*
X150299904Y-87484190D01*
X150347523Y-87531809D01*
X150442761Y-87579428D01*
X150633238Y-87579428D01*
X150728476Y-87531809D01*
X150776095Y-87484190D01*
X150823714Y-87388952D01*
X152951142Y-87832380D02*
X152617809Y-87356190D01*
X152379714Y-87832380D02*
X152379714Y-86832380D01*
X152760666Y-86832380D01*
X152855904Y-86880000D01*
X152903523Y-86927619D01*
X152951142Y-87022857D01*
X152951142Y-87165714D01*
X152903523Y-87260952D01*
X152855904Y-87308571D01*
X152760666Y-87356190D01*
X152379714Y-87356190D01*
X153332095Y-86927619D02*
X153379714Y-86880000D01*
X153474952Y-86832380D01*
X153713047Y-86832380D01*
X153808285Y-86880000D01*
X153855904Y-86927619D01*
X153903523Y-87022857D01*
X153903523Y-87118095D01*
X153855904Y-87260952D01*
X153284476Y-87832380D01*
X153903523Y-87832380D01*
X154236857Y-86832380D02*
X154903523Y-86832380D01*
X154474952Y-87832380D01*
X156507142Y-87832380D02*
X156173809Y-87356190D01*
X155935714Y-87832380D02*
X155935714Y-86832380D01*
X156316666Y-86832380D01*
X156411904Y-86880000D01*
X156459523Y-86927619D01*
X156507142Y-87022857D01*
X156507142Y-87165714D01*
X156459523Y-87260952D01*
X156411904Y-87308571D01*
X156316666Y-87356190D01*
X155935714Y-87356190D01*
X156888095Y-86927619D02*
X156935714Y-86880000D01*
X157030952Y-86832380D01*
X157269047Y-86832380D01*
X157364285Y-86880000D01*
X157411904Y-86927619D01*
X157459523Y-87022857D01*
X157459523Y-87118095D01*
X157411904Y-87260952D01*
X156840476Y-87832380D01*
X157459523Y-87832380D01*
X157935714Y-87832380D02*
X158126190Y-87832380D01*
X158221428Y-87784761D01*
X158269047Y-87737142D01*
X158364285Y-87594285D01*
X158411904Y-87403809D01*
X158411904Y-87022857D01*
X158364285Y-86927619D01*
X158316666Y-86880000D01*
X158221428Y-86832380D01*
X158030952Y-86832380D01*
X157935714Y-86880000D01*
X157888095Y-86927619D01*
X157840476Y-87022857D01*
X157840476Y-87260952D01*
X157888095Y-87356190D01*
X157935714Y-87403809D01*
X158030952Y-87451428D01*
X158221428Y-87451428D01*
X158316666Y-87403809D01*
X158364285Y-87356190D01*
X158411904Y-87260952D01*
X158268380Y-101658457D02*
X157792190Y-101991790D01*
X158268380Y-102229885D02*
X157268380Y-102229885D01*
X157268380Y-101848933D01*
X157316000Y-101753695D01*
X157363619Y-101706076D01*
X157458857Y-101658457D01*
X157601714Y-101658457D01*
X157696952Y-101706076D01*
X157744571Y-101753695D01*
X157792190Y-101848933D01*
X157792190Y-102229885D01*
X157363619Y-101277504D02*
X157316000Y-101229885D01*
X157268380Y-101134647D01*
X157268380Y-100896552D01*
X157316000Y-100801314D01*
X157363619Y-100753695D01*
X157458857Y-100706076D01*
X157554095Y-100706076D01*
X157696952Y-100753695D01*
X158268380Y-101325123D01*
X158268380Y-100706076D01*
X157268380Y-99801314D02*
X157268380Y-100277504D01*
X157744571Y-100325123D01*
X157696952Y-100277504D01*
X157649333Y-100182266D01*
X157649333Y-99944171D01*
X157696952Y-99848933D01*
X157744571Y-99801314D01*
X157839809Y-99753695D01*
X158077904Y-99753695D01*
X158173142Y-99801314D01*
X158220761Y-99848933D01*
X158268380Y-99944171D01*
X158268380Y-100182266D01*
X158220761Y-100277504D01*
X158173142Y-100325123D01*
X162118380Y-60256857D02*
X161642190Y-60590190D01*
X162118380Y-60828285D02*
X161118380Y-60828285D01*
X161118380Y-60447333D01*
X161166000Y-60352095D01*
X161213619Y-60304476D01*
X161308857Y-60256857D01*
X161451714Y-60256857D01*
X161546952Y-60304476D01*
X161594571Y-60352095D01*
X161642190Y-60447333D01*
X161642190Y-60828285D01*
X162118380Y-59304476D02*
X162118380Y-59875904D01*
X162118380Y-59590190D02*
X161118380Y-59590190D01*
X161261238Y-59685428D01*
X161356476Y-59780666D01*
X161404095Y-59875904D01*
X161546952Y-58733047D02*
X161499333Y-58828285D01*
X161451714Y-58875904D01*
X161356476Y-58923523D01*
X161308857Y-58923523D01*
X161213619Y-58875904D01*
X161166000Y-58828285D01*
X161118380Y-58733047D01*
X161118380Y-58542571D01*
X161166000Y-58447333D01*
X161213619Y-58399714D01*
X161308857Y-58352095D01*
X161356476Y-58352095D01*
X161451714Y-58399714D01*
X161499333Y-58447333D01*
X161546952Y-58542571D01*
X161546952Y-58733047D01*
X161594571Y-58828285D01*
X161642190Y-58875904D01*
X161737428Y-58923523D01*
X161927904Y-58923523D01*
X162023142Y-58875904D01*
X162070761Y-58828285D01*
X162118380Y-58733047D01*
X162118380Y-58542571D01*
X162070761Y-58447333D01*
X162023142Y-58399714D01*
X161927904Y-58352095D01*
X161737428Y-58352095D01*
X161642190Y-58399714D01*
X161594571Y-58447333D01*
X161546952Y-58542571D01*
X167200380Y-60510857D02*
X166724190Y-60844190D01*
X167200380Y-61082285D02*
X166200380Y-61082285D01*
X166200380Y-60701333D01*
X166248000Y-60606095D01*
X166295619Y-60558476D01*
X166390857Y-60510857D01*
X166533714Y-60510857D01*
X166628952Y-60558476D01*
X166676571Y-60606095D01*
X166724190Y-60701333D01*
X166724190Y-61082285D01*
X166295619Y-60129904D02*
X166248000Y-60082285D01*
X166200380Y-59987047D01*
X166200380Y-59748952D01*
X166248000Y-59653714D01*
X166295619Y-59606095D01*
X166390857Y-59558476D01*
X166486095Y-59558476D01*
X166628952Y-59606095D01*
X167200380Y-60177523D01*
X167200380Y-59558476D01*
X166200380Y-58939428D02*
X166200380Y-58844190D01*
X166248000Y-58748952D01*
X166295619Y-58701333D01*
X166390857Y-58653714D01*
X166581333Y-58606095D01*
X166819428Y-58606095D01*
X167009904Y-58653714D01*
X167105142Y-58701333D01*
X167152761Y-58748952D01*
X167200380Y-58844190D01*
X167200380Y-58939428D01*
X167152761Y-59034666D01*
X167105142Y-59082285D01*
X167009904Y-59129904D01*
X166819428Y-59177523D01*
X166581333Y-59177523D01*
X166390857Y-59129904D01*
X166295619Y-59082285D01*
X166248000Y-59034666D01*
X166200380Y-58939428D01*
X169741380Y-60510857D02*
X169265190Y-60844190D01*
X169741380Y-61082285D02*
X168741380Y-61082285D01*
X168741380Y-60701333D01*
X168789000Y-60606095D01*
X168836619Y-60558476D01*
X168931857Y-60510857D01*
X169074714Y-60510857D01*
X169169952Y-60558476D01*
X169217571Y-60606095D01*
X169265190Y-60701333D01*
X169265190Y-61082285D01*
X169741380Y-59558476D02*
X169741380Y-60129904D01*
X169741380Y-59844190D02*
X168741380Y-59844190D01*
X168884238Y-59939428D01*
X168979476Y-60034666D01*
X169027095Y-60129904D01*
X168836619Y-59177523D02*
X168789000Y-59129904D01*
X168741380Y-59034666D01*
X168741380Y-58796571D01*
X168789000Y-58701333D01*
X168836619Y-58653714D01*
X168931857Y-58606095D01*
X169027095Y-58606095D01*
X169169952Y-58653714D01*
X169741380Y-59225142D01*
X169741380Y-58606095D01*
X172282380Y-60510857D02*
X171806190Y-60844190D01*
X172282380Y-61082285D02*
X171282380Y-61082285D01*
X171282380Y-60701333D01*
X171330000Y-60606095D01*
X171377619Y-60558476D01*
X171472857Y-60510857D01*
X171615714Y-60510857D01*
X171710952Y-60558476D01*
X171758571Y-60606095D01*
X171806190Y-60701333D01*
X171806190Y-61082285D01*
X172282380Y-59558476D02*
X172282380Y-60129904D01*
X172282380Y-59844190D02*
X171282380Y-59844190D01*
X171425238Y-59939428D01*
X171520476Y-60034666D01*
X171568095Y-60129904D01*
X171282380Y-58939428D02*
X171282380Y-58844190D01*
X171330000Y-58748952D01*
X171377619Y-58701333D01*
X171472857Y-58653714D01*
X171663333Y-58606095D01*
X171901428Y-58606095D01*
X172091904Y-58653714D01*
X172187142Y-58701333D01*
X172234761Y-58748952D01*
X172282380Y-58844190D01*
X172282380Y-58939428D01*
X172234761Y-59034666D01*
X172187142Y-59082285D01*
X172091904Y-59129904D01*
X171901428Y-59177523D01*
X171663333Y-59177523D01*
X171472857Y-59129904D01*
X171377619Y-59082285D01*
X171330000Y-59034666D01*
X171282380Y-58939428D01*
X174823380Y-60510857D02*
X174347190Y-60844190D01*
X174823380Y-61082285D02*
X173823380Y-61082285D01*
X173823380Y-60701333D01*
X173871000Y-60606095D01*
X173918619Y-60558476D01*
X174013857Y-60510857D01*
X174156714Y-60510857D01*
X174251952Y-60558476D01*
X174299571Y-60606095D01*
X174347190Y-60701333D01*
X174347190Y-61082285D01*
X174823380Y-59558476D02*
X174823380Y-60129904D01*
X174823380Y-59844190D02*
X173823380Y-59844190D01*
X173966238Y-59939428D01*
X174061476Y-60034666D01*
X174109095Y-60129904D01*
X173823380Y-58653714D02*
X173823380Y-59129904D01*
X174299571Y-59177523D01*
X174251952Y-59129904D01*
X174204333Y-59034666D01*
X174204333Y-58796571D01*
X174251952Y-58701333D01*
X174299571Y-58653714D01*
X174394809Y-58606095D01*
X174632904Y-58606095D01*
X174728142Y-58653714D01*
X174775761Y-58701333D01*
X174823380Y-58796571D01*
X174823380Y-59034666D01*
X174775761Y-59129904D01*
X174728142Y-59177523D01*
X162504380Y-79128857D02*
X162028190Y-79462190D01*
X162504380Y-79700285D02*
X161504380Y-79700285D01*
X161504380Y-79319333D01*
X161552000Y-79224095D01*
X161599619Y-79176476D01*
X161694857Y-79128857D01*
X161837714Y-79128857D01*
X161932952Y-79176476D01*
X161980571Y-79224095D01*
X162028190Y-79319333D01*
X162028190Y-79700285D01*
X161599619Y-78747904D02*
X161552000Y-78700285D01*
X161504380Y-78605047D01*
X161504380Y-78366952D01*
X161552000Y-78271714D01*
X161599619Y-78224095D01*
X161694857Y-78176476D01*
X161790095Y-78176476D01*
X161932952Y-78224095D01*
X162504380Y-78795523D01*
X162504380Y-78176476D01*
X161599619Y-77795523D02*
X161552000Y-77747904D01*
X161504380Y-77652666D01*
X161504380Y-77414571D01*
X161552000Y-77319333D01*
X161599619Y-77271714D01*
X161694857Y-77224095D01*
X161790095Y-77224095D01*
X161932952Y-77271714D01*
X162504380Y-77843142D01*
X162504380Y-77224095D01*
X164843742Y-78144666D02*
X164891361Y-78192285D01*
X164938980Y-78335142D01*
X164938980Y-78430380D01*
X164891361Y-78573238D01*
X164796123Y-78668476D01*
X164700885Y-78716095D01*
X164510409Y-78763714D01*
X164367552Y-78763714D01*
X164177076Y-78716095D01*
X164081838Y-78668476D01*
X163986600Y-78573238D01*
X163938980Y-78430380D01*
X163938980Y-78335142D01*
X163986600Y-78192285D01*
X164034219Y-78144666D01*
X163938980Y-77811333D02*
X163938980Y-77192285D01*
X164319933Y-77525619D01*
X164319933Y-77382761D01*
X164367552Y-77287523D01*
X164415171Y-77239904D01*
X164510409Y-77192285D01*
X164748504Y-77192285D01*
X164843742Y-77239904D01*
X164891361Y-77287523D01*
X164938980Y-77382761D01*
X164938980Y-77668476D01*
X164891361Y-77763714D01*
X164843742Y-77811333D01*
X167827580Y-79894095D02*
X166827580Y-79894095D01*
X166827580Y-79656000D01*
X166875200Y-79513142D01*
X166970438Y-79417904D01*
X167065676Y-79370285D01*
X167256152Y-79322666D01*
X167399009Y-79322666D01*
X167589485Y-79370285D01*
X167684723Y-79417904D01*
X167779961Y-79513142D01*
X167827580Y-79656000D01*
X167827580Y-79894095D01*
X166827580Y-78417904D02*
X166827580Y-78894095D01*
X167303771Y-78941714D01*
X167256152Y-78894095D01*
X167208533Y-78798857D01*
X167208533Y-78560761D01*
X167256152Y-78465523D01*
X167303771Y-78417904D01*
X167399009Y-78370285D01*
X167637104Y-78370285D01*
X167732342Y-78417904D01*
X167779961Y-78465523D01*
X167827580Y-78560761D01*
X167827580Y-78798857D01*
X167779961Y-78894095D01*
X167732342Y-78941714D01*
X170112942Y-79128857D02*
X170160561Y-79176476D01*
X170208180Y-79319333D01*
X170208180Y-79414571D01*
X170160561Y-79557428D01*
X170065323Y-79652666D01*
X169970085Y-79700285D01*
X169779609Y-79747904D01*
X169636752Y-79747904D01*
X169446276Y-79700285D01*
X169351038Y-79652666D01*
X169255800Y-79557428D01*
X169208180Y-79414571D01*
X169208180Y-79319333D01*
X169255800Y-79176476D01*
X169303419Y-79128857D01*
X170208180Y-78176476D02*
X170208180Y-78747904D01*
X170208180Y-78462190D02*
X169208180Y-78462190D01*
X169351038Y-78557428D01*
X169446276Y-78652666D01*
X169493895Y-78747904D01*
X169208180Y-77271714D02*
X169208180Y-77747904D01*
X169684371Y-77795523D01*
X169636752Y-77747904D01*
X169589133Y-77652666D01*
X169589133Y-77414571D01*
X169636752Y-77319333D01*
X169684371Y-77271714D01*
X169779609Y-77224095D01*
X170017704Y-77224095D01*
X170112942Y-77271714D01*
X170160561Y-77319333D01*
X170208180Y-77414571D01*
X170208180Y-77652666D01*
X170160561Y-77747904D01*
X170112942Y-77795523D01*
X172642780Y-79128857D02*
X172166590Y-79462190D01*
X172642780Y-79700285D02*
X171642780Y-79700285D01*
X171642780Y-79319333D01*
X171690400Y-79224095D01*
X171738019Y-79176476D01*
X171833257Y-79128857D01*
X171976114Y-79128857D01*
X172071352Y-79176476D01*
X172118971Y-79224095D01*
X172166590Y-79319333D01*
X172166590Y-79700285D01*
X172642780Y-78176476D02*
X172642780Y-78747904D01*
X172642780Y-78462190D02*
X171642780Y-78462190D01*
X171785638Y-78557428D01*
X171880876Y-78652666D01*
X171928495Y-78747904D01*
X171976114Y-77319333D02*
X172642780Y-77319333D01*
X171595161Y-77557428D02*
X172309447Y-77795523D01*
X172309447Y-77176476D01*
X174982142Y-79052657D02*
X175029761Y-79100276D01*
X175077380Y-79243133D01*
X175077380Y-79338371D01*
X175029761Y-79481228D01*
X174934523Y-79576466D01*
X174839285Y-79624085D01*
X174648809Y-79671704D01*
X174505952Y-79671704D01*
X174315476Y-79624085D01*
X174220238Y-79576466D01*
X174125000Y-79481228D01*
X174077380Y-79338371D01*
X174077380Y-79243133D01*
X174125000Y-79100276D01*
X174172619Y-79052657D01*
X175077380Y-78100276D02*
X175077380Y-78671704D01*
X175077380Y-78385990D02*
X174077380Y-78385990D01*
X174220238Y-78481228D01*
X174315476Y-78576466D01*
X174363095Y-78671704D01*
X174077380Y-77766942D02*
X174077380Y-77147895D01*
X174458333Y-77481228D01*
X174458333Y-77338371D01*
X174505952Y-77243133D01*
X174553571Y-77195514D01*
X174648809Y-77147895D01*
X174886904Y-77147895D01*
X174982142Y-77195514D01*
X175029761Y-77243133D01*
X175077380Y-77338371D01*
X175077380Y-77624085D01*
X175029761Y-77719323D01*
X174982142Y-77766942D01*
X150868142Y-74036180D02*
X150534809Y-73559990D01*
X150296714Y-74036180D02*
X150296714Y-73036180D01*
X150677666Y-73036180D01*
X150772904Y-73083800D01*
X150820523Y-73131419D01*
X150868142Y-73226657D01*
X150868142Y-73369514D01*
X150820523Y-73464752D01*
X150772904Y-73512371D01*
X150677666Y-73559990D01*
X150296714Y-73559990D01*
X151249095Y-73131419D02*
X151296714Y-73083800D01*
X151391952Y-73036180D01*
X151630047Y-73036180D01*
X151725285Y-73083800D01*
X151772904Y-73131419D01*
X151820523Y-73226657D01*
X151820523Y-73321895D01*
X151772904Y-73464752D01*
X151201476Y-74036180D01*
X151820523Y-74036180D01*
X152677666Y-73036180D02*
X152487190Y-73036180D01*
X152391952Y-73083800D01*
X152344333Y-73131419D01*
X152249095Y-73274276D01*
X152201476Y-73464752D01*
X152201476Y-73845704D01*
X152249095Y-73940942D01*
X152296714Y-73988561D01*
X152391952Y-74036180D01*
X152582428Y-74036180D01*
X152677666Y-73988561D01*
X152725285Y-73940942D01*
X152772904Y-73845704D01*
X152772904Y-73607609D01*
X152725285Y-73512371D01*
X152677666Y-73464752D01*
X152582428Y-73417133D01*
X152391952Y-73417133D01*
X152296714Y-73464752D01*
X152249095Y-73512371D01*
X152201476Y-73607609D01*
X154170142Y-74036180D02*
X153836809Y-73559990D01*
X153598714Y-74036180D02*
X153598714Y-73036180D01*
X153979666Y-73036180D01*
X154074904Y-73083800D01*
X154122523Y-73131419D01*
X154170142Y-73226657D01*
X154170142Y-73369514D01*
X154122523Y-73464752D01*
X154074904Y-73512371D01*
X153979666Y-73559990D01*
X153598714Y-73559990D01*
X154551095Y-73131419D02*
X154598714Y-73083800D01*
X154693952Y-73036180D01*
X154932047Y-73036180D01*
X155027285Y-73083800D01*
X155074904Y-73131419D01*
X155122523Y-73226657D01*
X155122523Y-73321895D01*
X155074904Y-73464752D01*
X154503476Y-74036180D01*
X155122523Y-74036180D01*
X155693952Y-73464752D02*
X155598714Y-73417133D01*
X155551095Y-73369514D01*
X155503476Y-73274276D01*
X155503476Y-73226657D01*
X155551095Y-73131419D01*
X155598714Y-73083800D01*
X155693952Y-73036180D01*
X155884428Y-73036180D01*
X155979666Y-73083800D01*
X156027285Y-73131419D01*
X156074904Y-73226657D01*
X156074904Y-73274276D01*
X156027285Y-73369514D01*
X155979666Y-73417133D01*
X155884428Y-73464752D01*
X155693952Y-73464752D01*
X155598714Y-73512371D01*
X155551095Y-73559990D01*
X155503476Y-73655228D01*
X155503476Y-73845704D01*
X155551095Y-73940942D01*
X155598714Y-73988561D01*
X155693952Y-74036180D01*
X155884428Y-74036180D01*
X155979666Y-73988561D01*
X156027285Y-73940942D01*
X156074904Y-73845704D01*
X156074904Y-73655228D01*
X156027285Y-73559990D01*
X155979666Y-73512371D01*
X155884428Y-73464752D01*
X162504380Y-83446857D02*
X162028190Y-83780190D01*
X162504380Y-84018285D02*
X161504380Y-84018285D01*
X161504380Y-83637333D01*
X161552000Y-83542095D01*
X161599619Y-83494476D01*
X161694857Y-83446857D01*
X161837714Y-83446857D01*
X161932952Y-83494476D01*
X161980571Y-83542095D01*
X162028190Y-83637333D01*
X162028190Y-84018285D01*
X162504380Y-82494476D02*
X162504380Y-83065904D01*
X162504380Y-82780190D02*
X161504380Y-82780190D01*
X161647238Y-82875428D01*
X161742476Y-82970666D01*
X161790095Y-83065904D01*
X162504380Y-82018285D02*
X162504380Y-81827809D01*
X162456761Y-81732571D01*
X162409142Y-81684952D01*
X162266285Y-81589714D01*
X162075809Y-81542095D01*
X161694857Y-81542095D01*
X161599619Y-81589714D01*
X161552000Y-81637333D01*
X161504380Y-81732571D01*
X161504380Y-81923047D01*
X161552000Y-82018285D01*
X161599619Y-82065904D01*
X161694857Y-82113523D01*
X161932952Y-82113523D01*
X162028190Y-82065904D01*
X162075809Y-82018285D01*
X162123428Y-81923047D01*
X162123428Y-81732571D01*
X162075809Y-81637333D01*
X162028190Y-81589714D01*
X161932952Y-81542095D01*
X164659380Y-60686095D02*
X163659380Y-60686095D01*
X163659380Y-60448000D01*
X163707000Y-60305142D01*
X163802238Y-60209904D01*
X163897476Y-60162285D01*
X164087952Y-60114666D01*
X164230809Y-60114666D01*
X164421285Y-60162285D01*
X164516523Y-60209904D01*
X164611761Y-60305142D01*
X164659380Y-60448000D01*
X164659380Y-60686095D01*
X163659380Y-59781333D02*
X163659380Y-59114666D01*
X164659380Y-59543238D01*
X165069780Y-84130095D02*
X164069780Y-84130095D01*
X164069780Y-83892000D01*
X164117400Y-83749142D01*
X164212638Y-83653904D01*
X164307876Y-83606285D01*
X164498352Y-83558666D01*
X164641209Y-83558666D01*
X164831685Y-83606285D01*
X164926923Y-83653904D01*
X165022161Y-83749142D01*
X165069780Y-83892000D01*
X165069780Y-84130095D01*
X164498352Y-82987238D02*
X164450733Y-83082476D01*
X164403114Y-83130095D01*
X164307876Y-83177714D01*
X164260257Y-83177714D01*
X164165019Y-83130095D01*
X164117400Y-83082476D01*
X164069780Y-82987238D01*
X164069780Y-82796761D01*
X164117400Y-82701523D01*
X164165019Y-82653904D01*
X164260257Y-82606285D01*
X164307876Y-82606285D01*
X164403114Y-82653904D01*
X164450733Y-82701523D01*
X164498352Y-82796761D01*
X164498352Y-82987238D01*
X164545971Y-83082476D01*
X164593590Y-83130095D01*
X164688828Y-83177714D01*
X164879304Y-83177714D01*
X164974542Y-83130095D01*
X165022161Y-83082476D01*
X165069780Y-82987238D01*
X165069780Y-82796761D01*
X165022161Y-82701523D01*
X164974542Y-82653904D01*
X164879304Y-82606285D01*
X164688828Y-82606285D01*
X164593590Y-82653904D01*
X164545971Y-82701523D01*
X164498352Y-82796761D01*
X167635180Y-83446857D02*
X167158990Y-83780190D01*
X167635180Y-84018285D02*
X166635180Y-84018285D01*
X166635180Y-83637333D01*
X166682800Y-83542095D01*
X166730419Y-83494476D01*
X166825657Y-83446857D01*
X166968514Y-83446857D01*
X167063752Y-83494476D01*
X167111371Y-83542095D01*
X167158990Y-83637333D01*
X167158990Y-84018285D01*
X166730419Y-83065904D02*
X166682800Y-83018285D01*
X166635180Y-82923047D01*
X166635180Y-82684952D01*
X166682800Y-82589714D01*
X166730419Y-82542095D01*
X166825657Y-82494476D01*
X166920895Y-82494476D01*
X167063752Y-82542095D01*
X167635180Y-83113523D01*
X167635180Y-82494476D01*
X167635180Y-81542095D02*
X167635180Y-82113523D01*
X167635180Y-81827809D02*
X166635180Y-81827809D01*
X166778038Y-81923047D01*
X166873276Y-82018285D01*
X166920895Y-82113523D01*
X170200580Y-83446857D02*
X169724390Y-83780190D01*
X170200580Y-84018285D02*
X169200580Y-84018285D01*
X169200580Y-83637333D01*
X169248200Y-83542095D01*
X169295819Y-83494476D01*
X169391057Y-83446857D01*
X169533914Y-83446857D01*
X169629152Y-83494476D01*
X169676771Y-83542095D01*
X169724390Y-83637333D01*
X169724390Y-84018285D01*
X170200580Y-82494476D02*
X170200580Y-83065904D01*
X170200580Y-82780190D02*
X169200580Y-82780190D01*
X169343438Y-82875428D01*
X169438676Y-82970666D01*
X169486295Y-83065904D01*
X169200580Y-82161142D02*
X169200580Y-81542095D01*
X169581533Y-81875428D01*
X169581533Y-81732571D01*
X169629152Y-81637333D01*
X169676771Y-81589714D01*
X169772009Y-81542095D01*
X170010104Y-81542095D01*
X170105342Y-81589714D01*
X170152961Y-81637333D01*
X170200580Y-81732571D01*
X170200580Y-82018285D01*
X170152961Y-82113523D01*
X170105342Y-82161142D01*
X172765980Y-83446857D02*
X172289790Y-83780190D01*
X172765980Y-84018285D02*
X171765980Y-84018285D01*
X171765980Y-83637333D01*
X171813600Y-83542095D01*
X171861219Y-83494476D01*
X171956457Y-83446857D01*
X172099314Y-83446857D01*
X172194552Y-83494476D01*
X172242171Y-83542095D01*
X172289790Y-83637333D01*
X172289790Y-84018285D01*
X172765980Y-82494476D02*
X172765980Y-83065904D01*
X172765980Y-82780190D02*
X171765980Y-82780190D01*
X171908838Y-82875428D01*
X172004076Y-82970666D01*
X172051695Y-83065904D01*
X172765980Y-81542095D02*
X172765980Y-82113523D01*
X172765980Y-81827809D02*
X171765980Y-81827809D01*
X171908838Y-81923047D01*
X172004076Y-82018285D01*
X172051695Y-82113523D01*
X175331380Y-83446857D02*
X174855190Y-83780190D01*
X175331380Y-84018285D02*
X174331380Y-84018285D01*
X174331380Y-83637333D01*
X174379000Y-83542095D01*
X174426619Y-83494476D01*
X174521857Y-83446857D01*
X174664714Y-83446857D01*
X174759952Y-83494476D01*
X174807571Y-83542095D01*
X174855190Y-83637333D01*
X174855190Y-84018285D01*
X175331380Y-82494476D02*
X175331380Y-83065904D01*
X175331380Y-82780190D02*
X174331380Y-82780190D01*
X174474238Y-82875428D01*
X174569476Y-82970666D01*
X174617095Y-83065904D01*
X174331380Y-82161142D02*
X174331380Y-81494476D01*
X175331380Y-81923047D01*
X162885380Y-102420657D02*
X162409190Y-102753990D01*
X162885380Y-102992085D02*
X161885380Y-102992085D01*
X161885380Y-102611133D01*
X161933000Y-102515895D01*
X161980619Y-102468276D01*
X162075857Y-102420657D01*
X162218714Y-102420657D01*
X162313952Y-102468276D01*
X162361571Y-102515895D01*
X162409190Y-102611133D01*
X162409190Y-102992085D01*
X161980619Y-102039704D02*
X161933000Y-101992085D01*
X161885380Y-101896847D01*
X161885380Y-101658752D01*
X161933000Y-101563514D01*
X161980619Y-101515895D01*
X162075857Y-101468276D01*
X162171095Y-101468276D01*
X162313952Y-101515895D01*
X162885380Y-102087323D01*
X162885380Y-101468276D01*
X161885380Y-101134942D02*
X161885380Y-100515895D01*
X162266333Y-100849228D01*
X162266333Y-100706371D01*
X162313952Y-100611133D01*
X162361571Y-100563514D01*
X162456809Y-100515895D01*
X162694904Y-100515895D01*
X162790142Y-100563514D01*
X162837761Y-100611133D01*
X162885380Y-100706371D01*
X162885380Y-100992085D01*
X162837761Y-101087323D01*
X162790142Y-101134942D01*
X165072342Y-101766666D02*
X165119961Y-101814285D01*
X165167580Y-101957142D01*
X165167580Y-102052380D01*
X165119961Y-102195238D01*
X165024723Y-102290476D01*
X164929485Y-102338095D01*
X164739009Y-102385714D01*
X164596152Y-102385714D01*
X164405676Y-102338095D01*
X164310438Y-102290476D01*
X164215200Y-102195238D01*
X164167580Y-102052380D01*
X164167580Y-101957142D01*
X164215200Y-101814285D01*
X164262819Y-101766666D01*
X164500914Y-100909523D02*
X165167580Y-100909523D01*
X164119961Y-101147619D02*
X164834247Y-101385714D01*
X164834247Y-100766666D01*
X167903780Y-103516095D02*
X166903780Y-103516095D01*
X166903780Y-103278000D01*
X166951400Y-103135142D01*
X167046638Y-103039904D01*
X167141876Y-102992285D01*
X167332352Y-102944666D01*
X167475209Y-102944666D01*
X167665685Y-102992285D01*
X167760923Y-103039904D01*
X167856161Y-103135142D01*
X167903780Y-103278000D01*
X167903780Y-103516095D01*
X166903780Y-102087523D02*
X166903780Y-102278000D01*
X166951400Y-102373238D01*
X166999019Y-102420857D01*
X167141876Y-102516095D01*
X167332352Y-102563714D01*
X167713304Y-102563714D01*
X167808542Y-102516095D01*
X167856161Y-102468476D01*
X167903780Y-102373238D01*
X167903780Y-102182761D01*
X167856161Y-102087523D01*
X167808542Y-102039904D01*
X167713304Y-101992285D01*
X167475209Y-101992285D01*
X167379971Y-102039904D01*
X167332352Y-102087523D01*
X167284733Y-102182761D01*
X167284733Y-102373238D01*
X167332352Y-102468476D01*
X167379971Y-102516095D01*
X167475209Y-102563714D01*
X170798742Y-102496857D02*
X170846361Y-102544476D01*
X170893980Y-102687333D01*
X170893980Y-102782571D01*
X170846361Y-102925428D01*
X170751123Y-103020666D01*
X170655885Y-103068285D01*
X170465409Y-103115904D01*
X170322552Y-103115904D01*
X170132076Y-103068285D01*
X170036838Y-103020666D01*
X169941600Y-102925428D01*
X169893980Y-102782571D01*
X169893980Y-102687333D01*
X169941600Y-102544476D01*
X169989219Y-102496857D01*
X170893980Y-101544476D02*
X170893980Y-102115904D01*
X170893980Y-101830190D02*
X169893980Y-101830190D01*
X170036838Y-101925428D01*
X170132076Y-102020666D01*
X170179695Y-102115904D01*
X169893980Y-100687333D02*
X169893980Y-100877809D01*
X169941600Y-100973047D01*
X169989219Y-101020666D01*
X170132076Y-101115904D01*
X170322552Y-101163523D01*
X170703504Y-101163523D01*
X170798742Y-101115904D01*
X170846361Y-101068285D01*
X170893980Y-100973047D01*
X170893980Y-100782571D01*
X170846361Y-100687333D01*
X170798742Y-100639714D01*
X170703504Y-100592095D01*
X170465409Y-100592095D01*
X170370171Y-100639714D01*
X170322552Y-100687333D01*
X170274933Y-100782571D01*
X170274933Y-100973047D01*
X170322552Y-101068285D01*
X170370171Y-101115904D01*
X170465409Y-101163523D01*
X173176180Y-102496857D02*
X172699990Y-102830190D01*
X173176180Y-103068285D02*
X172176180Y-103068285D01*
X172176180Y-102687333D01*
X172223800Y-102592095D01*
X172271419Y-102544476D01*
X172366657Y-102496857D01*
X172509514Y-102496857D01*
X172604752Y-102544476D01*
X172652371Y-102592095D01*
X172699990Y-102687333D01*
X172699990Y-103068285D01*
X173176180Y-101544476D02*
X173176180Y-102115904D01*
X173176180Y-101830190D02*
X172176180Y-101830190D01*
X172319038Y-101925428D01*
X172414276Y-102020666D01*
X172461895Y-102115904D01*
X172176180Y-100687333D02*
X172176180Y-100877809D01*
X172223800Y-100973047D01*
X172271419Y-101020666D01*
X172414276Y-101115904D01*
X172604752Y-101163523D01*
X172985704Y-101163523D01*
X173080942Y-101115904D01*
X173128561Y-101068285D01*
X173176180Y-100973047D01*
X173176180Y-100782571D01*
X173128561Y-100687333D01*
X173080942Y-100639714D01*
X172985704Y-100592095D01*
X172747609Y-100592095D01*
X172652371Y-100639714D01*
X172604752Y-100687333D01*
X172557133Y-100782571D01*
X172557133Y-100973047D01*
X172604752Y-101068285D01*
X172652371Y-101115904D01*
X172747609Y-101163523D01*
X175617142Y-102420657D02*
X175664761Y-102468276D01*
X175712380Y-102611133D01*
X175712380Y-102706371D01*
X175664761Y-102849228D01*
X175569523Y-102944466D01*
X175474285Y-102992085D01*
X175283809Y-103039704D01*
X175140952Y-103039704D01*
X174950476Y-102992085D01*
X174855238Y-102944466D01*
X174760000Y-102849228D01*
X174712380Y-102706371D01*
X174712380Y-102611133D01*
X174760000Y-102468276D01*
X174807619Y-102420657D01*
X175712380Y-101468276D02*
X175712380Y-102039704D01*
X175712380Y-101753990D02*
X174712380Y-101753990D01*
X174855238Y-101849228D01*
X174950476Y-101944466D01*
X174998095Y-102039704D01*
X175045714Y-100611133D02*
X175712380Y-100611133D01*
X174664761Y-100849228D02*
X175379047Y-101087323D01*
X175379047Y-100468276D01*
X185424380Y-90927133D02*
X186138666Y-90927133D01*
X186281523Y-90974752D01*
X186376761Y-91069990D01*
X186424380Y-91212847D01*
X186424380Y-91308085D01*
X186424380Y-90450942D02*
X185424380Y-90450942D01*
X185424380Y-90069990D01*
X185472000Y-89974752D01*
X185519619Y-89927133D01*
X185614857Y-89879514D01*
X185757714Y-89879514D01*
X185852952Y-89927133D01*
X185900571Y-89974752D01*
X185948190Y-90069990D01*
X185948190Y-90450942D01*
X185519619Y-89498561D02*
X185472000Y-89450942D01*
X185424380Y-89355704D01*
X185424380Y-89117609D01*
X185472000Y-89022371D01*
X185519619Y-88974752D01*
X185614857Y-88927133D01*
X185710095Y-88927133D01*
X185852952Y-88974752D01*
X186424380Y-89546180D01*
X186424380Y-88927133D01*
X177363380Y-87085466D02*
X176887190Y-87418800D01*
X177363380Y-87656895D02*
X176363380Y-87656895D01*
X176363380Y-87275942D01*
X176411000Y-87180704D01*
X176458619Y-87133085D01*
X176553857Y-87085466D01*
X176696714Y-87085466D01*
X176791952Y-87133085D01*
X176839571Y-87180704D01*
X176887190Y-87275942D01*
X176887190Y-87656895D01*
X177363380Y-86609276D02*
X177363380Y-86418800D01*
X177315761Y-86323561D01*
X177268142Y-86275942D01*
X177125285Y-86180704D01*
X176934809Y-86133085D01*
X176553857Y-86133085D01*
X176458619Y-86180704D01*
X176411000Y-86228323D01*
X176363380Y-86323561D01*
X176363380Y-86514038D01*
X176411000Y-86609276D01*
X176458619Y-86656895D01*
X176553857Y-86704514D01*
X176791952Y-86704514D01*
X176887190Y-86656895D01*
X176934809Y-86609276D01*
X176982428Y-86514038D01*
X176982428Y-86323561D01*
X176934809Y-86228323D01*
X176887190Y-86180704D01*
X176791952Y-86133085D01*
X185904142Y-87485457D02*
X185951761Y-87533076D01*
X185999380Y-87675933D01*
X185999380Y-87771171D01*
X185951761Y-87914028D01*
X185856523Y-88009266D01*
X185761285Y-88056885D01*
X185570809Y-88104504D01*
X185427952Y-88104504D01*
X185237476Y-88056885D01*
X185142238Y-88009266D01*
X185047000Y-87914028D01*
X184999380Y-87771171D01*
X184999380Y-87675933D01*
X185047000Y-87533076D01*
X185094619Y-87485457D01*
X185999380Y-86533076D02*
X185999380Y-87104504D01*
X185999380Y-86818790D02*
X184999380Y-86818790D01*
X185142238Y-86914028D01*
X185237476Y-87009266D01*
X185285095Y-87104504D01*
X185999380Y-85580695D02*
X185999380Y-86152123D01*
X185999380Y-85866409D02*
X184999380Y-85866409D01*
X185142238Y-85961647D01*
X185237476Y-86056885D01*
X185285095Y-86152123D01*
X177141142Y-76004657D02*
X177188761Y-76052276D01*
X177236380Y-76195133D01*
X177236380Y-76290371D01*
X177188761Y-76433228D01*
X177093523Y-76528466D01*
X176998285Y-76576085D01*
X176807809Y-76623704D01*
X176664952Y-76623704D01*
X176474476Y-76576085D01*
X176379238Y-76528466D01*
X176284000Y-76433228D01*
X176236380Y-76290371D01*
X176236380Y-76195133D01*
X176284000Y-76052276D01*
X176331619Y-76004657D01*
X177236380Y-75052276D02*
X177236380Y-75623704D01*
X177236380Y-75337990D02*
X176236380Y-75337990D01*
X176379238Y-75433228D01*
X176474476Y-75528466D01*
X176522095Y-75623704D01*
X176236380Y-74433228D02*
X176236380Y-74337990D01*
X176284000Y-74242752D01*
X176331619Y-74195133D01*
X176426857Y-74147514D01*
X176617333Y-74099895D01*
X176855428Y-74099895D01*
X177045904Y-74147514D01*
X177141142Y-74195133D01*
X177188761Y-74242752D01*
X177236380Y-74337990D01*
X177236380Y-74433228D01*
X177188761Y-74528466D01*
X177141142Y-74576085D01*
X177045904Y-74623704D01*
X176855428Y-74671323D01*
X176617333Y-74671323D01*
X176426857Y-74623704D01*
X176331619Y-74576085D01*
X176284000Y-74528466D01*
X176236380Y-74433228D01*
X185999380Y-75604666D02*
X185523190Y-75938000D01*
X185999380Y-76176095D02*
X184999380Y-76176095D01*
X184999380Y-75795142D01*
X185047000Y-75699904D01*
X185094619Y-75652285D01*
X185189857Y-75604666D01*
X185332714Y-75604666D01*
X185427952Y-75652285D01*
X185475571Y-75699904D01*
X185523190Y-75795142D01*
X185523190Y-76176095D01*
X185427952Y-75033238D02*
X185380333Y-75128476D01*
X185332714Y-75176095D01*
X185237476Y-75223714D01*
X185189857Y-75223714D01*
X185094619Y-75176095D01*
X185047000Y-75128476D01*
X184999380Y-75033238D01*
X184999380Y-74842761D01*
X185047000Y-74747523D01*
X185094619Y-74699904D01*
X185189857Y-74652285D01*
X185237476Y-74652285D01*
X185332714Y-74699904D01*
X185380333Y-74747523D01*
X185427952Y-74842761D01*
X185427952Y-75033238D01*
X185475571Y-75128476D01*
X185523190Y-75176095D01*
X185618428Y-75223714D01*
X185808904Y-75223714D01*
X185904142Y-75176095D01*
X185951761Y-75128476D01*
X185999380Y-75033238D01*
X185999380Y-74842761D01*
X185951761Y-74747523D01*
X185904142Y-74699904D01*
X185808904Y-74652285D01*
X185618428Y-74652285D01*
X185523190Y-74699904D01*
X185475571Y-74747523D01*
X185427952Y-74842761D01*
X185424380Y-72639133D02*
X186138666Y-72639133D01*
X186281523Y-72686752D01*
X186376761Y-72781990D01*
X186424380Y-72924847D01*
X186424380Y-73020085D01*
X186424380Y-72162942D02*
X185424380Y-72162942D01*
X185424380Y-71781990D01*
X185472000Y-71686752D01*
X185519619Y-71639133D01*
X185614857Y-71591514D01*
X185757714Y-71591514D01*
X185852952Y-71639133D01*
X185900571Y-71686752D01*
X185948190Y-71781990D01*
X185948190Y-72162942D01*
X186424380Y-70639133D02*
X186424380Y-71210561D01*
X186424380Y-70924847D02*
X185424380Y-70924847D01*
X185567238Y-71020085D01*
X185662476Y-71115323D01*
X185710095Y-71210561D01*
X197059333Y-60563630D02*
X196726000Y-60087440D01*
X196487904Y-60563630D02*
X196487904Y-59563630D01*
X196868857Y-59563630D01*
X196964095Y-59611250D01*
X197011714Y-59658869D01*
X197059333Y-59754107D01*
X197059333Y-59896964D01*
X197011714Y-59992202D01*
X196964095Y-60039821D01*
X196868857Y-60087440D01*
X196487904Y-60087440D01*
X197916476Y-59563630D02*
X197726000Y-59563630D01*
X197630761Y-59611250D01*
X197583142Y-59658869D01*
X197487904Y-59801726D01*
X197440285Y-59992202D01*
X197440285Y-60373154D01*
X197487904Y-60468392D01*
X197535523Y-60516011D01*
X197630761Y-60563630D01*
X197821238Y-60563630D01*
X197916476Y-60516011D01*
X197964095Y-60468392D01*
X198011714Y-60373154D01*
X198011714Y-60135059D01*
X197964095Y-60039821D01*
X197916476Y-59992202D01*
X197821238Y-59944583D01*
X197630761Y-59944583D01*
X197535523Y-59992202D01*
X197487904Y-60039821D01*
X197440285Y-60135059D01*
X197059333Y-65024130D02*
X196726000Y-64547940D01*
X196487904Y-65024130D02*
X196487904Y-64024130D01*
X196868857Y-64024130D01*
X196964095Y-64071750D01*
X197011714Y-64119369D01*
X197059333Y-64214607D01*
X197059333Y-64357464D01*
X197011714Y-64452702D01*
X196964095Y-64500321D01*
X196868857Y-64547940D01*
X196487904Y-64547940D01*
X197392666Y-64024130D02*
X198011714Y-64024130D01*
X197678380Y-64405083D01*
X197821238Y-64405083D01*
X197916476Y-64452702D01*
X197964095Y-64500321D01*
X198011714Y-64595559D01*
X198011714Y-64833654D01*
X197964095Y-64928892D01*
X197916476Y-64976511D01*
X197821238Y-65024130D01*
X197535523Y-65024130D01*
X197440285Y-64976511D01*
X197392666Y-64928892D01*
X197059333Y-67254380D02*
X196726000Y-66778190D01*
X196487904Y-67254380D02*
X196487904Y-66254380D01*
X196868857Y-66254380D01*
X196964095Y-66302000D01*
X197011714Y-66349619D01*
X197059333Y-66444857D01*
X197059333Y-66587714D01*
X197011714Y-66682952D01*
X196964095Y-66730571D01*
X196868857Y-66778190D01*
X196487904Y-66778190D01*
X197440285Y-66349619D02*
X197487904Y-66302000D01*
X197583142Y-66254380D01*
X197821238Y-66254380D01*
X197916476Y-66302000D01*
X197964095Y-66349619D01*
X198011714Y-66444857D01*
X198011714Y-66540095D01*
X197964095Y-66682952D01*
X197392666Y-67254380D01*
X198011714Y-67254380D01*
X209240380Y-74398095D02*
X208240380Y-74398095D01*
X208240380Y-74160000D01*
X208288000Y-74017142D01*
X208383238Y-73921904D01*
X208478476Y-73874285D01*
X208668952Y-73826666D01*
X208811809Y-73826666D01*
X209002285Y-73874285D01*
X209097523Y-73921904D01*
X209192761Y-74017142D01*
X209240380Y-74160000D01*
X209240380Y-74398095D01*
X209240380Y-72874285D02*
X209240380Y-73445714D01*
X209240380Y-73160000D02*
X208240380Y-73160000D01*
X208383238Y-73255238D01*
X208478476Y-73350476D01*
X208526095Y-73445714D01*
X199874142Y-79922666D02*
X199921761Y-79970285D01*
X199969380Y-80113142D01*
X199969380Y-80208380D01*
X199921761Y-80351238D01*
X199826523Y-80446476D01*
X199731285Y-80494095D01*
X199540809Y-80541714D01*
X199397952Y-80541714D01*
X199207476Y-80494095D01*
X199112238Y-80446476D01*
X199017000Y-80351238D01*
X198969380Y-80208380D01*
X198969380Y-80113142D01*
X199017000Y-79970285D01*
X199064619Y-79922666D01*
X199969380Y-78970285D02*
X199969380Y-79541714D01*
X199969380Y-79256000D02*
X198969380Y-79256000D01*
X199112238Y-79351238D01*
X199207476Y-79446476D01*
X199255095Y-79541714D01*
X188191380Y-71210466D02*
X187715190Y-71543800D01*
X188191380Y-71781895D02*
X187191380Y-71781895D01*
X187191380Y-71400942D01*
X187239000Y-71305704D01*
X187286619Y-71258085D01*
X187381857Y-71210466D01*
X187524714Y-71210466D01*
X187619952Y-71258085D01*
X187667571Y-71305704D01*
X187715190Y-71400942D01*
X187715190Y-71781895D01*
X187524714Y-70353323D02*
X188191380Y-70353323D01*
X187143761Y-70591419D02*
X187858047Y-70829514D01*
X187858047Y-70210466D01*
X186666142Y-81116466D02*
X186713761Y-81164085D01*
X186761380Y-81306942D01*
X186761380Y-81402180D01*
X186713761Y-81545038D01*
X186618523Y-81640276D01*
X186523285Y-81687895D01*
X186332809Y-81735514D01*
X186189952Y-81735514D01*
X185999476Y-81687895D01*
X185904238Y-81640276D01*
X185809000Y-81545038D01*
X185761380Y-81402180D01*
X185761380Y-81306942D01*
X185809000Y-81164085D01*
X185856619Y-81116466D01*
X185761380Y-80211704D02*
X185761380Y-80687895D01*
X186237571Y-80735514D01*
X186189952Y-80687895D01*
X186142333Y-80592657D01*
X186142333Y-80354561D01*
X186189952Y-80259323D01*
X186237571Y-80211704D01*
X186332809Y-80164085D01*
X186570904Y-80164085D01*
X186666142Y-80211704D01*
X186713761Y-80259323D01*
X186761380Y-80354561D01*
X186761380Y-80592657D01*
X186713761Y-80687895D01*
X186666142Y-80735514D01*
X188158380Y-91276466D02*
X187682190Y-91609800D01*
X188158380Y-91847895D02*
X187158380Y-91847895D01*
X187158380Y-91466942D01*
X187206000Y-91371704D01*
X187253619Y-91324085D01*
X187348857Y-91276466D01*
X187491714Y-91276466D01*
X187586952Y-91324085D01*
X187634571Y-91371704D01*
X187682190Y-91466942D01*
X187682190Y-91847895D01*
X187158380Y-90371704D02*
X187158380Y-90847895D01*
X187634571Y-90895514D01*
X187586952Y-90847895D01*
X187539333Y-90752657D01*
X187539333Y-90514561D01*
X187586952Y-90419323D01*
X187634571Y-90371704D01*
X187729809Y-90324085D01*
X187967904Y-90324085D01*
X188063142Y-90371704D01*
X188110761Y-90419323D01*
X188158380Y-90514561D01*
X188158380Y-90752657D01*
X188110761Y-90847895D01*
X188063142Y-90895514D01*
X193635333Y-81637142D02*
X193587714Y-81684761D01*
X193444857Y-81732380D01*
X193349619Y-81732380D01*
X193206761Y-81684761D01*
X193111523Y-81589523D01*
X193063904Y-81494285D01*
X193016285Y-81303809D01*
X193016285Y-81160952D01*
X193063904Y-80970476D01*
X193111523Y-80875238D01*
X193206761Y-80780000D01*
X193349619Y-80732380D01*
X193444857Y-80732380D01*
X193587714Y-80780000D01*
X193635333Y-80827619D01*
X194492476Y-80732380D02*
X194302000Y-80732380D01*
X194206761Y-80780000D01*
X194159142Y-80827619D01*
X194063904Y-80970476D01*
X194016285Y-81160952D01*
X194016285Y-81541904D01*
X194063904Y-81637142D01*
X194111523Y-81684761D01*
X194206761Y-81732380D01*
X194397238Y-81732380D01*
X194492476Y-81684761D01*
X194540095Y-81637142D01*
X194587714Y-81541904D01*
X194587714Y-81303809D01*
X194540095Y-81208571D01*
X194492476Y-81160952D01*
X194397238Y-81113333D01*
X194206761Y-81113333D01*
X194111523Y-81160952D01*
X194063904Y-81208571D01*
X194016285Y-81303809D01*
X197191333Y-81732380D02*
X196858000Y-81256190D01*
X196619904Y-81732380D02*
X196619904Y-80732380D01*
X197000857Y-80732380D01*
X197096095Y-80780000D01*
X197143714Y-80827619D01*
X197191333Y-80922857D01*
X197191333Y-81065714D01*
X197143714Y-81160952D01*
X197096095Y-81208571D01*
X197000857Y-81256190D01*
X196619904Y-81256190D01*
X197524666Y-80732380D02*
X198191333Y-80732380D01*
X197762761Y-81732380D01*
X192905142Y-93879942D02*
X192857523Y-93927561D01*
X192714666Y-93975180D01*
X192619428Y-93975180D01*
X192476571Y-93927561D01*
X192381333Y-93832323D01*
X192333714Y-93737085D01*
X192286095Y-93546609D01*
X192286095Y-93403752D01*
X192333714Y-93213276D01*
X192381333Y-93118038D01*
X192476571Y-93022800D01*
X192619428Y-92975180D01*
X192714666Y-92975180D01*
X192857523Y-93022800D01*
X192905142Y-93070419D01*
X193857523Y-93975180D02*
X193286095Y-93975180D01*
X193571809Y-93975180D02*
X193571809Y-92975180D01*
X193476571Y-93118038D01*
X193381333Y-93213276D01*
X193286095Y-93260895D01*
X194238476Y-93070419D02*
X194286095Y-93022800D01*
X194381333Y-92975180D01*
X194619428Y-92975180D01*
X194714666Y-93022800D01*
X194762285Y-93070419D01*
X194809904Y-93165657D01*
X194809904Y-93260895D01*
X194762285Y-93403752D01*
X194190857Y-93975180D01*
X194809904Y-93975180D01*
X196937333Y-94006942D02*
X196889714Y-94054561D01*
X196746857Y-94102180D01*
X196651619Y-94102180D01*
X196508761Y-94054561D01*
X196413523Y-93959323D01*
X196365904Y-93864085D01*
X196318285Y-93673609D01*
X196318285Y-93530752D01*
X196365904Y-93340276D01*
X196413523Y-93245038D01*
X196508761Y-93149800D01*
X196651619Y-93102180D01*
X196746857Y-93102180D01*
X196889714Y-93149800D01*
X196937333Y-93197419D01*
X197270666Y-93102180D02*
X197937333Y-93102180D01*
X197508761Y-94102180D01*
X208891142Y-86526666D02*
X208938761Y-86574285D01*
X208986380Y-86717142D01*
X208986380Y-86812380D01*
X208938761Y-86955238D01*
X208843523Y-87050476D01*
X208748285Y-87098095D01*
X208557809Y-87145714D01*
X208414952Y-87145714D01*
X208224476Y-87098095D01*
X208129238Y-87050476D01*
X208034000Y-86955238D01*
X207986380Y-86812380D01*
X207986380Y-86717142D01*
X208034000Y-86574285D01*
X208081619Y-86526666D01*
X208081619Y-86145714D02*
X208034000Y-86098095D01*
X207986380Y-86002857D01*
X207986380Y-85764761D01*
X208034000Y-85669523D01*
X208081619Y-85621904D01*
X208176857Y-85574285D01*
X208272095Y-85574285D01*
X208414952Y-85621904D01*
X208986380Y-86193333D01*
X208986380Y-85574285D01*
X208891142Y-99734666D02*
X208938761Y-99782285D01*
X208986380Y-99925142D01*
X208986380Y-100020380D01*
X208938761Y-100163238D01*
X208843523Y-100258476D01*
X208748285Y-100306095D01*
X208557809Y-100353714D01*
X208414952Y-100353714D01*
X208224476Y-100306095D01*
X208129238Y-100258476D01*
X208034000Y-100163238D01*
X207986380Y-100020380D01*
X207986380Y-99925142D01*
X208034000Y-99782285D01*
X208081619Y-99734666D01*
X208414952Y-99163238D02*
X208367333Y-99258476D01*
X208319714Y-99306095D01*
X208224476Y-99353714D01*
X208176857Y-99353714D01*
X208081619Y-99306095D01*
X208034000Y-99258476D01*
X207986380Y-99163238D01*
X207986380Y-98972761D01*
X208034000Y-98877523D01*
X208081619Y-98829904D01*
X208176857Y-98782285D01*
X208224476Y-98782285D01*
X208319714Y-98829904D01*
X208367333Y-98877523D01*
X208414952Y-98972761D01*
X208414952Y-99163238D01*
X208462571Y-99258476D01*
X208510190Y-99306095D01*
X208605428Y-99353714D01*
X208795904Y-99353714D01*
X208891142Y-99306095D01*
X208938761Y-99258476D01*
X208986380Y-99163238D01*
X208986380Y-98972761D01*
X208938761Y-98877523D01*
X208891142Y-98829904D01*
X208795904Y-98782285D01*
X208605428Y-98782285D01*
X208510190Y-98829904D01*
X208462571Y-98877523D01*
X208414952Y-98972761D01*
X198334380Y-86613904D02*
X199143904Y-86613904D01*
X199239142Y-86566285D01*
X199286761Y-86518666D01*
X199334380Y-86423428D01*
X199334380Y-86232952D01*
X199286761Y-86137714D01*
X199239142Y-86090095D01*
X199143904Y-86042476D01*
X198334380Y-86042476D01*
X198334380Y-85137714D02*
X198334380Y-85328190D01*
X198382000Y-85423428D01*
X198429619Y-85471047D01*
X198572476Y-85566285D01*
X198762952Y-85613904D01*
X199143904Y-85613904D01*
X199239142Y-85566285D01*
X199286761Y-85518666D01*
X199334380Y-85423428D01*
X199334380Y-85232952D01*
X199286761Y-85137714D01*
X199239142Y-85090095D01*
X199143904Y-85042476D01*
X198905809Y-85042476D01*
X198810571Y-85090095D01*
X198762952Y-85137714D01*
X198715333Y-85232952D01*
X198715333Y-85423428D01*
X198762952Y-85518666D01*
X198810571Y-85566285D01*
X198905809Y-85613904D01*
X174839380Y-95681504D02*
X175648904Y-95681504D01*
X175744142Y-95633885D01*
X175791761Y-95586266D01*
X175839380Y-95491028D01*
X175839380Y-95300552D01*
X175791761Y-95205314D01*
X175744142Y-95157695D01*
X175648904Y-95110076D01*
X174839380Y-95110076D01*
X175172714Y-94205314D02*
X175839380Y-94205314D01*
X174791761Y-94443409D02*
X175506047Y-94681504D01*
X175506047Y-94062457D01*
D18*
X140455952Y-105563609D02*
X140455952Y-105055609D01*
X140455952Y-105297514D02*
X140746238Y-105297514D01*
X140746238Y-105563609D02*
X140746238Y-105055609D01*
X141254238Y-105563609D02*
X140963952Y-105563609D01*
X141109095Y-105563609D02*
X141109095Y-105055609D01*
X141060714Y-105128180D01*
X141012333Y-105176561D01*
X140963952Y-105200752D01*
X195954952Y-104750609D02*
X195954952Y-104242609D01*
X195954952Y-104484514D02*
X196245238Y-104484514D01*
X196245238Y-104750609D02*
X196245238Y-104242609D01*
X196462952Y-104290990D02*
X196487142Y-104266800D01*
X196535523Y-104242609D01*
X196656476Y-104242609D01*
X196704857Y-104266800D01*
X196729047Y-104290990D01*
X196753238Y-104339371D01*
X196753238Y-104387752D01*
X196729047Y-104460323D01*
X196438761Y-104750609D01*
X196753238Y-104750609D01*
X143249952Y-57684609D02*
X143249952Y-57176609D01*
X143249952Y-57418514D02*
X143540238Y-57418514D01*
X143540238Y-57684609D02*
X143540238Y-57176609D01*
X143733761Y-57176609D02*
X144048238Y-57176609D01*
X143878904Y-57370133D01*
X143951476Y-57370133D01*
X143999857Y-57394323D01*
X144024047Y-57418514D01*
X144048238Y-57466895D01*
X144048238Y-57587847D01*
X144024047Y-57636228D01*
X143999857Y-57660419D01*
X143951476Y-57684609D01*
X143806333Y-57684609D01*
X143757952Y-57660419D01*
X143733761Y-57636228D01*
X192881552Y-73661209D02*
X192881552Y-73153209D01*
X192881552Y-73395114D02*
X193171838Y-73395114D01*
X193171838Y-73661209D02*
X193171838Y-73153209D01*
X193631457Y-73322542D02*
X193631457Y-73661209D01*
X193510504Y-73129019D02*
X193389552Y-73491876D01*
X193704028Y-73491876D01*
X206241952Y-55906609D02*
X206241952Y-55398609D01*
X206241952Y-55640514D02*
X206532238Y-55640514D01*
X206532238Y-55906609D02*
X206532238Y-55398609D01*
X207016047Y-55398609D02*
X206774142Y-55398609D01*
X206749952Y-55640514D01*
X206774142Y-55616323D01*
X206822523Y-55592133D01*
X206943476Y-55592133D01*
X206991857Y-55616323D01*
X207016047Y-55640514D01*
X207040238Y-55688895D01*
X207040238Y-55809847D01*
X207016047Y-55858228D01*
X206991857Y-55882419D01*
X206943476Y-55906609D01*
X206822523Y-55906609D01*
X206774142Y-55882419D01*
X206749952Y-55858228D01*
X194913552Y-73661209D02*
X194913552Y-73153209D01*
X194913552Y-73395114D02*
X195203838Y-73395114D01*
X195203838Y-73661209D02*
X195203838Y-73153209D01*
X195663457Y-73153209D02*
X195566695Y-73153209D01*
X195518314Y-73177400D01*
X195494123Y-73201590D01*
X195445742Y-73274161D01*
X195421552Y-73370923D01*
X195421552Y-73564447D01*
X195445742Y-73612828D01*
X195469933Y-73637019D01*
X195518314Y-73661209D01*
X195615076Y-73661209D01*
X195663457Y-73637019D01*
X195687647Y-73612828D01*
X195711838Y-73564447D01*
X195711838Y-73443495D01*
X195687647Y-73395114D01*
X195663457Y-73370923D01*
X195615076Y-73346733D01*
X195518314Y-73346733D01*
X195469933Y-73370923D01*
X195445742Y-73395114D01*
X195421552Y-73443495D01*
X198621952Y-104750609D02*
X198621952Y-104242609D01*
X198621952Y-104484514D02*
X198912238Y-104484514D01*
X198912238Y-104750609D02*
X198912238Y-104242609D01*
X199105761Y-104242609D02*
X199444428Y-104242609D01*
X199226714Y-104750609D01*
X159632952Y-78004609D02*
X159632952Y-77496609D01*
X159632952Y-77738514D02*
X159923238Y-77738514D01*
X159923238Y-78004609D02*
X159923238Y-77496609D01*
X160237714Y-77714323D02*
X160189333Y-77690133D01*
X160165142Y-77665942D01*
X160140952Y-77617561D01*
X160140952Y-77593371D01*
X160165142Y-77544990D01*
X160189333Y-77520800D01*
X160237714Y-77496609D01*
X160334476Y-77496609D01*
X160382857Y-77520800D01*
X160407047Y-77544990D01*
X160431238Y-77593371D01*
X160431238Y-77617561D01*
X160407047Y-77665942D01*
X160382857Y-77690133D01*
X160334476Y-77714323D01*
X160237714Y-77714323D01*
X160189333Y-77738514D01*
X160165142Y-77762704D01*
X160140952Y-77811085D01*
X160140952Y-77907847D01*
X160165142Y-77956228D01*
X160189333Y-77980419D01*
X160237714Y-78004609D01*
X160334476Y-78004609D01*
X160382857Y-77980419D01*
X160407047Y-77956228D01*
X160431238Y-77907847D01*
X160431238Y-77811085D01*
X160407047Y-77762704D01*
X160382857Y-77738514D01*
X160334476Y-77714323D01*
X159632952Y-84227609D02*
X159632952Y-83719609D01*
X159632952Y-83961514D02*
X159923238Y-83961514D01*
X159923238Y-84227609D02*
X159923238Y-83719609D01*
X160189333Y-84227609D02*
X160286095Y-84227609D01*
X160334476Y-84203419D01*
X160358666Y-84179228D01*
X160407047Y-84106657D01*
X160431238Y-84009895D01*
X160431238Y-83816371D01*
X160407047Y-83767990D01*
X160382857Y-83743800D01*
X160334476Y-83719609D01*
X160237714Y-83719609D01*
X160189333Y-83743800D01*
X160165142Y-83767990D01*
X160140952Y-83816371D01*
X160140952Y-83937323D01*
X160165142Y-83985704D01*
X160189333Y-84009895D01*
X160237714Y-84034085D01*
X160334476Y-84034085D01*
X160382857Y-84009895D01*
X160407047Y-83985704D01*
X160431238Y-83937323D01*
M02*
